<svg xmlns="http://www.w3.org/2000/svg" width="133" height="133" viewBox="0 0 133 133">
  <g id="Grupo_134917" data-name="Grupo 134917" transform="translate(13418.5 -2842.977)">
    <g id="Grupo_134814" data-name="Grupo 134814" transform="translate(-260.5 -973)">
      <g id="Elipse_18471" data-name="Elipse 18471" transform="translate(-13158 3815.977)" fill="#fff" stroke="#c6412a" stroke-width="4">
        <circle cx="66.5" cy="66.5" r="66.5" stroke="none"/>
        <circle cx="66.5" cy="66.5" r="64.5" fill="none"/>
      </g>
      <g id="diagrama-de-flujo_1_" data-name="diagrama-de-flujo (1)" transform="translate(-13151.274 3819.018)">
        <g id="Grupo_134750" data-name="Grupo 134750" transform="translate(21.275 23.135)">
          <g id="Grupo_134748" data-name="Grupo 134748" transform="translate(5.687 1.61)">
            <path id="Trazado_194112" data-name="Trazado 194112" d="M53.436,149.023H30.084a.858.858,0,0,1-.858-.858v-4.131a.858.858,0,0,1,.858-.858H53.436a.858.858,0,0,1,.858.858v4.131A.858.858,0,0,1,53.436,149.023Z" transform="translate(-29.225 -67.558)" fill="#6677d6"/>
            <path id="Trazado_194113" data-name="Trazado 194113" d="M52.578,49.481H30.942a1.717,1.717,0,0,1-1.717-1.717V39.186a1.717,1.717,0,0,1,1.717-1.717H52.578a1.717,1.717,0,0,1,1.717,1.717v8.578A1.717,1.717,0,0,1,52.578,49.481Z" transform="translate(-29.225 -37.469)" fill="#fff56f"/>
            <path id="Trazado_194114" data-name="Trazado 194114" d="M113.768,49.481h-21.6a.858.858,0,0,1-.789-1.2l4.414-10.3a.858.858,0,0,1,.789-.52h21.6a.858.858,0,0,1,.789,1.2l-4.414,10.3a.858.858,0,0,1-.789.52Z" transform="translate(-46.898 -37.469)" fill="#c6412a"/>
            <path id="Trazado_194115" data-name="Trazado 194115" d="M53.749,94.973,43,105.719a1.717,1.717,0,0,1-2.428,0L29.828,94.973a1.717,1.717,0,0,1,0-2.428L40.574,81.8A1.717,1.717,0,0,1,43,81.8L53.749,92.545A1.717,1.717,0,0,1,53.749,94.973Z" transform="translate(-29.254 -49.944)" fill="#6677d6"/>
            <path id="Trazado_194116" data-name="Trazado 194116" d="M114.422,106.222H92.93a1.717,1.717,0,0,1-1.717-1.717V83.012A1.717,1.717,0,0,1,92.93,81.3h21.493a1.717,1.717,0,0,1,1.717,1.717V104.5a1.717,1.717,0,0,1-1.717,1.717Z" transform="translate(-46.87 -49.944)" fill="#c6412a"/>
            <path id="Trazado_194118" data-name="Trazado 194118" d="M35.45,149.023H30.084a.858.858,0,0,1-.858-.858v-4.131a.858.858,0,0,1,.858-.858H35.45a.858.858,0,0,0-.858.858v4.131A.858.858,0,0,0,35.45,149.023Z" transform="translate(-29.225 -67.558)" fill="#6677d6"/>
            <path id="Trazado_194119" data-name="Trazado 194119" d="M36.308,49.481H30.943a1.716,1.716,0,0,1-1.717-1.717V39.187a1.716,1.716,0,0,1,1.717-1.717h5.365a1.716,1.716,0,0,0-1.717,1.717v8.578A1.716,1.716,0,0,0,36.308,49.481Z" transform="translate(-29.225 -37.469)" fill="#fff56f"/>
            <path id="Trazado_194120" data-name="Trazado 194120" d="M101.951,37.47a.859.859,0,0,0-.79.519L96.747,48.284a.86.86,0,0,0,.79,1.2H92.172a.86.86,0,0,1-.79-1.2L95.8,37.989a.859.859,0,0,1,.79-.519Z" transform="translate(-46.898 -37.469)" fill="#c6412a"/>
            <path id="Trazado_194121" data-name="Trazado 194121" d="M35.192,94.973l9.28,9.277L43,105.718a1.714,1.714,0,0,1-2.427,0L29.827,94.973a1.72,1.72,0,0,1,0-2.429L40.575,81.8A1.714,1.714,0,0,1,43,81.8l1.47,1.468-9.28,9.277A1.72,1.72,0,0,0,35.192,94.973Z" transform="translate(-29.254 -49.944)" fill="#6677d6"/>
            <path id="Trazado_194122" data-name="Trazado 194122" d="M98.294,106.221H92.929a1.716,1.716,0,0,1-1.717-1.717V83.014A1.716,1.716,0,0,1,92.929,81.3h5.365a1.716,1.716,0,0,0-1.717,1.717V104.5A1.716,1.716,0,0,0,98.294,106.221Z" transform="translate(-46.87 -49.945)" fill="#c6412a"/>
          </g>
          <g id="Grupo_134749" data-name="Grupo 134749">
            <path id="Trazado_194124" data-name="Trazado 194124" d="M52.8,140.925H29.443a2.471,2.471,0,0,0-2.468,2.468v4.131a2.471,2.471,0,0,0,2.468,2.468H52.8a2.471,2.471,0,0,0,2.468-2.468v-4.131a2.47,2.47,0,0,0-2.468-2.468Zm-.751,5.848H30.194v-2.629h21.85v2.629Z" transform="translate(-22.897 -65.308)"/>
            <path id="Trazado_194125" data-name="Trazado 194125" d="M26.976,38.546v8.578A3.33,3.33,0,0,0,30.3,50.451H39.82a1.61,1.61,0,1,0,0-3.219H30.3a.108.108,0,0,1-.107-.107V38.546a.108.108,0,0,1,.107-.107H51.937a.108.108,0,0,1,.107.107v8.578a.108.108,0,0,1-.107.107H47.331a1.61,1.61,0,0,0,0,3.219h4.606a3.33,3.33,0,0,0,3.326-3.326V38.546a3.33,3.33,0,0,0-3.326-3.326H30.3a3.33,3.33,0,0,0-3.326,3.326Z" transform="translate(-22.898 -35.219)"/>
            <path id="Trazado_194126" data-name="Trazado 194126" d="M119.6,36.328a2.462,2.462,0,0,0-2.061-1.11h-21.6a2.465,2.465,0,0,0-2.268,1.5l-4.414,10.3a2.468,2.468,0,0,0,2.268,3.441h21.6a2.464,2.464,0,0,0,2.268-1.5l4.415-10.3a2.462,2.462,0,0,0-.208-2.331Zm-6.97,10.9H92.671l3.77-8.793H116.4Z" transform="translate(-40.571 -35.219)"/>
            <path id="Trazado_194127" data-name="Trazado 194127" d="M54.247,90.767,43.5,80.021a3.331,3.331,0,0,0-4.7,0L28.05,90.767a3.331,3.331,0,0,0,0,4.7L38.8,106.217a3.331,3.331,0,0,0,4.7,0L54.247,95.471A3.331,3.331,0,0,0,54.247,90.767Zm-2.277,2.428L41.225,103.941a.108.108,0,0,1-.152,0L30.327,93.195a.107.107,0,0,1,0-.152L41.072,82.3a.108.108,0,0,1,.152,0L51.971,93.043A.107.107,0,0,1,51.971,93.195Z" transform="translate(-22.927 -47.695)"/>
            <path id="Trazado_194129" data-name="Trazado 194129" d="M44.824,59.581a1.609,1.609,0,0,0-1.61,1.61v5.666l-.72-.483A1.61,1.61,0,0,0,40.7,69.047l2.772,1.858a2.417,2.417,0,0,0,2.7,0l2.772-1.858a1.61,1.61,0,1,0-1.792-2.674l-.72.483V61.19a1.61,1.61,0,0,0-1.61-1.61Z" transform="translate(-26.602 -42.153)"/>
            <path id="Trazado_194130" data-name="Trazado 194130" d="M44.824,121.451a1.609,1.609,0,0,0-1.61,1.61v5.666l-.72-.483a1.61,1.61,0,0,0-1.792,2.674l2.772,1.858a2.417,2.417,0,0,0,2.7,0l2.772-1.858a1.61,1.61,0,0,0-1.792-2.674l-.72.483V123.06a1.61,1.61,0,0,0-1.61-1.61Z" transform="translate(-26.602 -59.765)"/>
            <path id="Trazado_194131" data-name="Trazado 194131" d="M78.956,92.411A1.609,1.609,0,1,0,76.282,94.2l.482.72H71.1a1.61,1.61,0,0,0,0,3.219h5.666l-.482.72a1.609,1.609,0,1,0,2.674,1.792l1.858-2.772a2.416,2.416,0,0,0,0-2.7Z" transform="translate(-34.999 -51.295)"/>
            <path id="Trazado_194132" data-name="Trazado 194132" d="M79.714,42.331H74.048l.482-.72a1.61,1.61,0,0,0-2.674-1.792L70,42.591a2.416,2.416,0,0,0,0,2.7l1.858,2.772a1.61,1.61,0,0,0,2.674-1.792l-.482-.72h5.666a1.61,1.61,0,0,0,0-3.219Z" transform="translate(-35.027 -36.325)"/>
            <path id="Trazado_194133" data-name="Trazado 194133" d="M105.559,71.306a1.609,1.609,0,0,0,1.61-1.61V64.031l.72.483a1.609,1.609,0,1,0,1.792-2.674l-2.772-1.858a2.416,2.416,0,0,0-2.7,0l-2.772,1.858a1.609,1.609,0,0,0,1.792,2.674l.72-.482V69.7a1.61,1.61,0,0,0,1.61,1.61Z" transform="translate(-43.89 -42.15)"/>
            <path id="Trazado_194134" data-name="Trazado 194134" d="M113.781,79.047H92.288a3.33,3.33,0,0,0-3.326,3.326v21.491a3.33,3.33,0,0,0,3.326,3.326h21.493a3.33,3.33,0,0,0,3.326-3.326v-6.99a1.61,1.61,0,1,0-3.219,0v6.99a.108.108,0,0,1-.107.107H92.288a.108.108,0,0,1-.107-.107V82.373a.108.108,0,0,1,.107-.107h21.493a.108.108,0,0,1,.107.107v6.989a1.61,1.61,0,1,0,3.219,0V82.373A3.33,3.33,0,0,0,113.781,79.047Z" transform="translate(-40.542 -47.694)"/>
            <path id="Trazado_194135" data-name="Trazado 194135" d="M79.468,108.756a1.609,1.609,0,0,0-2.276,0l-.987.987-.987-.987a1.609,1.609,0,0,0-2.276,2.276l.986.986-.986.986a1.61,1.61,0,0,0,2.276,2.276l.987-.987.987.987A1.61,1.61,0,1,0,79.469,113l-.986-.986.986-.986a1.61,1.61,0,0,0,0-2.276Z" transform="translate(-35.848 -56.017)"/>
            <path id="Trazado_194136" data-name="Trazado 194136" d="M27.292,131.389l4.7-4.7a1.61,1.61,0,0,0-2.276-2.276l-4.177,4.177-1.519-1.519a1.609,1.609,0,1,0-2.276,2.276l2.045,2.045a2.476,2.476,0,0,0,3.5,0Z" transform="translate(-21.275 -60.473)"/>
          </g>
        </g>
      </g>
    </g>
  </g>
</svg>
