<svg xmlns="http://www.w3.org/2000/svg" xmlns:xlink="http://www.w3.org/1999/xlink" width="673.497" height="363.937" viewBox="0 0 673.497 363.937">
  <defs>
    <clipPath id="clip-path">
      <circle id="Elipse_17501" data-name="Elipse 17501" cx="57.53" cy="57.53" r="57.53" transform="matrix(0.528, -0.849, 0.849, 0.528, -14.292, 325.735)" fill="#4e2e8e"/>
    </clipPath>
    <clipPath id="clip-path-2">
      <circle id="Elipse_17504" data-name="Elipse 17504" cx="57.53" cy="57.53" r="57.53" transform="matrix(0.528, -0.849, 0.849, 0.528, 66.222, 229.228)" fill="none"/>
    </clipPath>
    <clipPath id="clip-path-3">
      <circle id="Elipse_17508" data-name="Elipse 17508" cx="57.53" cy="57.53" r="57.53" transform="matrix(0.528, -0.849, 0.849, 0.528, 177.734, 174.728)" fill="#c6412a"/>
    </clipPath>
    <clipPath id="clip-path-4">
      <circle id="Elipse_17512" data-name="Elipse 17512" cx="57.628" cy="57.628" r="57.628" transform="matrix(0.529, -0.849, 0.849, 0.529, 422.607, 232.537)" fill="#c6412a"/>
    </clipPath>
    <clipPath id="clip-path-5">
      <circle id="Elipse_17516" data-name="Elipse 17516" cx="57.53" cy="57.53" r="57.53" transform="matrix(0.849, -0.528, 0.528, 0.849, 500.72, 288.769)" fill="#6677d6"/>
    </clipPath>
    <clipPath id="clip-path-6">
      <circle id="Elipse_17519" data-name="Elipse 17519" cx="57.53" cy="57.53" r="57.53" transform="matrix(0.849, -0.528, 0.528, 0.849, 308.713, 137.795)" fill="none"/>
    </clipPath>
  </defs>
  <g id="Grupo_134760" data-name="Grupo 134760" transform="translate(-463 -2286)">
    <g id="Grupo_134759" data-name="Grupo 134759">
      <path id="Trazado_194167" data-name="Trazado 194167" d="M57.53,0A57.53,57.53,0,1,1,0,57.53,57.53,57.53,0,0,1,57.53,0Z" transform="matrix(0.528, -0.849, 0.849, 0.528, 463, 2589.135)" fill="#ffef0f"/>
      <path id="Trazado_194168" data-name="Trazado 194168" d="M57.53,0A57.53,57.53,0,1,1,0,57.53,57.53,57.53,0,0,1,57.53,0Z" transform="matrix(0.528, -0.849, 0.849, 0.528, 463, 2589.135)" fill="#4e2e8e"/>
      <g id="Grupo_134498" data-name="Grupo 134498" transform="translate(477.292 2263.4)" clip-path="url(#clip-path)">
        <circle id="Elipse_17500" data-name="Elipse 17500" cx="57.53" cy="57.53" r="57.53" transform="matrix(0.528, -0.849, 0.849, 0.528, -14.292, 325.735)" fill="none" stroke="#fff" stroke-miterlimit="22.93" stroke-width="14.4" opacity="0.5"/>
      </g>
      <path id="Trazado_192696" data-name="Trazado 192696" d="M28.79,286.38a41.77,41.77,0,1,1,15.29,57.05,41.77,41.77,0,0,1-15.29-57.05Z" transform="translate(477.292 2263.4)" fill="#3b236b" fill-rule="evenodd"/>
      <path id="Trazado_194169" data-name="Trazado 194169" d="M57.53,0A57.53,57.53,0,1,1,0,57.53,57.53,57.53,0,0,1,57.53,0Z" transform="matrix(0.528, -0.849, 0.849, 0.528, 543.514, 2492.629)" fill="#6677d6"/>
      <g id="Grupo_134499" data-name="Grupo 134499" transform="translate(477.292 2263.4)" clip-path="url(#clip-path-2)">
        <circle id="Elipse_17503" data-name="Elipse 17503" cx="57.53" cy="57.53" r="57.53" transform="matrix(0.528, -0.849, 0.849, 0.528, 66.222, 229.228)" fill="none" stroke="#fff" stroke-miterlimit="22.93" stroke-width="14.4" opacity="0.5"/>
      </g>
      <path id="Trazado_192697" data-name="Trazado 192697" d="M109.29,189.88a41.77,41.77,0,1,1,15.29,57.05,41.77,41.77,0,0,1-15.29-57.05Z" transform="translate(477.292 2263.4)" fill="#4d59a1" fill-rule="evenodd"/>
      <path id="Trazado_194170" data-name="Trazado 194170" d="M57.53,0A57.53,57.53,0,1,1,0,57.53,57.53,57.53,0,0,1,57.53,0Z" transform="matrix(0.528, -0.849, 0.849, 0.528, 655.026, 2438.129)" fill="#ffa845"/>
      <path id="Trazado_194171" data-name="Trazado 194171" d="M57.53,0A57.53,57.53,0,1,1,0,57.53,57.53,57.53,0,0,1,57.53,0Z" transform="matrix(0.528, -0.849, 0.849, 0.528, 655.026, 2438.129)" fill="#c6412a"/>
      <g id="Grupo_134500" data-name="Grupo 134500" transform="translate(477.292 2263.4)" clip-path="url(#clip-path-3)">
        <circle id="Elipse_17507" data-name="Elipse 17507" cx="57.53" cy="57.53" r="57.53" transform="matrix(0.528, -0.849, 0.849, 0.528, 177.734, 174.728)" fill="none" stroke="#fff" stroke-miterlimit="22.93" stroke-width="14.4" opacity="0.5"/>
      </g>
      <path id="Trazado_192698" data-name="Trazado 192698" d="M220.79,135.38a41.77,41.77,0,1,1,15.29,57.05,41.77,41.77,0,0,1-15.29-57.05Z" transform="translate(477.292 2263.4)" fill="#953120" fill-rule="evenodd"/>
      <path id="Trazado_194172" data-name="Trazado 194172" d="M57.628,0A57.628,57.628,0,1,1,0,57.628,57.628,57.628,0,0,1,57.628,0Z" transform="matrix(0.529, -0.849, 0.849, 0.529, 899.899, 2495.938)" fill="#ffa845"/>
      <path id="Trazado_194173" data-name="Trazado 194173" d="M57.628,0A57.628,57.628,0,1,1,0,57.628,57.628,57.628,0,0,1,57.628,0Z" transform="matrix(0.529, -0.849, 0.849, 0.529, 899.899, 2495.938)" fill="#c6412a"/>
      <g id="Grupo_134501" data-name="Grupo 134501" transform="translate(477.292 2263.4)" clip-path="url(#clip-path-4)">
        <circle id="Elipse_17511" data-name="Elipse 17511" cx="57.628" cy="57.628" r="57.628" transform="matrix(0.529, -0.849, 0.849, 0.529, 422.607, 232.537)" fill="none" stroke="#fff" stroke-miterlimit="22.93" stroke-width="14.424" opacity="0.5"/>
      </g>
      <path id="Trazado_192699" data-name="Trazado 192699" d="M464.79,193.38a41.77,41.77,0,1,1,15.29,57.05A41.77,41.77,0,0,1,464.79,193.38Z" transform="translate(477.292 2263.4)" fill="#953120" fill-rule="evenodd"/>
      <g id="Grupo_134504" data-name="Grupo 134504" transform="translate(474.685 2261.4)">
        <path id="Trazado_192700" data-name="Trazado 192700" d="M65,318.49a1.08,1.08,0,0,0,1-1.08V316a1.08,1.08,0,0,0-2.16,0v1.43A1.08,1.08,0,0,0,65,318.49Z" fill="#fff" fill-rule="evenodd"/>
        <path id="Trazado_192701" data-name="Trazado 192701" d="M74,320.1a1.08,1.08,0,0,0-1.47-.39l-1.24.72a1.073,1.073,0,0,0,1.07,1.86l1.24-.72a1.08,1.08,0,0,0,.4-1.47Z" fill="#fff" fill-rule="evenodd"/>
        <path id="Trazado_192702" data-name="Trazado 192702" d="M70.16,316.3a1.08,1.08,0,0,0-1.47.39L68,317.93A1.08,1.08,0,0,0,69.84,319l.71-1.24A1.07,1.07,0,0,0,70.16,316.3Z" fill="#fff" fill-rule="evenodd"/>
        <path id="Trazado_192703" data-name="Trazado 192703" d="M61.55,319.4a1.08,1.08,0,0,0,.4-1.47l-.72-1.24a1.08,1.08,0,1,0-1.86,1.08l.71,1.24A1.08,1.08,0,0,0,61.55,319.4Z" fill="#fff" fill-rule="evenodd"/>
        <path id="Trazado_192704" data-name="Trazado 192704" d="M58.67,320.43l-1.25-.72a1.073,1.073,0,1,0-1.07,1.86l1.24.72a1.08,1.08,0,1,0,1.08-1.86Z" fill="#fff" fill-rule="evenodd"/>
        <path id="Trazado_192705" data-name="Trazado 192705" d="M65,319.92a5.39,5.39,0,0,0-5.38,5.38,5.28,5.28,0,0,0,.88,2.94,5.16,5.16,0,0,1,.91,2.8v2.87a2.51,2.51,0,0,0,2.51,2.51H66a2.51,2.51,0,0,0,2.51-2.51V331a5.16,5.16,0,0,1,.91-2.8,5.28,5.28,0,0,0,.88-2.94,5.39,5.39,0,0,0-5.3-5.34Zm1.43,14a.36.36,0,0,1-.35.36h-2.2a.36.36,0,0,1-.35-.36v-1.79h2.86v1.79Zm1.27-6.85A7.86,7.86,0,0,0,66.49,330H63.43a7.86,7.86,0,0,0-1.17-2.91,3.14,3.14,0,0,1-.53-1.76,3.23,3.23,0,1,1,6.46,0,3.14,3.14,0,0,1-.53,1.73Z" fill="#fff" fill-rule="evenodd"/>
      </g>
      <g id="Grupo_134506" data-name="Grupo 134506" transform="translate(557.446 2160.294)">
        <path id="Trazado_192700-2" data-name="Trazado 192700" d="M65,318.49a1.08,1.08,0,0,0,1-1.08V316a1.08,1.08,0,0,0-2.16,0v1.43A1.08,1.08,0,0,0,65,318.49Z" fill="#fff" fill-rule="evenodd"/>
        <path id="Trazado_192701-2" data-name="Trazado 192701" d="M74,320.1a1.08,1.08,0,0,0-1.47-.39l-1.24.72a1.073,1.073,0,0,0,1.07,1.86l1.24-.72a1.08,1.08,0,0,0,.4-1.47Z" fill="#fff" fill-rule="evenodd"/>
        <path id="Trazado_192702-2" data-name="Trazado 192702" d="M70.16,316.3a1.08,1.08,0,0,0-1.47.39L68,317.93A1.08,1.08,0,0,0,69.84,319l.71-1.24A1.07,1.07,0,0,0,70.16,316.3Z" fill="#fff" fill-rule="evenodd"/>
        <path id="Trazado_192703-2" data-name="Trazado 192703" d="M61.55,319.4a1.08,1.08,0,0,0,.4-1.47l-.72-1.24a1.08,1.08,0,1,0-1.86,1.08l.71,1.24A1.08,1.08,0,0,0,61.55,319.4Z" fill="#fff" fill-rule="evenodd"/>
        <path id="Trazado_192704-2" data-name="Trazado 192704" d="M58.67,320.43l-1.25-.72a1.073,1.073,0,1,0-1.07,1.86l1.24.72a1.08,1.08,0,1,0,1.08-1.86Z" fill="#fff" fill-rule="evenodd"/>
        <path id="Trazado_192705-2" data-name="Trazado 192705" d="M65,319.92a5.39,5.39,0,0,0-5.38,5.38,5.28,5.28,0,0,0,.88,2.94,5.16,5.16,0,0,1,.91,2.8v2.87a2.51,2.51,0,0,0,2.51,2.51H66a2.51,2.51,0,0,0,2.51-2.51V331a5.16,5.16,0,0,1,.91-2.8,5.28,5.28,0,0,0,.88-2.94,5.39,5.39,0,0,0-5.3-5.34Zm1.43,14a.36.36,0,0,1-.35.36h-2.2a.36.36,0,0,1-.35-.36v-1.79h2.86v1.79Zm1.27-6.85A7.86,7.86,0,0,0,66.49,330H63.43a7.86,7.86,0,0,0-1.17-2.91,3.14,3.14,0,0,1-.53-1.76,3.23,3.23,0,1,1,6.46,0,3.14,3.14,0,0,1-.53,1.73Z" fill="#fff" fill-rule="evenodd"/>
      </g>
      <g id="Grupo_134507" data-name="Grupo 134507" transform="translate(670.685 2105.091)">
        <path id="Trazado_192700-3" data-name="Trazado 192700" d="M65,318.49a1.08,1.08,0,0,0,1-1.08V316a1.08,1.08,0,0,0-2.16,0v1.43A1.08,1.08,0,0,0,65,318.49Z" fill="#fff" fill-rule="evenodd"/>
        <path id="Trazado_192701-3" data-name="Trazado 192701" d="M74,320.1a1.08,1.08,0,0,0-1.47-.39l-1.24.72a1.073,1.073,0,0,0,1.07,1.86l1.24-.72a1.08,1.08,0,0,0,.4-1.47Z" fill="#fff" fill-rule="evenodd"/>
        <path id="Trazado_192702-3" data-name="Trazado 192702" d="M70.16,316.3a1.08,1.08,0,0,0-1.47.39L68,317.93A1.08,1.08,0,0,0,69.84,319l.71-1.24A1.07,1.07,0,0,0,70.16,316.3Z" fill="#fff" fill-rule="evenodd"/>
        <path id="Trazado_192703-3" data-name="Trazado 192703" d="M61.55,319.4a1.08,1.08,0,0,0,.4-1.47l-.72-1.24a1.08,1.08,0,1,0-1.86,1.08l.71,1.24A1.08,1.08,0,0,0,61.55,319.4Z" fill="#fff" fill-rule="evenodd"/>
        <path id="Trazado_192704-3" data-name="Trazado 192704" d="M58.67,320.43l-1.25-.72a1.073,1.073,0,1,0-1.07,1.86l1.24.72a1.08,1.08,0,1,0,1.08-1.86Z" fill="#fff" fill-rule="evenodd"/>
        <path id="Trazado_192705-3" data-name="Trazado 192705" d="M65,319.92a5.39,5.39,0,0,0-5.38,5.38,5.28,5.28,0,0,0,.88,2.94,5.16,5.16,0,0,1,.91,2.8v2.87a2.51,2.51,0,0,0,2.51,2.51H66a2.51,2.51,0,0,0,2.51-2.51V331a5.16,5.16,0,0,1,.91-2.8,5.28,5.28,0,0,0,.88-2.94,5.39,5.39,0,0,0-5.3-5.34Zm1.43,14a.36.36,0,0,1-.35.36h-2.2a.36.36,0,0,1-.35-.36v-1.79h2.86v1.79Zm1.27-6.85A7.86,7.86,0,0,0,66.49,330H63.43a7.86,7.86,0,0,0-1.17-2.91,3.14,3.14,0,0,1-.53-1.76,3.23,3.23,0,1,1,6.46,0,3.14,3.14,0,0,1-.53,1.73Z" fill="#fff" fill-rule="evenodd"/>
      </g>
      <path id="Trazado_194174" data-name="Trazado 194174" d="M57.53,0A57.53,57.53,0,1,1,0,57.53,57.53,57.53,0,0,1,57.53,0Z" transform="matrix(0.849, -0.528, 0.528, 0.849, 978.012, 2552.169)" fill="#ffa845"/>
      <path id="Trazado_194175" data-name="Trazado 194175" d="M57.53,0A57.53,57.53,0,1,1,0,57.53,57.53,57.53,0,0,1,57.53,0Z" transform="matrix(0.849, -0.528, 0.528, 0.849, 978.012, 2552.169)" fill="#6677d6"/>
      <g id="Grupo_134502" data-name="Grupo 134502" transform="translate(477.292 2263.4)" clip-path="url(#clip-path-5)">
        <circle id="Elipse_17515" data-name="Elipse 17515" cx="57.53" cy="57.53" r="57.53" transform="matrix(0.849, -0.528, 0.528, 0.849, 500.72, 288.769)" fill="none" stroke="#fff" stroke-miterlimit="22.93" stroke-width="14.4" opacity="0.5"/>
      </g>
      <path id="Trazado_192706" data-name="Trazado 192706" d="M616.13,286.38a41.77,41.77,0,1,0-15.29,57.05,41.77,41.77,0,0,0,15.29-57.05Z" transform="translate(477.292 2263.4)" fill="#4d59a1" fill-rule="evenodd"/>
      <path id="Trazado_194176" data-name="Trazado 194176" d="M57.53,0A57.53,57.53,0,1,1,0,57.53,57.53,57.53,0,0,1,57.53,0Z" transform="matrix(0.849, -0.528, 0.528, 0.849, 786.005, 2401.195)" fill="#4e2e8e"/>
      <g id="Grupo_134503" data-name="Grupo 134503" transform="translate(477.292 2263.4)" clip-path="url(#clip-path-6)">
        <circle id="Elipse_17518" data-name="Elipse 17518" cx="57.53" cy="57.53" r="57.53" transform="matrix(0.849, -0.528, 0.528, 0.849, 308.713, 137.795)" fill="none" stroke="#fff" stroke-miterlimit="22.93" stroke-width="14.4" opacity="0.5"/>
      </g>
      <path id="Trazado_192707" data-name="Trazado 192707" d="M424.13,135.38a41.77,41.77,0,1,0-15.29,57.05,41.77,41.77,0,0,0,15.29-57.05Z" transform="translate(477.292 2263.4)" fill="#3b236b" fill-rule="evenodd"/>
      <path id="Trazado_192708" data-name="Trazado 192708" d="M66.28,221.83H57.64a1.2,1.2,0,0,0,0,2.4h3.12V240.6a2.27,2.27,0,1,0,2.4,0V224.23h3.12a1.2,1.2,0,1,0,0-2.4Z" transform="translate(477.292 2263.4)" fill="gray" fill-rule="evenodd"/>
      <path id="Trazado_192709" data-name="Trazado 192709" d="M571.46,380.68a7.2,7.2,0,0,1-6.94-5.27c-30-107.7-129.1-182.92-241-182.92s-211,75.22-241,182.92a7.2,7.2,0,1,1-13.88-3.86,264.645,264.645,0,0,1,509.76,0,7.19,7.19,0,0,1-6.94,9.13Z" transform="translate(477.292 2263.4)" fill="#e6e6e6"/>
      <g id="Grupo_112221" data-name="Grupo 112221" transform="translate(477.292 2263.4)">
        <g id="Grupo_78489" data-name="Grupo 78489">
          <circle id="Elipse_4758" data-name="Elipse 4758" cx="17" cy="17" r="17" transform="translate(43.8 177.6)" fill="#ffef0f" opacity="0.18"/>
          <circle id="Elipse_4759" data-name="Elipse 4759" cx="21" cy="21" r="21" transform="translate(39.8 173.6)" fill="#ffef0f" opacity="0.15"/>
        </g>
        <circle id="Elipse_4753" data-name="Elipse 4753" cx="13" cy="13" r="13" transform="translate(47.8 181.6)" fill="#ffef0f"/>
      </g>
      <path id="Trazado_192710" data-name="Trazado 192710" d="M149.28,125.83h-8.64a1.2,1.2,0,0,0,0,2.4h3.12V144.6a2.27,2.27,0,1,0,2.4,0V128.23h3.12a1.2,1.2,0,0,0,0-2.4Z" transform="translate(477.292 2263.4)" fill="gray" fill-rule="evenodd"/>
      <g id="Grupo_112221-2" data-name="Grupo 112221" transform="translate(477.292 2263.4)">
        <g id="Grupo_78489-2" data-name="Grupo 78489">
          <circle id="Elipse_4758-2" data-name="Elipse 4758" cx="17" cy="17" r="17" transform="translate(126.8 81.6)" fill="#ffef0f" opacity="0.18"/>
          <circle id="Elipse_4759-2" data-name="Elipse 4759" cx="21" cy="21" r="21" transform="translate(122.8 77.6)" fill="#ffef0f" opacity="0.15"/>
        </g>
        <circle id="Elipse_4753-2" data-name="Elipse 4753" cx="13" cy="13" r="13" transform="translate(130.8 85.6)" fill="#ffef0f"/>
      </g>
      <path id="Trazado_192711" data-name="Trazado 192711" d="M259.28,70.83h-8.64a1.2,1.2,0,0,0,0,2.4h3.12V89.6a2.27,2.27,0,1,0,2.4,0V73.23h3.12a1.2,1.2,0,1,0,0-2.4Z" transform="translate(477.292 2263.4)" fill="gray" fill-rule="evenodd"/>
      <g id="Grupo_112221-3" data-name="Grupo 112221" transform="translate(477.292 2263.4)">
        <g id="Grupo_78489-3" data-name="Grupo 78489">
          <circle id="Elipse_4758-3" data-name="Elipse 4758" cx="17" cy="17" r="17" transform="translate(236.8 26.6)" fill="#ffef0f" opacity="0.18"/>
          <circle id="Elipse_4759-3" data-name="Elipse 4759" cx="21" cy="21" r="21" transform="translate(232.8 22.6)" fill="#ffef0f" opacity="0.15"/>
        </g>
        <circle id="Elipse_4753-3" data-name="Elipse 4753" cx="13" cy="13" r="13" transform="translate(240.8 30.6)" fill="#ffef0f"/>
      </g>
      <path id="Trazado_192712" data-name="Trazado 192712" d="M579.32,221.83H588a1.2,1.2,0,1,1,0,2.4h-3.11V240.6a2.28,2.28,0,1,1-2.4,0V224.23h-3.12a1.2,1.2,0,1,1,0-2.4Z" transform="translate(477.292 2263.4)" fill="gray" fill-rule="evenodd"/>
      <g id="Grupo_112221-4" data-name="Grupo 112221" transform="translate(477.292 2263.4)">
        <g id="Grupo_78489-4" data-name="Grupo 78489">
          <circle id="Elipse_4758-4" data-name="Elipse 4758" cx="17" cy="17" r="17" transform="translate(567.8 177.6)" fill="#ffef0f" opacity="0.18"/>
          <circle id="Elipse_4759-4" data-name="Elipse 4759" cx="21" cy="21" r="21" transform="translate(563.8 173.6)" fill="#ffef0f" opacity="0.15"/>
        </g>
        <circle id="Elipse_4753-4" data-name="Elipse 4753" cx="13" cy="13" r="13" transform="translate(571.8 181.6)" fill="#ffef0f"/>
      </g>
      <path id="Trazado_192713" data-name="Trazado 192713" d="M496.32,125.83H505a1.2,1.2,0,1,1,0,2.4h-3.11V144.6a2.28,2.28,0,1,1-2.4,0V128.23h-3.12a1.2,1.2,0,1,1,0-2.4Z" transform="translate(477.292 2263.4)" fill="gray" fill-rule="evenodd"/>
      <g id="Grupo_112221-5" data-name="Grupo 112221" transform="translate(477.292 2263.4)">
        <g id="Grupo_78489-5" data-name="Grupo 78489">
          <circle id="Elipse_4758-5" data-name="Elipse 4758" cx="17" cy="17" r="17" transform="translate(484.8 81.6)" fill="#ffef0f" opacity="0.18"/>
          <circle id="Elipse_4759-5" data-name="Elipse 4759" cx="21" cy="21" r="21" transform="translate(480.8 77.6)" fill="#ffef0f" opacity="0.15"/>
        </g>
        <circle id="Elipse_4753-5" data-name="Elipse 4753" cx="13" cy="13" r="13" transform="translate(488.8 85.6)" fill="#ffef0f"/>
      </g>
      <path id="Trazado_192714" data-name="Trazado 192714" d="M386.32,70.83H395a1.2,1.2,0,0,1,0,2.4h-3.11V89.6a2.28,2.28,0,1,1-2.4,0V73.23h-3.12a1.2,1.2,0,1,1,0-2.4Z" transform="translate(477.292 2263.4)" fill="gray" fill-rule="evenodd"/>
      <g id="Grupo_112221-6" data-name="Grupo 112221" transform="translate(477.292 2263.4)">
        <g id="Grupo_78489-6" data-name="Grupo 78489">
          <circle id="Elipse_4758-6" data-name="Elipse 4758" cx="17" cy="17" r="17" transform="translate(374.8 26.6)" fill="#ffef0f" opacity="0.18"/>
          <circle id="Elipse_4759-6" data-name="Elipse 4759" cx="21" cy="21" r="21" transform="translate(370.8 22.6)" fill="#ffef0f" opacity="0.15"/>
        </g>
        <circle id="Elipse_4753-6" data-name="Elipse 4753" cx="13" cy="13" r="13" transform="translate(378.8 30.6)" fill="#ffef0f"/>
      </g>
      <path id="Trazado_194177" data-name="Trazado 194177" d="M-23.638,0V-14.219h4.58a6.737,6.737,0,0,1,3.389.854,6.006,6.006,0,0,1,2.349,2.412,7.283,7.283,0,0,1,.854,3.491v.654a7.325,7.325,0,0,1-.825,3.5A6.032,6.032,0,0,1-15.615-.884,6.589,6.589,0,0,1-18.96,0Zm3.428-11.572v8.936h1.191a2.666,2.666,0,0,0,2.266-1.05,5.145,5.145,0,0,0,.791-3.12v-.615a5.1,5.1,0,0,0-.791-3.105,2.713,2.713,0,0,0-2.3-1.045ZM1.333-6.816A8.385,8.385,0,0,1,.562-3.135,5.7,5.7,0,0,1-1.631-.669,6.1,6.1,0,0,1-4.868.2,6.191,6.191,0,0,1-8.091-.64a5.692,5.692,0,0,1-2.192-2.388,8.144,8.144,0,0,1-.825-3.564v-.8a8.422,8.422,0,0,1,.767-3.687,5.688,5.688,0,0,1,2.2-2.466,6.147,6.147,0,0,1,3.257-.869,6.087,6.087,0,0,1,3.223.859,5.79,5.79,0,0,1,2.2,2.446,8.18,8.18,0,0,1,.8,3.638Zm-3.486-.6a5.979,5.979,0,0,0-.708-3.218,2.271,2.271,0,0,0-2.026-1.1q-2.578,0-2.725,3.867l-.01,1.045A6.149,6.149,0,0,0-6.929-3.6,2.268,2.268,0,0,0-4.868-2.48a2.24,2.24,0,0,0,2-1.1,5.982,5.982,0,0,0,.713-3.174ZM12.056-5.664H6.528V0H3.1V-14.219h9.512v2.646H6.528V-8.3h5.527Zm8.184,3.008h-4.7L14.722,0H11.06l5.215-14.219H19.5L24.751,0H21.069ZM16.362-5.3h3.057l-1.533-4.932Z" transform="translate(539.252 2568.799)" fill="#fff"/>
      <path id="Trazado_194178" data-name="Trazado 194178" d="M-11.587-4.824V0h-3.428V-14.219h5.674a6.608,6.608,0,0,1,2.886.6,4.526,4.526,0,0,1,1.943,1.709,4.667,4.667,0,0,1,.688,2.515A4.114,4.114,0,0,1-5.312-6.069,6.179,6.179,0,0,1-9.4-4.824Zm0-2.646h2.246a2.118,2.118,0,0,0,1.519-.5A1.85,1.85,0,0,0-7.3-9.375a2.287,2.287,0,0,0-.537-1.592A1.9,1.9,0,0,0-9.3-11.572h-2.285ZM9.507-4.814a5.193,5.193,0,0,1-.8,2.622A4.833,4.833,0,0,1,6.65-.43,7,7,0,0,1,3.628.2,5.584,5.584,0,0,1-.786-1.631,7.54,7.54,0,0,1-2.4-6.787v-.7a8.607,8.607,0,0,1,.728-3.657A5.513,5.513,0,0,1,.425-13.569a5.844,5.844,0,0,1,3.164-.854,6.129,6.129,0,0,1,4.16,1.362A5.383,5.383,0,0,1,9.536-9.307H6.118a2.547,2.547,0,0,0-.654-1.865,2.691,2.691,0,0,0-1.875-.566,2.048,2.048,0,0,0-1.875.957,6.151,6.151,0,0,0-.625,3.057v1.006A6.806,6.806,0,0,0,1.66-3.467a2.091,2.091,0,0,0,1.968.977,2.632,2.632,0,0,0,1.807-.557A2.363,2.363,0,0,0,6.1-4.814ZM14.78,0H11.362V-14.219H14.78Z" transform="translate(622.758 2467.692)" fill="#fff"/>
      <path id="Trazado_194179" data-name="Trazado 194179" d="M4.5-4.824V0H1.074V-14.219H6.748a6.608,6.608,0,0,1,2.886.6,4.526,4.526,0,0,1,1.943,1.709,4.667,4.667,0,0,1,.688,2.515,4.114,4.114,0,0,1-1.489,3.325A6.179,6.179,0,0,1,6.689-4.824Zm0-2.646H6.748a2.118,2.118,0,0,0,1.519-.5,1.85,1.85,0,0,0,.522-1.406,2.287,2.287,0,0,0-.537-1.592,1.9,1.9,0,0,0-1.465-.605H4.5Zm21.631.654a8.385,8.385,0,0,1-.771,3.682A5.7,5.7,0,0,1,23.169-.669,6.1,6.1,0,0,1,19.932.2,6.191,6.191,0,0,1,16.709-.64a5.692,5.692,0,0,1-2.192-2.388,8.144,8.144,0,0,1-.825-3.564v-.8a8.422,8.422,0,0,1,.767-3.687,5.688,5.688,0,0,1,2.2-2.466,6.147,6.147,0,0,1,3.257-.869,6.087,6.087,0,0,1,3.223.859,5.79,5.79,0,0,1,2.2,2.446,8.18,8.18,0,0,1,.8,3.638Zm-3.486-.6a5.979,5.979,0,0,0-.708-3.218,2.271,2.271,0,0,0-2.026-1.1q-2.578,0-2.725,3.867l-.01,1.045A6.149,6.149,0,0,0,17.871-3.6,2.268,2.268,0,0,0,19.932-2.48a2.24,2.24,0,0,0,2-1.1,5.982,5.982,0,0,0,.713-3.174ZM35.771-2.656h-4.7L30.254,0H26.592l5.215-14.219h3.223L40.283,0H36.6ZM31.895-5.3h3.057l-1.533-4.932ZM45.82-14.219l3.174,9.893,3.164-9.893H56.67V0H53.232V-3.32l.332-6.8L50.127,0H47.861L44.414-10.127l.332,6.807V0H41.318V-14.219Z" transform="translate(706.712 2412.489)" fill="#fff"/>
      <path id="Trazado_192715" data-name="Trazado 192715" d="M323.5,186.81c118.18,0,217.74,79.65,248,188.19H75.54C105.76,266.46,205.32,186.81,323.5,186.81Z" transform="translate(477.292 2263.4)" fill="#fff" fill-rule="evenodd"/>
      <path id="Trazado_194180" data-name="Trazado 194180" d="M4.174-14.574,8.939-2.683,13.7-14.574H16.2V0H14.274V-5.676l.18-6.126L9.669,0H8.2L3.423-11.771l.19,6.1V0H1.692V-14.574ZM27.817-3.814H21.711L20.34,0H18.358l5.565-14.574H25.6L31.18,0H29.208ZM22.292-5.385h4.955L24.764-12.2ZM41.921-13H37.236V0H35.324V-13H30.65v-1.572H41.921ZM49.428-5.9H46V0H44.073V-14.574H48.9a5.711,5.711,0,0,1,3.789,1.121,4.034,4.034,0,0,1,1.326,3.263,3.924,3.924,0,0,1-.736,2.372A4.392,4.392,0,0,1,51.23-6.306L54.653-.12V0H52.591ZM46-7.467h2.953a3.331,3.331,0,0,0,2.277-.742,2.509,2.509,0,0,0,.846-1.986,2.642,2.642,0,0,0-.806-2.076A3.412,3.412,0,0,0,48.948-13H46ZM58.767,0H56.845V-14.574h1.922ZM73-4.625a5.362,5.362,0,0,1-1.707,3.568A5.593,5.593,0,0,1,67.476.2a5.136,5.136,0,0,1-4.139-1.852A7.45,7.45,0,0,1,61.78-6.606v-1.4a8.3,8.3,0,0,1,.726-3.573,5.421,5.421,0,0,1,2.057-2.367,5.727,5.727,0,0,1,3.083-.826,5.266,5.266,0,0,1,3.724,1.3A5.426,5.426,0,0,1,73-9.89H71.069a4.187,4.187,0,0,0-1.086-2.53,3.286,3.286,0,0,0-2.337-.783,3.439,3.439,0,0,0-2.888,1.363,6.255,6.255,0,0,0-1.046,3.877v1.413A6.429,6.429,0,0,0,64.7-2.774a3.2,3.2,0,0,0,2.773,1.4A3.7,3.7,0,0,0,69.933-2.1a4.027,4.027,0,0,0,1.136-2.527ZM83.862-6.737H77.546v5.165h7.337V0H75.624V-14.574h9.159V-13H77.546v4.695h6.316Zm7.708.24a9.037,9.037,0,0,1-3.6-1.747A3.337,3.337,0,0,1,86.845-10.8a3.525,3.525,0,0,1,1.376-2.848A5.47,5.47,0,0,1,91.8-14.774a5.971,5.971,0,0,1,2.678.581,4.4,4.4,0,0,1,1.822,1.6,4.1,4.1,0,0,1,.646,2.232H95.013a2.665,2.665,0,0,0-.841-2.084A3.419,3.419,0,0,0,91.8-13.2a3.5,3.5,0,0,0-2.217.627,2.091,2.091,0,0,0-.8,1.74,1.881,1.881,0,0,0,.756,1.509A7.413,7.413,0,0,0,92.115-8.2a11.936,11.936,0,0,1,2.843,1.127,4.314,4.314,0,0,1,1.521,1.436,3.666,3.666,0,0,1,.5,1.932A3.405,3.405,0,0,1,95.593-.866,5.89,5.89,0,0,1,91.9.2a6.85,6.85,0,0,1-2.8-.576A4.717,4.717,0,0,1,87.09-1.952a3.847,3.847,0,0,1-.706-2.272h1.932a2.51,2.51,0,0,0,.976,2.087,4.109,4.109,0,0,0,2.608.766,3.778,3.778,0,0,0,2.332-.621,2.016,2.016,0,0,0,.811-1.692,1.979,1.979,0,0,0-.751-1.657A8.655,8.655,0,0,0,91.569-6.5ZM104.512,0V-14.574h4.114a6.623,6.623,0,0,1,3.363.841,5.687,5.687,0,0,1,2.257,2.392,7.787,7.787,0,0,1,.806,3.563v.931a7.814,7.814,0,0,1-.8,3.614,5.6,5.6,0,0,1-2.272,2.382A7.045,7.045,0,0,1,108.546,0Zm1.922-13V-1.572h2.022a4.4,4.4,0,0,0,3.458-1.383,5.712,5.712,0,0,0,1.236-3.937v-.852a5.8,5.8,0,0,0-1.166-3.862,4.15,4.15,0,0,0-3.308-1.4Zm19.759,6.266h-6.316v5.165h7.337V0h-9.259V-14.574h9.159V-13h-7.237v4.695h6.316Z" transform="translate(735.712 2568.53)" fill="#12263f"/>
      <path id="Trazado_194181" data-name="Trazado 194181" d="M1.87,0V-20.944H8.314A9.787,9.787,0,0,1,13.256-19.7a8.677,8.677,0,0,1,3.4,3.539,10.914,10.914,0,0,1,1.223,5.214v.964a10.945,10.945,0,0,1-1.2,5.193,8.6,8.6,0,0,1-3.388,3.524A9.86,9.86,0,0,1,8.358,0ZM6.185-17.449V-3.467H8.271a4.686,4.686,0,0,0,3.87-1.654,7.475,7.475,0,0,0,1.367-4.733v-1.108a7.594,7.594,0,0,0-1.323-4.84,4.67,4.67,0,0,0-3.87-1.647ZM25.6,0H21.289V-20.944H25.6ZM41.687-4.315H34.121L32.682,0H28.093l7.8-20.944h4L47.729,0H43.14Zm-6.4-3.5h5.236l-2.632-7.84ZM65.954-2.647A7.49,7.49,0,0,1,62.66-.482a13.8,13.8,0,0,1-4.718.77A9.347,9.347,0,0,1,53.173-.9a7.915,7.915,0,0,1-3.165-3.445,12.125,12.125,0,0,1-1.144-5.308v-1.424a12.877,12.877,0,0,1,1.057-5.43,7.821,7.821,0,0,1,3.05-3.51,8.784,8.784,0,0,1,4.668-1.216,8.748,8.748,0,0,1,5.826,1.777,7.592,7.592,0,0,1,2.489,5.171h-4.2a4.176,4.176,0,0,0-1.273-2.632,4.066,4.066,0,0,0-2.712-.834A3.827,3.827,0,0,0,54.418-16.1a8.7,8.7,0,0,0-1.165,4.92v1.338A8.281,8.281,0,0,0,54.5-4.862a4.285,4.285,0,0,0,3.668,1.683,4.787,4.787,0,0,0,3.467-1.036V-7.825H57.712V-11h8.242ZM86.481,0H82.166l-8.4-13.781V0H69.45V-20.944h4.315L82.18-7.135V-20.944h4.3Zm20.973-10a12.643,12.643,0,0,1-1.093,5.423,8.233,8.233,0,0,1-3.129,3.6A8.655,8.655,0,0,1,98.564.288,8.713,8.713,0,0,1,93.918-.964a8.314,8.314,0,0,1-3.165-3.575,12.282,12.282,0,0,1-1.136-5.344v-1.036a12.577,12.577,0,0,1,1.115-5.445,8.3,8.3,0,0,1,3.15-3.611,8.665,8.665,0,0,1,4.653-1.259,8.665,8.665,0,0,1,4.653,1.259,8.3,8.3,0,0,1,3.15,3.611,12.541,12.541,0,0,1,1.115,5.43Zm-4.373-.949a8.814,8.814,0,0,0-1.18-5.006,3.844,3.844,0,0,0-3.366-1.712,3.845,3.845,0,0,0-3.352,1.69,8.713,8.713,0,0,0-1.194,4.956V-10A8.924,8.924,0,0,0,95.17-5.02a3.834,3.834,0,0,0,3.395,1.769,3.8,3.8,0,0,0,3.337-1.7,8.872,8.872,0,0,0,1.18-4.97ZM99.37-26.554H103.9l-3.985,4.459h-3.38ZM121.451-5.495a2.215,2.215,0,0,0-.863-1.877,11.321,11.321,0,0,0-3.107-1.381,22.026,22.026,0,0,1-3.553-1.431q-3.567-1.928-3.567-5.193a5.058,5.058,0,0,1,.957-3.028,6.24,6.24,0,0,1,2.747-2.079,10.341,10.341,0,0,1,4.021-.748,9.413,9.413,0,0,1,4,.813,6.368,6.368,0,0,1,2.726,2.294,6,6,0,0,1,.971,3.366h-4.315A2.824,2.824,0,0,0,120.559-17a3.725,3.725,0,0,0-2.546-.8,3.98,3.98,0,0,0-2.46.669,2.11,2.11,0,0,0-.877,1.762,2.021,2.021,0,0,0,1.029,1.712,11.62,11.62,0,0,0,3.028,1.295A13.083,13.083,0,0,1,124.1-9.609a5.472,5.472,0,0,1,1.683,4.085,5.04,5.04,0,0,1-2.057,4.265A9.005,9.005,0,0,1,118.185.288a10.694,10.694,0,0,1-4.4-.885,6.965,6.965,0,0,1-3.028-2.424,6.207,6.207,0,0,1-1.043-3.567h4.33q0,3.467,4.143,3.467a4.03,4.03,0,0,0,2.4-.626A2.036,2.036,0,0,0,121.451-5.495Zm23.016-11.954h-6.416V0h-4.315V-17.449h-6.329v-3.5h17.06ZM151.515,0H147.2V-20.944h4.315Zm20.441-6.977a7.411,7.411,0,0,1-2.5,5.322A8.765,8.765,0,0,1,163.526.288a7.881,7.881,0,0,1-6.337-2.712,11.118,11.118,0,0,1-2.309-7.444v-1.28a12.555,12.555,0,0,1,1.064-5.322A7.977,7.977,0,0,1,158.988-20a8.523,8.523,0,0,1,4.6-1.23,8.539,8.539,0,0,1,5.84,1.942,7.965,7.965,0,0,1,2.56,5.452h-4.315a4.374,4.374,0,0,0-1.129-2.942,4.182,4.182,0,0,0-2.956-.913,3.667,3.667,0,0,0-3.229,1.546,8.666,8.666,0,0,0-1.1,4.8v1.582A9.276,9.276,0,0,0,160.282-4.8a3.6,3.6,0,0,0,3.244,1.568,4.26,4.26,0,0,0,2.985-.913,4.126,4.126,0,0,0,1.129-2.827ZM191.993-10A12.643,12.643,0,0,1,190.9-4.574a8.233,8.233,0,0,1-3.129,3.6A8.655,8.655,0,0,1,183.1.288a8.713,8.713,0,0,1-4.646-1.251,8.314,8.314,0,0,1-3.165-3.575,12.282,12.282,0,0,1-1.136-5.344v-1.036a12.577,12.577,0,0,1,1.115-5.445,8.3,8.3,0,0,1,3.15-3.611,8.665,8.665,0,0,1,4.653-1.259,8.665,8.665,0,0,1,4.653,1.259,8.3,8.3,0,0,1,3.15,3.611,12.541,12.541,0,0,1,1.115,5.43Zm-4.373-.949a8.814,8.814,0,0,0-1.18-5.006,3.844,3.844,0,0,0-3.366-1.712,3.845,3.845,0,0,0-3.352,1.69,8.713,8.713,0,0,0-1.194,4.956V-10a8.924,8.924,0,0,0,1.18,4.977A3.834,3.834,0,0,0,183.1-3.251a3.8,3.8,0,0,0,3.337-1.7,8.872,8.872,0,0,0,1.18-4.97Z" transform="translate(703.842 2599.87)" fill="#12263f"/>
      <path id="Trazado_192716" data-name="Trazado 192716" d="M343.54,267.73h-1.33v-18a4.58,4.58,0,0,0,2.49-4.08v-3.32a1.26,1.26,0,0,0-.11-.51L342,236a5.41,5.41,0,0,0-4.92-3.18h-1.47V228.9a1.25,1.25,0,0,0-1.25-1.25H312.69a1.25,1.25,0,0,0-1.25,1.25v3.91H310a5.41,5.41,0,0,0-4.93,3.181l-2.64,5.869a1.26,1.26,0,0,0-.11.51v3.32a4.58,4.58,0,0,0,2.49,4.08v18h-1.33a1.25,1.25,0,0,0,0,2.49h40.08a1.25,1.25,0,0,0,0-2.49Zm-29.6-37.58h19.12V236H313.94v-5.82ZM307.32,237a2.92,2.92,0,0,1,2.68-1.7h1.46v1.91a1.25,1.25,0,0,0,1.25,1.25h21.62a1.25,1.25,0,0,0,1.25-1.25V235.3H337a2.92,2.92,0,0,1,2.65,1.72l1.85,4.1h-36l1.84-4.1Zm28.24,6.6v2.07a2.08,2.08,0,0,1-4.16,0V243.6Zm-6.66,0v2.07a2.08,2.08,0,1,1-4.15,0V243.6Zm-6.65,0v2.07a2.08,2.08,0,1,1-4.15,0V243.6Zm-6.65,0v2.07a2.08,2.08,0,0,1-4.16,0V243.6Zm-10.81,2.07V243.6H309v2.07a2.08,2.08,0,0,1-4.16,0Zm13.31,22h-5.82V255.26h5.82v12.47Zm21.61,0H320.59V254a1.25,1.25,0,0,0-1.25-1.25H311a1.25,1.25,0,0,0-1.25,1.25v13.72h-2.49V250.25a4.61,4.61,0,0,0,2.91-1.42,4.56,4.56,0,0,0,6.65,0,4.56,4.56,0,0,0,6.65,0,4.56,4.56,0,0,0,6.65,0,4.56,4.56,0,0,0,6.65,0,4.61,4.61,0,0,0,2.91,1.42v17.48Zm.42-20a2.08,2.08,0,0,1-2.08-2.08v-2.07h4.16v2.07a2.08,2.08,0,0,1-2.08,2.18Z" transform="translate(477.292 2263.4)" fill="#12263f" fill-rule="evenodd"/>
      <path id="Trazado_192717" data-name="Trazado 192717" d="M336,252.76H324.33a1.25,1.25,0,0,0-1.25,1.25v10a1.25,1.25,0,0,0,1.25,1.24H336a1.25,1.25,0,0,0,1.25-1.24V254a1.25,1.25,0,0,0-1.25-1.25Zm-1.25,10h-9.14v-7.48h9.14Z" transform="translate(477.292 2263.4)" fill="#12263f" fill-rule="evenodd"/>
      <path id="Trazado_192718" data-name="Trazado 192718" d="M248.4,280.14c9.93-3,151.14,0,151.14,0" transform="translate(477.292 2263.4)" fill="none" stroke="#12263f" stroke-linecap="round" stroke-linejoin="round" stroke-width="3.12" fill-rule="evenodd"/>
      <g id="Grupo_134508" data-name="Grupo 134508" transform="translate(799.936 2108.08)">
        <path id="Trazado_192700-4" data-name="Trazado 192700" d="M65,318.49a1.08,1.08,0,0,0,1-1.08V316a1.08,1.08,0,0,0-2.16,0v1.43A1.08,1.08,0,0,0,65,318.49Z" fill="#fff" fill-rule="evenodd"/>
        <path id="Trazado_192701-4" data-name="Trazado 192701" d="M74,320.1a1.08,1.08,0,0,0-1.47-.39l-1.24.72a1.073,1.073,0,0,0,1.07,1.86l1.24-.72a1.08,1.08,0,0,0,.4-1.47Z" fill="#fff" fill-rule="evenodd"/>
        <path id="Trazado_192702-4" data-name="Trazado 192702" d="M70.16,316.3a1.08,1.08,0,0,0-1.47.39L68,317.93A1.08,1.08,0,0,0,69.84,319l.71-1.24A1.07,1.07,0,0,0,70.16,316.3Z" fill="#fff" fill-rule="evenodd"/>
        <path id="Trazado_192703-4" data-name="Trazado 192703" d="M61.55,319.4a1.08,1.08,0,0,0,.4-1.47l-.72-1.24a1.08,1.08,0,1,0-1.86,1.08l.71,1.24A1.08,1.08,0,0,0,61.55,319.4Z" fill="#fff" fill-rule="evenodd"/>
        <path id="Trazado_192704-4" data-name="Trazado 192704" d="M58.67,320.43l-1.25-.72a1.073,1.073,0,1,0-1.07,1.86l1.24.72a1.08,1.08,0,1,0,1.08-1.86Z" fill="#fff" fill-rule="evenodd"/>
        <path id="Trazado_192705-4" data-name="Trazado 192705" d="M65,319.92a5.39,5.39,0,0,0-5.38,5.38,5.28,5.28,0,0,0,.88,2.94,5.16,5.16,0,0,1,.91,2.8v2.87a2.51,2.51,0,0,0,2.51,2.51H66a2.51,2.51,0,0,0,2.51-2.51V331a5.16,5.16,0,0,1,.91-2.8,5.28,5.28,0,0,0,.88-2.94,5.39,5.39,0,0,0-5.3-5.34Zm1.43,14a.36.36,0,0,1-.35.36h-2.2a.36.36,0,0,1-.35-.36v-1.79h2.86v1.79Zm1.27-6.85A7.86,7.86,0,0,0,66.49,330H63.43a7.86,7.86,0,0,0-1.17-2.91,3.14,3.14,0,0,1-.53-1.76,3.23,3.23,0,1,1,6.46,0,3.14,3.14,0,0,1-.53,1.73Z" fill="#fff" fill-rule="evenodd"/>
      </g>
      <g id="Grupo_134509" data-name="Grupo 134509" transform="translate(914 2165.812)">
        <path id="Trazado_192700-5" data-name="Trazado 192700" d="M65,318.49a1.08,1.08,0,0,0,1-1.08V316a1.08,1.08,0,0,0-2.16,0v1.43A1.08,1.08,0,0,0,65,318.49Z" fill="#fff" fill-rule="evenodd"/>
        <path id="Trazado_192701-5" data-name="Trazado 192701" d="M74,320.1a1.08,1.08,0,0,0-1.47-.39l-1.24.72a1.073,1.073,0,0,0,1.07,1.86l1.24-.72a1.08,1.08,0,0,0,.4-1.47Z" fill="#fff" fill-rule="evenodd"/>
        <path id="Trazado_192702-5" data-name="Trazado 192702" d="M70.16,316.3a1.08,1.08,0,0,0-1.47.39L68,317.93A1.08,1.08,0,0,0,69.84,319l.71-1.24A1.07,1.07,0,0,0,70.16,316.3Z" fill="#fff" fill-rule="evenodd"/>
        <path id="Trazado_192703-5" data-name="Trazado 192703" d="M61.55,319.4a1.08,1.08,0,0,0,.4-1.47l-.72-1.24a1.08,1.08,0,1,0-1.86,1.08l.71,1.24A1.08,1.08,0,0,0,61.55,319.4Z" fill="#fff" fill-rule="evenodd"/>
        <path id="Trazado_192704-5" data-name="Trazado 192704" d="M58.67,320.43l-1.25-.72a1.073,1.073,0,1,0-1.07,1.86l1.24.72a1.08,1.08,0,1,0,1.08-1.86Z" fill="#fff" fill-rule="evenodd"/>
        <path id="Trazado_192705-5" data-name="Trazado 192705" d="M65,319.92a5.39,5.39,0,0,0-5.38,5.38,5.28,5.28,0,0,0,.88,2.94,5.16,5.16,0,0,1,.91,2.8v2.87a2.51,2.51,0,0,0,2.51,2.51H66a2.51,2.51,0,0,0,2.51-2.51V331a5.16,5.16,0,0,1,.91-2.8,5.28,5.28,0,0,0,.88-2.94,5.39,5.39,0,0,0-5.3-5.34Zm1.43,14a.36.36,0,0,1-.35.36h-2.2a.36.36,0,0,1-.35-.36v-1.79h2.86v1.79Zm1.27-6.85A7.86,7.86,0,0,0,66.49,330H63.43a7.86,7.86,0,0,0-1.17-2.91,3.14,3.14,0,0,1-.53-1.76,3.23,3.23,0,1,1,6.46,0,3.14,3.14,0,0,1-.53,1.73Z" fill="#fff" fill-rule="evenodd"/>
      </g>
      <g id="Grupo_134510" data-name="Grupo 134510" transform="translate(995.685 2260.199)">
        <path id="Trazado_192700-6" data-name="Trazado 192700" d="M65,318.49a1.08,1.08,0,0,0,1-1.08V316a1.08,1.08,0,0,0-2.16,0v1.43A1.08,1.08,0,0,0,65,318.49Z" fill="#fff" fill-rule="evenodd"/>
        <path id="Trazado_192701-6" data-name="Trazado 192701" d="M74,320.1a1.08,1.08,0,0,0-1.47-.39l-1.24.72a1.073,1.073,0,0,0,1.07,1.86l1.24-.72a1.08,1.08,0,0,0,.4-1.47Z" fill="#fff" fill-rule="evenodd"/>
        <path id="Trazado_192702-6" data-name="Trazado 192702" d="M70.16,316.3a1.08,1.08,0,0,0-1.47.39L68,317.93A1.08,1.08,0,0,0,69.84,319l.71-1.24A1.07,1.07,0,0,0,70.16,316.3Z" fill="#fff" fill-rule="evenodd"/>
        <path id="Trazado_192703-6" data-name="Trazado 192703" d="M61.55,319.4a1.08,1.08,0,0,0,.4-1.47l-.72-1.24a1.08,1.08,0,1,0-1.86,1.08l.71,1.24A1.08,1.08,0,0,0,61.55,319.4Z" fill="#fff" fill-rule="evenodd"/>
        <path id="Trazado_192704-6" data-name="Trazado 192704" d="M58.67,320.43l-1.25-.72a1.073,1.073,0,1,0-1.07,1.86l1.24.72a1.08,1.08,0,1,0,1.08-1.86Z" fill="#fff" fill-rule="evenodd"/>
        <path id="Trazado_192705-6" data-name="Trazado 192705" d="M65,319.92a5.39,5.39,0,0,0-5.38,5.38,5.28,5.28,0,0,0,.88,2.94,5.16,5.16,0,0,1,.91,2.8v2.87a2.51,2.51,0,0,0,2.51,2.51H66a2.51,2.51,0,0,0,2.51-2.51V331a5.16,5.16,0,0,1,.91-2.8,5.28,5.28,0,0,0,.88-2.94,5.39,5.39,0,0,0-5.3-5.34Zm1.43,14a.36.36,0,0,1-.35.36h-2.2a.36.36,0,0,1-.35-.36v-1.79h2.86v1.79Zm1.27-6.85A7.86,7.86,0,0,0,66.49,330H63.43a7.86,7.86,0,0,0-1.17-2.91,3.14,3.14,0,0,1-.53-1.76,3.23,3.23,0,1,1,6.46,0,3.14,3.14,0,0,1-.53,1.73Z" fill="#fff" fill-rule="evenodd"/>
      </g>
      <path id="Trazado_194182" data-name="Trazado 194182" d="M-20.166-4.824V0h-3.428V-14.219h5.674a6.608,6.608,0,0,1,2.886.6,4.526,4.526,0,0,1,1.943,1.709A4.667,4.667,0,0,1-12.4-9.395a4.114,4.114,0,0,1-1.489,3.325,6.179,6.179,0,0,1-4.087,1.245Zm0-2.646h2.246a2.118,2.118,0,0,0,1.519-.5,1.85,1.85,0,0,0,.522-1.406,2.287,2.287,0,0,0-.537-1.592,1.9,1.9,0,0,0-1.465-.605h-2.285ZM-1.758-6.035H-7.148v3.4H-.781V0h-9.795V-14.219H-.762v2.646H-7.148v3h5.391ZM7.949-3.779a1.408,1.408,0,0,0-.532-1.172,6.615,6.615,0,0,0-1.87-.869,17.941,17.941,0,0,1-2.187-.869Q.6-8.047.6-10.42A3.345,3.345,0,0,1,1.284-12.5a4.453,4.453,0,0,1,1.948-1.406,7.582,7.582,0,0,1,2.832-.5,6.632,6.632,0,0,1,2.749.547A4.352,4.352,0,0,1,10.7-12.31,4.068,4.068,0,0,1,11.377-10H7.959a1.719,1.719,0,0,0-.532-1.348,2.075,2.075,0,0,0-1.44-.479,2.339,2.339,0,0,0-1.45.405A1.243,1.243,0,0,0,4-10.391,1.252,1.252,0,0,0,4.59-9.4a7.389,7.389,0,0,0,2.061.918A12.623,12.623,0,0,1,9.072-7.461a4.07,4.07,0,0,1,2.3,3.662A3.472,3.472,0,0,1,9.971-.869,6.255,6.255,0,0,1,6.113.2a7.653,7.653,0,0,1-3.13-.62,4.719,4.719,0,0,1-2.109-1.7A4.428,4.428,0,0,1,.166-4.609H3.6a2.181,2.181,0,0,0,.591,1.685,2.793,2.793,0,0,0,1.919.542,2.206,2.206,0,0,0,1.343-.366A1.209,1.209,0,0,0,7.949-3.779ZM24.3-11.572H20.029V0H16.6V-11.572H12.412v-2.646H24.3Z" transform="translate(864.748 2415.479)" fill="#fff"/>
      <path id="Trazado_194183" data-name="Trazado 194183" d="M-18.755,0V-14.219h5.107a7.232,7.232,0,0,1,4.175,1.006,3.347,3.347,0,0,1,1.431,2.92A3.383,3.383,0,0,1-8.55-8.408a2.959,2.959,0,0,1-1.494,1.152A3,3,0,0,1-8.335-6.162a3.18,3.18,0,0,1,.6,1.953,3.765,3.765,0,0,1-1.323,3.14A6.3,6.3,0,0,1-12.983,0Zm3.428-6.045v3.408h2.246a2.136,2.136,0,0,0,1.426-.425,1.487,1.487,0,0,0,.5-1.2,1.576,1.576,0,0,0-1.768-1.787Zm0-2.246h1.787a2.539,2.539,0,0,0,1.6-.411,1.46,1.46,0,0,0,.479-1.185,1.533,1.533,0,0,0-.518-1.3,2.77,2.77,0,0,0-1.67-.4h-1.68ZM5.649-4.814a5.193,5.193,0,0,1-.8,2.622A4.833,4.833,0,0,1,2.793-.43,7,7,0,0,1-.229.2,5.584,5.584,0,0,1-4.644-1.631,7.54,7.54,0,0,1-6.255-6.787v-.7a8.607,8.607,0,0,1,.728-3.657,5.513,5.513,0,0,1,2.095-2.422,5.844,5.844,0,0,1,3.164-.854,6.129,6.129,0,0,1,4.16,1.362A5.383,5.383,0,0,1,5.679-9.307H2.261a2.547,2.547,0,0,0-.654-1.865,2.691,2.691,0,0,0-1.875-.566,2.048,2.048,0,0,0-1.875.957,6.151,6.151,0,0,0-.625,3.057v1.006A6.806,6.806,0,0,0-2.2-3.467,2.091,2.091,0,0,0-.229-2.49a2.632,2.632,0,0,0,1.807-.557,2.363,2.363,0,0,0,.664-1.768ZM18.911-1.758A5.511,5.511,0,0,1,16.6-.342,9.982,9.982,0,0,1,13.257.2,5.955,5.955,0,0,1,8.794-1.514,6.918,6.918,0,0,1,7.007-6.27L7-7.5a8.485,8.485,0,0,1,.742-3.667,5.511,5.511,0,0,1,2.124-2.412,6.008,6.008,0,0,1,3.2-.845,6.3,6.3,0,0,1,4.126,1.216A5.152,5.152,0,0,1,18.9-9.58H15.6a2.7,2.7,0,0,0-.762-1.7,2.458,2.458,0,0,0-1.66-.508,2.237,2.237,0,0,0-1.992,1.094,5.84,5.84,0,0,0-.713,3.125v.859a5.717,5.717,0,0,0,.728,3.2,2.573,2.573,0,0,0,2.29,1.069,2.88,2.88,0,0,0,1.992-.6V-5.244H13.1V-7.6h5.811Z" transform="translate(979.29 2473.21)" fill="#fff"/>
      <path id="Trazado_194184" data-name="Trazado 194184" d="M-26.289-4.824V0h-3.428V-14.219h5.674a6.608,6.608,0,0,1,2.886.6,4.526,4.526,0,0,1,1.943,1.709,4.667,4.667,0,0,1,.688,2.515,4.114,4.114,0,0,1-1.489,3.325A6.179,6.179,0,0,1-24.1-4.824Zm0-2.646h2.246a2.118,2.118,0,0,0,1.519-.5A1.85,1.85,0,0,0-22-9.375a2.287,2.287,0,0,0-.537-1.592A1.9,1.9,0,0,0-24-11.572h-2.285ZM-7.881-6.035h-5.391v3.4H-6.9V0H-16.7V-14.219h9.814v2.646h-6.387v3h5.391ZM-.3-8.047l2.617-6.172h3.7L1.436-5.107V0H-2.041V-5.107l-4.57-9.111H-2.93ZM15.869-6.035H10.479v3.4h6.367V0H7.051V-14.219h9.814v2.646H10.479v3h5.391ZM26.318-2.656h-4.7L20.8,0H17.139l5.215-14.219h3.223L30.83,0H27.148ZM22.441-5.3H25.5l-1.533-4.932Z" transform="translate(1062.312 2567.598)" fill="#fff"/>
    </g>
  </g>
</svg>
