<svg xmlns="http://www.w3.org/2000/svg" xmlns:xlink="http://www.w3.org/1999/xlink" width="673.497" height="363.937" viewBox="0 0 673.497 363.937">
  <defs>
    <clipPath id="clip-path">
      <circle id="Elipse_17501" data-name="Elipse 17501" cx="57.53" cy="57.53" r="57.53" transform="matrix(0.528, -0.849, 0.849, 0.528, -14.292, 325.735)" fill="#4e2e8e"/>
    </clipPath>
    <clipPath id="clip-path-2">
      <circle id="Elipse_17504" data-name="Elipse 17504" cx="57.53" cy="57.53" r="57.53" transform="matrix(0.528, -0.849, 0.849, 0.528, 66.222, 229.228)" fill="none"/>
    </clipPath>
    <clipPath id="clip-path-3">
      <circle id="Elipse_17508" data-name="Elipse 17508" cx="57.53" cy="57.53" r="57.53" transform="matrix(0.528, -0.849, 0.849, 0.528, 177.734, 174.728)" fill="#c6412a"/>
    </clipPath>
    <clipPath id="clip-path-4">
      <circle id="Elipse_17512" data-name="Elipse 17512" cx="57.628" cy="57.628" r="57.628" transform="matrix(0.529, -0.849, 0.849, 0.529, 422.607, 232.537)" fill="#c6412a"/>
    </clipPath>
    <clipPath id="clip-path-5">
      <circle id="Elipse_17516" data-name="Elipse 17516" cx="57.53" cy="57.53" r="57.53" transform="matrix(0.849, -0.528, 0.528, 0.849, 500.72, 288.769)" fill="#6677d6"/>
    </clipPath>
    <clipPath id="clip-path-6">
      <circle id="Elipse_17519" data-name="Elipse 17519" cx="57.53" cy="57.53" r="57.53" transform="matrix(0.849, -0.528, 0.528, 0.849, 308.713, 137.795)" fill="none"/>
    </clipPath>
  </defs>
  <g id="Grupo_134946" data-name="Grupo 134946" transform="translate(4971.933 1525.568)">
    <g id="Grupo_134945" data-name="Grupo 134945">
      <g id="Grupo_134505" data-name="Grupo 134505" transform="translate(-5403.437 -3811.599)">
        <g id="INFOGRAFIA_NTERACTIVA_-04" data-name="INFOGRAFIA NTERACTIVA -04" transform="translate(445.795 2263.432)">
          <circle id="Elipse_17498" data-name="Elipse 17498" cx="57.53" cy="57.53" r="57.53" transform="matrix(0.528, -0.849, 0.849, 0.528, -14.292, 325.735)" fill="#ffef0f"/>
          <circle id="Elipse_17499" data-name="Elipse 17499" cx="57.53" cy="57.53" r="57.53" transform="matrix(0.528, -0.849, 0.849, 0.528, -14.292, 325.735)" fill="#4e2e8e"/>
          <g id="Grupo_134498" data-name="Grupo 134498" clip-path="url(#clip-path)">
            <circle id="Elipse_17500" data-name="Elipse 17500" cx="57.53" cy="57.53" r="57.53" transform="matrix(0.528, -0.849, 0.849, 0.528, -14.292, 325.735)" fill="none" stroke="#fff" stroke-miterlimit="22.93" stroke-width="14.4" opacity="0.5"/>
          </g>
          <path id="Trazado_192696" data-name="Trazado 192696" d="M28.79,286.38a41.77,41.77,0,1,1,15.29,57.05,41.77,41.77,0,0,1-15.29-57.05Z" fill="#3b236b" fill-rule="evenodd"/>
          <circle id="Elipse_17502" data-name="Elipse 17502" cx="57.53" cy="57.53" r="57.53" transform="matrix(0.528, -0.849, 0.849, 0.528, 66.222, 229.228)" fill="#6677d6"/>
          <g id="Grupo_134499" data-name="Grupo 134499" clip-path="url(#clip-path-2)">
            <circle id="Elipse_17503" data-name="Elipse 17503" cx="57.53" cy="57.53" r="57.53" transform="matrix(0.528, -0.849, 0.849, 0.528, 66.222, 229.228)" fill="none" stroke="#fff" stroke-miterlimit="22.93" stroke-width="14.4" opacity="0.5"/>
          </g>
          <path id="Trazado_192697" data-name="Trazado 192697" d="M109.29,189.88a41.77,41.77,0,1,1,15.29,57.05,41.77,41.77,0,0,1-15.29-57.05Z" fill="#4d59a1" fill-rule="evenodd"/>
          <circle id="Elipse_17505" data-name="Elipse 17505" cx="57.53" cy="57.53" r="57.53" transform="matrix(0.528, -0.849, 0.849, 0.528, 177.734, 174.728)" fill="#ffa845"/>
          <circle id="Elipse_17506" data-name="Elipse 17506" cx="57.53" cy="57.53" r="57.53" transform="matrix(0.528, -0.849, 0.849, 0.528, 177.734, 174.728)" fill="#c6412a"/>
          <g id="Grupo_134500" data-name="Grupo 134500" clip-path="url(#clip-path-3)">
            <circle id="Elipse_17507" data-name="Elipse 17507" cx="57.53" cy="57.53" r="57.53" transform="matrix(0.528, -0.849, 0.849, 0.528, 177.734, 174.728)" fill="none" stroke="#fff" stroke-miterlimit="22.93" stroke-width="14.4" opacity="0.5"/>
          </g>
          <path id="Trazado_192698" data-name="Trazado 192698" d="M220.79,135.38a41.77,41.77,0,1,1,15.29,57.05,41.77,41.77,0,0,1-15.29-57.05Z" fill="#953120" fill-rule="evenodd"/>
          <circle id="Elipse_17509" data-name="Elipse 17509" cx="57.628" cy="57.628" r="57.628" transform="matrix(0.529, -0.849, 0.849, 0.529, 422.607, 232.537)" fill="#ffa845"/>
          <circle id="Elipse_17510" data-name="Elipse 17510" cx="57.628" cy="57.628" r="57.628" transform="matrix(0.529, -0.849, 0.849, 0.529, 422.607, 232.537)" fill="#c6412a"/>
          <g id="Grupo_134501" data-name="Grupo 134501" clip-path="url(#clip-path-4)">
            <circle id="Elipse_17511" data-name="Elipse 17511" cx="57.628" cy="57.628" r="57.628" transform="matrix(0.529, -0.849, 0.849, 0.529, 422.607, 232.537)" fill="none" stroke="#fff" stroke-miterlimit="22.93" stroke-width="14.424" opacity="0.5"/>
          </g>
          <path id="Trazado_192699" data-name="Trazado 192699" d="M464.79,193.38a41.77,41.77,0,1,1,15.29,57.05A41.77,41.77,0,0,1,464.79,193.38Z" fill="#953120" fill-rule="evenodd"/>
          <g id="Grupo_134504" data-name="Grupo 134504" transform="translate(-2.607 -2)">
            <path id="Trazado_192700" data-name="Trazado 192700" d="M65,318.49a1.08,1.08,0,0,0,1-1.08V316a1.08,1.08,0,0,0-2.16,0v1.43A1.08,1.08,0,0,0,65,318.49Z" fill="#fff" fill-rule="evenodd"/>
            <path id="Trazado_192701" data-name="Trazado 192701" d="M74,320.1a1.08,1.08,0,0,0-1.47-.39l-1.24.72a1.073,1.073,0,0,0,1.07,1.86l1.24-.72a1.08,1.08,0,0,0,.4-1.47Z" fill="#fff" fill-rule="evenodd"/>
            <path id="Trazado_192702" data-name="Trazado 192702" d="M70.16,316.3a1.08,1.08,0,0,0-1.47.39L68,317.93A1.08,1.08,0,0,0,69.84,319l.71-1.24A1.07,1.07,0,0,0,70.16,316.3Z" fill="#fff" fill-rule="evenodd"/>
            <path id="Trazado_192703" data-name="Trazado 192703" d="M61.55,319.4a1.08,1.08,0,0,0,.4-1.47l-.72-1.24a1.08,1.08,0,1,0-1.86,1.08l.71,1.24A1.08,1.08,0,0,0,61.55,319.4Z" fill="#fff" fill-rule="evenodd"/>
            <path id="Trazado_192704" data-name="Trazado 192704" d="M58.67,320.43l-1.25-.72a1.073,1.073,0,1,0-1.07,1.86l1.24.72a1.08,1.08,0,1,0,1.08-1.86Z" fill="#fff" fill-rule="evenodd"/>
            <path id="Trazado_192705" data-name="Trazado 192705" d="M65,319.92a5.39,5.39,0,0,0-5.38,5.38,5.28,5.28,0,0,0,.88,2.94,5.16,5.16,0,0,1,.91,2.8v2.87a2.51,2.51,0,0,0,2.51,2.51H66a2.51,2.51,0,0,0,2.51-2.51V331a5.16,5.16,0,0,1,.91-2.8,5.28,5.28,0,0,0,.88-2.94,5.39,5.39,0,0,0-5.3-5.34Zm1.43,14a.36.36,0,0,1-.35.36h-2.2a.36.36,0,0,1-.35-.36v-1.79h2.86v1.79Zm1.27-6.85A7.86,7.86,0,0,0,66.49,330H63.43a7.86,7.86,0,0,0-1.17-2.91,3.14,3.14,0,0,1-.53-1.76,3.23,3.23,0,1,1,6.46,0,3.14,3.14,0,0,1-.53,1.73Z" fill="#fff" fill-rule="evenodd"/>
          </g>
          <g id="Grupo_134506" data-name="Grupo 134506" transform="translate(80.154 -103.106)">
            <path id="Trazado_192700-2" data-name="Trazado 192700" d="M65,318.49a1.08,1.08,0,0,0,1-1.08V316a1.08,1.08,0,0,0-2.16,0v1.43A1.08,1.08,0,0,0,65,318.49Z" fill="#fff" fill-rule="evenodd"/>
            <path id="Trazado_192701-2" data-name="Trazado 192701" d="M74,320.1a1.08,1.08,0,0,0-1.47-.39l-1.24.72a1.073,1.073,0,0,0,1.07,1.86l1.24-.72a1.08,1.08,0,0,0,.4-1.47Z" fill="#fff" fill-rule="evenodd"/>
            <path id="Trazado_192702-2" data-name="Trazado 192702" d="M70.16,316.3a1.08,1.08,0,0,0-1.47.39L68,317.93A1.08,1.08,0,0,0,69.84,319l.71-1.24A1.07,1.07,0,0,0,70.16,316.3Z" fill="#fff" fill-rule="evenodd"/>
            <path id="Trazado_192703-2" data-name="Trazado 192703" d="M61.55,319.4a1.08,1.08,0,0,0,.4-1.47l-.72-1.24a1.08,1.08,0,1,0-1.86,1.08l.71,1.24A1.08,1.08,0,0,0,61.55,319.4Z" fill="#fff" fill-rule="evenodd"/>
            <path id="Trazado_192704-2" data-name="Trazado 192704" d="M58.67,320.43l-1.25-.72a1.073,1.073,0,1,0-1.07,1.86l1.24.72a1.08,1.08,0,1,0,1.08-1.86Z" fill="#fff" fill-rule="evenodd"/>
            <path id="Trazado_192705-2" data-name="Trazado 192705" d="M65,319.92a5.39,5.39,0,0,0-5.38,5.38,5.28,5.28,0,0,0,.88,2.94,5.16,5.16,0,0,1,.91,2.8v2.87a2.51,2.51,0,0,0,2.51,2.51H66a2.51,2.51,0,0,0,2.51-2.51V331a5.16,5.16,0,0,1,.91-2.8,5.28,5.28,0,0,0,.88-2.94,5.39,5.39,0,0,0-5.3-5.34Zm1.43,14a.36.36,0,0,1-.35.36h-2.2a.36.36,0,0,1-.35-.36v-1.79h2.86v1.79Zm1.27-6.85A7.86,7.86,0,0,0,66.49,330H63.43a7.86,7.86,0,0,0-1.17-2.91,3.14,3.14,0,0,1-.53-1.76,3.23,3.23,0,1,1,6.46,0,3.14,3.14,0,0,1-.53,1.73Z" fill="#fff" fill-rule="evenodd"/>
          </g>
          <g id="Grupo_134507" data-name="Grupo 134507" transform="translate(193.393 -158.31)">
            <path id="Trazado_192700-3" data-name="Trazado 192700" d="M65,318.49a1.08,1.08,0,0,0,1-1.08V316a1.08,1.08,0,0,0-2.16,0v1.43A1.08,1.08,0,0,0,65,318.49Z" fill="#fff" fill-rule="evenodd"/>
            <path id="Trazado_192701-3" data-name="Trazado 192701" d="M74,320.1a1.08,1.08,0,0,0-1.47-.39l-1.24.72a1.073,1.073,0,0,0,1.07,1.86l1.24-.72a1.08,1.08,0,0,0,.4-1.47Z" fill="#fff" fill-rule="evenodd"/>
            <path id="Trazado_192702-3" data-name="Trazado 192702" d="M70.16,316.3a1.08,1.08,0,0,0-1.47.39L68,317.93A1.08,1.08,0,0,0,69.84,319l.71-1.24A1.07,1.07,0,0,0,70.16,316.3Z" fill="#fff" fill-rule="evenodd"/>
            <path id="Trazado_192703-3" data-name="Trazado 192703" d="M61.55,319.4a1.08,1.08,0,0,0,.4-1.47l-.72-1.24a1.08,1.08,0,1,0-1.86,1.08l.71,1.24A1.08,1.08,0,0,0,61.55,319.4Z" fill="#fff" fill-rule="evenodd"/>
            <path id="Trazado_192704-3" data-name="Trazado 192704" d="M58.67,320.43l-1.25-.72a1.073,1.073,0,1,0-1.07,1.86l1.24.72a1.08,1.08,0,1,0,1.08-1.86Z" fill="#fff" fill-rule="evenodd"/>
            <path id="Trazado_192705-3" data-name="Trazado 192705" d="M65,319.92a5.39,5.39,0,0,0-5.38,5.38,5.28,5.28,0,0,0,.88,2.94,5.16,5.16,0,0,1,.91,2.8v2.87a2.51,2.51,0,0,0,2.51,2.51H66a2.51,2.51,0,0,0,2.51-2.51V331a5.16,5.16,0,0,1,.91-2.8,5.28,5.28,0,0,0,.88-2.94,5.39,5.39,0,0,0-5.3-5.34Zm1.43,14a.36.36,0,0,1-.35.36h-2.2a.36.36,0,0,1-.35-.36v-1.79h2.86v1.79Zm1.27-6.85A7.86,7.86,0,0,0,66.49,330H63.43a7.86,7.86,0,0,0-1.17-2.91,3.14,3.14,0,0,1-.53-1.76,3.23,3.23,0,1,1,6.46,0,3.14,3.14,0,0,1-.53,1.73Z" fill="#fff" fill-rule="evenodd"/>
          </g>
          <circle id="Elipse_17513" data-name="Elipse 17513" cx="57.53" cy="57.53" r="57.53" transform="matrix(0.849, -0.528, 0.528, 0.849, 500.72, 288.769)" fill="#ffa845"/>
          <circle id="Elipse_17514" data-name="Elipse 17514" cx="57.53" cy="57.53" r="57.53" transform="matrix(0.849, -0.528, 0.528, 0.849, 500.72, 288.769)" fill="#6677d6"/>
          <g id="Grupo_134502" data-name="Grupo 134502" clip-path="url(#clip-path-5)">
            <circle id="Elipse_17515" data-name="Elipse 17515" cx="57.53" cy="57.53" r="57.53" transform="matrix(0.849, -0.528, 0.528, 0.849, 500.72, 288.769)" fill="none" stroke="#fff" stroke-miterlimit="22.93" stroke-width="14.4" opacity="0.5"/>
          </g>
          <path id="Trazado_192706" data-name="Trazado 192706" d="M616.13,286.38a41.77,41.77,0,1,0-15.29,57.05,41.77,41.77,0,0,0,15.29-57.05Z" fill="#4d59a1" fill-rule="evenodd"/>
          <circle id="Elipse_17517" data-name="Elipse 17517" cx="57.53" cy="57.53" r="57.53" transform="matrix(0.849, -0.528, 0.528, 0.849, 308.713, 137.795)" fill="#4e2e8e"/>
          <g id="Grupo_134503" data-name="Grupo 134503" clip-path="url(#clip-path-6)">
            <circle id="Elipse_17518" data-name="Elipse 17518" cx="57.53" cy="57.53" r="57.53" transform="matrix(0.849, -0.528, 0.528, 0.849, 308.713, 137.795)" fill="none" stroke="#fff" stroke-miterlimit="22.93" stroke-width="14.4" opacity="0.5"/>
          </g>
          <path id="Trazado_192707" data-name="Trazado 192707" d="M424.13,135.38a41.77,41.77,0,1,0-15.29,57.05,41.77,41.77,0,0,0,15.29-57.05Z" fill="#3b236b" fill-rule="evenodd"/>
          <path id="Trazado_192708" data-name="Trazado 192708" d="M66.28,221.83H57.64a1.2,1.2,0,0,0,0,2.4h3.12V240.6a2.27,2.27,0,1,0,2.4,0V224.23h3.12a1.2,1.2,0,1,0,0-2.4Z" fill="gray" fill-rule="evenodd"/>
          <path id="Trazado_192709" data-name="Trazado 192709" d="M571.46,380.68a7.2,7.2,0,0,1-6.94-5.27c-30-107.7-129.1-182.92-241-182.92s-211,75.22-241,182.92a7.2,7.2,0,1,1-13.88-3.86,264.645,264.645,0,0,1,509.76,0,7.19,7.19,0,0,1-6.94,9.13Z" fill="#e6e6e6"/>
          <g id="Grupo_112221" data-name="Grupo 112221">
            <g id="Grupo_78489" data-name="Grupo 78489">
              <circle id="Elipse_4758" data-name="Elipse 4758" cx="17" cy="17" r="17" transform="translate(43.8 177.6)" fill="#ffef0f" opacity="0.18"/>
              <circle id="Elipse_4759" data-name="Elipse 4759" cx="21" cy="21" r="21" transform="translate(39.8 173.6)" fill="#ffef0f" opacity="0.15"/>
            </g>
          </g>
          <path id="Trazado_192710" data-name="Trazado 192710" d="M149.28,125.83h-8.64a1.2,1.2,0,0,0,0,2.4h3.12V144.6a2.27,2.27,0,1,0,2.4,0V128.23h3.12a1.2,1.2,0,0,0,0-2.4Z" fill="gray" fill-rule="evenodd"/>
          <g id="Grupo_112221-2" data-name="Grupo 112221">
            <g id="Grupo_78489-2" data-name="Grupo 78489">
              <circle id="Elipse_4758-2" data-name="Elipse 4758" cx="17" cy="17" r="17" transform="translate(126.8 81.6)" fill="#ffef0f" opacity="0.18"/>
              <circle id="Elipse_4759-2" data-name="Elipse 4759" cx="21" cy="21" r="21" transform="translate(122.8 77.6)" fill="#ffef0f" opacity="0.15"/>
            </g>
          </g>
          <path id="Trazado_192711" data-name="Trazado 192711" d="M259.28,70.83h-8.64a1.2,1.2,0,0,0,0,2.4h3.12V89.6a2.27,2.27,0,1,0,2.4,0V73.23h3.12a1.2,1.2,0,1,0,0-2.4Z" fill="gray" fill-rule="evenodd"/>
          <g id="Grupo_112221-3" data-name="Grupo 112221">
            <g id="Grupo_78489-3" data-name="Grupo 78489">
              <circle id="Elipse_4758-3" data-name="Elipse 4758" cx="17" cy="17" r="17" transform="translate(236.8 26.6)" fill="#ffef0f" opacity="0.18"/>
              <circle id="Elipse_4759-3" data-name="Elipse 4759" cx="21" cy="21" r="21" transform="translate(232.8 22.6)" fill="#ffef0f" opacity="0.15"/>
            </g>
          </g>
          <path id="Trazado_192712" data-name="Trazado 192712" d="M579.32,221.83H588a1.2,1.2,0,1,1,0,2.4h-3.11V240.6a2.28,2.28,0,1,1-2.4,0V224.23h-3.12a1.2,1.2,0,1,1,0-2.4Z" fill="gray" fill-rule="evenodd"/>
          <g id="Grupo_112221-4" data-name="Grupo 112221">
            <g id="Grupo_78489-4" data-name="Grupo 78489">
              <circle id="Elipse_4758-4" data-name="Elipse 4758" cx="17" cy="17" r="17" transform="translate(567.8 177.6)" fill="#ffef0f" opacity="0.18"/>
              <circle id="Elipse_4759-4" data-name="Elipse 4759" cx="21" cy="21" r="21" transform="translate(563.8 173.6)" fill="#ffef0f" opacity="0.15"/>
            </g>
          </g>
          <path id="Trazado_192713" data-name="Trazado 192713" d="M496.32,125.83H505a1.2,1.2,0,1,1,0,2.4h-3.11V144.6a2.28,2.28,0,1,1-2.4,0V128.23h-3.12a1.2,1.2,0,1,1,0-2.4Z" fill="gray" fill-rule="evenodd"/>
          <g id="Grupo_112221-5" data-name="Grupo 112221">
            <g id="Grupo_78489-5" data-name="Grupo 78489">
              <circle id="Elipse_4758-5" data-name="Elipse 4758" cx="17" cy="17" r="17" transform="translate(484.8 81.6)" fill="#ffef0f" opacity="0.18"/>
              <circle id="Elipse_4759-5" data-name="Elipse 4759" cx="21" cy="21" r="21" transform="translate(480.8 77.6)" fill="#ffef0f" opacity="0.15"/>
            </g>
          </g>
          <path id="Trazado_192714" data-name="Trazado 192714" d="M386.32,70.83H395a1.2,1.2,0,0,1,0,2.4h-3.11V89.6a2.28,2.28,0,1,1-2.4,0V73.23h-3.12a1.2,1.2,0,1,1,0-2.4Z" fill="gray" fill-rule="evenodd"/>
          <g id="Grupo_112221-6" data-name="Grupo 112221">
            <g id="Grupo_78489-6" data-name="Grupo 78489">
              <circle id="Elipse_4758-6" data-name="Elipse 4758" cx="17" cy="17" r="17" transform="translate(374.8 26.6)" fill="#ffef0f" opacity="0.18"/>
              <circle id="Elipse_4759-6" data-name="Elipse 4759" cx="21" cy="21" r="21" transform="translate(370.8 22.6)" fill="#ffef0f" opacity="0.15"/>
            </g>
          </g>
          <text id="DOFA" transform="translate(61.96 305.399)" fill="#fff" font-size="20" font-family="Roboto-Black, Roboto" font-weight="800"><tspan x="-24.712" y="0">DOFA</tspan></text>
          <text id="PCI" transform="translate(145.466 204.292)" fill="#fff" font-size="20" font-family="Roboto-Black, Roboto" font-weight="800"><tspan x="-16.089" y="0">PCI</tspan></text>
          <text id="POAM" transform="translate(229.42 149.089)" fill="#fff" font-size="20" font-family="Roboto-Black, Roboto" font-weight="800"><tspan x="0" y="0">POAM</tspan></text>
          <path id="Trazado_192715" data-name="Trazado 192715" d="M323.5,186.81c118.18,0,217.74,79.65,248,188.19H75.54C105.76,266.46,205.32,186.81,323.5,186.81Z" fill="#fff" fill-rule="evenodd"/>
          <text id="MATRICES_DE" data-name="MATRICES DE" transform="translate(258.42 305.13)" fill="#12263f" font-size="20.5" font-family="Roboto-Regular, Roboto"><tspan x="0" y="0">MATRICES DE</tspan></text>
          <text id="DIAGNOSTICO" transform="translate(226.55 333.47)" fill="#12263f" font-size="29.46" font-family="Roboto-Bold, Roboto" font-weight="700"><tspan x="0" y="0">DIAGNOSTICO</tspan></text>
          <path id="Trazado_192716" data-name="Trazado 192716" d="M343.54,267.73h-1.33v-18a4.58,4.58,0,0,0,2.49-4.08v-3.32a1.26,1.26,0,0,0-.11-.51L342,236a5.41,5.41,0,0,0-4.92-3.18h-1.47V228.9a1.25,1.25,0,0,0-1.25-1.25H312.69a1.25,1.25,0,0,0-1.25,1.25v3.91H310a5.41,5.41,0,0,0-4.93,3.181l-2.64,5.869a1.26,1.26,0,0,0-.11.51v3.32a4.58,4.58,0,0,0,2.49,4.08v18h-1.33a1.25,1.25,0,0,0,0,2.49h40.08a1.25,1.25,0,0,0,0-2.49Zm-29.6-37.58h19.12V236H313.94v-5.82ZM307.32,237a2.92,2.92,0,0,1,2.68-1.7h1.46v1.91a1.25,1.25,0,0,0,1.25,1.25h21.62a1.25,1.25,0,0,0,1.25-1.25V235.3H337a2.92,2.92,0,0,1,2.65,1.72l1.85,4.1h-36l1.84-4.1Zm28.24,6.6v2.07a2.08,2.08,0,0,1-4.16,0V243.6Zm-6.66,0v2.07a2.08,2.08,0,1,1-4.15,0V243.6Zm-6.65,0v2.07a2.08,2.08,0,1,1-4.15,0V243.6Zm-6.65,0v2.07a2.08,2.08,0,0,1-4.16,0V243.6Zm-10.81,2.07V243.6H309v2.07a2.08,2.08,0,0,1-4.16,0Zm13.31,22h-5.82V255.26h5.82v12.47Zm21.61,0H320.59V254a1.25,1.25,0,0,0-1.25-1.25H311a1.25,1.25,0,0,0-1.25,1.25v13.72h-2.49V250.25a4.61,4.61,0,0,0,2.91-1.42,4.56,4.56,0,0,0,6.65,0,4.56,4.56,0,0,0,6.65,0,4.56,4.56,0,0,0,6.65,0,4.56,4.56,0,0,0,6.65,0,4.61,4.61,0,0,0,2.91,1.42v17.48Zm.42-20a2.08,2.08,0,0,1-2.08-2.08v-2.07h4.16v2.07a2.08,2.08,0,0,1-2.08,2.18Z" fill="#12263f" fill-rule="evenodd"/>
          <path id="Trazado_192717" data-name="Trazado 192717" d="M336,252.76H324.33a1.25,1.25,0,0,0-1.25,1.25v10a1.25,1.25,0,0,0,1.25,1.24H336a1.25,1.25,0,0,0,1.25-1.24V254a1.25,1.25,0,0,0-1.25-1.25Zm-1.25,10h-9.14v-7.48h9.14Z" fill="#12263f" fill-rule="evenodd"/>
          <path id="Trazado_192718" data-name="Trazado 192718" d="M248.4,280.14c9.93-3,151.14,0,151.14,0" fill="none" stroke="#12263f" stroke-linecap="round" stroke-linejoin="round" stroke-width="3.12" fill-rule="evenodd"/>
          <g id="Grupo_134508" data-name="Grupo 134508" transform="translate(322.644 -155.32)">
            <path id="Trazado_192700-4" data-name="Trazado 192700" d="M65,318.49a1.08,1.08,0,0,0,1-1.08V316a1.08,1.08,0,0,0-2.16,0v1.43A1.08,1.08,0,0,0,65,318.49Z" fill="#fff" fill-rule="evenodd"/>
            <path id="Trazado_192701-4" data-name="Trazado 192701" d="M74,320.1a1.08,1.08,0,0,0-1.47-.39l-1.24.72a1.073,1.073,0,0,0,1.07,1.86l1.24-.72a1.08,1.08,0,0,0,.4-1.47Z" fill="#fff" fill-rule="evenodd"/>
            <path id="Trazado_192702-4" data-name="Trazado 192702" d="M70.16,316.3a1.08,1.08,0,0,0-1.47.39L68,317.93A1.08,1.08,0,0,0,69.84,319l.71-1.24A1.07,1.07,0,0,0,70.16,316.3Z" fill="#fff" fill-rule="evenodd"/>
            <path id="Trazado_192703-4" data-name="Trazado 192703" d="M61.55,319.4a1.08,1.08,0,0,0,.4-1.47l-.72-1.24a1.08,1.08,0,1,0-1.86,1.08l.71,1.24A1.08,1.08,0,0,0,61.55,319.4Z" fill="#fff" fill-rule="evenodd"/>
            <path id="Trazado_192704-4" data-name="Trazado 192704" d="M58.67,320.43l-1.25-.72a1.073,1.073,0,1,0-1.07,1.86l1.24.72a1.08,1.08,0,1,0,1.08-1.86Z" fill="#fff" fill-rule="evenodd"/>
            <path id="Trazado_192705-4" data-name="Trazado 192705" d="M65,319.92a5.39,5.39,0,0,0-5.38,5.38,5.28,5.28,0,0,0,.88,2.94,5.16,5.16,0,0,1,.91,2.8v2.87a2.51,2.51,0,0,0,2.51,2.51H66a2.51,2.51,0,0,0,2.51-2.51V331a5.16,5.16,0,0,1,.91-2.8,5.28,5.28,0,0,0,.88-2.94,5.39,5.39,0,0,0-5.3-5.34Zm1.43,14a.36.36,0,0,1-.35.36h-2.2a.36.36,0,0,1-.35-.36v-1.79h2.86v1.79Zm1.27-6.85A7.86,7.86,0,0,0,66.49,330H63.43a7.86,7.86,0,0,0-1.17-2.91,3.14,3.14,0,0,1-.53-1.76,3.23,3.23,0,1,1,6.46,0,3.14,3.14,0,0,1-.53,1.73Z" fill="#fff" fill-rule="evenodd"/>
          </g>
          <g id="Grupo_134509" data-name="Grupo 134509" transform="translate(436.708 -97.589)">
            <path id="Trazado_192700-5" data-name="Trazado 192700" d="M65,318.49a1.08,1.08,0,0,0,1-1.08V316a1.08,1.08,0,0,0-2.16,0v1.43A1.08,1.08,0,0,0,65,318.49Z" fill="#fff" fill-rule="evenodd"/>
            <path id="Trazado_192701-5" data-name="Trazado 192701" d="M74,320.1a1.08,1.08,0,0,0-1.47-.39l-1.24.72a1.073,1.073,0,0,0,1.07,1.86l1.24-.72a1.08,1.08,0,0,0,.4-1.47Z" fill="#fff" fill-rule="evenodd"/>
            <path id="Trazado_192702-5" data-name="Trazado 192702" d="M70.16,316.3a1.08,1.08,0,0,0-1.47.39L68,317.93A1.08,1.08,0,0,0,69.84,319l.71-1.24A1.07,1.07,0,0,0,70.16,316.3Z" fill="#fff" fill-rule="evenodd"/>
            <path id="Trazado_192703-5" data-name="Trazado 192703" d="M61.55,319.4a1.08,1.08,0,0,0,.4-1.47l-.72-1.24a1.08,1.08,0,1,0-1.86,1.08l.71,1.24A1.08,1.08,0,0,0,61.55,319.4Z" fill="#fff" fill-rule="evenodd"/>
            <path id="Trazado_192704-5" data-name="Trazado 192704" d="M58.67,320.43l-1.25-.72a1.073,1.073,0,1,0-1.07,1.86l1.24.72a1.08,1.08,0,1,0,1.08-1.86Z" fill="#fff" fill-rule="evenodd"/>
            <path id="Trazado_192705-5" data-name="Trazado 192705" d="M65,319.92a5.39,5.39,0,0,0-5.38,5.38,5.28,5.28,0,0,0,.88,2.94,5.16,5.16,0,0,1,.91,2.8v2.87a2.51,2.51,0,0,0,2.51,2.51H66a2.51,2.51,0,0,0,2.51-2.51V331a5.16,5.16,0,0,1,.91-2.8,5.28,5.28,0,0,0,.88-2.94,5.39,5.39,0,0,0-5.3-5.34Zm1.43,14a.36.36,0,0,1-.35.36h-2.2a.36.36,0,0,1-.35-.36v-1.79h2.86v1.79Zm1.27-6.85A7.86,7.86,0,0,0,66.49,330H63.43a7.86,7.86,0,0,0-1.17-2.91,3.14,3.14,0,0,1-.53-1.76,3.23,3.23,0,1,1,6.46,0,3.14,3.14,0,0,1-.53,1.73Z" fill="#fff" fill-rule="evenodd"/>
          </g>
          <g id="Grupo_134510" data-name="Grupo 134510" transform="translate(518.393 -3.201)">
            <path id="Trazado_192700-6" data-name="Trazado 192700" d="M65,318.49a1.08,1.08,0,0,0,1-1.08V316a1.08,1.08,0,0,0-2.16,0v1.43A1.08,1.08,0,0,0,65,318.49Z" fill="#fff" fill-rule="evenodd"/>
            <path id="Trazado_192701-6" data-name="Trazado 192701" d="M74,320.1a1.08,1.08,0,0,0-1.47-.39l-1.24.72a1.073,1.073,0,0,0,1.07,1.86l1.24-.72a1.08,1.08,0,0,0,.4-1.47Z" fill="#fff" fill-rule="evenodd"/>
            <path id="Trazado_192702-6" data-name="Trazado 192702" d="M70.16,316.3a1.08,1.08,0,0,0-1.47.39L68,317.93A1.08,1.08,0,0,0,69.84,319l.71-1.24A1.07,1.07,0,0,0,70.16,316.3Z" fill="#fff" fill-rule="evenodd"/>
            <path id="Trazado_192703-6" data-name="Trazado 192703" d="M61.55,319.4a1.08,1.08,0,0,0,.4-1.47l-.72-1.24a1.08,1.08,0,1,0-1.86,1.08l.71,1.24A1.08,1.08,0,0,0,61.55,319.4Z" fill="#fff" fill-rule="evenodd"/>
            <path id="Trazado_192704-6" data-name="Trazado 192704" d="M58.67,320.43l-1.25-.72a1.073,1.073,0,1,0-1.07,1.86l1.24.72a1.08,1.08,0,1,0,1.08-1.86Z" fill="#fff" fill-rule="evenodd"/>
            <path id="Trazado_192705-6" data-name="Trazado 192705" d="M65,319.92a5.39,5.39,0,0,0-5.38,5.38,5.28,5.28,0,0,0,.88,2.94,5.16,5.16,0,0,1,.91,2.8v2.87a2.51,2.51,0,0,0,2.51,2.51H66a2.51,2.51,0,0,0,2.51-2.51V331a5.16,5.16,0,0,1,.91-2.8,5.28,5.28,0,0,0,.88-2.94,5.39,5.39,0,0,0-5.3-5.34Zm1.43,14a.36.36,0,0,1-.35.36h-2.2a.36.36,0,0,1-.35-.36v-1.79h2.86v1.79Zm1.27-6.85A7.86,7.86,0,0,0,66.49,330H63.43a7.86,7.86,0,0,0-1.17-2.91,3.14,3.14,0,0,1-.53-1.76,3.23,3.23,0,1,1,6.46,0,3.14,3.14,0,0,1-.53,1.73Z" fill="#fff" fill-rule="evenodd"/>
          </g>
          <text id="PEST" transform="translate(387.456 152.078)" fill="#fff" font-size="20" font-family="Roboto-Black, Roboto" font-weight="800"><tspan x="-24.668" y="0">PEST</tspan></text>
          <text id="BCG" transform="translate(501.998 209.81)" fill="#fff" font-size="20" font-family="Roboto-Black, Roboto" font-weight="800"><tspan x="-19.829" y="0">BCG</tspan></text>
          <text id="PEYEA" transform="translate(585.02 304.198)" fill="#fff" font-size="20" font-family="Roboto-Black, Roboto" font-weight="800"><tspan x="-30.791" y="0">PEYEA</tspan></text>
        </g>
      </g>
    </g>
  </g>
</svg>
