<svg xmlns="http://www.w3.org/2000/svg" width="88.594" height="117.614" viewBox="0 0 88.594 117.614">
  <g id="Grupo_134963" data-name="Grupo 134963" transform="translate(-645.12 8486.342)">
    <g id="certificado" transform="translate(626.171 -8486.342)">
      <g id="Grupo_134645" data-name="Grupo 134645" transform="translate(18.95 0)">
        <g id="Grupo_134643" data-name="Grupo 134643" transform="translate(1.723 1.723)">
          <path id="Trazado_193633" data-name="Trazado 193633" d="M102.825,7.419H99.836V7.3A5.054,5.054,0,0,0,94.783,2.25H26.253A5.054,5.054,0,0,0,21.2,7.3V99.7a5.054,5.054,0,0,0,5.054,5.054h68.53a5.055,5.055,0,0,0,4.877-3.728h3.165Z" transform="translate(-21.2 -2.25)" fill="#fff"/>
          <path id="Trazado_193634" data-name="Trazado 193634" d="M123.809,2.25H117.3A5.054,5.054,0,0,1,122.352,7.3V99.7a5.054,5.054,0,0,1-5.054,5.054h6.511a5.054,5.054,0,0,0,5.054-5.054V7.3A5.054,5.054,0,0,0,123.809,2.25Z" transform="translate(-43.715 -2.25)" fill="#d8ecfe"/>
          <path id="Trazado_193635" data-name="Trazado 193635" d="M40.225,123.6l-1.261,2.056v18.271a.92.92,0,0,0,1.6.619l8.458-9.3a.92.92,0,0,1,1.362,0l8.458,9.3a.92.92,0,0,0,1.6-.619V125.656L59.182,123.6Z" transform="translate(-25.362 -30.681)" fill="#c6412a"/>
          <path id="Trazado_193636" data-name="Trazado 193636" d="M38.964,119.647a17.059,17.059,0,0,0,21.479,0V97.953H38.964Z" transform="translate(-25.362 -24.673)" fill="#c6412a"/>
          <circle id="Elipse_17697" data-name="Elipse 17697" cx="17.069" cy="17.069" r="17.069" transform="translate(7.272 58.78)" fill="#ffef0f"/>
          <path id="Trazado_193637" data-name="Trazado 193637" d="M50.089,107.886a9.479,9.479,0,1,1,9.479-9.479,9.489,9.489,0,0,1-9.479,9.479Z" transform="translate(-25.747 -22.558)" fill="#6677d6"/>
        </g>
        <g id="Grupo_134644" data-name="Grupo 134644">
          <path id="Trazado_193638" data-name="Trazado 193638" d="M49.562,109.082a11.2,11.2,0,1,0-11.2-11.2,11.214,11.214,0,0,0,11.2,11.2Zm0-18.958a7.756,7.756,0,1,1-7.756,7.756,7.765,7.765,0,0,1,7.756-7.756Z" transform="translate(-23.497 -20.308)"/>
          <path id="Trazado_193639" data-name="Trazado 193639" d="M85.44,20.949a1.723,1.723,0,1,0,0-3.446H59.023a1.723,1.723,0,1,0,0,3.446Z" transform="translate(-27.935 -4.101)"/>
          <path id="Trazado_193640" data-name="Trazado 193640" d="M40.051,38.785a1.723,1.723,0,0,0,1.723,1.723H94.607a1.723,1.723,0,0,0,0-3.446H41.773a1.723,1.723,0,0,0-1.723,1.723Z" transform="translate(-23.893 -8.683)"/>
          <path id="Trazado_193641" data-name="Trazado 193641" d="M41.773,52.413H94.607a1.723,1.723,0,0,0,0-3.446H41.773a1.723,1.723,0,0,0,0,3.446Z" transform="translate(-23.893 -11.473)"/>
          <path id="Trazado_193642" data-name="Trazado 193642" d="M41.773,64.318H94.607a1.723,1.723,0,0,0,0-3.446H41.773a1.723,1.723,0,1,0,0,3.446Z" transform="translate(-23.893 -14.262)"/>
          <path id="Trazado_193643" data-name="Trazado 193643" d="M106.328,86.385H91.8a1.723,1.723,0,0,0,0,3.446h14.529a1.723,1.723,0,0,0,0-3.446Z" transform="translate(-35.614 -20.239)"/>
          <path id="Trazado_193644" data-name="Trazado 193644" d="M106.328,102.542H91.8a1.723,1.723,0,1,0,0,3.446h14.529a1.723,1.723,0,0,0,0-3.446Z" transform="translate(-35.614 -24.025)"/>
          <path id="Trazado_193645" data-name="Trazado 193645" d="M105.821,77.182a1.723,1.723,0,0,0-1.723,1.723v25.6a3.335,3.335,0,0,1-3.331,3.331H57.477V96.946a18.793,18.793,0,1,0-24.925,0v10.886H25.726A3.335,3.335,0,0,1,22.4,104.5V24.449a1.723,1.723,0,0,0-3.446,0V104.5a6.784,6.784,0,0,0,6.777,6.777h6.826v9.015a2.643,2.643,0,0,0,4.6,1.778l7.864-8.65,7.864,8.65a2.643,2.643,0,0,0,4.6-1.778v-9.015h43.29a6.784,6.784,0,0,0,6.777-6.777v-25.6A1.723,1.723,0,0,0,105.821,77.182ZM29.667,82.9a15.347,15.347,0,1,1,15.4,15.345h-.1A15.362,15.362,0,0,1,29.667,82.9Zm24.364,35.319-7.061-7.767a2.645,2.645,0,0,0-3.911,0L36,118.216V99.381a18.844,18.844,0,0,0,8.993,2.307h.047a18.847,18.847,0,0,0,8.993-2.307c0,4.221,0,15.1,0,18.835Z" transform="translate(-18.95 -5.325)"/>
          <path id="Trazado_193646" data-name="Trazado 193646" d="M100.767,0H25.726A6.784,6.784,0,0,0,18.95,6.777v4.308a1.723,1.723,0,1,0,3.446,0V6.777a3.335,3.335,0,0,1,3.331-3.331h75.041A3.335,3.335,0,0,1,104.1,6.777V65.541a1.723,1.723,0,1,0,3.446,0V6.777A6.784,6.784,0,0,0,100.767,0Z" transform="translate(-18.95 0)"/>
        </g>
      </g>
    </g>
  </g>
</svg>
