<svg xmlns="http://www.w3.org/2000/svg" width="157" height="157" viewBox="0 0 157 157">
  <g id="Grupo_134959" data-name="Grupo 134959" transform="translate(2149.75 761.018)">
    <g id="Grupo_134833" data-name="Grupo 134833" transform="translate(-625.383 -395.073)">
      <rect id="Rectángulo_42357" data-name="Rectángulo 42357" width="157" height="157" rx="78.5" transform="translate(-1524.367 -365.944)" fill="#fff"/>
      <g id="ganar" transform="translate(-1495.871 -337.446)">
        <g id="Grupo_134639" data-name="Grupo 134639" transform="translate(0.003 0)">
          <path id="Trazado_193604" data-name="Trazado 193604" d="M206.187,237.373H182.85a2.345,2.345,0,0,1-2.345-2.345v-4.85a2.345,2.345,0,0,1,2.345-2.345h23.337a2.345,2.345,0,0,1,2.345,2.345v4.85A2.345,2.345,0,0,1,206.187,237.373Z" transform="translate(-109.996 -138.835)" fill="#fff56f"/>
          <path id="Trazado_193605" data-name="Trazado 193605" d="M194.594,227.833H182.85a2.345,2.345,0,0,0-2.345,2.345v4.85a2.337,2.337,0,0,0,.689,1.66A19.2,19.2,0,0,0,194.594,227.833Z" transform="translate(-109.997 -138.835)" fill="#fff56f"/>
          <path id="Trazado_193606" data-name="Trazado 193606" d="M91.309,132.223a3.549,3.549,0,0,1-3.549,3.549H7.3a3.549,3.549,0,0,1-3.549-3.549V90.371A3.549,3.549,0,0,1,7.3,86.821H87.76a3.549,3.549,0,0,1,3.549,3.549v41.852Z" transform="translate(-2.289 -52.907)" fill="#6677d6"/>
          <path id="Trazado_193607" data-name="Trazado 193607" d="M212.915,90.371a3.549,3.549,0,0,0-3.549-3.549h-6.053a3.549,3.549,0,0,1,3.549,3.549v41.852a3.549,3.549,0,0,1-3.549,3.549h6.053a3.549,3.549,0,0,0,3.549-3.549Z" transform="translate(-123.895 -52.907)" fill="#6677d6"/>
          <path id="Trazado_193608" data-name="Trazado 193608" d="M95.9,119.008V103.585A16.764,16.764,0,0,1,79.14,86.822H41.524A16.764,16.764,0,0,1,24.76,103.585v15.422a16.764,16.764,0,0,1,16.764,16.764H79.14A16.764,16.764,0,0,1,95.9,119.008Z" transform="translate(-15.09 -52.907)" fill="#a3ade6"/>
          <path id="Trazado_193609" data-name="Trazado 193609" d="M206.187,212.95H182.85a2.345,2.345,0,0,1-2.345-2.345v-4.85a2.345,2.345,0,0,1,2.345-2.345h23.337a2.345,2.345,0,0,1,2.345,2.345v4.85A2.345,2.345,0,0,1,206.187,212.95Z" transform="translate(-109.996 -123.952)" fill="#fff56f"/>
          <path id="Trazado_193610" data-name="Trazado 193610" d="M197.466,203.409H182.85a2.345,2.345,0,0,0-2.345,2.345v4.85a2.345,2.345,0,0,0,2.345,2.345h11.744A19.09,19.09,0,0,0,197.466,203.409Z" transform="translate(-109.996 -123.952)" fill="#fff56f"/>
          <circle id="Elipse_17695" data-name="Elipse 17695" cx="15.393" cy="15.393" r="15.393" transform="translate(52.895 63.488)" fill="#ffef0f"/>
          <path id="Trazado_193611" data-name="Trazado 193611" d="M171.588,162.529a15.523,15.523,0,0,0-2.072.139,15.394,15.394,0,0,1,0,30.507,15.393,15.393,0,1,0,2.072-30.646Z" transform="translate(-103.3 -99.041)" fill="#ffef0f"/>
          <path id="Trazado_193612" data-name="Trazado 193612" d="M106.75,27.813h9.48a1.01,1.01,0,0,0,1.01-1.01V15.978a1.01,1.01,0,0,1,1.01-1.01h2.813a1.01,1.01,0,0,0,.7-1.739l-9.573-9.19a1.01,1.01,0,0,0-1.4,0l-9.573,9.19a1.01,1.01,0,0,0,.7,1.739h2.812a1.01,1.01,0,0,1,1.01,1.01V26.8A1.011,1.011,0,0,0,106.75,27.813Z" transform="translate(-61.49 -2.289)" fill="#6677d6"/>
          <path id="Trazado_193613" data-name="Trazado 193613" d="M134.29,13.228l-9.573-9.19a1.01,1.01,0,0,0-1.4,0l-1.855,1.781,7.718,7.409a1.01,1.01,0,0,1-.7,1.739h-2.812a1.01,1.01,0,0,0-1.01,1.01V26.8a1.01,1.01,0,0,1-1.01,1.01h5.11a1.01,1.01,0,0,0,1.01-1.01V15.978a1.01,1.01,0,0,1,1.01-1.01h2.813a1.01,1.01,0,0,0,.7-1.739Z" transform="translate(-74.018 -2.289)" fill="#6677d6"/>
          <g id="Grupo_134638" data-name="Grupo 134638" transform="translate(0 0)">
            <path id="Trazado_193614" data-name="Trazado 193614" d="M111.69,131.774a6.424,6.424,0,0,0-4.423-7.351c-.444-.157-.9-.322-1.352-.494v-7.453a8.334,8.334,0,0,1,2.808.469,1.465,1.465,0,0,0,1.146-2.7,10.976,10.976,0,0,0-3.954-.7v-1.251a1.465,1.465,0,0,0-2.93,0v1.587c-.233.055-.468.118-.707.19a6.079,6.079,0,0,0-4.163,4.77,5.348,5.348,0,0,0,1.749,5.27,14.52,14.52,0,0,0,3.121,1.784v9.07a6.2,6.2,0,0,1-3.338-1.24,1.465,1.465,0,1,0-1.6,2.452,9,9,0,0,0,4.942,1.721v1.66a1.465,1.465,0,0,0,2.93,0v-1.775a7.319,7.319,0,0,0,5.774-6.01Zm-10.017-9.968a2.458,2.458,0,0,1-.679-2.423,3.206,3.206,0,0,1,1.991-2.459v5.715A9.2,9.2,0,0,1,101.673,121.806Zm7.128,9.482a4.45,4.45,0,0,1-2.885,3.463v-7.7l.375.134A3.539,3.539,0,0,1,108.8,131.288Z" transform="translate(-59.343 -67.537)"/>
            <path id="Trazado_193615" data-name="Trazado 193615" d="M168.143,182.829c-.232-.082-.468-.167-.7-.255V177.9a5.4,5.4,0,0,1,1.465.291,1.465,1.465,0,0,0,1.143-2.7,8.167,8.167,0,0,0-2.607-.528v-.509a1.465,1.465,0,0,0-2.93,0v.83c-.073.02-.146.04-.22.063A4.8,4.8,0,0,0,161,179.107a4.265,4.265,0,0,0,1.412,4.2,10.365,10.365,0,0,0,2.1,1.23v5.83a4.294,4.294,0,0,1-1.779-.781,1.465,1.465,0,1,0-1.6,2.452,6.909,6.909,0,0,0,3.383,1.277v.823a1.465,1.465,0,0,0,2.93,0v-.962a5.778,5.778,0,0,0,4.163-4.59A5.089,5.089,0,0,0,168.143,182.829ZM164.22,181a1.4,1.4,0,0,1-.341-1.353,2.066,2.066,0,0,1,.63-1.14v2.7C164.407,181.142,164.309,181.073,164.22,181Zm4.493,7.1a2.855,2.855,0,0,1-1.274,1.922V185.7a2.115,2.115,0,0,1,1.274,2.4Z" transform="translate(-97.783 -105.417)"/>
            <path id="Trazado_193616" data-name="Trazado 193616" d="M100,132.424a3.814,3.814,0,0,0-3.81-3.81H90.488V88.085a5.02,5.02,0,0,0-5.014-5.014H5.017A5.02,5.02,0,0,0,0,88.085V100.35a1.465,1.465,0,1,0,2.93,0V88.085A2.086,2.086,0,0,1,5.017,86H24.9A15.319,15.319,0,0,1,9.674,99.835,1.465,1.465,0,0,0,8.209,101.3v15.423a1.465,1.465,0,0,0,1.465,1.465A15.319,15.319,0,0,1,24.9,132.022H5.017a2.086,2.086,0,0,1-2.084-2.084V106.207a1.465,1.465,0,0,0-2.93,0v23.731a5.02,5.02,0,0,0,5.014,5.014H52.338A16.887,16.887,0,0,0,68.291,146.36c.254,0,.505-.007.756-.018v.472a3.814,3.814,0,0,0,3.81,3.81H84.544a1.465,1.465,0,0,0,0-2.93H72.857a.881.881,0,0,1-.88-.88v-.861a16.858,16.858,0,0,0,8.552-4.869H96.194a.881.881,0,0,1,.88.88v4.85a.881.881,0,0,1-.88.88H90.4a1.465,1.465,0,0,0,0,2.93h5.792a3.814,3.814,0,0,0,3.81-3.81v-4.85a3.787,3.787,0,0,0-.813-2.345,3.787,3.787,0,0,0,.813-2.345v-4.85ZM87.559,88.085v40.528H85.125a16.791,16.791,0,0,0-4.348-10.425h.04a1.465,1.465,0,0,0,1.465-1.465V101.3a1.465,1.465,0,0,0-1.465-1.465A15.319,15.319,0,0,1,65.59,86H85.475A2.086,2.086,0,0,1,87.559,88.085ZM27.84,132.022a18.256,18.256,0,0,0-16.7-16.705v-12.61A18.256,18.256,0,0,0,27.84,86H62.652a18.256,18.256,0,0,0,16.7,16.705v12.61q-.829.066-1.648.208a16.858,16.858,0,0,0-26.083,16.5H27.84ZM68.291,143.43A13.928,13.928,0,1,1,82.219,129.5,13.944,13.944,0,0,1,68.291,143.43Zm14.463-5.276a16.739,16.739,0,0,0,2.271-6.611H96.194a.881.881,0,0,1,.88.88v4.85a.881.881,0,0,1-.88.88Z" transform="translate(-0.004 -50.622)"/>
            <path id="Trazado_193617" data-name="Trazado 193617" d="M67.4,43.18l1.7-1.732v7.4a1.465,1.465,0,1,0,2.93,0v-7.4l1.7,1.732a1.465,1.465,0,0,0,2.088-2.055l-4.213-4.281a1.465,1.465,0,0,0-2.088,0l-4.213,4.281A1.465,1.465,0,1,0,67.4,43.18Z" transform="translate(-39.546 -22.185)"/>
            <path id="Trazado_193618" data-name="Trazado 193618" d="M164.549,43.18l1.7-1.732v7.4a1.465,1.465,0,1,0,2.93,0v-7.4l1.7,1.732a1.465,1.465,0,0,0,2.088-2.055l-4.214-4.281a1.465,1.465,0,0,0-2.088,0l-4.213,4.281a1.465,1.465,0,1,0,2.088,2.055Z" transform="translate(-98.745 -22.185)"/>
            <path id="Trazado_193619" data-name="Trazado 193619" d="M99.633,14.143h2.358V24.513a2.478,2.478,0,0,0,2.475,2.475h9.48a2.478,2.478,0,0,0,2.475-2.475V14.143h2.358a2.475,2.475,0,0,0,1.714-4.261L110.92.692a2.468,2.468,0,0,0-3.428,0l-2.776,2.665a1.465,1.465,0,0,0,2.029,2.113l2.462-2.363,8.443,8.105h-1.683a2.478,2.478,0,0,0-2.475,2.475V24.059H104.92V13.688a2.478,2.478,0,0,0-2.475-2.475h-1.683l1.756-1.686a1.465,1.465,0,1,0-2.029-2.113L97.919,9.882a2.475,2.475,0,0,0,1.714,4.261Z" transform="translate(-59.206 0)"/>
          </g>
        </g>
      </g>
    </g>
  </g>
</svg>
