<svg xmlns="http://www.w3.org/2000/svg" width="157" height="157" viewBox="0 0 157 157">
  <g id="Grupo_134958" data-name="Grupo 134958" transform="translate(2676.75 761.018)">
    <g id="Grupo_134832" data-name="Grupo 134832" transform="translate(-625.383 -395.073)">
      <rect id="Rectángulo_42356" data-name="Rectángulo 42356" width="157" height="157" rx="78.5" transform="translate(-2051.367 -365.944)" fill="#fff"/>
      <g id="dinero" transform="translate(-2039.367 -362.214)">
        <path id="Trazado_193594" data-name="Trazado 193594" d="M163.531,56.658,104.188,116a1.472,1.472,0,0,1-2.082,0L68.883,82.778a1.472,1.472,0,0,1,0-2.082l59.343-59.343a1.472,1.472,0,0,1,2.082,0l33.223,33.223A1.472,1.472,0,0,1,163.531,56.658Z" transform="translate(-32.889 -1.782)" fill="#4e2e8e"/>
        <path id="Trazado_193595" data-name="Trazado 193595" d="M186.379,77.423l-8.949-8.949L116,129.9l8.949,8.949a1.472,1.472,0,0,0,2.082,0l59.343-59.343A1.472,1.472,0,0,0,186.379,77.423Z" transform="translate(-55.737 -24.629)" fill="#4e2e8e"/>
        <path id="Trazado_193596" data-name="Trazado 193596" d="M93.734,97.688a8.13,8.13,0,0,0,0-7.706.823.823,0,0,1,.135-.976l42.668-42.668a.823.823,0,0,1,.976-.135,8.129,8.129,0,0,0,7.706,0,.823.823,0,0,1,.976.135l16.548,16.548a.823.823,0,0,1,.135.976,8.128,8.128,0,0,0,0,7.706.823.823,0,0,1-.135.976l-42.668,42.668a.823.823,0,0,1-.976.135,8.129,8.129,0,0,0-7.706,0,.823.823,0,0,1-.976-.135L93.868,98.664A.823.823,0,0,1,93.734,97.688Z" transform="translate(-44.987 -13.88)" fill="#a3ade6"/>
        <path id="Trazado_193597" data-name="Trazado 193597" d="M169.588,78.278a8.128,8.128,0,0,1,0-7.706.823.823,0,0,0-.135-.976l-9.528-9.528a8.12,8.12,0,0,0,0,8.763l-43.562,43.563a8.121,8.121,0,0,0-8.763,0l9.528,9.528a.823.823,0,0,0,.976.135,8.129,8.129,0,0,1,7.706,0,.823.823,0,0,0,.976-.135l42.668-42.668A.823.823,0,0,0,169.588,78.278Z" transform="translate(-51.698 -20.59)" fill="#a3ade6"/>
        <circle id="Elipse_17694" data-name="Elipse 17694" cx="12.102" cy="12.102" r="12.102" transform="translate(66.199 66.895) rotate(-45)" fill="#f3e8d7"/>
        <path id="Trazado_193598" data-name="Trazado 193598" d="M77.662,119.6l18.259-18.259c2.1-2.1,3-4.621.895-6.725C93.5,90.5,81.393,93.8,75.65,99.543l-7.689,7.691a4.554,4.554,0,0,1-3.23,1.332h-.063a5.776,5.776,0,0,1-4.894-3.9V87.8l3.013-3.013,3.31-3.31L79.245,68.325c-5.409-.606-10.788-.934-12.874-1.184-2.32-.278-4.3.761-6.1,2.251L43.441,82.671a15.035,15.035,0,0,0-4.908,7.585c-1.838,6.656-5.708,18.43-8.165,23.112L18.1,125.64l21.246,21.246,5.909-5.909a9.315,9.315,0,0,1,3.992-2.36l12.341-4.155a21.378,21.378,0,0,0,9.832-6.961Z" transform="translate(-8.695 -23.967)" fill="#fcd7c3"/>
        <path id="Trazado_193599" data-name="Trazado 193599" d="M81.88,151.251l6.246-7.9,18.259-18.259c2.1-2.1,3-4.621.895-6.725-1.219-1.514-3.626-2.025-6.468-1.78a17.776,17.776,0,0,0-11,5.215L78.2,133.421l-6.246,7.9a21.376,21.376,0,0,1-9.832,6.961l-12.341,4.155a9.315,9.315,0,0,0-3.992,2.36l-5.909,5.909,9.93,9.93,5.909-5.909a9.315,9.315,0,0,1,3.992-2.36l12.341-4.155A21.378,21.378,0,0,0,81.88,151.251Z" transform="translate(-19.159 -47.718)" fill="#ffcdac"/>
        <path id="Trazado_193600" data-name="Trazado 193600" d="M28.982,203.336l-24.59-24.59a2.334,2.334,0,0,1,0-3.3l4.327-4.327a2.334,2.334,0,0,1,3.3,0l24.59,24.59a2.334,2.334,0,0,1,0,3.3l-4.327,4.327A2.334,2.334,0,0,1,28.982,203.336Z" transform="translate(-1.782 -73.618)" fill="#c6412a"/>
        <path id="Trazado_193601" data-name="Trazado 193601" d="M52.27,211.368l-8.34-8.34L36.3,210.655l8.34,8.34a2.334,2.334,0,0,0,3.3,0l4.327-4.327A2.334,2.334,0,0,0,52.27,211.368Z" transform="translate(-17.442 -89.278)" fill="#c6412a"/>
        <path id="Trazado_193602" data-name="Trazado 193602" d="M154.974,130.237a6.205,6.205,0,0,0-8.776,0l-2.757,2.757a3.2,3.2,0,0,0,0,4.518l2.774,2.774,9.4-9.4Z" transform="translate(-68.47 -53.431)" fill="#efefef"/>
        <path id="Trazado_193603" data-name="Trazado 193603" d="M132,51.432,98.781,18.208a3.4,3.4,0,0,0-4.807,0L75.7,36.479A1.927,1.927,0,0,0,78.429,39.2L96.378,21.255l32.58,32.58-58.7,58.7-6.84-6.84c.278-.315.551-.636.813-.967l1.05-1.328a2.75,2.75,0,0,0,2.04-.239,6.24,6.24,0,0,1,5.874,0,2.775,2.775,0,0,0,1.322.338,2.724,2.724,0,0,0,1.932-.805l4.47-4.469A1.927,1.927,0,0,0,78.194,95.5l-3.909,3.909a9.989,9.989,0,0,0-5.238-.771l1.361-1.721,8.7-8.7h0l7.75-7.75A14.028,14.028,0,1,0,73.4,56.975a14.133,14.133,0,0,0-3.515,13.944,22.712,22.712,0,0,0-4.29,3.295L57.9,81.905a2.62,2.62,0,0,1-1.867.768h-.063A3.949,3.949,0,0,1,53.006,80.4V73.727L92.351,34.381a9.985,9.985,0,0,0,8.055,0l15.427,15.427a9.988,9.988,0,0,0,0,8.055L84.637,89.057a1.927,1.927,0,0,0,2.725,2.725l31.756-31.756a2.734,2.734,0,0,0,.467-3.254,6.239,6.239,0,0,1,0-5.873,2.732,2.732,0,0,0-.467-3.256L102.569,31.1a2.734,2.734,0,0,0-3.254-.467,6.239,6.239,0,0,1-5.874,0,2.735,2.735,0,0,0-3.255.467L53.005,68.277V64.628L71.912,45.721a1.927,1.927,0,0,0-1.148-3.277c-3.215-.36-6.378-.62-8.919-.828-1.743-.143-3.119-.256-3.94-.355-2.531-.3-5,.569-7.538,2.665L33.552,57.191l-.035.028a16.885,16.885,0,0,0-5.537,8.557c-1.743,6.314-5.51,17.8-7.882,22.475l-8.192,8.192-.306-.306a4.26,4.26,0,0,0-6.025,0l-4.327,4.327a4.26,4.26,0,0,0,0,6.025l24.59,24.59a4.26,4.26,0,0,0,6.025,0l4.327-4.327a4.26,4.26,0,0,0,0-6.025l-.314-.314,2.041-2.041a7.408,7.408,0,0,1,3.166-1.872l.078-.025,12.351-4.159a23.275,23.275,0,0,0,7.126-3.951l7.215,7.215a3.4,3.4,0,0,0,4.807,0L132,56.239a3.4,3.4,0,0,0,0-4.807ZM77.746,84.13l-1.412-1.412a1.269,1.269,0,0,1,0-1.793l2.757-2.757a4.288,4.288,0,0,1,5.248-.631ZM76.122,59.7A10.176,10.176,0,0,1,91.247,73.271a5.559,5.559,0,0,0-1.694-3.914A7.858,7.858,0,0,0,83.747,66.9,24.021,24.021,0,0,0,73.392,69.11,10.252,10.252,0,0,1,76.122,59.7ZM33.466,124.028l-4.327,4.327a.406.406,0,0,1-.575,0l-24.59-24.59a.406.406,0,0,1,0-.575L8.3,98.861a.406.406,0,0,1,.575,0l24.59,24.59a.406.406,0,0,1,0,.575ZM63.391,99.58l-2.182,2.759a19.5,19.5,0,0,1-1.827,2l-.022.02-.014.015a19.392,19.392,0,0,1-7.073,4.291l-12.3,4.143a11.275,11.275,0,0,0-4.776,2.836l-2.041,2.041L14.631,99.168l8.4-8.4a1.927,1.927,0,0,0,.344-.467c2.519-4.8,6.448-16.73,8.316-23.494a13.049,13.049,0,0,1,4.262-6.6L52.77,46.938l.035-.028c1.737-1.437,3.169-2,4.641-1.823.893.107,2.3.223,4.084.369,1.433.118,3.065.251,4.788.41l-16.6,16.6a1.927,1.927,0,0,0-.564,1.362h0V80.7a1.922,1.922,0,0,0,.065.5,7.671,7.671,0,0,0,6.755,5.327h.063a6.447,6.447,0,0,0,4.592-1.9l7.689-7.69a20.207,20.207,0,0,1,4.689-3.379l.022-.008a1.912,1.912,0,0,0,.232-.125,21.425,21.425,0,0,1,10.28-2.675,4.262,4.262,0,0,1,3.08,1.106,1.994,1.994,0,0,0,.138.154,1.683,1.683,0,0,1,.6,1.634,3.252,3.252,0,0,1-.413,1.006,8.145,8.145,0,0,0-10.581.792L73.609,78.2a5.121,5.121,0,0,0,0,7.242l1.412,1.412L67.6,94.271a1.98,1.98,0,0,0-.149.168L63.4,99.573Z"/>
      </g>
    </g>
  </g>
</svg>
