<svg xmlns="http://www.w3.org/2000/svg" width="133" height="133" viewBox="0 0 133 133">
  <g id="Grupo_134931" data-name="Grupo 134931" transform="translate(6928.334 4973.086)">
    <g id="Grupo_134830" data-name="Grupo 134830" transform="translate(112 -459.086)">
      <g id="Elipse_16915" data-name="Elipse 16915" transform="translate(-7040.334 -4514)" fill="#fff" stroke="#6677d6" stroke-width="4">
        <circle cx="66.5" cy="66.5" r="66.5" stroke="none"/>
        <circle cx="66.5" cy="66.5" r="64.5" fill="none"/>
      </g>
      <g id="redes" transform="translate(-7023.297 -4502.705)">
        <g id="Grupo_134630" data-name="Grupo 134630" transform="translate(0 16.129)">
          <g id="Grupo_134628" data-name="Grupo 134628" transform="translate(1.449 1.45)">
            <g id="Grupo_134627" data-name="Grupo 134627" transform="translate(0 9.194)">
              <g id="Grupo_134624" data-name="Grupo 134624">
                <path id="Trazado_193515" data-name="Trazado 193515" d="M23.032,85.861H15.067a9.908,9.908,0,0,0-9.908,9.908v9.58a.773.773,0,0,0,.773.773H32.167a.773.773,0,0,0,.773-.773v-9.58A9.908,9.908,0,0,0,23.032,85.861Z" transform="translate(-3.285 -51.594)" fill="#c6412a"/>
                <path id="Trazado_193516" data-name="Trazado 193516" d="M31.538,53.563V46.18A13.524,13.524,0,0,0,18.014,32.655h0A13.524,13.524,0,0,0,4.49,46.18v7.384c0,2.608-1.1,5.974-2.24,7.085H33.778C32.64,59.537,31.538,56.172,31.538,53.563Z" transform="translate(-2.25 -32.655)"/>
                <path id="Trazado_193517" data-name="Trazado 193517" d="M31.213,56.379v2.107a10.028,10.028,0,0,1-20.057,0V51.958a9.257,9.257,0,0,1,.059-1.043H12.5a3.256,3.256,0,0,1,3.053,2.127,5.106,5.106,0,0,0,4.792,3.338Z" transform="translate(-5.42 -39.155)" fill="#fcd0ae"/>
                <g id="Grupo_134623" data-name="Grupo 134623" transform="translate(9.722 34.267)">
                  <path id="Trazado_193518" data-name="Trazado 193518" d="M29.43,86.077a9.945,9.945,0,0,0-2.059-.216H19.4a9.945,9.945,0,0,0-2.059.216,10.314,10.314,0,0,0,6.042,8.064A10.314,10.314,0,0,0,29.43,86.077Z" transform="translate(-17.346 -85.861)" fill="#ebeef2"/>
                </g>
              </g>
              <g id="Grupo_134626" data-name="Grupo 134626" transform="translate(67.118 3.507)">
                <circle id="Elipse_17678" data-name="Elipse 17678" cx="4.99" cy="4.99" r="4.99" transform="translate(18.929 13.365)"/>
                <path id="Trazado_193519" data-name="Trazado 193519" d="M122.489,63.952h0A10.028,10.028,0,0,1,112.46,53.924V47.4a9.3,9.3,0,0,1,9.3-9.3h1.463a9.3,9.3,0,0,1,9.3,9.3v6.527A10.028,10.028,0,0,1,122.489,63.952Z" transform="translate(-108.598 -38.1)" fill="#fcd0ae"/>
                <path id="Trazado_193520" data-name="Trazado 193520" d="M124.336,85.861h-7.966a9.908,9.908,0,0,0-9.908,9.908v9.58a.773.773,0,0,0,.773.773h26.236a.773.773,0,0,0,.773-.773v-9.58A9.908,9.908,0,0,0,124.336,85.861Z" transform="translate(-106.463 -55.101)" fill="#6677d6"/>
                <path id="Trazado_193521" data-name="Trazado 193521" d="M132.517,47.4v6.557c-14.344-1.265-15.556-9-15.556-9V49.9h-4.5V47.4a9.3,9.3,0,0,1,9.3-9.3h1.463A9.3,9.3,0,0,1,132.517,47.4Z" transform="translate(-108.598 -38.1)"/>
                <g id="Grupo_134625" data-name="Grupo 134625" transform="translate(7.849 30.76)">
                  <path id="Trazado_193522" data-name="Trazado 193522" d="M130.734,86.077a9.945,9.945,0,0,0-2.059-.216h-7.966a9.946,9.946,0,0,0-2.059.216,10.314,10.314,0,0,0,6.042,8.064A10.314,10.314,0,0,0,130.734,86.077Z" transform="translate(-118.65 -85.861)" fill="#ebeef2"/>
                </g>
              </g>
            </g>
            <path id="Trazado_193523" data-name="Trazado 193523" d="M85.013,75.04c-4.662-17.013-4.559-18.183-1.285-34.061a18.538,18.538,0,1,0-36.182,0c3.274,15.878,3.378,17.049-1.285,34.061a20.2,20.2,0,0,0-.822,5.716c0,11.155,9.043,8.461,20.2,8.461s20.2,2.693,20.2-8.461A20.191,20.191,0,0,0,85.013,75.04Z" transform="translate(-17.624 -18.38)" fill="#412c01"/>
            <path id="Trazado_193524" data-name="Trazado 193524" d="M95.389,75.04C90.726,58.028,90.83,56.857,94.1,40.979a18.55,18.55,0,0,0-18.091-22.6q-.718,0-1.424.054c8.312.727,14.861,8.725,14.861,18.484a21.323,21.323,0,0,1-.388,4.061c-2.843,15.878-2.933,17.049,1.116,34.061a23.061,23.061,0,0,1,.713,5.716c0,6.73-2.859,8.419-7.254,8.7,7.375.254,12.574-.242,12.574-8.7A20.184,20.184,0,0,0,95.389,75.04Z" transform="translate(-27.999 -18.38)" fill="#412c01"/>
            <path id="Trazado_193525" data-name="Trazado 193525" d="M71.428,89.48H59.846A14.406,14.406,0,0,0,45.44,103.886v13.121a1.932,1.932,0,0,0,1.932,1.932H83.9a1.932,1.932,0,0,0,1.932-1.932V103.886A14.407,14.407,0,0,0,71.428,89.48Z" transform="translate(-17.624 -43.688)" fill="#4e2e8e"/>
            <path id="Trazado_193526" data-name="Trazado 193526" d="M84.177,89.48H81.256c7.062,0,12.787,6.45,12.787,14.406v13.121a1.833,1.833,0,0,1-1.715,1.932h4.323a1.932,1.932,0,0,0,1.932-1.932V103.886A14.406,14.406,0,0,0,84.177,89.48Z" transform="translate(-30.372 -43.688)"/>
            <path id="Trazado_193527" data-name="Trazado 193527" d="M82.786,51.6a13.575,13.575,0,0,1-27.064-1.522V41.241a12.536,12.536,0,0,1,3.318-8.514C62.135,39.872,70.192,48.331,82.786,51.6Z" transform="translate(-21.284 -23.487)" fill="#fcd0ae"/>
            <path id="Trazado_193528" data-name="Trazado 193528" d="M84.458,59.429a9.124,9.124,0,0,1-.072,1.673c-.57,6.317-4.659,11.325-9.8,11.979a13.741,13.741,0,0,0,1.423.075A13.575,13.575,0,0,0,89.5,61.1,40.059,40.059,0,0,1,84.458,59.429Z" transform="translate(-28 -32.991)" fill="#e59f6a"/>
            <path id="Trazado_193529" data-name="Trazado 193529" d="M70.257,112.421,82.1,90.811a14.344,14.344,0,0,0-6.048-1.331H64.466a14.348,14.348,0,0,0-6.048,1.331Z" transform="translate(-22.243 -43.688)" fill="#ebeef2"/>
            <path id="Trazado_193530" data-name="Trazado 193530" d="M75.751,94.783a5.706,5.706,0,0,0,3.6-5.3H67.941a5.706,5.706,0,0,0,3.6,5.3L69.657,105.14l3.989,7.282,3.989-7.282Z" transform="translate(-25.633 -43.688)" fill="#c6412a"/>
          </g>
          <g id="Grupo_134629" data-name="Grupo 134629">
            <path id="Trazado_193531" data-name="Trazado 193531" d="M11.115,87.12a11.84,11.84,0,0,0,6.546,7.544,1.447,1.447,0,0,0,1.175,0,11.839,11.839,0,0,0,6.547-7.547,8.441,8.441,0,0,1,2.579,1.628,1.449,1.449,0,0,0,1.964-2.132,11.317,11.317,0,0,0-5.291-2.745l-.045-.012-.078-.014q-.2-.041-.407-.075l-.158-.026c-.139-.021-.279-.039-.419-.055l-.152-.018c-.144-.014-.289-.025-.435-.034l-.14-.01c-.189-.009-.379-.015-.57-.015H14.266a11.382,11.382,0,0,0-1.768.139l-.064.011c-.169.028-.338.058-.5.093l-.022,0-.034.009a11.375,11.375,0,0,0-8.964,11.1v9.58a2.225,2.225,0,0,0,2.222,2.222H24.506a1.449,1.449,0,0,0,0-2.9H5.807v-8.9A8.471,8.471,0,0,1,11.115,87.12Zm11.116-.611c.1,0,.206,0,.309.007a8.934,8.934,0,0,1-4.292,5.211,8.934,8.934,0,0,1-4.292-5.211c.1,0,.205-.008.309-.008Z" transform="translate(-1.035 -40.149)"/>
            <path id="Trazado_193532" data-name="Trazado 193532" d="M13.73,35.941a12.076,12.076,0,0,1,15.587.441,1.449,1.449,0,1,0,1.934-2.159,14.974,14.974,0,0,0-19.331-.546,1.449,1.449,0,1,0,1.81,2.264Z" transform="translate(-4.049 -21.21)"/>
            <path id="Trazado_193533" data-name="Trazado 193533" d="M17.213,66.787a11.409,11.409,0,0,0,5.423-1.365h4.8a1.449,1.449,0,1,0,0-2.9h-1.3a11.419,11.419,0,0,0,2.559-7.213V53.2a1.449,1.449,0,0,0-1.449-1.449H16.371a3.657,3.657,0,0,1-3.433-2.392,4.724,4.724,0,0,0-4.412-3.073H7.244A1.449,1.449,0,0,0,5.8,47.576a10.729,10.729,0,0,0-.068,1.207v6.528a11.419,11.419,0,0,0,2.559,7.213H3.984a16.081,16.081,0,0,0,1.154-5.636V49.5a11.932,11.932,0,0,1,1.277-5.408,1.449,1.449,0,0,0-2.59-1.3A14.806,14.806,0,0,0,2.239,49.5v7.385c0,2.447-1.093,5.356-1.8,6.048a1.449,1.449,0,0,0,1.012,2.486H11.79A11.413,11.413,0,0,0,17.213,66.787ZM8.634,49.192a1.815,1.815,0,0,1,1.586,1.177,6.554,6.554,0,0,0,6.151,4.284h9.422v.658a8.579,8.579,0,0,1-17.159,0V49.192Z" transform="translate(0 -25.336)"/>
            <path id="Trazado_193534" data-name="Trazado 193534" d="M127.533,83.867l-.035-.009-.023,0c-.165-.035-.332-.065-.5-.092l-.069-.012a11.4,11.4,0,0,0-1.768-.138h-7.966q-.3,0-.589.015l-.039,0a11.275,11.275,0,0,0-7.4,3.308,1.449,1.449,0,0,0,2.049,2.049,8.439,8.439,0,0,1,2.829-1.871,11.839,11.839,0,0,0,6.547,7.549,1.447,1.447,0,0,0,1.175,0,11.839,11.839,0,0,0,6.546-7.544,8.47,8.47,0,0,1,5.308,7.848v8.9H114.218a1.449,1.449,0,0,0,0,2.9h20.056a2.225,2.225,0,0,0,2.222-2.222v-9.58A11.374,11.374,0,0,0,127.533,83.867Zm-6.377,7.861a8.934,8.934,0,0,1-4.292-5.211c.1,0,.206-.008.309-.008h7.966c.1,0,.206,0,.309.008A8.934,8.934,0,0,1,121.157,91.728Z" transform="translate(-38.698 -40.149)"/>
            <path id="Trazado_193535" data-name="Trazado 193535" d="M121.688,64.6a11.431,11.431,0,0,0,7.676-2.953,6.438,6.438,0,1,0,3.8-12.266V46.6A10.749,10.749,0,0,0,122.419,35.85h-1.463A10.758,10.758,0,0,0,110.21,46.6h0v6.526A11.491,11.491,0,0,0,121.688,64.6Zm13.569-8.946a3.546,3.546,0,0,1-3.542,3.542c-.1,0-.192-.005-.288-.013a11.406,11.406,0,0,0,1.735-6c0-.012,0-.024,0-.035v-.726A3.544,3.544,0,0,1,135.257,55.655Zm-14.3-16.906h1.463a7.847,7.847,0,0,1,7.848,7.847v4.061s0,0,0,.008,0,.005,0,.008v.866c-11.415-1.495-12.63-7.368-12.675-7.611a1.429,1.429,0,0,0-1.43-1.244c-.032,0-.065,0-.1,0a1.465,1.465,0,0,0-1.353,1.465v3.5h-1.6V46.6A7.857,7.857,0,0,1,120.956,38.749Zm-7.848,11.8h3.052a1.449,1.449,0,0,0,1.439-1.277c2.176,2.144,5.973,4.355,12.566,5.174a8.579,8.579,0,0,1-17.056-1.322V50.549Z" transform="translate(-39.229 -23.148)"/>
            <path id="Trazado_193536" data-name="Trazado 193536" d="M84.344,40.482a20.143,20.143,0,0,0,.481-4.365,19.817,19.817,0,0,0-1.8-8.309,1.449,1.449,0,0,0-2.635,1.207,16.936,16.936,0,0,1,1.542,7.1,17.233,17.233,0,0,1-.414,3.746c0,.008,0,.015,0,.023C78.88,52.635,78.3,56.217,80.391,65.3a15.893,15.893,0,0,0-3.039-1.876c-.022-.012-.044-.025-.067-.036-.156-.072-.314-.141-.472-.208l-.056-.024a15.71,15.71,0,0,0-2.937-.911h0q-.386-.079-.777-.139h-.007q-.389-.059-.782-.1l-.017,0q-.392-.039-.788-.06H71.43c-.266-.013-.534-.02-.8-.02H59.045c-.269,0-.536.007-.8.02h-.017q-.4.02-.789.06l-.015,0q-.394.04-.784.1h0a15.667,15.667,0,0,0-3.715,1.05l-.059.024c-.158.067-.315.136-.471.208-.023.011-.044.024-.067.035a15.872,15.872,0,0,0-3.04,1.876c2.093-9.08,1.512-12.663-1.116-25.413l0-.023a17.091,17.091,0,0,1,29.18-15.4,1.449,1.449,0,1,0,2.12-1.977A19.992,19.992,0,0,0,45.329,40.482c2.954,14.334,3.34,16.217-.346,29.984a15.751,15.751,0,0,0-1.793,7.31V90.9a3.385,3.385,0,0,0,3.381,3.381H83.1A3.385,3.385,0,0,0,86.483,90.9V77.777a15.752,15.752,0,0,0-1.793-7.311C81,56.7,81.39,54.815,84.344,40.482ZM55.06,65.449l.1-.035.1-.031q.245-.075.493-.14l.1-.026q.283-.072.572-.132l.013,0q.6-.124,1.228-.189l.13-.013.043,0a7.1,7.1,0,0,0,3.27,4.6l-.959,5.267Zm7.305,13.335,1.793-9.851a1.449,1.449,0,0,0-.891-1.606,4.237,4.237,0,0,1-2.436-2.507h8.011a4.237,4.237,0,0,1-2.436,2.507,1.449,1.449,0,0,0-.891,1.606l1.793,9.851L64.836,83.3Zm7.154-4.036-.959-5.267a7.1,7.1,0,0,0,3.27-4.6l.043,0,.129.013q.624.066,1.229.19l.01,0c.193.04.385.085.575.133l.1.025q.251.066.5.142l.1.029.1.035ZM83.585,90.9a.483.483,0,0,1-.483.483H46.571a.484.484,0,0,1-.483-.483V77.777a12.961,12.961,0,0,1,6.325-11.125L63.566,87.008a1.449,1.449,0,0,0,2.542,0L77.26,66.651a12.962,12.962,0,0,1,6.325,11.126Z" transform="translate(-15.373 -16.129)"/>
            <path id="Trazado_193537" data-name="Trazado 193537" d="M82.349,49.393a37.19,37.19,0,0,1-14.855-7.677A29.823,29.823,0,0,1,59.569,31.35a1.449,1.449,0,0,0-2.4-.405,13.989,13.989,0,0,0-3.7,9.5v8.835a15.024,15.024,0,0,0,29.954,1.682A1.449,1.449,0,0,0,82.349,49.393ZM68.5,61.4A12.14,12.14,0,0,1,56.37,49.275V40.44a11.1,11.1,0,0,1,1.607-5.765c3.583,6.532,10.975,13.842,22.371,17.173A12.1,12.1,0,0,1,68.5,61.4Z" transform="translate(-19.033 -21.236)"/>
          </g>
        </g>
      </g>
    </g>
  </g>
</svg>
