<svg xmlns="http://www.w3.org/2000/svg" width="165" height="165" viewBox="0 0 165 165">
  <g id="Grupo_134762" data-name="Grupo 134762" transform="translate(-244 -2547)">
    <g id="Elipse_17490" data-name="Elipse 17490" transform="translate(244 2547)" fill="#fff" stroke="#4e2e8e" stroke-width="5">
      <circle cx="82.5" cy="82.5" r="82.5" stroke="none"/>
      <circle cx="82.5" cy="82.5" r="80" fill="none"/>
    </g>
    <g id="ganar" transform="translate(271.357 2571.999)">
      <g id="Grupo_134639" data-name="Grupo 134639" transform="translate(0.003 0)">
        <path id="Trazado_193604" data-name="Trazado 193604" d="M207.635,237.911H182.982a2.477,2.477,0,0,1-2.477-2.477V230.31a2.477,2.477,0,0,1,2.477-2.477h24.652a2.477,2.477,0,0,1,2.477,2.477v5.124A2.477,2.477,0,0,1,207.635,237.911Z" transform="translate(-106.021 -133.817)" fill="#fff56f"/>
        <path id="Trazado_193605" data-name="Trazado 193605" d="M195.388,227.833H182.982a2.477,2.477,0,0,0-2.477,2.477v5.124a2.469,2.469,0,0,0,.728,1.753A20.281,20.281,0,0,0,195.388,227.833Z" transform="translate(-106.021 -133.817)" fill="#fff56f"/>
        <path id="Trazado_193606" data-name="Trazado 193606" d="M96.246,134.783a3.749,3.749,0,0,1-3.749,3.749H7.5a3.749,3.749,0,0,1-3.749-3.749V90.571A3.749,3.749,0,0,1,7.5,86.821H92.5a3.749,3.749,0,0,1,3.749,3.749v44.212Z" transform="translate(-2.206 -50.994)" fill="#6677d6"/>
        <path id="Trazado_193607" data-name="Trazado 193607" d="M213.457,90.571a3.749,3.749,0,0,0-3.749-3.749h-6.394a3.749,3.749,0,0,1,3.749,3.749v44.212a3.749,3.749,0,0,1-3.749,3.749h6.394a3.749,3.749,0,0,0,3.749-3.749Z" transform="translate(-119.417 -50.994)" fill="#6677d6"/>
        <path id="Trazado_193608" data-name="Trazado 193608" d="M99.916,120.823V104.531A17.709,17.709,0,0,1,82.206,86.822H42.47A17.709,17.709,0,0,1,24.76,104.531v16.292A17.709,17.709,0,0,1,42.47,138.532H82.206A17.709,17.709,0,0,1,99.916,120.823Z" transform="translate(-14.544 -50.994)" fill="#a3ade6"/>
        <path id="Trazado_193609" data-name="Trazado 193609" d="M207.635,213.488H182.982a2.477,2.477,0,0,1-2.477-2.477v-5.124a2.477,2.477,0,0,1,2.477-2.477h24.652a2.477,2.477,0,0,1,2.477,2.477v5.124A2.477,2.477,0,0,1,207.635,213.488Z" transform="translate(-106.021 -119.472)" fill="#fff56f"/>
        <path id="Trazado_193610" data-name="Trazado 193610" d="M198.422,203.41h-15.44a2.477,2.477,0,0,0-2.477,2.477v5.124a2.477,2.477,0,0,0,2.477,2.477h12.406A20.166,20.166,0,0,0,198.422,203.41Z" transform="translate(-106.021 -119.472)" fill="#fff56f"/>
        <circle id="Elipse_17695" data-name="Elipse 17695" cx="16.261" cy="16.261" r="16.261" transform="translate(55.878 67.069)" fill="#ffef0f"/>
        <path id="Trazado_193611" data-name="Trazado 193611" d="M171.705,162.529a16.4,16.4,0,0,0-2.189.147,16.262,16.262,0,0,1,0,32.227,16.261,16.261,0,1,0,2.189-32.374Z" transform="translate(-99.566 -95.461)" fill="#ffef0f"/>
        <path id="Trazado_193612" data-name="Trazado 193612" d="M107.08,29.17h10.014a1.067,1.067,0,0,0,1.067-1.067V16.667a1.067,1.067,0,0,1,1.067-1.067H122.2a1.067,1.067,0,0,0,.739-1.837L112.826,4.054a1.067,1.067,0,0,0-1.478,0l-10.113,9.708a1.067,1.067,0,0,0,.739,1.837h2.971a1.067,1.067,0,0,1,1.067,1.067V28.1A1.068,1.068,0,0,0,107.08,29.17Z" transform="translate(-59.268 -2.206)" fill="#6677d6"/>
        <path id="Trazado_193613" data-name="Trazado 193613" d="M135.014,13.762,124.9,4.054a1.067,1.067,0,0,0-1.478,0l-1.96,1.881,8.153,7.827a1.067,1.067,0,0,1-.739,1.837h-2.971a1.067,1.067,0,0,0-1.067,1.067V28.1a1.067,1.067,0,0,1-1.067,1.067h5.4a1.067,1.067,0,0,0,1.067-1.067V16.667A1.067,1.067,0,0,1,131.3,15.6h2.971a1.067,1.067,0,0,0,.739-1.837Z" transform="translate(-71.342 -2.206)" fill="#6677d6"/>
        <g id="Grupo_134638" data-name="Grupo 134638" transform="translate(0 0)">
          <path id="Trazado_193614" data-name="Trazado 193614" d="M112.5,132.955a6.786,6.786,0,0,0-4.672-7.765c-.469-.166-.949-.34-1.428-.521V116.8a8.8,8.8,0,0,1,2.966.5,1.548,1.548,0,0,0,1.21-2.849,11.6,11.6,0,0,0-4.176-.744v-1.322a1.547,1.547,0,1,0-3.095,0v1.676c-.246.059-.494.124-.747.2a6.422,6.422,0,0,0-4.4,5.039A5.65,5.65,0,0,0,100,124.86a15.339,15.339,0,0,0,3.3,1.885v9.582a6.551,6.551,0,0,1-3.527-1.31,1.547,1.547,0,1,0-1.694,2.59,9.5,9.5,0,0,0,5.221,1.818v1.754a1.547,1.547,0,0,0,3.095,0V139.3a7.732,7.732,0,0,0,6.1-6.349Zm-10.582-10.53a2.6,2.6,0,0,1-.717-2.559,3.387,3.387,0,0,1,2.1-2.6v6.038A9.718,9.718,0,0,1,101.915,122.425Zm7.53,10.017A4.7,4.7,0,0,1,106.4,136.1v-8.134l.4.142A3.739,3.739,0,0,1,109.445,132.442Z" transform="translate(-57.198 -65.095)"/>
          <path id="Trazado_193615" data-name="Trazado 193615" d="M168.576,183.383c-.245-.087-.494-.176-.744-.269v-4.937a5.709,5.709,0,0,1,1.547.308,1.548,1.548,0,0,0,1.207-2.85,8.628,8.628,0,0,0-2.754-.558v-.537a1.547,1.547,0,1,0-3.095,0v.877c-.077.021-.155.043-.233.066a5.066,5.066,0,0,0-3.474,3.97,4.506,4.506,0,0,0,1.492,4.437,10.95,10.95,0,0,0,2.216,1.3v6.159a4.536,4.536,0,0,1-1.88-.825,1.547,1.547,0,1,0-1.694,2.59,7.3,7.3,0,0,0,3.574,1.349v.869a1.547,1.547,0,0,0,3.095,0v-1.016a6.1,6.1,0,0,0,4.4-4.849A5.375,5.375,0,0,0,168.576,183.383Zm-4.144-1.929a1.478,1.478,0,0,1-.36-1.429,2.183,2.183,0,0,1,.666-1.2v2.852C164.63,181.6,164.526,181.528,164.432,181.454Zm4.746,7.5a3.016,3.016,0,0,1-1.346,2.03v-4.565a2.234,2.234,0,0,1,1.346,2.535Z" transform="translate(-94.249 -101.606)"/>
          <path id="Trazado_193616" data-name="Trazado 193616" d="M105.642,135.206a4.029,4.029,0,0,0-4.025-4.025H95.591V88.368a5.3,5.3,0,0,0-5.3-5.3H5.3a5.3,5.3,0,0,0-5.3,5.3v12.956a1.547,1.547,0,1,0,3.095,0V88.368a2.2,2.2,0,0,1,2.2-2.2H26.306A16.183,16.183,0,0,1,10.22,100.781a1.547,1.547,0,0,0-1.547,1.547v16.292a1.547,1.547,0,0,0,1.547,1.547,16.183,16.183,0,0,1,16.086,14.614H5.3a2.2,2.2,0,0,1-2.2-2.2V107.512a1.547,1.547,0,0,0-3.095,0V132.58a5.3,5.3,0,0,0,5.3,5.3H55.289a17.839,17.839,0,0,0,16.853,12.052c.268,0,.534-.007.8-.019v.5a4.029,4.029,0,0,0,4.025,4.025H89.312a1.547,1.547,0,1,0,0-3.095H76.965a.931.931,0,0,1-.93-.93v-.91a17.809,17.809,0,0,0,9.034-5.144h16.548a.931.931,0,0,1,.93.93v5.124a.931.931,0,0,1-.93.93H95.5a1.547,1.547,0,1,0,0,3.095h6.119a4.029,4.029,0,0,0,4.025-4.025v-5.124a4,4,0,0,0-.859-2.477,4,4,0,0,0,.859-2.477v-5.124ZM92.5,88.368v42.814H89.925a17.738,17.738,0,0,0-4.593-11.013h.042a1.547,1.547,0,0,0,1.547-1.547V102.328a1.547,1.547,0,0,0-1.547-1.547A16.183,16.183,0,0,1,69.289,86.167H90.294A2.2,2.2,0,0,1,92.5,88.368ZM29.41,134.782a19.286,19.286,0,0,0-17.643-17.647V103.814A19.286,19.286,0,0,0,29.41,86.166H66.185a19.286,19.286,0,0,0,17.642,17.648v13.321q-.876.07-1.741.22a17.808,17.808,0,0,0-27.554,17.428H29.41Zm42.732,12.052a14.713,14.713,0,1,1,14.713-14.713A14.73,14.73,0,0,1,72.142,146.834ZM87.42,141.26a17.683,17.683,0,0,0,2.4-6.984h11.8a.931.931,0,0,1,.93.93v5.124a.931.931,0,0,1-.93.93Z" transform="translate(-0.004 -48.792)"/>
          <path id="Trazado_193617" data-name="Trazado 193617" d="M67.544,43.562l1.8-1.83v7.816a1.547,1.547,0,1,0,3.095,0V41.733l1.8,1.83a1.547,1.547,0,0,0,2.206-2.171L72,36.869a1.548,1.548,0,0,0-2.206,0l-4.451,4.523a1.547,1.547,0,1,0,2.206,2.171Z" transform="translate(-38.117 -21.383)"/>
          <path id="Trazado_193618" data-name="Trazado 193618" d="M164.691,43.562l1.8-1.83v7.816a1.547,1.547,0,1,0,3.095,0V41.732l1.8,1.83a1.547,1.547,0,1,0,2.206-2.171l-4.451-4.523a1.548,1.548,0,0,0-2.206,0l-4.451,4.523a1.547,1.547,0,1,0,2.206,2.171Z" transform="translate(-95.175 -21.383)"/>
          <path id="Trazado_193619" data-name="Trazado 193619" d="M99.773,14.94h2.491V25.9a2.618,2.618,0,0,0,2.615,2.615h10.014a2.618,2.618,0,0,0,2.615-2.615V14.94H120a2.615,2.615,0,0,0,1.811-4.5L111.7.731a2.608,2.608,0,0,0-3.622,0l-2.933,2.816a1.547,1.547,0,0,0,2.143,2.232l2.6-2.5,8.919,8.563h-1.777a2.618,2.618,0,0,0-2.615,2.615V25.415h-9.054V14.46a2.618,2.618,0,0,0-2.615-2.615h-1.778l1.855-1.781a1.547,1.547,0,1,0-2.143-2.232l-2.715,2.607a2.615,2.615,0,0,0,1.811,4.5Z" transform="translate(-57.066 0)"/>
        </g>
      </g>
    </g>
  </g>
</svg>
