<svg xmlns="http://www.w3.org/2000/svg" width="133.942" height="107.329" viewBox="0 0 133.942 107.329">
  <g id="Grupo_134960" data-name="Grupo 134960" transform="translate(2586.721 346.496)">
    <g id="salario" transform="translate(-2586.721 -371.93)">
      <g id="Grupo_134642" data-name="Grupo 134642" transform="translate(0 25.434)">
        <g id="Grupo_134640" data-name="Grupo 134640" transform="translate(1.962 1.961)">
          <path id="Trazado_193620" data-name="Trazado 193620" d="M115.619,54.945H27.209L9.321,72.834l62.093,60.418,62.093-60.418Z" transform="translate(-6.406 -41.467)" fill="#ffef0f"/>
          <path id="Trazado_193621" data-name="Trazado 193621" d="M225.145,72.836l-3.5,3.406a9.833,9.833,0,0,0-2.245-3.409L201.515,54.948h5.742Z" transform="translate(-98.044 -41.468)" fill="#fe9901"/>
          <path id="Trazado_193622" data-name="Trazado 193622" d="M126.309,99.029H32.139A6.438,6.438,0,0,1,25.7,92.591V35.621a6.438,6.438,0,0,1,6.438-6.438h94.169a6.438,6.438,0,0,1,6.438,6.438V92.591A6.438,6.438,0,0,1,126.309,99.029Z" transform="translate(-14.216 -29.183)" fill="#d2e1f1"/>
          <path id="Trazado_193623" data-name="Trazado 193623" d="M219.092,35.684V92.527a6.439,6.439,0,0,1-6.378,6.5h-5.921a6.439,6.439,0,0,0,6.375-6.5V35.684a6.44,6.44,0,0,0-6.375-6.5h5.921a6.441,6.441,0,0,1,6.378,6.5Z" transform="translate(-100.561 -29.183)" fill="#b0c0d2"/>
          <path id="Trazado_193624" data-name="Trazado 193624" d="M126.309,125.57H32.139a6.438,6.438,0,0,1-6.438-6.438V62.163a6.438,6.438,0,0,1,6.438-6.438h94.169a6.438,6.438,0,0,1,6.438,6.438v56.969a6.438,6.438,0,0,1-6.438,6.438Z" transform="translate(-14.216 -41.838)" fill="#d2e1f1"/>
          <path id="Trazado_193625" data-name="Trazado 193625" d="M219.092,62.224v56.843a6.439,6.439,0,0,1-6.378,6.5h-5.921a6.439,6.439,0,0,0,6.375-6.5V62.224a6.44,6.44,0,0,0-6.375-6.5h5.921A6.441,6.441,0,0,1,219.092,62.224Z" transform="translate(-100.561 -41.837)" fill="#b0c0d2"/>
          <circle id="Elipse_17696" data-name="Elipse 17696" cx="23.006" cy="23.006" r="23.006" transform="translate(42.002 25.803)" fill="#a3ade6"/>
          <path id="Trazado_193626" data-name="Trazado 193626" d="M148.321,101.508a23.013,23.013,0,0,1-25.951,22.817,23.006,23.006,0,0,0,0-45.634,23.012,23.012,0,0,1,25.951,22.817Z" transform="translate(-60.308 -52.699)" fill="#6677d6"/>
          <path id="Trazado_193627" data-name="Trazado 193627" d="M133.766,96.111v55.244a9.815,9.815,0,0,1-9.813,9.813H13.563a9.815,9.815,0,0,1-9.813-9.813V96.111a9.778,9.778,0,0,1,2.914-6.976l62.093,60.418,62.093-60.418a9.778,9.778,0,0,1,2.914,6.976Z" transform="translate(-3.75 -57.768)" fill="#fff56f"/>
          <path id="Trazado_193628" data-name="Trazado 193628" d="M238.072,96.112v55.245a9.815,9.815,0,0,1-9.813,9.813h-5.745a9.815,9.815,0,0,0,9.813-9.813V96.112a9.788,9.788,0,0,0-.67-3.568l3.5-3.406a9.78,9.78,0,0,1,2.914,6.974Z" transform="translate(-108.057 -57.769)" fill="#ffc344"/>
          <path id="Trazado_193629" data-name="Trazado 193629" d="M133.437,195.9a9.784,9.784,0,0,1-6.107,2.133H16.94a9.784,9.784,0,0,1-6.107-2.133l42.334-24.38q1.168-.672,2.367-1.255a38,38,0,0,1,33.2,0q1.2.584,2.367,1.255Z" transform="translate(-7.127 -94.629)" fill="#ffef0f"/>
          <path id="Trazado_193630" data-name="Trazado 193630" d="M186.683,195.9a9.783,9.783,0,0,1-6.106,2.132h-5.745a9.783,9.783,0,0,0,6.106-2.132l-42.332-24.381q-1.169-.671-2.367-1.253a37.941,37.941,0,0,0-13.729-3.707,37.956,37.956,0,0,1,19.474,3.707q1.2.581,2.367,1.253Z" transform="translate(-60.375 -94.631)" fill="#fe9901"/>
        </g>
        <g id="Grupo_134641" data-name="Grupo 134641">
          <path id="Trazado_193631" data-name="Trazado 193631" d="M130.455,57.381l0-.005-8-8V33.834a8.409,8.409,0,0,0-8.4-8.4H19.885a8.409,8.409,0,0,0-8.4,8.4V49.379l-8,8,0,.005A11.682,11.682,0,0,0,0,65.739v55.244a11.8,11.8,0,0,0,11.775,11.775h25a1.962,1.962,0,0,0,0-3.924h-25a7.449,7.449,0,0,1-2.015-.263l39.22-22.586a36.058,36.058,0,0,1,35.978,0l39.221,22.587a7.846,7.846,0,0,1-2.015.263H45.928a1.962,1.962,0,1,0,0,3.924h76.236c5.933.188,11.931-5.272,11.775-11.775V65.739a11.682,11.682,0,0,0-3.484-8.358Zm-4.186,1.363-3.815,3.712V54.929ZM19.885,29.358h94.169a4.481,4.481,0,0,1,4.476,4.476v6.784a8.348,8.348,0,0,0-4.476-1.3H19.885a8.347,8.347,0,0,0-4.476,1.3V33.834a4.481,4.481,0,0,1,4.476-4.476Zm-8.4,33.1L7.67,58.744l3.815-3.815ZM5.948,126.238a7.82,7.82,0,0,1-2.024-5.255V65.739a7.791,7.791,0,0,1,1.131-4.064l42.016,40.882-.048.027Zm80.921-23.681,16.5-16.052a1.962,1.962,0,0,0-2.736-2.812L83.168,100.682a39.95,39.95,0,0,0-5.439-1.949,24.967,24.967,0,0,0-10.759-47.5,24.727,24.727,0,0,0-11.006,2.551A1.962,1.962,0,0,0,57.7,57.309,20.835,20.835,0,0,1,66.97,55.16,21.043,21.043,0,1,1,51,62.5a1.962,1.962,0,1,0-2.976-2.557,24.966,24.966,0,0,0,8.186,38.793,39.949,39.949,0,0,0-5.439,1.949L15.409,66.274V47.72a4.481,4.481,0,0,1,4.476-4.476h94.169a4.481,4.481,0,0,1,4.476,4.476V66.274l-10.89,10.6a1.962,1.962,0,1,0,2.736,2.812l18.507-18.008a7.791,7.791,0,0,1,1.131,4.064v55.244a7.82,7.82,0,0,1-2.024,5.255L86.916,102.583l-.047-.026Z" transform="translate(0 -25.434)"/>
          <path id="Trazado_193632" data-name="Trazado 193632" d="M120.134,109.132c.737.2,1.434.4,2.081.626a3.741,3.741,0,0,1,2.485,2.3,3.294,3.294,0,0,1-.428,2.859A5.321,5.321,0,0,1,120.1,116.7c-2.392,0-3.133-.12-4.932-1.3a1.962,1.962,0,0,0-2.149,3.284,10,10,0,0,0,5.119,1.875v.376a1.962,1.962,0,0,0,3.924,0v-.506a8.547,8.547,0,0,0,5.456-3.3,7.243,7.243,0,0,0,.916-6.29,7.619,7.619,0,0,0-4.907-4.783c-.775-.274-1.571-.495-2.34-.708-2.106-.584-4.1-1.135-5.39-2.681a3.528,3.528,0,0,1-.579-3.1,3.276,3.276,0,0,1,2.252-2.262,6.528,6.528,0,0,1,6.493,1.549,1.962,1.962,0,0,0,2.836-2.712,11.147,11.147,0,0,0-4.736-2.738v-.642a1.962,1.962,0,1,0-3.924,0v.373a10.4,10.4,0,0,0-1.924.452,7.244,7.244,0,0,0-4.775,4.917,7.4,7.4,0,0,0,1.348,6.684c2.079,2.482,4.88,3.258,7.352,3.943Z" transform="translate(-52.997 -56.6)"/>
        </g>
      </g>
    </g>
  </g>
</svg>
