<svg xmlns="http://www.w3.org/2000/svg" width="133" height="133" viewBox="0 0 133 133">
  <g id="Grupo_134924" data-name="Grupo 134924" transform="translate(6492.78 6234.087)">
    <g id="Grupo_134821" data-name="Grupo 134821" transform="translate(196.554 -371.087)">
      <g id="Elipse_16906" data-name="Elipse 16906" transform="translate(-6689.334 -5863)" fill="#fff" stroke="#6677d6" stroke-width="4">
        <circle cx="66.5" cy="66.5" r="66.5" stroke="none"/>
        <circle cx="66.5" cy="66.5" r="64.5" fill="none"/>
      </g>
      <g id="valores" transform="translate(-6670.905 -5839.125)">
        <g id="Grupo_134583" data-name="Grupo 134583" transform="translate(12.236 0)">
          <g id="Grupo_134581" data-name="Grupo 134581" transform="translate(1.226 1.255)">
            <g id="Grupo_134580" data-name="Grupo 134580">
              <path id="Trazado_193437" data-name="Trazado 193437" d="M32.738,2.262a18.26,18.26,0,0,1,16.3,10.158,18.245,18.245,0,0,1,34.6,8.421c0,25.061-34.6,38.508-34.6,38.508s-34.6-13.447-34.6-38.508A18.438,18.438,0,0,1,32.738,2.262Z" transform="translate(-14.445 -2.262)" fill="#c6412a"/>
              <g id="Grupo_134578" data-name="Grupo 134578" transform="translate(32.1)">
                <path id="Trazado_193438" data-name="Trazado 193438" d="M91.09,2.262a18.15,18.15,0,0,0-2.5.173,18.489,18.489,0,0,1,15.8,18.407c0,20.942-24.158,33.773-32.1,37.426,1.562.719,2.5,1.082,2.5,1.082s34.6-13.447,34.6-38.508A18.438,18.438,0,0,0,91.09,2.262Z" transform="translate(-72.289 -2.262)" fill="#c6412a"/>
              </g>
              <path id="Trazado_193439" data-name="Trazado 193439" d="M75.076,116.456l-17.4,4.658a3.434,3.434,0,0,0-3.1-4.924H14.446V127.7H25.423L43.5,134.639a13.593,13.593,0,0,0,11.476-.421l22.45-10.942c4.553-2.013,2.414-8.073-2.351-6.82Z" transform="translate(-14.445 -52.966)" fill="#ffdfbd"/>
              <g id="Grupo_134579" data-name="Grupo 134579" transform="translate(31.842 63.321)">
                <path id="Trazado_193440" data-name="Trazado 193440" d="M100.612,116.533l-1.661.445c2.106,1.422,2.275,4.935-.983,6.376L75.518,134.3a13.58,13.58,0,0,1-3.694,1.259,13.593,13.593,0,0,0,8.689-1.259l22.45-10.942C107.515,121.341,105.377,115.281,100.612,116.533Z" transform="translate(-71.823 -116.364)" fill="#ffd6ab"/>
              </g>
            </g>
          </g>
          <g id="Grupo_134582" data-name="Grupo 134582">
            <path id="Trazado_193441" data-name="Trazado 193441" d="M30.011,49.485a82.044,82.044,0,0,0,17.6,10.021,1.249,1.249,0,0,0,.9,0C64.9,53.048,83.739,38.856,83.906,19.835,83.788.282,58.795-7.4,48.06,8.905a19.454,19.454,0,0,0-22.734-7.8,1.25,1.25,0,0,0,.832,2.354,16.976,16.976,0,0,1,20.786,8.512,1.259,1.259,0,0,0,2.232,0c8.3-16.15,32.049-10.243,32.233,7.862-.219,17.928-18.134,30.79-33.349,37.159-7.044-2.7-22.222-11.775-28.175-21.3-6.255-9.045-7.826-21.743.972-29.189C22.05,5.5,20.491,3.548,19.244,4.6c-9.8,8.245-8.422,22.459-1.41,32.521a52.935,52.935,0,0,0,12.177,12.36Z" transform="translate(-12.236 0)"/>
            <path id="Trazado_193442" data-name="Trazado 193442" d="M60.452,137.919l-6.984,3.4-.022.011a12.313,12.313,0,0,1-10.422.382l-.038-.015-18.077-6.941a1.247,1.247,0,0,0-.448-.083H13.484a1.25,1.25,0,0,0,0,2.5H24.23l17.842,6.851a14.806,14.806,0,0,0,12.5-.462l6.973-3.4a1.25,1.25,0,0,0-1.094-2.245Z" transform="translate(-12.258 -59.938)"/>
            <path id="Trazado_193443" data-name="Trazado 193443" d="M73.791,114.248l-15.5,4.148a4.691,4.691,0,0,0-4.681-4.456H13.484a1.25,1.25,0,0,0,0,2.5H53.613a2.185,2.185,0,1,1,0,4.37H40.037a1.25,1.25,0,0,0,0,2.5H53.613a4.688,4.688,0,0,0,3.92-2.12l16.9-4.523c3.282-.863,4.388,3.073,1.486,4.49l-9.559,4.659a1.25,1.25,0,0,0,1.094,2.245l9.539-4.649A4.854,4.854,0,0,0,73.791,114.248Z" transform="translate(-12.258 -50.709)"/>
            <path id="Trazado_193444" data-name="Trazado 193444" d="M26.067,23.184c-2.556,3.93-2.653,11.456-.266,15.558a1.25,1.25,0,0,0,2.185-1.209c-1.941-3.332-1.886-9.851.2-13.028a1.249,1.249,0,1,0-2.119-1.321Z" transform="translate(-17.507 -10.056)"/>
          </g>
        </g>
      </g>
    </g>
  </g>
</svg>
