<svg xmlns="http://www.w3.org/2000/svg" xmlns:xlink="http://www.w3.org/1999/xlink" width="364.387" height="230.299" viewBox="0 0 364.387 230.299">
  <defs>
    <linearGradient id="linear-gradient" x1="-0.939" y1="1.089" x2="0.217" y2="0.616" gradientUnits="objectBoundingBox">
      <stop offset="0" stop-color="#c24940"/>
      <stop offset="1" stop-color="#cc605b"/>
    </linearGradient>
    <linearGradient id="linear-gradient-2" x1="-185.632" y1="-341.543" x2="-196.927" y2="-341.152" gradientUnits="objectBoundingBox">
      <stop offset="0" stop-color="#0f005b"/>
      <stop offset="1" stop-color="#1e168c"/>
    </linearGradient>
    <linearGradient id="linear-gradient-3" x1="-44.6" y1="-1313.858" x2="-44.989" y2="-1314.794" xlink:href="#linear-gradient-2"/>
    <linearGradient id="linear-gradient-4" x1="-137.722" y1="-456.164" x2="-146.28" y2="-455.772" xlink:href="#linear-gradient-2"/>
    <linearGradient id="linear-gradient-5" x1="-33.013" y1="-1327.161" x2="-33.4" y2="-1328.097" xlink:href="#linear-gradient-2"/>
    <linearGradient id="linear-gradient-6" x1="-91.39" y1="-358.391" x2="-102.317" y2="-357.999" xlink:href="#linear-gradient-2"/>
    <linearGradient id="linear-gradient-7" x1="-21.871" y1="-1339.667" x2="-22.258" y2="-1340.604" xlink:href="#linear-gradient-2"/>
    <linearGradient id="linear-gradient-8" x1="0.984" y1="-0.027" x2="-0.161" y2="0.597" xlink:href="#linear-gradient-2"/>
    <linearGradient id="linear-gradient-9" x1="-22.264" y1="-1313.887" x2="-22.651" y2="-1314.824" xlink:href="#linear-gradient-2"/>
    <linearGradient id="linear-gradient-10" x1="-180.391" y1="-0.012" x2="-181.537" y2="0.606" xlink:href="#linear-gradient-2"/>
    <linearGradient id="linear-gradient-11" x1="-44.593" y1="106.047" x2="-44.982" y2="105.108" xlink:href="#linear-gradient-2"/>
    <linearGradient id="linear-gradient-12" x1="0" y1="0.503" x2="1" y2="0.503" xlink:href="#linear-gradient-2"/>
    <linearGradient id="linear-gradient-13" y1="0.502" x2="1" y2="0.502" gradientUnits="objectBoundingBox">
      <stop offset="0" stop-color="#dbe1fc"/>
      <stop offset="1" stop-color="#e9edfb"/>
    </linearGradient>
    <linearGradient id="linear-gradient-14" x1="0" y1="0.499" y2="0.499" xlink:href="#linear-gradient-13"/>
    <linearGradient id="linear-gradient-15" x1="0" y1="0.5" y2="0.5" xlink:href="#linear-gradient-13"/>
    <linearGradient id="linear-gradient-16" x1="-0.001" y1="0.486" x2="1.002" y2="0.486" xlink:href="#linear-gradient-13"/>
    <linearGradient id="linear-gradient-17" x1="0" y1="0.5" x2="1" y2="0.5" xlink:href="#linear-gradient-2"/>
    <linearGradient id="linear-gradient-18" x1="52.661" y1="124.859" x2="53.661" y2="124.859" xlink:href="#linear-gradient-13"/>
    <linearGradient id="linear-gradient-19" x1="-0.016" y1="0.504" x2="0.999" y2="0.504" xlink:href="#linear-gradient-2"/>
    <linearGradient id="linear-gradient-20" x1="-3.234" y1="-5.834" x2="-7.007" y2="-0.218" gradientUnits="objectBoundingBox">
      <stop offset="0" stop-color="#df6f63"/>
      <stop offset="1" stop-color="#e5908c"/>
    </linearGradient>
    <linearGradient id="linear-gradient-21" x1="-1.184" y1="-9.364" x2="-3.229" y2="-1.481" xlink:href="#linear-gradient-20"/>
    <linearGradient id="linear-gradient-22" x1="0" y1="0.498" y2="0.498" xlink:href="#linear-gradient-13"/>
    <linearGradient id="linear-gradient-23" x1="-0.001" y1="0.5" x2="0.999" y2="0.5" xlink:href="#linear-gradient-13"/>
    <linearGradient id="linear-gradient-24" x1="0" y1="0.5" x2="1.001" y2="0.5" xlink:href="#linear-gradient-13"/>
    <linearGradient id="linear-gradient-25" x1="-0.001" y1="0.503" x2="1.001" y2="0.503" xlink:href="#linear-gradient-13"/>
    <linearGradient id="linear-gradient-26" x1="0.878" y1="-0.071" x2="-1.173" y2="3.028" xlink:href="#linear-gradient-20"/>
    <linearGradient id="linear-gradient-27" x1="0.822" y1="0.041" x2="-3.032" y2="5.179" xlink:href="#linear-gradient-20"/>
    <linearGradient id="linear-gradient-28" x1="0.958" y1="-0.846" x2="-1.04" y2="5.106" xlink:href="#linear-gradient-20"/>
    <linearGradient id="linear-gradient-30" x1="0.822" y1="0.039" x2="-3.032" y2="5.177" xlink:href="#linear-gradient-20"/>
    <linearGradient id="linear-gradient-31" x1="0.958" y1="-0.846" x2="-1.041" y2="5.104" xlink:href="#linear-gradient-20"/>
    <linearGradient id="linear-gradient-32" x1="0.878" y1="-0.071" x2="-1.173" y2="3.028" xlink:href="#linear-gradient-20"/>
    <linearGradient id="linear-gradient-33" x1="0.825" y1="0.039" x2="-3.029" y2="5.177" xlink:href="#linear-gradient-20"/>
    <linearGradient id="linear-gradient-34" x1="0.959" y1="-0.846" x2="-1.04" y2="5.104" xlink:href="#linear-gradient-20"/>
  </defs>
  <g id="Grupo_134908" data-name="Grupo 134908" transform="translate(13940.387 -599.769)">
    <g id="DIAGRAMA_PROCESOS-05" data-name="DIAGRAMA PROCESOS-05" transform="translate(-13940.387 599.769)">
      <path id="Trazado_193647" data-name="Trazado 193647" d="M145.836,58.725c-5.5,1.606-13.74,9.09-20.959,20.967C116,94.3,110.719,95.583,98.152,88.38s-27.3-2.361-38.007,16.807,8.03,34.064,25.376,57.416-17.289,17.313-28.507,44.584,4.6,57.866,56.662,57.5,130.893.337,130.893.337,73.075,6.424,99.7-10.214-6.119-24.757,18.63-35.413,50.591-11.363,39.766-38.9-26.1-21.85-35.984-29.19-15.828-15.354-1.694-28.451,24.95-21.931,17.8-39.292c-10.247-24.894-35.124-28.106-62.459-17.562S288.357,90.1,243.235,82.253C218.084,77.893,192.724,44.776,145.836,58.725Z" transform="translate(-40.808 -42.213)" fill="#e0e4f7"/>
      <path id="Trazado_193648" data-name="Trazado 193648" d="M438.044,174.729s-50.9,72.088-107.485,99.784a5.348,5.348,0,0,1-7.677-5.4C326.134,240.971,343.744,158.749,438.044,174.729Z" transform="translate(-93.842 -65.331)" fill="#a3ade6"/>
      <path id="Trazado_193649" data-name="Trazado 193649" d="M432.116,177.538a.234.234,0,1,0-.153-.442c-10.439,2.746-53.377,19.634-88.421,73.589a.164.164,0,1,0,.265.193C353.171,238.85,389.275,195.221,432.116,177.538Z" transform="translate(-97.912 -66.197)" fill="#dde3fc"/>
      <path id="Trazado_193650" data-name="Trazado 193650" d="M405.8,130.06s-19.321,69.06-55.08,105.719a4.352,4.352,0,0,1-7.356-2.04C338.186,211.31,329.24,143.551,405.8,130.06Z" transform="translate(-97.238 -56.935)" fill="#a3ade6"/>
      <path id="Trazado_193651" data-name="Trazado 193651" d="M401.26,135.232a.193.193,0,0,0-.233-.3c-7.227,4.955-35.51,29.592-47.628,80.463a.137.137,0,0,0,.257.08C357.583,203.73,373.323,160.463,401.26,135.232Z" transform="translate(-99.86 -57.891)" fill="#dde3fc"/>
      <path id="Trazado_193652" data-name="Trazado 193652" d="M433.933,244.313c-12.672-.755-69.711-1.518-86.5,44.022a1.261,1.261,0,0,0,1.341,1.686c9.966-1.2,55-8.416,86.028-43.612a1.261,1.261,0,0,0-.867-2.1Z" transform="translate(-98.669 -79.402)" fill="#a3ade6"/>
      <path id="Trazado_193653" data-name="Trazado 193653" d="M421.68,251.517a.177.177,0,0,0-.072-.337c-9.9,1.662-40.151,8.761-68.257,36.184C353.35,287.364,382.452,261.6,421.68,251.517Z" transform="translate(-99.85 -80.792)" fill="#dde3fc"/>
      <path id="Trazado_193654" data-name="Trazado 193654" d="M37.67,181.009s50.912,72.056,107.493,99.784a5.348,5.348,0,0,0,7.677-5.4C149.556,247.251,131.977,165.029,37.67,181.009Z" transform="translate(-37.67 -66.568)" fill="#a3ade6"/>
      <path id="Trazado_193655" data-name="Trazado 193655" d="M50.094,183.82a.233.233,0,0,1,.145-.442c10.439,2.746,53.377,19.634,88.429,73.589a.164.164,0,1,1-.265.193C129.04,245.155,92.928,201.543,50.094,183.82Z" transform="translate(-40.088 -67.436)" fill="#dde3fc"/>
      <path id="Trazado_193656" data-name="Trazado 193656" d="M82.06,136.34s19.321,69.06,55.08,105.718a4.344,4.344,0,0,0,7.348-2.04C149.675,217.59,158.621,149.831,82.06,136.34Z" transform="translate(-46.414 -58.172)" fill="#c0cef8"/>
      <path id="Trazado_193657" data-name="Trazado 193657" d="M90.917,141.52a.193.193,0,0,1,.241-.3c7.227,4.947,35.51,29.584,47.628,80.463a.137.137,0,0,1-.257.072C134.634,210.01,118.894,166.735,90.917,141.52Z" transform="translate(-48.147 -59.128)" fill="#dde3fc"/>
      <path id="Trazado_193658" data-name="Trazado 193658" d="M48.511,250.593c12.68-.755,69.719-1.518,86.5,44.022a1.261,1.261,0,0,1-1.333,1.686c-9.966-1.2-55-8.416-86.036-43.612a1.269,1.269,0,0,1,.867-2.1Z" transform="translate(-39.574 -80.639)" fill="#a3ade6"/>
      <path id="Trazado_193659" data-name="Trazado 193659" d="M65.515,257.8a.177.177,0,0,1,.072-.337c9.893,1.662,40.151,8.761,68.257,36.184C133.844,293.644,104.735,267.891,65.515,257.8Z" transform="translate(-43.134 -82.029)" fill="#dde3fc"/>
      <path id="Trazado_193660" data-name="Trazado 193660" d="M315.3,57.966a7.364,7.364,0,0,0-5.34-2.257L158.183,55.8a7.372,7.372,0,0,0-5.316,2.265,7.476,7.476,0,0,0-2.088,5.42l6.015,194.959a7.356,7.356,0,0,0,7.4,7.131H304.334a7.356,7.356,0,0,0,7.4-7.147l5.693-195.087A7.4,7.4,0,0,0,315.3,57.966Z" transform="translate(-59.949 -42.29)" fill="#4e2e8e"/>
      <path id="Trazado_193661" data-name="Trazado 193661" d="M310.416,69.194a6.738,6.738,0,0,0-4.858-2.064l-138.7.08a6.745,6.745,0,0,0-4.866,2.072,6.858,6.858,0,0,0-1.9,4.971l5.5,178.184a6.729,6.729,0,0,0,6.77,6.529H300.354a6.729,6.729,0,0,0,6.769-6.537l5.2-178.272a6.722,6.722,0,0,0-1.911-4.963Z" transform="translate(-61.782 -44.539)" fill="#dcd5e8"/>
      <g id="Grupo_134647" data-name="Grupo 134647" transform="translate(159.16 27.055)" opacity="0.6">
        <ellipse id="Elipse_17698" data-name="Elipse 17698" cx="15.001" cy="15.089" rx="15.001" ry="15.089" transform="translate(0 0)" fill="#dd8d7f"/>
        <ellipse id="Elipse_17699" data-name="Elipse 17699" cx="13.941" cy="14.021" rx="13.941" ry="14.021" transform="translate(1.413 1.068)" fill="#dd8d7f"/>
      </g>
      <g id="Grupo_134648" data-name="Grupo 134648" transform="translate(159.16 176.049)" opacity="0.6">
        <ellipse id="Elipse_17700" data-name="Elipse 17700" cx="15.001" cy="15.089" rx="15.001" ry="15.089" fill="#dd8d7f"/>
        <ellipse id="Elipse_17701" data-name="Elipse 17701" cx="13.941" cy="14.021" rx="13.941" ry="14.021" transform="translate(1.413 1.068)" fill="#dd8d7f"/>
      </g>
      <path id="Trazado_193662" data-name="Trazado 193662" d="M250.341,134.66,232.98,152.038,250.261,169.5l17.361-17.378Z" transform="translate(-76.141 -57.841)" fill="url(#linear-gradient)"/>
      <path id="Trazado_193663" data-name="Trazado 193663" d="M250.688,136.44,234.74,152.4l15.868,16.036,15.948-15.956Z" transform="translate(-76.487 -58.192)" fill="#dd8d7f" opacity="0.6"/>
      <g id="Grupo_134649" data-name="Grupo 134649" transform="translate(204.354 127.032)" opacity="0.6">
        <path id="Trazado_193664" data-name="Trazado 193664" d="M323.693,206.778a9.572,9.572,0,0,1-9.572,9.588H301.714a9.564,9.564,0,0,1-9.564-9.588h0a9.564,9.564,0,0,1,9.564-9.588h12.407a9.572,9.572,0,0,1,9.572,9.588Z" transform="translate(-292.15 -197.19)" fill="#dd8d7f"/>
        <path id="Trazado_193665" data-name="Trazado 193665" d="M322.65,206.951a8.833,8.833,0,0,1-8.833,8.881H302.333a8.833,8.833,0,0,1-8.833-8.881h0a8.833,8.833,0,0,1,8.833-8.881h11.515a8.833,8.833,0,0,1,8.833,8.882Z" transform="translate(-292.416 -197.363)" fill="#dd8d7f"/>
      </g>
      <g id="Grupo_134650" data-name="Grupo 134650" transform="translate(158.63 127.032)" opacity="0.6">
        <path id="Trazado_193666" data-name="Trazado 193666" d="M266.753,206.778a9.564,9.564,0,0,1-9.564,9.588H244.782a9.572,9.572,0,0,1-9.572-9.588h0a9.572,9.572,0,0,1,9.572-9.588h12.407a9.564,9.564,0,0,1,9.564,9.588Z" transform="translate(-235.21 -197.19)" fill="#dd8d7f"/>
        <path id="Trazado_193667" data-name="Trazado 193667" d="M265.718,206.951a8.833,8.833,0,0,1-8.833,8.881H245.393a8.833,8.833,0,0,1-8.833-8.881h0a8.833,8.833,0,0,1,8.833-8.881h11.515a8.833,8.833,0,0,1,8.833,8.882Z" transform="translate(-235.476 -197.363)" fill="#dd8d7f"/>
      </g>
      <g id="Grupo_134651" data-name="Grupo 134651" transform="translate(111.886 127.032)" opacity="0.6">
        <path id="Trazado_193668" data-name="Trazado 193668" d="M208.5,206.778a9.564,9.564,0,0,1-9.564,9.588H186.532A9.572,9.572,0,0,1,177,206.778h0a9.572,9.572,0,0,1,9.572-9.588h12.407a9.564,9.564,0,0,1,9.564,9.588Z" transform="translate(-177 -197.19)" fill="#dd8d7f"/>
        <path id="Trazado_193669" data-name="Trazado 193669" d="M207.46,206.951a8.833,8.833,0,0,1-8.833,8.881H187.143a8.833,8.833,0,0,1-8.833-8.881h0a8.833,8.833,0,0,1,8.833-8.881h11.507a8.833,8.833,0,0,1,8.833,8.882Z" transform="translate(-177.258 -197.363)" fill="#dd8d7f"/>
      </g>
      <path id="Trazado_193670" data-name="Trazado 193670" d="M254.94,126.609a.53.53,0,0,1-.53-.53v-13.5a.53.53,0,0,1,1.06,0v13.5a.522.522,0,0,1-.53.53Z" transform="translate(-80.362 -53.387)" fill="url(#linear-gradient-2)"/>
      <path id="Trazado_193671" data-name="Trazado 193671" d="M256.192,126.87l-2.176,3.79-2.176-3.79Z" transform="translate(-79.856 -56.307)" fill="url(#linear-gradient-3)"/>
      <path id="Trazado_193672" data-name="Trazado 193672" d="M254.94,190.3a.538.538,0,0,1-.53-.538V179.81a.53.53,0,1,1,1.06,0v9.941a.53.53,0,0,1-.53.546Z" transform="translate(-80.362 -66.63)" fill="url(#linear-gradient-4)"/>
      <path id="Trazado_193673" data-name="Trazado 193673" d="M256.192,189.67l-2.176,3.79-2.176-3.79Z" transform="translate(-79.856 -68.676)" fill="url(#linear-gradient-5)"/>
      <path id="Trazado_193674" data-name="Trazado 193674" d="M254.058,249.23a.538.538,0,0,1-.538-.538V235.554a.538.538,0,0,1,1.068,0v13.113a.538.538,0,0,1-.53.562Z" transform="translate(-80.187 -77.621)" fill="url(#linear-gradient-6)"/>
      <path id="Trazado_193675" data-name="Trazado 193675" d="M255.512,249.38l-2.176,3.79-2.176-3.79Z" transform="translate(-79.722 -80.438)" fill="url(#linear-gradient-7)"/>
      <path id="Trazado_193676" data-name="Trazado 193676" d="M194.35,182.078a.53.53,0,0,1-.53-.538V156.148a.53.53,0,0,1,.53-.538h29.327a.538.538,0,0,1,0,1.068h-28.8v24.894A.538.538,0,0,1,194.35,182.078Z" transform="translate(-68.427 -61.968)" fill="url(#linear-gradient-8)"/>
      <path id="Trazado_193677" data-name="Trazado 193677" d="M195.722,187.46l-2.176,3.79-2.176-3.79Z" transform="translate(-67.945 -68.241)" fill="url(#linear-gradient-9)"/>
      <path id="Trazado_193678" data-name="Trazado 193678" d="M308.413,182.069a.538.538,0,0,1-.53-.538V156.637H279.472a.538.538,0,1,1,0-1.068h28.909a.538.538,0,0,1,.538.538v25.424A.538.538,0,0,1,308.413,182.069Z" transform="translate(-85.179 -61.959)" fill="url(#linear-gradient-10)"/>
      <path id="Trazado_193679" data-name="Trazado 193679" d="M313.12,187.46l2.176,3.79,2.184-3.79Z" transform="translate(-91.926 -68.241)" fill="url(#linear-gradient-11)"/>
      <path id="Trazado_193680" data-name="Trazado 193680" d="M291.21,233.523H193.867a.538.538,0,0,1-.538-.53v-9.411a.538.538,0,1,1,1.068,0v8.873H290.68v-8.873a.538.538,0,1,1,1.068,0v9.411a.538.538,0,0,1-.538.53Z" transform="translate(-68.33 -75.237)" fill="url(#linear-gradient-12)"/>
      <path id="Trazado_193681" data-name="Trazado 193681" d="M212.015,80.619a2.321,2.321,0,0,1-2.361,2.248H173.028a2.192,2.192,0,0,1-2.208-2.216v-.12a2.24,2.24,0,0,1,2.208-2.281h36.626a2.409,2.409,0,0,1,2.361,2.281Z" transform="translate(-63.897 -46.73)" fill="#a3ade6"/>
      <path id="Trazado_193682" data-name="Trazado 193682" d="M212.015,93.465a2.3,2.3,0,0,1-2.361,2.184H173.028a2.16,2.16,0,0,1-2.208-2.184v-.12A2.273,2.273,0,0,1,173.028,91h36.626a2.409,2.409,0,0,1,2.361,2.313Z" transform="translate(-63.897 -49.241)" fill="#a3ade6"/>
      <g id="Grupo_134652" data-name="Grupo 134652" transform="translate(268.214 20.506)">
        <path id="Trazado_193683" data-name="Trazado 193683" d="M393.465,104.883a.843.843,0,0,1-.723-.41l-1.735-2.955a16.551,16.551,0,0,1-4.738-.94l-2.722,2.072a.843.843,0,0,1-.98,0l-3.71-2.409a.851.851,0,0,1-.345-.915l.859-3.316a16.613,16.613,0,0,1-2.69-4.015l-3.4-.458a.8.8,0,0,1-.707-.667l-.883-4.368a.8.8,0,0,1,.4-.891l2.947-1.735a16.6,16.6,0,0,1,.907-4.754l-2.08-2.722a.8.8,0,0,1,0-.972l2.473-3.71a.8.8,0,0,1,.907-.353l3.317.867a16.639,16.639,0,0,1,4.015-2.7l.458-3.389a.843.843,0,0,1,.667-.715l4.376-.875a.8.8,0,0,1,.883.393L392.7,67.9a16.816,16.816,0,0,1,4.746.932l2.722-2.08a.843.843,0,0,1,.972,0L404.86,69.2a.8.8,0,0,1,.345.907l-.867,3.316a16.686,16.686,0,0,1,2.7,4.015l3.4.458a.8.8,0,0,1,.707.667l.875,4.368a.8.8,0,0,1-.394.891l-2.955,1.735a16.816,16.816,0,0,1-.931,4.738l2.08,2.73a.8.8,0,0,1,0,.972l-2.465,3.71a.8.8,0,0,1-.907.345l-3.316-.859a16.656,16.656,0,0,1-4.015,2.69l-.458,3.4a.843.843,0,0,1-.667.715l-4.368.875Zm-7.38-5.5.273.1a15.635,15.635,0,0,0,4.979.988h.3l1.951,3.316,4.015-.8.514-3.806.265-.128a15.53,15.53,0,0,0,4.216-2.827l.217-.2,3.726.972,2.289-3.445-2.337-3.06.1-.273a15.8,15.8,0,0,0,.98-4.979v-.3l3.316-1.943-.8-4.055-3.814-.514-.12-.265a15.555,15.555,0,0,0-2.835-4.216l-.2-.217L404.089,70l-3.445-2.289-3.011,2.329-.273-.1a15.763,15.763,0,0,0-4.979-.98h-.3l-1.943-3.316-4.015.8-.538,3.814-.265.12a15.684,15.684,0,0,0-4.216,2.835l-.209.2-3.726-.972-2.289,3.445,2.329,3.06-.1.273a15.6,15.6,0,0,0-.988,4.979v.3l-3.389,1.943.8,4.015,3.806.514.128.265a15.65,15.65,0,0,0,2.827,4.216l.2.209-.923,3.782,3.445,2.289Zm5.83-3.333a11.291,11.291,0,0,1-11.05-9.066,11.456,11.456,0,0,1-.225-2.409.53.53,0,0,1,.538-.53.546.546,0,0,1,.53.546,10.379,10.379,0,0,0,.2,2.168,10.231,10.231,0,1,0,3.148-9.588.538.538,0,0,1-.755-.04.522.522,0,0,1,.04-.747,11.291,11.291,0,1,1,7.573,19.65Z" transform="translate(-371.673 -64.534)" fill="#a3ade6"/>
        <path id="Trazado_193684" data-name="Trazado 193684" d="M395.7,93.04a4.5,4.5,0,0,1-4.063-2.554h0A4.505,4.505,0,1,1,395.7,93.04Zm-3.06-3.011a3.429,3.429,0,1,0,1.668-4.457,3.429,3.429,0,0,0-1.668,4.457Z" transform="translate(-375.519 -68.374)" fill="#a3ade6"/>
        <path id="Trazado_193685" data-name="Trazado 193685" d="M430.989,116.633a.8.8,0,0,1-.193,0l-2.056-.618a.666.666,0,0,1-.482-.626l-.064-1.494a8.157,8.157,0,0,1-1.606-1.333l-1.478.241a.707.707,0,0,1-.715-.353l-1.012-1.887a.683.683,0,0,1,.1-.8l1.02-1.108a7.975,7.975,0,0,1-.209-2.1l-1.221-.875a.675.675,0,0,1-.249-.747l.618-2.056a.683.683,0,0,1,.618-.482l1.5-.056a8.156,8.156,0,0,1,1.333-1.606l-.241-1.478a.675.675,0,0,1,.353-.707l1.887-1.02a.667.667,0,0,1,.8.1l1.02.948a8.762,8.762,0,0,1,2.1-.209l.883-1.213a.675.675,0,0,1,.747-.257l2.048.618a.675.675,0,0,1,.49.618l.056,1.5a8.447,8.447,0,0,1,1.606,1.333l1.486-.241a.691.691,0,0,1,.707.353l1.012,1.887a.682.682,0,0,1-.1.8l-1.02,1.108a7.974,7.974,0,0,1,.209,2.1l1.221.875a.691.691,0,0,1,.257.747l-.618,2.056a.7.7,0,0,1-.626.482l-1.5.056a8.162,8.162,0,0,1-1.333,1.606l.241,1.478a.666.666,0,0,1-.345.707l-1.887,1.02a.683.683,0,0,1-.8-.1l-1.1-1.012a8.76,8.76,0,0,1-2.1.209l-.875,1.213A.683.683,0,0,1,430.989,116.633Zm-1.678-1.606,1.526.458,1.06-1.47h.289a7.348,7.348,0,0,0,2.337-.233l.289-.08,1.325,1.229,1.405-.755-.289-1.783.161-.161a7.081,7.081,0,0,0,1.486-1.823l.153-.249,1.807-.072.458-1.526-1.469-1.06v-.289a6.989,6.989,0,0,0-.233-2.345l-.072-.281,1.221-1.325-.755-1.405-1.783.289-.193-.225a7.227,7.227,0,0,0-1.823-1.486l-.257-.145-.072-1.807-1.526-.458L433.3,99.5H433a7.4,7.4,0,0,0-2.337.233l-.289.08-1.285-1.229-1.405.755.289,1.783-.217.2a7.082,7.082,0,0,0-1.486,1.823l-.1.257-1.807.072L423.907,105l1.461,1.06v.289a7.42,7.42,0,0,0,.233,2.345l.08.281-1.229,1.325.755,1.405,1.783-.289.193.225a7.394,7.394,0,0,0,1.823,1.486l.257.145ZM429.311,115.3ZM436.329,115.14ZM435.888,115.083ZM437.775,114.064ZM424.967,112.233ZM424.878,111.711ZM440.8,110.346ZM424.268,110.016ZM427.48,99.44ZM429.367,98.421ZM428.926,98.364Zm3.758,14.109a5.845,5.845,0,0,1-1.694-.241,5.7,5.7,0,0,1-3.381-2.762,5.9,5.9,0,0,1-.458-1.124.531.531,0,0,1,1.02-.3,4.813,4.813,0,0,0,.377.915,4.652,4.652,0,1,0,.1-4.577.546.546,0,0,1-.731.185.53.53,0,0,1-.185-.731,5.71,5.71,0,1,1,4.906,8.633Z" transform="translate(-381.742 -70.904)" fill="#a3ade6"/>
      </g>
      <path id="Trazado_193686" data-name="Trazado 193686" d="M74.645,213.442h59.424a3.437,3.437,0,0,0,3.429-3.437V121a3.437,3.437,0,0,0-3.421-3.437L74.155,117.4a3.437,3.437,0,0,0-3.445,3.453l.482,89.2a3.429,3.429,0,0,0,3.453,3.389Z" transform="translate(-44.178 -54.441)" fill="#4e2e8e"/>
      <path id="Trazado_193687" data-name="Trazado 193687" d="M78.381,122.87l53.16.329A3.477,3.477,0,0,1,135,126.7l-.369,79.917a3.493,3.493,0,0,1-3.421,3.469l-51.651.94a3.493,3.493,0,0,1-3.549-3.437L74.88,126.4a3.477,3.477,0,0,1,3.5-3.533Z" transform="translate(-44.999 -55.519)" fill="#9582bb"/>
      <rect id="Rect치ngulo_44178" data-name="Rect치ngulo 44178" width="43.042" height="2.449" rx="1.225" transform="translate(35.542 70.788)" fill="url(#linear-gradient-13)"/>
      <path id="Trazado_193688" data-name="Trazado 193688" d="M87.62,133.92h0a1.052,1.052,0,0,0,1.02.988l35.823.65a1.044,1.044,0,0,0,1.06-1.044v-.088a1.044,1.044,0,0,0-1.028-1.036l-35.815-.57a1.052,1.052,0,0,0-1.06,1.1Z" transform="translate(-47.508 -57.479)" fill="url(#linear-gradient-14)"/>
      <path id="Trazado_193689" data-name="Trazado 193689" d="M82,211.69a3.212,3.212,0,0,1-3.212-3.132L77.63,143.2a3.212,3.212,0,0,1,3.116-3.212l48.39-.988a3.181,3.181,0,0,1,3.252,3.124l1.245,65.72a3.164,3.164,0,0,1-.9,2.281,3.212,3.212,0,0,1-2.248.972l-48.447.578Zm47.2-71.253h0l-48.4.972a1.767,1.767,0,0,0-1.735,1.791l1.164,65.366a1.775,1.775,0,0,0,1.783,1.735l48.455-.578a1.775,1.775,0,0,0,1.245-.538,1.751,1.751,0,0,0,.5-1.261L130.967,142.2a1.767,1.767,0,0,0-1.767-1.727Z" transform="translate(-45.541 -58.696)" fill="url(#linear-gradient-15)"/>
      <path id="Trazado_193690" data-name="Trazado 193690" d="M131.906,148.651H79.163a.715.715,0,0,1,0-1.421h52.743a.715.715,0,0,1,0,1.421Z" transform="translate(-45.717 -60.317)" fill="url(#linear-gradient-16)"/>
      <path id="Trazado_193691" data-name="Trazado 193691" d="M137.638,120.011a1.349,1.349,0,1,1-1.349-1.341,1.349,1.349,0,0,1,1.349,1.341Z" transform="translate(-56.829 -54.691)" fill="#c0cef8"/>
      <path id="Trazado_193692" data-name="Trazado 193692" d="M143.478,120.011a1.349,1.349,0,1,1-1.341-1.341A1.349,1.349,0,0,1,143.478,120.011Z" transform="translate(-57.98 -54.691)" fill="#c0cef8"/>
      <path id="Trazado_193693" data-name="Trazado 193693" d="M149.338,120.011a1.349,1.349,0,1,1-1.349-1.341,1.349,1.349,0,0,1,1.349,1.341Z" transform="translate(-59.134 -54.691)" fill="#c0cef8"/>
      <path id="Trazado_193694" data-name="Trazado 193694" d="M50.038,83.981c15.739-.233,93.593-1.606,109.573-1.871a2.819,2.819,0,0,1,2.867,2.819V92.22a2.819,2.819,0,0,1-2.819,2.819H50.079A2.819,2.819,0,0,1,47.26,92.22V86.84a2.827,2.827,0,0,1,2.778-2.859Z" transform="translate(-39.559 -47.49)" fill="#4e2e8e"/>
      <path id="Trazado_193695" data-name="Trazado 193695" d="M75.43,90.181h0A2.843,2.843,0,0,0,78.3,93.048l63.5-1.1A2.843,2.843,0,0,0,144.5,88.43l-.289-1.18a2.843,2.843,0,0,0-2.859-2.16L78.168,87.346A2.835,2.835,0,0,0,75.43,90.181Z" transform="translate(-45.108 -48.077)" fill="#dcd5e8"/>
      <path id="Trazado_193696" data-name="Trazado 193696" d="M55.306,91.93l-9.765,9.933a1.012,1.012,0,0,0,.072,1.47l.072.064a.932.932,0,0,0,1.317-.12L55.94,92.492Z" transform="translate(-39.165 -49.424)" fill="url(#linear-gradient-17)"/>
      <path id="Trazado_193697" data-name="Trazado 193697" d="M67.256,81.12a6.464,6.464,0,1,1-8.568-2.939A6.464,6.464,0,0,1,67.256,81.12Z" transform="translate(-41.086 -46.589)" opacity="0.53" fill="url(#linear-gradient-18)"/>
      <path id="Trazado_193698" data-name="Trazado 193698" d="M58.253,77.363a7.059,7.059,0,1,0,9.532,3.276A7.131,7.131,0,0,0,58.253,77.363Zm5.621,11.813A6.023,6.023,0,1,1,66.813,81.1a6.087,6.087,0,0,1-2.923,8.078Z" transform="translate(-40.956 -46.412)" fill="url(#linear-gradient-19)"/>
      <path id="Trazado_193699" data-name="Trazado 193699" d="M353.922,111.9l56.806.883a5.9,5.9,0,0,1,5.79,5.685l2.883,82.423a4.344,4.344,0,0,1-4.328,4.489l-65.126.153a4.111,4.111,0,0,1-4.128-4.184l1.317-82.888A6.673,6.673,0,0,1,353.922,111.9Z" transform="translate(-98.367 -53.358)" fill="#4e2e8e"/>
      <path id="Trazado_193700" data-name="Trazado 193700" d="M359.988,223.1h0l-7.283-.209a4.489,4.489,0,0,1-4.344-4.545l.177-11a.161.161,0,0,1,.153-.153.152.152,0,0,1,.153.161l-.169,11a4.168,4.168,0,0,0,4.015,4.224l7.283.217a.153.153,0,1,1,0,.305Z" transform="translate(-98.867 -72.127)" fill="#c0cef8"/>
      <path id="Trazado_193701" data-name="Trazado 193701" d="M348.792,202.775a.153.153,0,0,1-.153-.161v-1.783a.161.161,0,1,1,.313,0v1.783A.161.161,0,0,1,348.792,202.775Z" transform="translate(-98.922 -70.836)" fill="#c0cef8"/>
      <path id="Trazado_193702" data-name="Trazado 193702" d="M355.38,111.065c7.741,1.18,34.361,4.818,56.445,3.509a1.8,1.8,0,0,1,1.9,1.727l3.084,82.792a2.064,2.064,0,0,1-1.975,2.144c-9.283.4-47.515,1.919-61.118.273a1.606,1.606,0,0,1-1.437-1.606l.867-86.9a1.943,1.943,0,0,1,2.232-1.943Z" transform="translate(-99.64 -53.189)" fill="#dcd5e8"/>
      <path id="Trazado_193703" data-name="Trazado 193703" d="M356.4,113.753c7.452,1.132,33.069,4.674,54.325,3.381a1.727,1.727,0,0,1,1.831,1.654l2.963,79.676a1.991,1.991,0,0,1-1.9,2.064c-8.938.385-45.732,1.847-58.822.265a1.606,1.606,0,0,1-1.389-1.606l.8-83.627a1.863,1.863,0,0,1,2.184-1.807Z" transform="translate(-99.862 -53.717)" fill="#9582bb"/>
      <path id="Trazado_193704" data-name="Trazado 193704" d="M362.94,123.528l.522,17.08a1.076,1.076,0,0,0,1.036,1.052c3.164.137,13.009.538,18.574.329a1.2,1.2,0,0,0,1.164-1.148c.153-3.212.538-12.511-.129-16.422a1.373,1.373,0,0,0-1.285-1.132l-18.67-.948a1.156,1.156,0,0,0-1.213,1.188Z" transform="translate(-101.739 -55.414)" fill="#fff" opacity="0.7"/>
      <path id="Trazado_193705" data-name="Trazado 193705" d="M378.98,130.786a3.67,3.67,0,1,1-3.614-3.726A3.67,3.67,0,0,1,378.98,130.786Z" transform="translate(-103.453 -56.344)" fill="url(#linear-gradient-20)"/>
      <path id="Trazado_193706" data-name="Trazado 193706" d="M368.829,143.695l11.692.193a.907.907,0,0,0,.8-1.389,7.548,7.548,0,0,0-6.609-3.838,8.143,8.143,0,0,0-6.609,3.533.948.948,0,0,0,.723,1.5Z" transform="translate(-102.721 -58.629)" fill="url(#linear-gradient-21)"/>
      <g id="Grupo_134653" data-name="Grupo 134653" transform="translate(286.924 68.487)" opacity="0.6">
        <path id="Trazado_193707" data-name="Trazado 193707" d="M415.994,126.136a.586.586,0,0,0,.634-.562.658.658,0,0,0-.65-.594l-20.525-.691a.418.418,0,0,0-.442.586l.1.321a.988.988,0,0,0,.851.626Z" transform="translate(-394.973 -124.284)" fill="#fff"/>
      </g>
      <g id="Grupo_134654" data-name="Grupo 134654" transform="translate(286.873 71.668)" opacity="0.6">
        <path id="Trazado_193708" data-name="Trazado 193708" d="M395.383,128.249a.418.418,0,0,0-.434.594l.1.321a.98.98,0,0,0,.851.618l20.019.321a.6.6,0,0,0,.642-.562.659.659,0,0,0-.65-.6Z" transform="translate(-394.909 -128.245)" fill="#fff"/>
      </g>
      <g id="Grupo_134655" data-name="Grupo 134655" transform="translate(286.821 74.897)" opacity="0.6">
        <path id="Trazado_193709" data-name="Trazado 193709" d="M395.323,132.269a.426.426,0,0,0-.442.594l.112.321a.98.98,0,0,0,.843.618l20.027.321a.594.594,0,0,0,.634-.57.65.65,0,0,0-.65-.594Z" transform="translate(-394.845 -132.266)" fill="#fff"/>
      </g>
      <g id="Grupo_134656" data-name="Grupo 134656" transform="translate(261.13 90.061)" opacity="0.6">
        <path id="Trazado_193710" data-name="Trazado 193710" d="M411.305,153.439a.57.57,0,0,0,.618-.562.675.675,0,0,0-.674-.586l-48.037-1.14c-.353,0-.466.209-.249.49l.41.538a1.486,1.486,0,0,0,1.036.514Z" transform="translate(-362.852 -151.15)" fill="#fff"/>
      </g>
      <g id="Grupo_134657" data-name="Grupo 134657" transform="translate(261.082 93.241)" opacity="0.6">
        <path id="Trazado_193711" data-name="Trazado 193711" d="M363.152,155.11c-.353,0-.466.209-.249.49l.41.538a1.526,1.526,0,0,0,1.036.522l46.9.739a.562.562,0,0,0,.61-.562.666.666,0,0,0-.666-.586Z" transform="translate(-362.792 -155.11)" fill="#fff"/>
      </g>
      <path id="Trazado_193712" data-name="Trazado 193712" d="M362.715,161.7c1.156-.072,3.317-.08,4.5-.072a1.076,1.076,0,0,1,1.052.8,17.666,17.666,0,0,1,.442,4.368.964.964,0,0,1-.98.923l-4.393-.12a1.052,1.052,0,0,1-1.02-.972L362,162.5A.8.8,0,0,1,362.715,161.7Z" transform="translate(-101.554 -63.153)" fill="#fff" opacity="0.6"/>
      <g id="Grupo_134658" data-name="Grupo 134658" transform="translate(268.667 100.376)" opacity="0.6">
        <path id="Trazado_193713" data-name="Trazado 193713" d="M372.8,164a.506.506,0,0,0-.554.6l.1.755a.8.8,0,0,0,.731.642l10.7.177a.634.634,0,0,0,.642-.634v-.225a.7.7,0,0,0-.642-.683Z" transform="translate(-372.238 -163.996)" fill="#fff"/>
      </g>
      <path id="Trazado_193714" data-name="Trazado 193714" d="M392.494,162.172c1.156-.064,3.316-.072,4.513-.072a1.068,1.068,0,0,1,1.044.843,17.561,17.561,0,0,1,.442,4.361.964.964,0,0,1-.98.923l-4.393-.12a1.044,1.044,0,0,1-1.02-.972L391.78,163A.8.8,0,0,1,392.494,162.172Z" transform="translate(-107.42 -63.246)" fill="#fff" opacity="0.6"/>
      <g id="Grupo_134659" data-name="Grupo 134659" transform="translate(292.583 100.747)" opacity="0.6">
        <path id="Trazado_193715" data-name="Trazado 193715" d="M402.582,164.459a.514.514,0,0,0-.554.6l.1.755a.8.8,0,0,0,.731.65l10.7.169a.642.642,0,0,0,.651-.634v-.225a.7.7,0,0,0-.642-.683Z" transform="translate(-402.02 -164.457)" fill="#fff"/>
      </g>
      <path id="Trazado_193716" data-name="Trazado 193716" d="M368.952,180.887h0l-4.015-.1a1.084,1.084,0,0,1-1.092-.948l-.305-3.4a.754.754,0,0,1,.185-.554.883.883,0,0,1,.626-.289h0l1.333-.088c1.068-.072,2.409-.169,3.156-.169a1.14,1.14,0,0,1,1.124.8,17.506,17.506,0,0,1,.088,3.838,1,1,0,0,1-1.1.915Zm-4.633-5.019a.586.586,0,0,0-.409.193.4.4,0,0,0-.1.321l.3,3.4a.8.8,0,0,0,.8.658l4.015.1h0a.691.691,0,0,0,.731-.61,17.154,17.154,0,0,0-.08-3.742.8.8,0,0,0-.8-.578c-.739,0-2.072.088-3.14.169l-1.333.08Z" transform="translate(-101.857 -65.852)" fill="#fff"/>
      <path id="Trazado_193717" data-name="Trazado 193717" d="M364.882,176.43c.851-.048,2.706-.2,3.581-.2a.8.8,0,0,1,.8.554,13.655,13.655,0,0,1,.072,3.027.667.667,0,0,1-.723.6l-3.212-.08a.739.739,0,0,1-.755-.642l-.249-2.722a.522.522,0,0,1,.482-.538Z" transform="translate(-102.027 -66.029)" fill="#fff" opacity="0.6"/>
      <g id="Grupo_134660" data-name="Grupo 134660" transform="translate(270.672 111.622)" opacity="0.6">
        <path id="Trazado_193718" data-name="Trazado 193718" d="M374.755,179.213a1,1,0,0,0,.964.8l37.485.273a.779.779,0,0,0,.056-1.558L375.751,178a1.012,1.012,0,0,0-1,1.213Z" transform="translate(-374.735 -178)" fill="#fff"/>
      </g>
      <path id="Trazado_193719" data-name="Trazado 193719" d="M365.172,176.457h0a.618.618,0,0,1,.851.241l.8,1.445a.193.193,0,0,0,.353,0l2.056-4.377a.217.217,0,0,1,.418.1,8.7,8.7,0,0,1-2.634,6.023,4.742,4.742,0,0,1-2.1-2.594.658.658,0,0,1,.257-.835Z" transform="translate(-102.117 -65.517)" fill="#4e2e8e"/>
      <path id="Trazado_193720" data-name="Trazado 193720" d="M368.782,191.7h0l-4.015-.1a1.092,1.092,0,0,1-1.1-.948l-.3-3.4a.731.731,0,0,1,.185-.546.859.859,0,0,1,.618-.3h0l1.333-.088c1.076-.072,2.409-.169,3.164-.161h0a1.116,1.116,0,0,1,1.1.8,16.86,16.86,0,0,1,.1,3.83A1,1,0,0,1,368.782,191.7Zm-4.633-4.995a.6.6,0,0,0-.41.193.45.45,0,0,0-.112.321l.305,3.4a.8.8,0,0,0,.8.658l4.015.1h0a.691.691,0,0,0,.739-.61,17.156,17.156,0,0,0-.08-3.742.8.8,0,0,0-.8-.578c-.739,0-2.072.088-3.14.169l-1.333.08Z" transform="translate(-101.823 -67.983)" fill="#fff"/>
      <path id="Trazado_193721" data-name="Trazado 193721" d="M364.754,187.24c.851-.048,2.706-.2,3.582-.2a.8.8,0,0,1,.8.554,13.717,13.717,0,0,1,.064,3.027.667.667,0,0,1-.715.61l-3.212-.088a.747.747,0,0,1-.755-.642l-.241-2.714a.53.53,0,0,1,.474-.546Z" transform="translate(-102.003 -68.158)" fill="#fff" opacity="0.6"/>
      <g id="Grupo_134661" data-name="Grupo 134661" transform="translate(270.52 120.269)" opacity="0.6">
        <path id="Trazado_193722" data-name="Trazado 193722" d="M374.573,190.014a1.012,1.012,0,0,0,.972.8l37.485.273a.779.779,0,0,0,.056-1.558l-37.477-.763a1.012,1.012,0,0,0-1.036,1.245Z" transform="translate(-374.546 -188.768)" fill="#fff"/>
      </g>
      <path id="Trazado_193723" data-name="Trazado 193723" d="M364.994,187.31h0a.618.618,0,0,1,.859.249l.8,1.437a.193.193,0,0,0,.353,0l2.048-4.376a.225.225,0,0,1,.426.1,8.7,8.7,0,0,1-2.634,6.023,4.742,4.742,0,0,1-2.1-2.594A.658.658,0,0,1,364.994,187.31Z" transform="translate(-102.083 -67.657)" fill="#4e2e8e"/>
      <path id="Trazado_193724" data-name="Trazado 193724" d="M368.611,202.509h0l-4.015-.1a1.092,1.092,0,0,1-1.1-.94l-.3-3.4a.707.707,0,0,1,.185-.554.875.875,0,0,1,.618-.3h0l1.333-.088c1.076-.072,2.409-.169,3.164-.161h0a1.124,1.124,0,0,1,1.1.8,16.864,16.864,0,0,1,.1,3.83,1,1,0,0,1-1.084.915Zm-4.642-4.987a.554.554,0,0,0-.4.185.45.45,0,0,0-.112.321l.305,3.4a.8.8,0,0,0,.8.659l4.015.1h0a.691.691,0,0,0,.739-.6,17.234,17.234,0,0,0-.08-3.75.8.8,0,0,0-.8-.57c-.739,0-2.064.088-3.132.161l-1.341.088Z" transform="translate(-101.79 -70.112)" fill="#fff"/>
      <path id="Trazado_193725" data-name="Trazado 193725" d="M364.582,198.051c.851,0,2.706-.2,3.582-.2a.8.8,0,0,1,.8.554,14.256,14.256,0,0,1,.064,3.027.674.674,0,0,1-.723.61l-3.212-.088a.747.747,0,0,1-.755-.634L364.1,198.6A.53.53,0,0,1,364.582,198.051Z" transform="translate(-101.968 -70.287)" fill="#fff" opacity="0.6"/>
      <g id="Grupo_134662" data-name="Grupo 134662" transform="translate(270.391 128.992)" opacity="0.6">
        <path id="Trazado_193726" data-name="Trazado 193726" d="M374.405,200.835a1,1,0,0,0,.972.8l37.485.281a.8.8,0,0,0,0-1.526l-37.485-.763a1,1,0,0,0-.972,1.2Z" transform="translate(-374.385 -199.63)" fill="#fff"/>
      </g>
      <path id="Trazado_193727" data-name="Trazado 193727" d="M364.824,198.082h0a.626.626,0,0,1,.859.249l.8,1.445a.2.2,0,0,0,.361,0L368.9,195.4a.225.225,0,0,1,.426.1,8.713,8.713,0,0,1-2.634,6.023,4.743,4.743,0,0,1-2.1-2.6A.651.651,0,0,1,364.824,198.082Z" transform="translate(-102.05 -69.781)" fill="#4e2e8e"/>
      <path id="Trazado_193728" data-name="Trazado 193728" d="M368.431,213.319h0l-4.015-.1a1.092,1.092,0,0,1-1.1-.94l-.3-3.4a.714.714,0,0,1,.177-.554.907.907,0,0,1,.626-.3h0l1.333-.088c1.076-.072,2.409-.161,3.156-.161h0a1.124,1.124,0,0,1,1.108.8,16.475,16.475,0,0,1,.088,3.83,1,1,0,0,1-1.076.915Zm-4.625-4.987a.554.554,0,0,0-.4.185.449.449,0,0,0-.112.321l.305,3.4a.8.8,0,0,0,.8.667l4.015.1h0a.691.691,0,0,0,.739-.6,17.141,17.141,0,0,0-.08-3.742.8.8,0,0,0-.8-.578c-.739,0-2.064.088-3.132.161l-1.341.088Z" transform="translate(-101.754 -72.242)" fill="#fff"/>
      <path id="Trazado_193729" data-name="Trazado 193729" d="M364.414,208.861c.851,0,2.706-.2,3.582-.2a.8.8,0,0,1,.8.562,13.653,13.653,0,0,1,.072,3.027.683.683,0,0,1-.723.6l-3.212-.08a.755.755,0,0,1-.755-.642l-.241-2.722A.53.53,0,0,1,364.414,208.861Z" transform="translate(-101.936 -72.417)" fill="#fff" opacity="0.6"/>
      <g id="Grupo_134663" data-name="Grupo 134663" transform="translate(270.235 137.592)" opacity="0.6">
        <path id="Trazado_193730" data-name="Trazado 193730" d="M374.23,211.625h0a1,1,0,0,0,.972.763l37.485.281a.8.8,0,0,0,0-1.526l-37.477-.8a1,1,0,0,0-.98,1.285Z" transform="translate(-374.19 -210.34)" fill="#fff"/>
      </g>
      <path id="Trazado_193731" data-name="Trazado 193731" d="M364.653,208.89h0a.618.618,0,0,1,.851.249l.8,1.445a.209.209,0,0,0,.361,0l2.048-4.385a.225.225,0,0,1,.426.1,8.737,8.737,0,0,1-2.634,6.023,4.743,4.743,0,0,1-2.1-2.6A.65.65,0,0,1,364.653,208.89Z" transform="translate(-102.015 -71.908)" fill="#4e2e8e"/>
      <path id="Trazado_193732" data-name="Trazado 193732" d="M394.2,98.233a5.758,5.758,0,0,0-5.075-1.108,2.5,2.5,0,0,0-1.823,2.6l.45,5.918,6.424.675S398.171,101.092,394.2,98.233Zm-2.915,4.722a1.606,1.606,0,1,1,1.606-1.606A1.606,1.606,0,0,1,391.281,102.955Z" transform="translate(-106.536 -50.411)" fill="#3b236b"/>
      <path id="Trazado_193733" data-name="Trazado 193733" d="M388.622,103.384a.153.153,0,0,1-.153-.145l-.072-.94a.153.153,0,0,1,.145-.169.145.145,0,0,1,.161.145l.072.94a.153.153,0,0,1-.145.169Zm-.145-1.847a.153.153,0,0,1-.153-.145l-.056-.715a2.409,2.409,0,0,1,1.743-2.481,4.858,4.858,0,0,1,2.353-.064.156.156,0,1,1-.064.305,4.561,4.561,0,0,0-2.208.056,2.088,2.088,0,0,0-1.51,2.16l.056.715a.153.153,0,0,1-.145.169Z" transform="translate(-106.727 -50.623)" fill="#c0cef8"/>
      <path id="Trazado_193734" data-name="Trazado 193734" d="M376.82,111.2l.048-2.971a1.815,1.815,0,0,1,1.911-1.783l20.477,1.028a1.759,1.759,0,0,1,1.678,1.678l.12,2.859Z" transform="translate(-104.473 -52.284)" fill="#3b236b"/>
      <path id="Trazado_193735" data-name="Trazado 193735" d="M386.158,107.923h-.875a.153.153,0,0,1-.153-.161.145.145,0,0,1,.153-.153h.883a.157.157,0,1,1-.008.313Z" transform="translate(-106.11 -52.513)" fill="#c0cef8"/>
      <path id="Trazado_193736" data-name="Trazado 193736" d="M378.182,110.489a.161.161,0,0,1-.152-.161v-1.2a1.686,1.686,0,0,1,1.71-1.654l3.212.048a.152.152,0,0,1,.153.161.144.144,0,0,1-.153.153l-3.212-.048a1.365,1.365,0,0,0-1.389,1.349v1.2a.161.161,0,0,1-.169.153Z" transform="translate(-104.712 -52.485)" fill="#c0cef8"/>
      <path id="Trazado_193737" data-name="Trazado 193737" d="M368.335,110.89l35.839.562a2.658,2.658,0,0,1,2.57,2.24v.177a2.273,2.273,0,0,1-2.289,2.626l-36.763-.586a1.478,1.478,0,0,1-1.453-1.606l.1-1.606a1.935,1.935,0,0,1,1.992-1.807Z" transform="translate(-102.388 -53.159)" fill="#3b236b"/>
      <path id="Trazado_193738" data-name="Trazado 193738" d="M149.583,230.832H90.159a3.453,3.453,0,0,1-3.429-3.469V169.328a3.453,3.453,0,0,1,3.421-3.469l59.93-.169a3.453,3.453,0,0,1,3.437,3.493l-.474,58.2a3.445,3.445,0,0,1-3.461,3.453Z" transform="translate(-47.333 -63.953)" fill="#4e2e8e"/>
      <path id="Trazado_193739" data-name="Trazado 193739" d="M147.461,172.05l-53.16.329a3.477,3.477,0,0,0-3.461,3.493l.369,48.278a3.485,3.485,0,0,0,3.421,3.469l51.651.94a3.485,3.485,0,0,0,3.549-3.429l1.132-49.547a3.477,3.477,0,0,0-3.5-3.533Z" transform="translate(-48.143 -65.206)" fill="#9582bb"/>
      <rect id="Rect치ngulo_44179" data-name="Rect치ngulo 44179" width="43.042" height="2.449" rx="1.225" transform="translate(54.116 110.281)" fill="url(#linear-gradient-22)"/>
      <path id="Trazado_193740" data-name="Trazado 193740" d="M143.7,183.092h0a1.044,1.044,0,0,1-1.02.988l-35.823.65a1.036,1.036,0,0,1-1.06-1.036v-.088a1.044,1.044,0,0,1,1.02-1.044L142.643,182a1.036,1.036,0,0,1,1.06,1.092Z" transform="translate(-51.09 -67.166)" fill="url(#linear-gradient-23)"/>
      <path id="Trazado_193741" data-name="Trazado 193741" d="M144.855,229.233h-.04l-48.447-.578a3.212,3.212,0,0,1-3.148-3.212l1.245-34.1a3.212,3.212,0,0,1,3.212-3.116l48.366.948a3.212,3.212,0,0,1,3.116,3.212h0L148,226.117A3.212,3.212,0,0,1,144.855,229.233Zm-47.2-39.581a1.743,1.743,0,0,0-1.221.5,1.719,1.719,0,0,0-.546,1.237L94.649,225.45a1.767,1.767,0,0,0,1.743,1.783l48.447.578h0a1.767,1.767,0,0,0,1.767-1.726l1.164-33.727a1.783,1.783,0,0,0-1.735-1.791l-48.35-.915ZM148.492,192.406Z" transform="translate(-48.612 -68.393)" fill="url(#linear-gradient-24)"/>
      <path id="Trazado_193742" data-name="Trazado 193742" d="M148.17,197.8H95.4a.715.715,0,0,1,0-1.421H148.17a.715.715,0,0,1,0,1.421Z" transform="translate(-48.916 -69.998)" fill="url(#linear-gradient-25)"/>
      <path id="Trazado_193743" data-name="Trazado 193743" d="M150.948,168.549A1.349,1.349,0,1,1,149.6,167.2,1.349,1.349,0,0,1,150.948,168.549Z" transform="translate(-59.451 -64.251)" fill="#c0cef8"/>
      <path id="Trazado_193744" data-name="Trazado 193744" d="M156.788,168.549a1.349,1.349,0,1,1-1.341-1.349,1.349,1.349,0,0,1,1.341,1.349Z" transform="translate(-60.601 -64.25)" fill="#c0cef8"/>
      <path id="Trazado_193745" data-name="Trazado 193745" d="M162.638,168.549a1.349,1.349,0,1,1-1.349-1.349,1.349,1.349,0,0,1,1.349,1.349Z" transform="translate(-61.754 -64.251)" fill="#c0cef8"/>
      <circle id="Elipse_17702" data-name="Elipse 17702" cx="22.051" cy="22.051" r="22.051" transform="translate(32.883 165.588) rotate(-45)" fill="url(#linear-gradient-26)"/>
      <path id="Trazado_193746" data-name="Trazado 193746" d="M92.059,243.5h0a.345.345,0,0,1-.329-.377,20.319,20.319,0,0,1,.3-2.6.355.355,0,0,1,.7.128,20.237,20.237,0,0,0-.289,2.514.353.353,0,0,1-.377.337Z" transform="translate(-48.318 -78.636)" fill="#fff" opacity="0.7"/>
      <path id="Trazado_193747" data-name="Trazado 193747" d="M94.722,231.319a.37.37,0,0,1-.161-.04.353.353,0,0,1-.161-.474,20.734,20.734,0,0,1,22.236-11.058.369.369,0,0,1,.289.418.353.353,0,0,1-.418.281,20.076,20.076,0,0,0-21.473,10.68.353.353,0,0,1-.313.193Z" transform="translate(-48.837 -74.534)" fill="#fff" opacity="0.7"/>
      <circle id="Elipse_17703" data-name="Elipse 17703" cx="18.662" cy="18.662" r="18.662" transform="translate(40.161 155.971) rotate(-22.5)" fill="#fff" opacity="0.7"/>
      <path id="Trazado_193748" data-name="Trazado 193748" d="M122.353,235.673c0,3.156-2.562,6.569-5.718,6.569s-5.726-3.413-5.726-6.569a5.724,5.724,0,0,1,11.443,0Z" transform="translate(-52.096 -76.672)" fill="url(#linear-gradient-27)"/>
      <path id="Trazado_193749" data-name="Trazado 193749" d="M108.225,257.814h13.965a3.381,3.381,0,0,0,3.212-2.345l.755-2.353a3.373,3.373,0,0,0-2.048-4.2c-5.677-2.08-11.556-1.815-17.578.193a3.365,3.365,0,0,0-2.16,4.079l.578,2.128A3.381,3.381,0,0,0,108.225,257.814Z" transform="translate(-50.784 -80.063)" fill="url(#linear-gradient-28)"/>
      <circle id="Elipse_17704" data-name="Elipse 17704" cx="22.051" cy="22.051" r="22.051" transform="translate(19.522 181.71)" fill="url(#linear-gradient-26)"/>
      <path id="Trazado_193750" data-name="Trazado 193750" d="M64.047,291.03h0a.345.345,0,0,1-.337-.369,20,20,0,0,1,.3-2.6.355.355,0,0,1,.7.128,20.077,20.077,0,0,0-.289,2.505.353.353,0,0,1-.369.337Z" transform="translate(-42.799 -87.999)" fill="#fff" opacity="0.7"/>
      <path id="Trazado_193751" data-name="Trazado 193751" d="M66.71,278.851a.345.345,0,0,1-.321-.514,20.742,20.742,0,0,1,22.236-11.05.353.353,0,0,1,.289.41.369.369,0,0,1-.418.289,20,20,0,0,0-21.473,10.672.345.345,0,0,1-.313.193Z" transform="translate(-43.318 -83.898)" fill="#fff" opacity="0.7"/>
      <circle id="Elipse_17705" data-name="Elipse 17705" cx="18.662" cy="18.662" r="18.662" transform="translate(23.392 185.581)" fill="#fff" opacity="0.7"/>
      <path id="Trazado_193752" data-name="Trazado 193752" d="M94.343,283.225c0,3.164-2.562,6.577-5.718,6.577s-5.726-3.413-5.726-6.577a5.724,5.724,0,0,1,11.443,0Z" transform="translate(-46.579 -86.04)" fill="url(#linear-gradient-30)"/>
      <path id="Trazado_193753" data-name="Trazado 193753" d="M80.219,305.353H94.184A3.389,3.389,0,0,0,97.4,303l.755-2.353a3.381,3.381,0,0,0-2.024-4.2c-5.685-2.08-11.564-1.807-17.586.193a3.373,3.373,0,0,0-2.16,4.079l.578,2.136a3.4,3.4,0,0,0,3.26,2.5Z" transform="translate(-45.271 -89.425)" fill="url(#linear-gradient-31)"/>
      <circle id="Elipse_17706" data-name="Elipse 17706" cx="22.051" cy="22.051" r="22.051" transform="translate(59.903 187.376) rotate(-13.28)" fill="url(#linear-gradient-32)"/>
      <path id="Trazado_193754" data-name="Trazado 193754" d="M119.917,291.029h0a.353.353,0,0,1-.337-.369,21.5,21.5,0,0,1,.3-2.6.369.369,0,0,1,.418-.289.353.353,0,0,1,.281.418,21.747,21.747,0,0,0-.289,2.505.345.345,0,0,1-.369.337Z" transform="translate(-53.804 -87.998)" fill="#fff" opacity="0.7"/>
      <path id="Trazado_193755" data-name="Trazado 193755" d="M122.583,278.85a.386.386,0,0,1-.161,0,.353.353,0,0,1-.153-.482,20.742,20.742,0,0,1,22.26-11.082.345.345,0,0,1,.281.41.353.353,0,0,1-.41.289,20,20,0,0,0-21.473,10.672A.369.369,0,0,1,122.583,278.85Z" transform="translate(-54.326 -83.898)" fill="#fff" opacity="0.7"/>
      <circle id="Elipse_17707" data-name="Elipse 17707" cx="18.662" cy="18.662" r="18.662" transform="translate(68.257 185.581)" fill="#fff" opacity="0.7"/>
      <path id="Trazado_193756" data-name="Trazado 193756" d="M150.193,283.225c0,3.164-2.562,6.577-5.726,6.577s-5.718-3.413-5.718-6.577a5.731,5.731,0,0,1,11.443,0Z" transform="translate(-57.58 -86.04)" fill="url(#linear-gradient-33)"/>
      <path id="Trazado_193757" data-name="Trazado 193757" d="M136.087,305.353h13.965A3.381,3.381,0,0,0,153.263,303l.755-2.353a3.381,3.381,0,0,0-2.04-4.2c-5.685-2.08-11.564-1.807-17.586.193a3.365,3.365,0,0,0-2.152,4.079l.578,2.136A3.381,3.381,0,0,0,136.087,305.353Z" transform="translate(-56.274 -89.425)" fill="url(#linear-gradient-34)"/>
      <path id="Trazado_193758" data-name="Trazado 193758" d="M146.778,191.389l-.434-.8a.209.209,0,0,1,.088-.281.225.225,0,0,1,.281.088h0l.426.8h0a.225.225,0,0,1-.088.281A.217.217,0,0,1,146.778,191.389Z" transform="translate(-59.071 -68.798)" fill="#8395f0"/>
      <path id="Trazado_193759" data-name="Trazado 193759" d="M145.206,187.865l-.289-.883a.2.2,0,0,1,.137-.265.209.209,0,0,1,.265.129h0l.281.859h0a.217.217,0,0,1-.137.265A.209.209,0,0,1,145.206,187.865Z" transform="translate(-58.792 -68.093)" fill="#8395f0"/>
      <path id="Trazado_193760" data-name="Trazado 193760" d="M144.328,184.12c0-.313-.072-.618-.088-.932a.209.209,0,1,1,.418,0h0a6.954,6.954,0,0,0,.088.9.21.21,0,1,1-.418.032Z" transform="translate(-58.661 -67.359)" fill="#8395f0"/>
      <path id="Trazado_193761" data-name="Trazado 193761" d="M144.31,180.253c.04-.313.088-.618.145-.923a.217.217,0,0,1,.426.08h0a8.589,8.589,0,0,0-.145.891.225.225,0,0,1-.241.193A.217.217,0,0,1,144.31,180.253Z" transform="translate(-58.675 -66.607)" fill="#8395f0"/>
      <path id="Trazado_193762" data-name="Trazado 193762" d="M145.268,176.513c.112-.289.241-.57.377-.851a.217.217,0,1,1,.385.185h0c-.128.273-.249.546-.361.8a.212.212,0,0,1-.4-.137Z" transform="translate(-58.862 -65.886)" fill="#8395f0"/>
      <path id="Trazado_193763" data-name="Trazado 193763" d="M147.109,173.155l.554-.747a.217.217,0,0,1,.305-.048.225.225,0,0,1,.048.305h0l-.546.731h0a.217.217,0,1,1-.345-.257Z" transform="translate(-59.218 -65.258)" fill="#8395f0"/>
      <path id="Trazado_193764" data-name="Trazado 193764" d="M149.615,170.255l.675-.634a.225.225,0,0,1,.305.321h0l-.667.618h0a.219.219,0,1,1-.313-.305Z" transform="translate(-59.708 -64.72)" fill="#8395f0"/>
      <path id="Trazado_193765" data-name="Trazado 193765" d="M152.559,167.8l.763-.53a.219.219,0,0,1,.249.361h0l-.755.522h0a.217.217,0,0,1-.305-.056A.225.225,0,0,1,152.559,167.8Z" transform="translate(-60.283 -64.257)" fill="#8395f0"/>
      <path id="Trazado_193766" data-name="Trazado 193766" d="M155.8,165.755l.8-.442a.225.225,0,0,1,.217.393h0l-.8.434h0a.233.233,0,0,1-.305-.088A.225.225,0,0,1,155.8,165.755Z" transform="translate(-60.917 -63.874)" fill="#8395f0"/>
      <path id="Trazado_193767" data-name="Trazado 193767" d="M159.247,164.067l.851-.361a.223.223,0,1,1,.177.41h0l-.8.353h0a.233.233,0,0,1-.3-.12A.225.225,0,0,1,159.247,164.067Z" transform="translate(-61.599 -63.559)" fill="#8395f0"/>
      <path id="Trazado_193768" data-name="Trazado 193768" d="M162.81,162.684l.875-.3a.229.229,0,1,1,.145.434h0l-.867.289h0a.225.225,0,1,1-.137-.426Z" transform="translate(-62.287 -63.3)" fill="#8395f0"/>
      <path id="Trazado_193769" data-name="Trazado 193769" d="M166.469,161.571l.9-.233a.228.228,0,1,1,.112.442h0l-.891.233h0a.229.229,0,0,1-.12-.442Z" transform="translate(-63.007 -63.094)" fill="#8395f0"/>
      <path id="Trazado_193770" data-name="Trazado 193770" d="M170.206,160.7l.907-.177a.225.225,0,0,1,.265.185.233.233,0,0,1-.177.273h0l-.9.169h0a.23.23,0,0,1-.1-.45Z" transform="translate(-63.74 -62.934)" fill="#8395f0"/>
      <path id="Trazado_193771" data-name="Trazado 193771" d="M173.954,160.05l.915-.12a.225.225,0,0,1,.257.193.233.233,0,0,1-.193.265h0l-.907.128h0a.236.236,0,0,1-.072-.466Z" transform="translate(-64.477 -62.818)" fill="#8395f0"/>
      <path id="Trazado_193772" data-name="Trazado 193772" d="M177.789,159.612l.915-.072a.249.249,0,0,1,.257.217.233.233,0,0,1-.217.249h0l-.915.08h0a.233.233,0,0,1-.249-.217.241.241,0,0,1,.209-.257Z" transform="translate(-65.228 -62.742)" fill="#8395f0"/>
      <path id="Trazado_193773" data-name="Trazado 193773" d="M181.607,159.39h.923a.241.241,0,0,1,.249.233.249.249,0,0,1-.233.241h-.923a.233.233,0,1,1,0-.466Z" transform="translate(-65.979 -62.712)" fill="#8395f0"/>
      <path id="Trazado_193774" data-name="Trazado 193774" d="M185.441,159.33h.923a.241.241,0,0,1,.233.241.249.249,0,0,1-.249.241h-.915a.233.233,0,0,1-.233-.241.249.249,0,0,1,.241-.241Z" transform="translate(-66.729 -62.7)" fill="#8395f0"/>
      <path id="Trazado_193775" data-name="Trazado 193775" d="M189.269,159.46l.915.064a.241.241,0,0,1-.024.482h0l-.915-.064h0a.241.241,0,0,1,.024-.482Z" transform="translate(-67.482 -62.726)" fill="#8395f0"/>
      <path id="Trazado_193776" data-name="Trazado 193776" d="M193.088,159.77l.915.1a.257.257,0,0,1,.217.265.241.241,0,0,1-.265.217h0l-.907-.1h0a.233.233,0,0,1-.209-.265A.241.241,0,0,1,193.088,159.77Z" transform="translate(-68.234 -62.787)" fill="#8395f0"/>
      <path id="Trazado_193777" data-name="Trazado 193777" d="M196.933,160.2l.915.12a.249.249,0,0,1,.209.273.241.241,0,0,1-.273.217h0l-.915-.12h0a.249.249,0,0,1-.209-.273.241.241,0,0,1,.273-.217Z" transform="translate(-68.986 -62.871)" fill="#8395f0"/>
      <path id="Trazado_193778" data-name="Trazado 193778" d="M200.671,160.729l.915.145a.249.249,0,0,1,.2.281.241.241,0,0,1-.281.2h0l-.907-.137h0a.257.257,0,0,1-.209-.281.249.249,0,0,1,.281-.209Z" transform="translate(-69.721 -62.975)" fill="#8395f0"/>
      <path id="Trazado_193779" data-name="Trazado 193779" d="M204.439,161.356l.907.161a.249.249,0,0,1,.193.289.241.241,0,0,1-.281.2h0l-.9-.169h0a.249.249,0,1,1,.088-.482Z" transform="translate(-70.454 -63.096)" fill="#8395f0"/>
      <path id="Trazado_193780" data-name="Trazado 193780" d="M208.2,162.068l.9.185a.241.241,0,0,1,.193.3.249.249,0,0,1-.289.193h0l-.9-.185h0a.249.249,0,1,1,.1-.482Z" transform="translate(-71.195 -63.238)" fill="#8395f0"/>
      <path id="Trazado_193781" data-name="Trazado 193781" d="M211.925,162.868l.9.2a.249.249,0,0,1,.185.305.241.241,0,0,1-.3.185h0l-.9-.2h0a.251.251,0,1,1,.112-.49Z" transform="translate(-71.933 -63.396)" fill="#8395f0"/>
      <path id="Trazado_193782" data-name="Trazado 193782" d="M215.663,163.748l.9.225a.253.253,0,0,1-.128.49h0l-.891-.225h0a.252.252,0,1,1,.12-.49Z" transform="translate(-72.668 -63.569)" fill="#8395f0"/>
      <path id="Trazado_193783" data-name="Trazado 193783" d="M219.371,164.707l.883.241a.265.265,0,0,1,.185.313.249.249,0,0,1-.313.177h0l-.891-.241a.254.254,0,1,1,.136-.49Z" transform="translate(-73.396 -63.757)" fill="#8395f0"/>
      <path id="Trazado_193784" data-name="Trazado 193784" d="M223.051,165.737l.883.257a.255.255,0,1,1-.145.49h0l-.883-.257a.257.257,0,0,1-.169-.313.249.249,0,0,1,.313-.177Z" transform="translate(-74.121 -63.96)" fill="#8395f0"/>
      <path id="Trazado_193785" data-name="Trazado 193785" d="M226.718,166.837l.875.273a.257.257,0,0,1,.169.321.249.249,0,0,1-.321.169h0l-.875-.273a.249.249,0,0,1-.169-.321A.257.257,0,0,1,226.718,166.837Z" transform="translate(-74.841 -64.177)" fill="#8395f0"/>
      <path id="Trazado_193786" data-name="Trazado 193786" d="M230.358,168l.875.3a.249.249,0,0,1,.161.321.257.257,0,0,1-.321.169h0l-.867-.289a.257.257,0,0,1-.169-.321A.265.265,0,0,1,230.358,168Z" transform="translate(-75.559 -64.406)" fill="#8395f0"/>
      <path id="Trazado_193787" data-name="Trazado 193787" d="M233.976,169.227l.875.305a.26.26,0,0,1-.177.49h0l-.867-.305a.259.259,0,1,1,.169-.49Z" transform="translate(-76.269 -64.647)" fill="#8395f0"/>
      <path id="Trazado_193788" data-name="Trazado 193788" d="M237.584,170.506l.867.313a.262.262,0,1,1-.185.49h0l-.859-.313a.26.26,0,1,1,.177-.49Z" transform="translate(-76.978 -64.899)" fill="#8395f0"/>
      <path id="Trazado_193789" data-name="Trazado 193789" d="M241.163,171.836l.867.321a.267.267,0,1,1-.193.5h0l-.859-.321a.265.265,0,0,1-.153-.337.257.257,0,0,1,.337-.161Z" transform="translate(-77.683 -65.16)" fill="#8395f0"/>
      <path id="Trazado_193790" data-name="Trazado 193790" d="M244.731,173.205l.859.337a.265.265,0,0,1,.145.345.249.249,0,0,1-.337.145h0l-.859-.337a.263.263,0,1,1,.193-.49Z" transform="translate(-78.384 -65.43)" fill="#8395f0"/>
      <path id="Trazado_193791" data-name="Trazado 193791" d="M248.279,174.624l.851.345a.265.265,0,1,1-.193.49h0l-.851-.345a.265.265,0,1,1,.2-.49Z" transform="translate(-79.082 -65.708)" fill="#8395f0"/>
      <path id="Trazado_193792" data-name="Trazado 193792" d="M251.808,176.07l.851.361a.257.257,0,0,1,.137.345.265.265,0,0,1-.345.145h0l-.851-.353a.273.273,0,1,1,.209-.5Z" transform="translate(-79.768 -65.99)" fill="#8395f0"/>
      <path id="Trazado_193793" data-name="Trazado 193793" d="M255.338,177.565l.843.361a.27.27,0,1,1-.209.5h0l-.843-.361a.27.27,0,1,1,.209-.5Z" transform="translate(-80.471 -66.288)" fill="#8395f0"/>
      <path id="Trazado_193794" data-name="Trazado 193794" d="M258.848,179.086l.843.369a.265.265,0,0,1,.137.353.273.273,0,0,1-.353.145h0l-.843-.369a.268.268,0,0,1,.217-.49Z" transform="translate(-81.162 -66.589)" fill="#8395f0"/>
      <path id="Trazado_193795" data-name="Trazado 193795" d="M262.347,180.624l.8.377a.272.272,0,0,1-.217.5h0l-.8-.377a.273.273,0,0,1-.137-.361.265.265,0,0,1,.353-.137Z" transform="translate(-81.851 -66.89)" fill="#8395f0"/>
      <path id="Trazado_193796" data-name="Trazado 193796" d="M265.825,182.185l.843.385a.273.273,0,1,1-.225.5h0l-.843-.385a.273.273,0,0,1-.137-.361A.281.281,0,0,1,265.825,182.185Z" transform="translate(-82.534 -67.198)" fill="#8395f0"/>
      <path id="Trazado_193797" data-name="Trazado 193797" d="M269.305,183.764l.8.385a.273.273,0,0,1-.225.5h0l-.8-.377a.281.281,0,0,1-.137-.369.273.273,0,0,1,.361-.137Z" transform="translate(-83.22 -67.508)" fill="#8395f0"/>
      <path id="Trazado_193798" data-name="Trazado 193798" d="M272.783,185.363l.8.385a.273.273,0,0,1,.129.361.265.265,0,0,1-.361.137h0l-.8-.385a.275.275,0,1,1,.233-.5Z" transform="translate(-83.903 -67.822)" fill="#8395f0"/>
      <path id="Trazado_193799" data-name="Trazado 193799" d="M276.243,186.993l.8.385a.273.273,0,0,1,.137.369.281.281,0,0,1-.369.137h0l-.8-.385a.281.281,0,0,1-.137-.369.273.273,0,0,1,.369-.136Z" transform="translate(-84.585 -68.144)" fill="#8395f0"/>
      <path id="Trazado_193800" data-name="Trazado 193800" d="M279.7,188.559l.8.385a.281.281,0,0,1-.233.506h0l-.8-.385a.281.281,0,1,1,.233-.506Z" transform="translate(-85.259 -68.449)" fill="#8395f0"/>
      <path id="Trazado_193801" data-name="Trazado 193801" d="M283.183,190.163l.8.385a.282.282,0,0,1-.233.514h0l-.8-.385a.284.284,0,1,1,.241-.514Z" transform="translate(-85.951 -68.768)" fill="#8395f0"/>
      <path id="Trazado_193802" data-name="Trazado 193802" d="M286.643,191.751l.8.385a.273.273,0,0,1,.137.377.281.281,0,0,1-.369.137h0l-.843-.385a.281.281,0,0,1-.137-.369.289.289,0,0,1,.41-.145Z" transform="translate(-86.625 -69.079)" fill="#8395f0"/>
      <path id="Trazado_193803" data-name="Trazado 193803" d="M290.122,193.344l.8.377a.289.289,0,0,1,.137.377.273.273,0,0,1-.369.136h0l-.8-.377a.282.282,0,1,1,.233-.514Z" transform="translate(-87.318 -69.395)" fill="#8395f0"/>
      <path id="Trazado_193804" data-name="Trazado 193804" d="M293.6,194.9l.843.377a.289.289,0,0,1-.233.522h0l-.8-.377a.289.289,0,1,1,.233-.522Z" transform="translate(-88.001 -69.697)" fill="#8395f0"/>
      <path id="Trazado_193805" data-name="Trazado 193805" d="M297.1,196.457l.843.369a.289.289,0,0,1-.225.53h0l-.8-.369a.281.281,0,0,1,.185-.53Z" transform="translate(-88.699 -70.011)" fill="#8395f0"/>
      <path id="Trazado_193806" data-name="Trazado 193806" d="M300.6,198l.843.361a.289.289,0,0,1-.225.53h0l-.8-.361a.3.3,0,0,1-.153-.385A.289.289,0,0,1,300.6,198Z" transform="translate(-89.389 -70.314)" fill="#8395f0"/>
      <path id="Trazado_193807" data-name="Trazado 193807" d="M304.1,199.474l.851.353a.305.305,0,0,1,.161.385.3.3,0,0,1-.385.153h0l-.851-.353a.3.3,0,0,1-.153-.385.289.289,0,0,1,.377-.153Z" transform="translate(-90.071 -70.603)" fill="#8395f0"/>
      <path id="Trazado_193808" data-name="Trazado 193808" d="M307.633,201l.851.345a.3.3,0,0,1,.161.377.289.289,0,0,1-.377.161h0l-.851-.345a.305.305,0,0,1-.161-.385.3.3,0,0,1,.377-.153Z" transform="translate(-90.767 -70.903)" fill="#8395f0"/>
      <path id="Trazado_193809" data-name="Trazado 193809" d="M311.17,202.366l.851.337a.305.305,0,0,1,.169.385.3.3,0,0,1-.385.169h0l-.851-.337a.289.289,0,0,1-.169-.377.305.305,0,0,1,.385-.177Z" transform="translate(-91.462 -71.174)" fill="#8395f0"/>
      <path id="Trazado_193810" data-name="Trazado 193810" d="M314.722,203.755l.859.329a.292.292,0,1,1-.209.546h0l-.859-.329a.281.281,0,0,1-.169-.377.289.289,0,0,1,.377-.169Z" transform="translate(-92.163 -71.447)" fill="#8395f0"/>
      <path id="Trazado_193811" data-name="Trazado 193811" d="M318.284,205.092l.867.313a.3.3,0,1,1-.2.562h0l-.867-.321a.3.3,0,1,1,.2-.554Z" transform="translate(-92.858 -71.708)" fill="#8395f0"/>
      <path id="Trazado_193812" data-name="Trazado 193812" d="M321.9,206.386l.867.305a.3.3,0,1,1-.193.562h0l-.867-.305a.3.3,0,0,1,.193-.562Z" transform="translate(-93.579 -71.966)" fill="#8395f0"/>
      <path id="Trazado_193813" data-name="Trazado 193813" d="M325.495,207.617l.875.289a.313.313,0,0,1,.193.385.3.3,0,0,1-.377.185h0l-.875-.289a.289.289,0,0,1-.185-.377A.3.3,0,0,1,325.495,207.617Z" transform="translate(-94.287 -72.209)" fill="#8395f0"/>
      <path id="Trazado_193814" data-name="Trazado 193814" d="M329.124,208.8l.875.273h0a.305.305,0,0,1-.177.578h0l-.883-.273a.3.3,0,0,1-.193-.377A.305.305,0,0,1,329.124,208.8Z" transform="translate(-95.001 -72.441)" fill="#8395f0"/>
      <path id="Trazado_193815" data-name="Trazado 193815" d="M332.765,209.905l.883.257h0a.3.3,0,0,1,.209.369.305.305,0,0,1-.377.209h0l-.883-.257a.313.313,0,0,1-.209-.377.305.305,0,0,1,.377-.209Z" transform="translate(-95.719 -72.658)" fill="#8395f0"/>
      <path id="Trazado_193816" data-name="Trazado 193816" d="M336.433,211l.883.241h0a.3.3,0,1,1-.161.586h0l-.891-.241a.313.313,0,0,1-.217-.377.305.305,0,0,1,.377-.209Z" transform="translate(-96.44 -72.875)" fill="#8395f0"/>
      <path id="Trazado_193817" data-name="Trazado 193817" d="M340.125,211.928l.891.225h0a.307.307,0,0,1-.153.594h0l-.891-.225a.306.306,0,1,1,.145-.594Z" transform="translate(-97.169 -73.059)" fill="#8395f0"/>
      <path id="Trazado_193818" data-name="Trazado 193818" d="M343.827,212.828l.9.2h0a.313.313,0,0,1,.233.369.305.305,0,0,1-.369.233h0l-.9-.209a.3.3,0,0,1-.233-.361.305.305,0,0,1,.369-.233Z" transform="translate(-97.9 -73.236)" fill="#8395f0"/>
      <path id="Trazado_193819" data-name="Trazado 193819" d="M347.547,213.639l.9.185h0a.312.312,0,0,1-.128.61h0l-.9-.185a.305.305,0,0,1-.241-.369.313.313,0,0,1,.361-.241Z" transform="translate(-98.633 -73.397)" fill="#8395f0"/>
      <path id="Trazado_193820" data-name="Trazado 193820" d="M351.3,214.38l.907.161h0a.313.313,0,0,1,.249.361.305.305,0,0,1-.361.249h0l-.907-.161a.313.313,0,0,1,.112-.61Z" transform="translate(-99.382 -73.544)" fill="#8395f0"/>
      <path id="Trazado_193821" data-name="Trazado 193821" d="M355.051,215l.907.136h0a.321.321,0,0,1,.265.361.305.305,0,0,1-.361.257h0l-.907-.136a.313.313,0,1,1,.1-.618Z" transform="translate(-100.113 -73.665)" fill="#8395f0"/>
      <path id="Trazado_193822" data-name="Trazado 193822" d="M358.821,215.559l.907.112h0a.321.321,0,0,1,.273.353.329.329,0,0,1-.353.273h0l-.915-.12a.305.305,0,0,1-.273-.345.313.313,0,0,1,.353-.273Z" transform="translate(-100.856 -73.775)" fill="#8395f0"/>
      <path id="Trazado_193823" data-name="Trazado 193823" d="M362.6,216l.915.088h0a.314.314,0,1,1-.056.626h0l-.923-.088A.315.315,0,1,1,362.6,216Z" transform="translate(-101.605 -73.862)" fill="#8395f0"/>
      <path id="Trazado_193824" data-name="Trazado 193824" d="M366.405,216.32l.915.056h0a.329.329,0,0,1,.3.337.313.313,0,0,1-.337.3h0l-.923-.064a.313.313,0,0,1-.3-.337.321.321,0,0,1,.337-.289Z" transform="translate(-102.354 -73.926)" fill="#8395f0"/>
      <path id="Trazado_193825" data-name="Trazado 193825" d="M370.213,216.53l.915.04h0a.321.321,0,1,1,0,.634h-.915a.337.337,0,0,1-.313-.337.329.329,0,0,1,.337-.305Z" transform="translate(-103.11 -73.967)" fill="#8395f0"/>
      <path id="Trazado_193826" data-name="Trazado 193826" d="M374.019,216.64h.915a.337.337,0,0,1,.321.329.321.321,0,0,1-.329.313h-.915a.313.313,0,0,1-.321-.321.321.321,0,0,1,.321-.321Z" transform="translate(-103.857 -73.989)" fill="#8395f0"/>
      <path id="Trazado_193827" data-name="Trazado 193827" d="M377.825,216.64h.923a.321.321,0,0,1,.016.642h-.924a.321.321,0,0,1,0-.642Z" transform="translate(-104.611 -73.989)" fill="#8395f0"/>
      <path id="Trazado_193828" data-name="Trazado 193828" d="M381.637,216.518l.915-.048h0a.321.321,0,0,1,.337.305.329.329,0,0,1-.305.345h0l-.923.04a.321.321,0,0,1,0-.642Z" transform="translate(-105.364 -73.955)" fill="#8395f0"/>
      <path id="Trazado_193829" data-name="Trazado 193829" d="M385.446,216.282l.916-.072h0a.322.322,0,1,1,.056.642h0l-.923.08a.329.329,0,0,1-.048-.65Z" transform="translate(-106.121 -73.904)" fill="#8395f0"/>
      <path id="Trazado_193830" data-name="Trazado 193830" d="M389.229,215.974l.915-.1h0a.329.329,0,0,1,.361.289.313.313,0,0,1-.289.361h0l-.915.1a.329.329,0,0,1-.361-.289.337.337,0,0,1,.289-.361Z" transform="translate(-106.86 -73.837)" fill="#8395f0"/>
      <path id="Trazado_193831" data-name="Trazado 193831" d="M393.008,215.448l.907-.128h0a.329.329,0,0,1,.369.273.337.337,0,0,1-.281.377h0l-.915.128a.329.329,0,0,1-.369-.273.337.337,0,0,1,.281-.377Z" transform="translate(-107.604 -73.728)" fill="#8395f0"/>
      <path id="Trazado_193832" data-name="Trazado 193832" d="M396.771,214.85l.9-.161h0a.337.337,0,0,1,.385.273.329.329,0,0,1-.273.377h0l-.907.169a.33.33,0,0,1-.112-.65Z" transform="translate(-108.348 -73.604)" fill="#8395f0"/>
      <path id="Trazado_193833" data-name="Trazado 193833" d="M400.513,214.111l.891-.193h0a.329.329,0,0,1,.394.249.337.337,0,0,1-.257.4h0l-.9.193a.329.329,0,0,1-.393-.249.337.337,0,0,1,.249-.4Z" transform="translate(-109.086 -73.451)" fill="#8395f0"/>
      <path id="Trazado_193834" data-name="Trazado 193834" d="M404.226,213.242l.891-.225h0a.337.337,0,0,1,.41.233.345.345,0,0,1-.241.41h0l-.9.233a.337.337,0,0,1-.161-.65Z" transform="translate(-109.828 -73.273)" fill="#8395f0"/>
      <path id="Trazado_193835" data-name="Trazado 193835" d="M407.93,212.238l.8-.241h0a.337.337,0,0,1,.418.225.345.345,0,0,1-.225.418h0l-.883.265a.337.337,0,0,1-.193-.642Z" transform="translate(-110.544 -73.071)" fill="#8395f0"/>
      <path id="Trazado_193836" data-name="Trazado 193836" d="M411.512,211.067l.867-.305h0a.337.337,0,1,1,.217.634h0l-.875.305a.345.345,0,0,1-.426-.209.337.337,0,0,1,.209-.426Z" transform="translate(-111.261 -72.825)" fill="#8395f0"/>
      <path id="Trazado_193837" data-name="Trazado 193837" d="M415.085,209.752l.851-.337h0a.337.337,0,0,1,.434.193.321.321,0,0,1-.185.434h0l-.859.345a.337.337,0,0,1-.442-.185.345.345,0,0,1,.193-.442Z" transform="translate(-111.967 -72.561)" fill="#8395f0"/>
      <path id="Trazado_193838" data-name="Trazado 193838" d="M418.592,208.27l.8-.377h0a.345.345,0,0,1,.45.169.337.337,0,0,1-.169.45h0l-.843.385a.337.337,0,0,1-.45-.169.345.345,0,0,1,.169-.45Z" transform="translate(-112.654 -72.26)" fill="#8395f0"/>
      <path id="Trazado_193839" data-name="Trazado 193839" d="M422.025,206.616l.8-.426h0a.339.339,0,1,1,.313.6h0l-.8.434a.345.345,0,0,1-.458-.153.337.337,0,0,1,.145-.458Z" transform="translate(-113.341 -71.923)" fill="#8395f0"/>
      <path id="Trazado_193840" data-name="Trazado 193840" d="M425.367,204.794l.8-.466h0a.337.337,0,0,1,.466.12.353.353,0,0,1-.12.474h0l-.8.466a.345.345,0,0,1-.474-.12.337.337,0,0,1,.12-.466Z" transform="translate(-114.001 -71.554)" fill="#8395f0"/>
      <path id="Trazado_193841" data-name="Trazado 193841" d="M428.585,202.78l.755-.514h0a.337.337,0,0,1,.474.1.345.345,0,0,1-.088.474h0l-.8.514a.345.345,0,1,1-.385-.57Z" transform="translate(-114.625 -71.146)" fill="#8395f0"/>
      <path id="Trazado_193842" data-name="Trazado 193842" d="M431.7,200.579l.723-.562h0a.345.345,0,1,1,.418.546h0l-.731.562a.346.346,0,0,1-.426-.546Z" transform="translate(-115.254 -70.696)" fill="#8395f0"/>
      <path id="Trazado_193843" data-name="Trazado 193843" d="M434.667,198.193l.683-.594h0a.347.347,0,0,1,.458.522h0l-.7.61a.347.347,0,1,1-.458-.522Z" transform="translate(-115.841 -70.221)" fill="#8395f0"/>
      <path id="Trazado_193844" data-name="Trazado 193844" d="M437.465,195.622l.65-.642h0a.353.353,0,0,1,.5.5h0l-.658.65a.346.346,0,0,1-.49-.49Z" transform="translate(-116.399 -69.706)" fill="#8395f0"/>
      <path id="Trazado_193845" data-name="Trazado 193845" d="M440.083,192.867l.6-.683h0a.353.353,0,0,1,.5,0,.346.346,0,0,1,0,.49h0l-.61.7a.353.353,0,0,1-.5,0,.345.345,0,0,1,0-.49Z" transform="translate(-116.913 -69.152)" fill="#8395f0"/>
      <path id="Trazado_193846" data-name="Trazado 193846" d="M442.5,189.936l.554-.731h0a.345.345,0,0,1,.49-.072.369.369,0,0,1,.072.5h0l-.562.739a.353.353,0,1,1-.554-.426Z" transform="translate(-117.39 -68.557)" fill="#8395f0"/>
      <path id="Trazado_193847" data-name="Trazado 193847" d="M444.742,186.842l.5-.8h0a.353.353,0,1,1,.586.393h0l-.506.8a.361.361,0,0,1-.49.1.353.353,0,0,1-.1-.49Z" transform="translate(-117.838 -67.928)" fill="#8395f0"/>
      <path id="Trazado_193848" data-name="Trazado 193848" d="M446.756,183.629l.45-.8h0a.356.356,0,1,1,.618.353h0l-.466.8a.345.345,0,0,1-.482.137.353.353,0,0,1-.129-.482Z" transform="translate(-118.238 -67.293)" fill="#8395f0"/>
      <path id="Trazado_193849" data-name="Trazado 193849" d="M448.561,180.284l.4-.8h0a.361.361,0,0,1,.482-.161.345.345,0,0,1,.161.474h0l-.41.8a.354.354,0,1,1-.634-.313Z" transform="translate(-118.597 -66.631)" fill="#8395f0"/>
      <path id="Trazado_193850" data-name="Trazado 193850" d="M450.144,176.829l.353-.843h0a.356.356,0,0,1,.659.273h0l-.353.851a.361.361,0,0,1-.466.2.377.377,0,0,1-.193-.474Z" transform="translate(-118.911 -65.938)" fill="#8395f0"/>
      <path id="Trazado_193851" data-name="Trazado 193851" d="M451.515,173.272l.3-.867h0a.361.361,0,1,1,.683.233h0l-.305.875a.357.357,0,1,1-.675-.233Z" transform="translate(-119.182 -65.223)" fill="#8395f0"/>
      <path id="Trazado_193852" data-name="Trazado 193852" d="M452.666,169.659l.249-.883h0a.353.353,0,0,1,.442-.249.37.37,0,0,1,.257.442h0l-.249.9a.377.377,0,0,1-.45.249.361.361,0,0,1-.249-.45Z" transform="translate(-119.41 -64.509)" fill="#8395f0"/>
      <path id="Trazado_193853" data-name="Trazado 193853" d="M453.608,165.971l.2-.891h0a.361.361,0,1,1,.707.153h0l-.193.907a.377.377,0,0,1-.434.281.369.369,0,0,1-.281-.434Z" transform="translate(-119.597 -63.777)" fill="#8395f0"/>
      <path id="Trazado_193854" data-name="Trazado 193854" d="M454.349,162.228l.145-.907h0a.369.369,0,1,1,.723.112h0l-.153.915a.362.362,0,0,1-.715-.112Z" transform="translate(-119.743 -63.021)" fill="#8395f0"/>
      <path id="Trazado_193855" data-name="Trazado 193855" d="M454.879,158.478l.1-.907h0a.364.364,0,1,1,.723.08h0l-.1.915a.369.369,0,0,1-.4.329.361.361,0,0,1-.321-.4Z" transform="translate(-119.848 -62.29)" fill="#8395f0"/>
      <path id="Trazado_193856" data-name="Trazado 193856" d="M455.208,154.7l.048-.915h0a.369.369,0,0,1,.731.04h0l-.048.931a.369.369,0,1,1-.731-.04Z" transform="translate(-119.912 -61.55)" fill="#8395f0"/>
      <path id="Trazado_193857" data-name="Trazado 193857" d="M455.338,150.887v-.907h0a.369.369,0,0,1,.369-.369.361.361,0,0,1,.361.369h0v.932a.369.369,0,0,1-.369.361.377.377,0,0,1-.369-.369Z" transform="translate(-119.938 -60.786)" fill="#8395f0"/>
      <path id="Trazado_193858" data-name="Trazado 193858" d="M455.28,147.091l-.04-.915h0a.369.369,0,0,1,.353-.385.377.377,0,0,1,.385.353h0v.923a.369.369,0,1,1-.739,0Z" transform="translate(-119.92 -60.033)" fill="#8395f0"/>
      <path id="Trazado_193859" data-name="Trazado 193859" d="M455.038,143.3l-.088-.915h0a.371.371,0,0,1,.739-.072h0l.088.924a.377.377,0,0,1-.337.4.361.361,0,0,1-.4-.337Z" transform="translate(-119.862 -59.281)" fill="#8395f0"/>
      <path id="Trazado_193860" data-name="Trazado 193860" d="M454.608,139.512l-.129-.907h0a.377.377,0,0,1,.321-.426.369.369,0,0,1,.418.321h0l.128.915a.377.377,0,0,1-.313.426.385.385,0,0,1-.426-.321Z" transform="translate(-119.769 -58.533)" fill="#8395f0"/>
      <path id="Trazado_193861" data-name="Trazado 193861" d="M454.007,135.759l-.169-.9h0a.376.376,0,1,1,.739-.145h0l.169.915a.369.369,0,0,1-.3.434.377.377,0,0,1-.442-.3Z" transform="translate(-119.642 -57.792)" fill="#8395f0"/>
      <path id="Trazado_193862" data-name="Trazado 193862" d="M453.236,132.037l-.209-.891h0a.377.377,0,0,1,.281-.458.386.386,0,0,1,.458.281h0l.209.9a.385.385,0,0,1-.281.458.377.377,0,0,1-.45-.281Z" transform="translate(-119.482 -57.057)" fill="#8395f0"/>
      <path id="Trazado_193863" data-name="Trazado 193863" d="M452.294,128.354l-.257-.883h0A.394.394,0,0,1,452.3,127a.377.377,0,0,1,.466.265h0l.249.891a.375.375,0,1,1-.723.2Z" transform="translate(-119.286 -56.329)" fill="#8395f0"/>
      <path id="Trazado_193864" data-name="Trazado 193864" d="M451.185,124.721l-.289-.843h0a.38.38,0,1,1,.723-.233h0l.289.875a.381.381,0,1,1-.723.241Z" transform="translate(-119.061 -55.62)" fill="#8395f0"/>
      <path id="Trazado_193865" data-name="Trazado 193865" d="M449.913,121.131l-.329-.859h0a.385.385,0,0,1,.217-.5.377.377,0,0,1,.49.225h0l.329.859a.379.379,0,1,1-.707.273Z" transform="translate(-118.8 -54.904)" fill="#8395f0"/>
      <path id="Trazado_193866" data-name="Trazado 193866" d="M448.5,117.606l-.369-.8h0a.385.385,0,1,1,.707-.305h0l.361.851a.369.369,0,0,1-.193.5.377.377,0,0,1-.506-.2Z" transform="translate(-118.511 -54.214)" fill="#8395f0"/>
      <path id="Trazado_193867" data-name="Trazado 193867" d="M446.895,114.144l-.4-.8h0a.385.385,0,0,1,.691-.337h0l.4.8a.385.385,0,1,1-.691.337Z" transform="translate(-118.192 -53.538)" fill="#8395f0"/>
      <path id="Trazado_193868" data-name="Trazado 193868" d="M445.222,110.734l-.434-.8h0a.385.385,0,0,1,.153-.522.4.4,0,0,1,.53.161h0l.434.8a.386.386,0,1,1-.683.361Z" transform="translate(-117.852 -52.859)" fill="#8395f0"/>
      <path id="Trazado_193869" data-name="Trazado 193869" d="M443.372,107.41l-.466-.8h0a.385.385,0,0,1,.136-.53.394.394,0,0,1,.53.137h0l.466.8a.385.385,0,0,1-.137.53A.393.393,0,0,1,443.372,107.41Z" transform="translate(-117.48 -52.201)" fill="#8395f0"/>
      <path id="Trazado_193870" data-name="Trazado 193870" d="M441.387,104.161l-.5-.8h0a.393.393,0,0,1,.658-.426h0l.5.8a.389.389,0,1,1-.65.426Z" transform="translate(-117.084 -51.562)" fill="#8395f0"/>
      <path id="Trazado_193871" data-name="Trazado 193871" d="M439.277,101.012l-.53-.747h0a.393.393,0,0,1,.642-.45h0l.53.755a.392.392,0,1,1-.642.45Z" transform="translate(-116.661 -50.95)" fill="#8395f0"/>
      <path id="Trazado_193872" data-name="Trazado 193872" d="M437.034,97.925l-.554-.731h0a.393.393,0,0,1,.072-.554.4.4,0,0,1,.554.072h0l.554.739a.393.393,0,1,1-.618.474Z" transform="translate(-116.208 -50.337)" fill="#8395f0"/>
      <path id="Trazado_193873" data-name="Trazado 193873" d="M434.684,94.939l-.586-.707h0a.394.394,0,0,1,.61-.5h0l.586.715a.394.394,0,0,1-.61.5Z" transform="translate(-115.738 -49.751)" fill="#8395f0"/>
      <path id="Trazado_193874" data-name="Trazado 193874" d="M432.211,92.037l-.61-.683h0a.393.393,0,1,1,.586-.522h0l.618.691a.4.4,0,1,1-.594.522Z" transform="translate(-115.24 -49.178)" fill="#8395f0"/>
      <path id="Trazado_193875" data-name="Trazado 193875" d="M429.645,89.25l-.634-.667h0a.4.4,0,0,1,.57-.554h0l.642.667a.4.4,0,0,1,0,.562.393.393,0,0,1-.562,0Z" transform="translate(-114.738 -48.639)" fill="#8395f0"/>
      <path id="Trazado_193876" data-name="Trazado 193876" d="M426.948,86.526l-.659-.634h0a.4.4,0,1,1,.554-.57h0l.666.642a.4.4,0,0,1,0,.562.393.393,0,0,1-.562,0Z" transform="translate(-114.185 -48.092)" fill="#8395f0"/>
      <path id="Trazado_193877" data-name="Trazado 193877" d="M424.194,83.933l-.683-.61h0a.4.4,0,0,1,.57-.562h0l.683.618a.385.385,0,0,1,0,.562.393.393,0,0,1-.562,0Z" transform="translate(-113.648 -47.595)" fill="#8395f0"/>
      <path id="Trazado_193878" data-name="Trazado 193878" d="M421.313,81.431l-.7-.586h0a.4.4,0,0,1,.522-.618h0l.707.594a.4.4,0,1,1-.514.61Z" transform="translate(-113.071 -47.1)" fill="#8395f0"/>
      <path id="Trazado_193879" data-name="Trazado 193879" d="M418.365,79.035l-.723-.562h0a.4.4,0,1,1,.5-.634h0l.731.57a.4.4,0,0,1,.072.562.41.41,0,0,1-.57.072Z" transform="translate(-112.484 -46.632)" fill="#8395f0"/>
      <path id="Trazado_193880" data-name="Trazado 193880" d="M415.329,76.739l-.739-.538h0a.409.409,0,0,1-.088-.562.4.4,0,0,1,.57-.088h0l.747.538a.41.41,0,0,1-.482.658Z" transform="translate(-111.881 -46.182)" fill="#8395f0"/>
      <path id="Trazado_193881" data-name="Trazado 193881" d="M412.22,74.542l-.763-.514h0a.4.4,0,0,1-.1-.562.41.41,0,0,1,.562-.112h0l.747.506a.408.408,0,0,1-.458.675Z" transform="translate(-111.261 -45.752)" fill="#8395f0"/>
      <path id="Trazado_193882" data-name="Trazado 193882" d="M409.044,72.448l-.8-.5h0a.41.41,0,0,1,.434-.691h0l.8.5a.41.41,0,0,1,.12.562.4.4,0,0,1-.562.128Z" transform="translate(-110.631 -45.344)" fill="#8395f0"/>
      <path id="Trazado_193883" data-name="Trazado 193883" d="M405.753,70.438l-.8-.466h0a.4.4,0,0,1-.145-.562.41.41,0,0,1,.562-.145h0l.8.474a.41.41,0,1,1-.418.707Z" transform="translate(-109.974 -44.949)" fill="#8395f0"/>
      <path id="Trazado_193884" data-name="Trazado 193884" d="M402.5,68.542l-.8-.442h0a.413.413,0,0,1,.4-.723h0l.8.45a.413.413,0,1,1-.4.723Z" transform="translate(-109.332 -44.578)" fill="#8395f0"/>
      <path id="Trazado_193885" data-name="Trazado 193885" d="M399.147,66.705l-.8-.418h0a.41.41,0,0,1-.185-.554.418.418,0,0,1,.562-.185h0l.8.426a.411.411,0,1,1-.377.731Z" transform="translate(-108.668 -44.219)" fill="#8395f0"/>
      <path id="Trazado_193886" data-name="Trazado 193886" d="M395.75,65.051l-.8-.393h0a.418.418,0,0,1,.353-.755h0l.8.4a.413.413,0,1,1-.353.747Z" transform="translate(-108.001 -43.898)" fill="#8395f0"/>
      <path id="Trazado_193887" data-name="Trazado 193887" d="M392.281,63.452l-.8-.377h0a.41.41,0,0,1-.217-.546.426.426,0,0,1,.554-.217h0l.843.377a.435.435,0,1,1-.337.8Z" transform="translate(-107.311 -43.584)" fill="#8395f0"/>
      <path id="Trazado_193888" data-name="Trazado 193888" d="M388.779,61.947l-.843-.345h0a.426.426,0,0,1-.233-.546.418.418,0,0,1,.546-.233h0l.859.353a.432.432,0,1,1-.321.8Z" transform="translate(-106.611 -43.291)" fill="#8395f0"/>
      <path id="Trazado_193889" data-name="Trazado 193889" d="M385.233,60.538l-.851-.321h0a.428.428,0,0,1,.3-.8h0l.867.329a.428.428,0,1,1-.3.8Z" transform="translate(-105.908 -43.014)" fill="#8395f0"/>
      <path id="Trazado_193890" data-name="Trazado 193890" d="M381.657,59.245l-.867-.305h0a.426.426,0,0,1-.265-.538.434.434,0,0,1,.538-.257h0l.875.305a.41.41,0,0,1,.257.53.426.426,0,0,1-.538.265Z" transform="translate(-105.199 -42.765)" fill="#8395f0"/>
      <path id="Trazado_193891" data-name="Trazado 193891" d="M378.043,58.047l-.875-.249h0a.422.422,0,0,1,.257-.8h0l.875.281a.418.418,0,0,1,.281.522.434.434,0,0,1-.53.281Z" transform="translate(-104.484 -42.539)" fill="#8395f0"/>
      <path id="Trazado_193892" data-name="Trazado 193892" d="M374.4,56.924l-.875-.249h0a.418.418,0,0,1-.289-.522.426.426,0,0,1,.522-.3h0l.891.257a.418.418,0,0,1,.289.522.426.426,0,0,1-.522.3Z" transform="translate(-103.764 -42.316)" fill="#8395f0"/>
      <path id="Trazado_193893" data-name="Trazado 193893" d="M370.7,55.919l-.891-.225h0a.427.427,0,1,1,.209-.827h0l.891.233a.426.426,0,1,1-.209.8Z" transform="translate(-103.028 -42.121)" fill="#8395f0"/>
      <path id="Trazado_193894" data-name="Trazado 193894" d="M367.006,55.008l-.891-.217h0a.426.426,0,1,1,.193-.8h0l.9.209a.425.425,0,1,1-.193.827Z" transform="translate(-102.28 -41.941)" fill="#8395f0"/>
      <path id="Trazado_193895" data-name="Trazado 193895" d="M363.3,54.208l-.9-.185h0a.426.426,0,1,1,.169-.835h0l.907.177a.434.434,0,0,1,.337.506.426.426,0,0,1-.506.337Z" transform="translate(-101.566 -41.791)" fill="#8395f0"/>
      <path id="Trazado_193896" data-name="Trazado 193896" d="M359.569,53.492l-.907-.153h0a.426.426,0,0,1-.353-.5.434.434,0,0,1,.5-.353h0l.907.161a.434.434,0,1,1-.144.851Z" transform="translate(-100.826 -41.654)" fill="#8395f0"/>
      <path id="Trazado_193897" data-name="Trazado 193897" d="M355.808,52.893l-.9-.1h0a.434.434,0,0,1-.369-.49.442.442,0,0,1,.49-.369h0l.915.137a.434.434,0,1,1-.128.851Z" transform="translate(-100.084 -41.545)" fill="#8395f0"/>
      <path id="Trazado_193898" data-name="Trazado 193898" d="M352.05,52.384l-.8-.1h0a.434.434,0,1,1,.1-.859h0l.8.1a.434.434,0,0,1,.377.482.426.426,0,0,1-.482.377Z" transform="translate(-99.354 -41.445)" fill="#8395f0"/>
      <path id="Trazado_193899" data-name="Trazado 193899" d="M350.348,46.7l-.161,5.244-3.477-2.369Z" transform="translate(-98.542 -40.515)" fill="#8395f0"/>
      <path id="Trazado_193900" data-name="Trazado 193900" d="M322,41.409l13.772,12.848a1.317,1.317,0,0,0,1.911-.1l12.423-14.278a.538.538,0,0,0,.072-.594.546.546,0,0,0-.522-.289Z" transform="translate(-93.675 -38.998)" fill="#a3ade6"/>
      <path id="Trazado_193901" data-name="Trazado 193901" d="M345.48,45.782,322,42.04l21.489,6.055.016,1.462Z" transform="translate(-93.675 -39.597)" fill="#8395f0"/>
      <path id="Trazado_193902" data-name="Trazado 193902" d="M347.28,50.945l3.019,1.566-1.831-2.931Z" transform="translate(-98.655 -41.083)" fill="#8395f0"/>
    </g>
  </g>
</svg>
