<svg xmlns="http://www.w3.org/2000/svg" width="133" height="133" viewBox="0 0 133 133">
  <g id="Grupo_134925" data-name="Grupo 134925" transform="translate(6277.212 6234.087)">
    <g id="Grupo_134820" data-name="Grupo 134820" transform="translate(-284.135 -382.856)">
      <g id="Grupo_134819" data-name="Grupo 134819">
        <g id="Elipse_17670" data-name="Elipse 17670" transform="translate(-5993.077 -5851.231)" fill="#fff" stroke="#6677d6" stroke-width="4">
          <circle cx="66.5" cy="66.5" r="66.5" stroke="none"/>
          <circle cx="66.5" cy="66.5" r="64.5" fill="none"/>
        </g>
        <g id="castillo" transform="translate(-5951.57 -5838.412)">
          <path id="Trazado_178094" data-name="Trazado 178094" d="M50.869,92.684h0V122.9h31.69V92.684Z" transform="translate(-41.815 -36.635)" fill="#4e2e8e"/>
          <rect id="Rectángulo_42433" data-name="Rectángulo 42433" width="5.684" height="30.212" transform="translate(9.054 56.05)" fill="#6677d6"/>
          <path id="Trazado_178095" data-name="Trazado 178095" d="M77.071,15.072v13.6l12.284-5.691c1.324-.614,1.324-1.608,0-2.222Z" transform="translate(-52.171 -5.957)" fill="#ffef0f"/>
          <path id="Trazado_178096" data-name="Trazado 178096" d="M82.06,17.384l-4.989-2.312v13.6l4.989-2.312Z" transform="translate(-52.171 -5.957)" fill="#fff56f"/>
          <ellipse id="Elipse_15988" data-name="Elipse 15988" cx="2.454" cy="2.454" rx="2.454" ry="2.454" transform="translate(22.444 1.409)" fill="#ffef0f"/>
          <path id="Trazado_178097" data-name="Trazado 178097" d="M76.694,2.66a2.453,2.453,0,1,0,0,4.247A2.452,2.452,0,0,1,76.694,2.66Z" transform="translate(-50.567 -0.92)" fill="#fff56f"/>
          <path id="Trazado_178098" data-name="Trazado 178098" d="M82.335,51.428H78.528a2.4,2.4,0,0,0-2.4,2.4v7.413H66.908V53.832a2.4,2.4,0,0,0-2.4-2.4H60.7a2.4,2.4,0,0,0-2.4,2.4v7.413H49.076V53.832a2.4,2.4,0,0,0-2.4-2.4H42.865a2.4,2.4,0,0,0-2.4,2.4V68.659a2.4,2.4,0,0,0,2.4,2.4H82.335a2.4,2.4,0,0,0,2.4-2.4V53.832A2.4,2.4,0,0,0,82.335,51.428Z" transform="translate(-37.701 -20.328)" fill="#4e2e8e"/>
          <path id="Trazado_178099" data-name="Trazado 178099" d="M44.936,68.658V53.832a2.4,2.4,0,0,1,2.07-2.378c-.256-.036.013-.026-4.141-.026a2.4,2.4,0,0,0-2.4,2.4V68.658a2.4,2.4,0,0,0,2.4,2.4H47.34A2.4,2.4,0,0,1,44.936,68.658Z" transform="translate(-37.701 -20.327)" fill="#6677d6"/>
          <path id="Trazado_178100" data-name="Trazado 178100" d="M85.167,144.881a2.839,2.839,0,0,1-2.838,2.838H41.256a2.839,2.839,0,0,1-2.839-2.838h0a2.839,2.839,0,0,1,2.839-2.839H82.329a2.839,2.839,0,0,1,2.838,2.839Z" transform="translate(-36.893 -56.144)" fill="#6677d6"/>
          <path id="Trazado_178101" data-name="Trazado 178101" d="M82.328,145.808H41.254a2.836,2.836,0,0,1-2.456-1.419,2.838,2.838,0,0,0,2.456,4.258H82.328a2.838,2.838,0,0,0,2.455-4.258A2.835,2.835,0,0,1,82.328,145.808Z" transform="translate(-36.892 -57.072)" fill="#4e2e8e"/>
          <path id="Trazado_178102" data-name="Trazado 178102" d="M43.815,83.9l4.266,5.433h31.69L84.037,83.9Z" transform="translate(-39.027 -33.161)" fill="#4e2e8e"/>
          <path id="Trazado_178103" data-name="Trazado 178103" d="M43.815,83.9l4.266,5.433h5.685L49.5,83.9Z" transform="translate(-39.027 -33.161)" fill="#6677d6"/>
          <path id="Trazado_178104" data-name="Trazado 178104" d="M81.17,84.49H77.839V65.4a1.361,1.361,0,0,0-2.721,0V84.49H46.149V57.725H75.117v3.052a1.361,1.361,0,1,0,2.721,0V56.819l3.737-4.973a3.769,3.769,0,0,0,2.558-3.563v-6.1a1.361,1.361,0,0,0-2.721,0v6.1a1.045,1.045,0,0,1-1.044,1.044H40.9a1.045,1.045,0,0,1-1.043-1.044V33.457A1.045,1.045,0,0,1,40.9,32.413H44.7a1.045,1.045,0,0,1,1.044,1.044V40.87a1.361,1.361,0,0,0,1.361,1.361h9.216a1.361,1.361,0,0,0,1.361-1.361V33.457a1.045,1.045,0,0,1,1.043-1.044h3.807a1.045,1.045,0,0,1,1.044,1.044V40.87A1.361,1.361,0,0,0,64.94,42.23h9.216a1.361,1.361,0,0,0,1.361-1.361V33.457a1.045,1.045,0,0,1,1.043-1.044h3.807a1.045,1.045,0,0,1,1.044,1.044v4.188a1.361,1.361,0,0,0,2.721,0V33.457a3.769,3.769,0,0,0-3.765-3.765H76.56A3.769,3.769,0,0,0,72.8,33.457v6.052H66.3V33.457a3.769,3.769,0,0,0-3.765-3.765h-.543V23.54l11.5-5.326c2.376-1.1,2.375-3.591,0-4.691L61.993,8.2V7.375a3.815,3.815,0,1,0-2.721,0V29.691h-.543a3.769,3.769,0,0,0-3.765,3.765v6.052H48.47V33.457A3.769,3.769,0,0,0,44.7,29.691H40.9a3.769,3.769,0,0,0-3.765,3.765V48.283a3.769,3.769,0,0,0,2.558,3.563l3.736,4.973V84.489H40.1a4.2,4.2,0,1,0,0,8.4h4.034a1.361,1.361,0,1,0,0-2.721H40.1a1.478,1.478,0,1,1,0-2.956H81.17a1.478,1.478,0,0,1,0,2.956H48.485a1.361,1.361,0,0,0,0,2.721H81.17a4.2,4.2,0,0,0,0-8.4ZM72.078,15.868,61.994,20.541V11.2ZM60.633,2.722a1.094,1.094,0,1,1-1.093,1.093A1.095,1.095,0,0,1,60.633,2.722ZM78.019,52.048,75.8,55H45.467l-2.221-2.955Z" transform="translate(-35.897 0)"/>
        </g>
      </g>
    </g>
  </g>
</svg>
