<svg xmlns="http://www.w3.org/2000/svg" width="106" height="106" viewBox="0 0 106 106">
  <g id="Grupo_134926" data-name="Grupo 134926" transform="translate(6990.334 5628.087)">
    <g id="Grupo_134824" data-name="Grupo 134824" transform="translate(522 -371.087)">
      <g id="Elipse_16911" data-name="Elipse 16911" transform="translate(-7512.334 -5257)" fill="#fff" stroke="#6677d6" stroke-width="4">
        <circle cx="53" cy="53" r="53" stroke="none"/>
        <circle cx="53" cy="53" r="51" fill="none"/>
      </g>
      <g id="debilidad" transform="translate(-7491.484 -5235.793)">
        <g id="Grupo_134604" data-name="Grupo 134604" transform="translate(0 0.001)">
          <g id="Grupo_134591" data-name="Grupo 134591" transform="translate(11.784 24.686)">
            <path id="Trazado_193451" data-name="Trazado 193451" d="M37.149,69.674l2.082-2.082a3.294,3.294,0,0,0-4.658-4.658l-2.082,2.082a10.006,10.006,0,0,0,0,14.108l3.986-1.276.672-3.382A3.4,3.4,0,0,1,37.149,69.674Z" transform="translate(-29.582 -61.974)" fill="#6677d6" fill-rule="evenodd"/>
          </g>
          <g id="Grupo_134592" data-name="Grupo 134592" transform="translate(19.351 38.791)">
            <path id="Trazado_193452" data-name="Trazado 193452" d="M48.58,105.083a10,10,0,0,0,14.1,0L64.765,103a3.291,3.291,0,1,0-4.654-4.654l-2.082,2.082a3.4,3.4,0,0,1-4.8,0l-3.3.319Z" transform="translate(-48.58 -97.384)" fill="#6677d6" fill-rule="evenodd"/>
          </g>
          <g id="Grupo_134593" data-name="Grupo 134593" transform="translate(38.79 19.351)">
            <path id="Trazado_193453" data-name="Trazado 193453" d="M105.079,62.686a10,10,0,0,0,0-14.1l-2.933.737-1.722,3.917a3.4,3.4,0,0,1,0,4.8l-2.082,2.082A3.291,3.291,0,0,0,103,64.768Z" transform="translate(-97.381 -48.582)" fill="#6677d6" fill-rule="evenodd"/>
          </g>
          <g id="Grupo_134594" data-name="Grupo 134594" transform="translate(24.685 11.784)">
            <path id="Trazado_193454" data-name="Trazado 193454" d="M74.462,37.152,77.687,35.9l1.434-3.406a10,10,0,0,0-14.107,0l-2.082,2.082a3.294,3.294,0,0,0,4.658,4.658l2.082-2.082A3.4,3.4,0,0,1,74.462,37.152Z" transform="translate(-61.972 -29.584)" fill="#6677d6" fill-rule="evenodd"/>
          </g>
          <g id="Grupo_134595" data-name="Grupo 134595" transform="translate(19.351 39.214)">
            <path id="Trazado_193455" data-name="Trazado 193455" d="M48.58,105.723a10,10,0,0,0,14.1,0l2.082-2.082a3.3,3.3,0,0,0,0-4.654,3.129,3.129,0,0,0-.71-.538,3.29,3.29,0,0,1-.905,2.933l-2.082,2.082c-3.207,3.207-7.381,4.113-11.36,1.132l-1-.449Z" transform="translate(-48.58 -98.448)" fill="#6677d6" fill-rule="evenodd"/>
          </g>
          <g id="Grupo_134596" data-name="Grupo 134596" transform="translate(15.924 24.687)">
            <path id="Trazado_193456" data-name="Trazado 193456" d="M43.4,74.467a3.4,3.4,0,0,1,0-4.792l2.082-2.082a3.289,3.289,0,0,0-2.9-5.567,3.243,3.243,0,0,1,.477.394,3.3,3.3,0,0,1,0,4.658l-2.082,2.082c-1.317,1.317-1.664,4.212.971,6.757l.779.587Z" transform="translate(-39.976 -61.976)" fill="#6677d6" fill-rule="evenodd"/>
          </g>
          <g id="Grupo_134597" data-name="Grupo 134597" transform="translate(24.686 15.79)">
            <path id="Trazado_193457" data-name="Trazado 193457" d="M62.932,45.285a3.306,3.306,0,0,0,4.658,0L69.671,43.2a3.4,3.4,0,0,1,4.792,0l2.027-.789-.58-.659c-1.784-2.542-5.135-2.569-6.452-1.252l-2.082,2.082a3.3,3.3,0,0,1-4.654,0,3.214,3.214,0,0,1-.559-.741,3.306,3.306,0,0,0,.768,3.44Z" transform="translate(-61.973 -39.642)" fill="#6677d6" fill-rule="evenodd"/>
          </g>
          <g id="Grupo_134598" data-name="Grupo 134598" transform="translate(39.608 19.351)">
            <path id="Trazado_193458" data-name="Trazado 193458" d="M104.233,64.768l2.082-2.082a10,10,0,0,0,0-14.1h-1.307l.316.991a10.008,10.008,0,0,1-1.605,12l-2.082,2.082a3.27,3.27,0,0,1-2.2.96,1.961,1.961,0,0,0,.144.151,3.3,3.3,0,0,0,4.654,0Z" transform="translate(-99.434 -48.582)" fill="#6677d6" fill-rule="evenodd"/>
          </g>
          <g id="Grupo_134599" data-name="Grupo 134599" transform="translate(0.896 35.662)">
            <path id="Trazado_193459" data-name="Trazado 193459" d="M20.7,100.357,25.359,95.7l.556-.556a3.292,3.292,0,1,0-4.654-4.658l-.556.556L16.047,95.7,3.212,108.537A3.292,3.292,0,0,0,7.866,113.2Z" transform="translate(-2.25 -89.529)" fill="#a3ade6" fill-rule="evenodd"/>
          </g>
          <g id="Grupo_134600" data-name="Grupo 134600" transform="translate(1.34 35.705)">
            <path id="Trazado_193460" data-name="Trazado 193460" d="M8.537,113.261l12.838-12.838.6-.6,4.058-4.058.556-.556a3.288,3.288,0,0,0-1.79-5.574,3.3,3.3,0,0,1-.518,3.986l-.552.556-4.658,4.654L6.232,111.673a3.306,3.306,0,0,1-2.867.916,3.292,3.292,0,0,0,5.172.672Z" transform="translate(-3.365 -89.639)" fill="#a3ade6" fill-rule="evenodd"/>
          </g>
          <g id="Grupo_134601" data-name="Grupo 134601" transform="translate(35.661 0.896)">
            <path id="Trazado_193461" data-name="Trazado 193461" d="M95.7,25.361l4.654-4.654L113.191,7.868a3.292,3.292,0,1,0-4.658-4.654L95.7,16.048l-4.658,4.658-.556.556a3.292,3.292,0,0,0,4.658,4.654Z" transform="translate(-89.526 -2.251)" fill="#a3ade6" fill-rule="evenodd"/>
          </g>
          <g id="Grupo_134602" data-name="Grupo 134602" transform="translate(36.106 0.939)">
            <path id="Trazado_193462" data-name="Trazado 193462" d="M101.025,20.771,113.863,7.933a3.29,3.29,0,0,0-1.79-5.574,3.3,3.3,0,0,1-.518,3.986L98.717,19.183l-4.654,4.654-.556.556a3.287,3.287,0,0,1-2.864.916,3.284,3.284,0,0,0,5.172.672l.556-.556,3.663-3.663Z" transform="translate(-90.643 -2.359)" fill="#a3ade6" fill-rule="evenodd"/>
          </g>
          <g id="Grupo_134603" data-name="Grupo 134603">
            <path id="Trazado_193463" data-name="Trazado 193463" d="M29.214,30.484a.9.9,0,0,0,1.267-1.268l-4.527-4.528a.9.9,0,1,0-1.267,1.268Z" transform="translate(-14.695 -14.697)"/>
            <path id="Trazado_193464" data-name="Trazado 193464" d="M10.753,50.74l7.855,1.2a.9.9,0,1,0,.272-1.772l-7.855-1.2a.9.9,0,1,0-.272,1.772Z" transform="translate(-6.012 -29.457)"/>
            <path id="Trazado_193465" data-name="Trazado 193465" d="M50.17,18.881a.9.9,0,0,0,1.772-.272l-1.2-7.855a.9.9,0,0,0-1.772.272Z" transform="translate(-29.455 -6.013)"/>
            <path id="Trazado_193466" data-name="Trazado 193466" d="M114.842,113.579a.9.9,0,0,0-1.267,1.268l4.527,4.528a.9.9,0,0,0,1.267-1.268Z" transform="translate(-68.177 -68.18)"/>
            <path id="Trazado_193467" data-name="Trazado 193467" d="M98.906,120.156a.9.9,0,0,0-1.772.271l1.2,7.855a.9.9,0,0,0,1.772-.271Z" transform="translate(-58.436 -71.837)"/>
            <path id="Trazado_193468" data-name="Trazado 193468" d="M128.277,98.339l-7.855-1.2a.9.9,0,1,0-.271,1.772l7.855,1.2a.9.9,0,1,0,.271-1.772Z" transform="translate(-71.834 -58.44)"/>
            <path id="Trazado_193469" data-name="Trazado 193469" d="M95.891,1.227A4.154,4.154,0,0,0,92.931,0h0a4.162,4.162,0,0,0-2.964,1.225L77.736,13.455a10.9,10.9,0,0,0-14.713.606L60.94,16.144a4.19,4.19,0,0,0,5.926,5.925l2.082-2.082a2.473,2.473,0,0,1,1.762-.725,2.5,2.5,0,0,1,1.018.216,4.188,4.188,0,0,0,5.91,5.908,2.5,2.5,0,0,1-.508,2.783l-2.081,2.081a4.187,4.187,0,0,0,5.921,5.923l2.082-2.082a10.882,10.882,0,0,0,.605-14.71l4.285-4.286a.9.9,0,0,0-1.267-1.268l-10.1,10.1a2.4,2.4,0,0,1-3.39-3.387L91.232,2.493a2.382,2.382,0,0,1,1.7-.7h0A2.393,2.393,0,0,1,94.622,5.88l-4.97,4.97a.9.9,0,0,0,1.267,1.268l4.97-4.97a4.192,4.192,0,0,0,0-5.921Zm-14.106,31.6L79.7,34.906a2.395,2.395,0,0,1-3.386-3.388L78.4,29.435a4.3,4.3,0,0,0,.565-5.36l3.423-3.423A9.089,9.089,0,0,1,81.784,32.823Zm-14.1-14.1L65.6,20.8a2.4,2.4,0,0,1-3.39-3.39l2.082-2.082a9.116,9.116,0,0,1,12.175-.6l-3.427,3.427a4.3,4.3,0,0,0-5.358.566Z" transform="translate(-35.93 -0.001)"/>
            <path id="Trazado_193470" data-name="Trazado 193470" d="M33.209,73.827a4.153,4.153,0,0,0-2.961,1.225l-2.081,2.081a2.5,2.5,0,0,1-2.784.509,4.185,4.185,0,0,0-3.15-6.943h0a4.163,4.163,0,0,0-2.757,1.032,2.494,2.494,0,0,1,.51-2.779l2.082-2.082a4.19,4.19,0,1,0-5.925-5.925l-2.082,2.082a10.885,10.885,0,0,0-.606,14.712L9.511,81.682a.9.9,0,1,0,1.268,1.267l9.757-9.761a2.383,2.383,0,0,1,1.7-.7h0a2.394,2.394,0,0,1,1.694,4.087L5.879,94.626a2.4,2.4,0,0,1-3.388,0,2.4,2.4,0,0,1,0-3.39l5.426-5.43A.9.9,0,0,0,6.65,84.539l-5.426,5.43a4.189,4.189,0,0,0,5.922,5.925L19.379,83.661a10.9,10.9,0,0,0,14.709-.606l2.081-2.081a4.186,4.186,0,0,0-2.96-7.148ZM15.327,64.293l2.081-2.081A2.4,2.4,0,1,1,20.8,65.6l-2.082,2.082a4.292,4.292,0,0,0-.568,5.356l-3.426,3.427a9.092,9.092,0,0,1,.6-12.174ZM34.9,79.706l-2.082,2.082a9.111,9.111,0,0,1-12.171.6l3.424-3.424a4.3,4.3,0,0,0,5.361-.566l2.083-2.083A2.395,2.395,0,0,1,34.9,79.706Z" transform="translate(0 -35.932)"/>
          </g>
        </g>
      </g>
    </g>
  </g>
</svg>
