<svg xmlns="http://www.w3.org/2000/svg" width="133" height="133" viewBox="0 0 133 133">
  <g id="Grupo_134930" data-name="Grupo 134930" transform="translate(7165.334 4973.087)">
    <g id="Grupo_134831" data-name="Grupo 134831" transform="translate(222 -459.087)">
      <g id="Elipse_16916" data-name="Elipse 16916" transform="translate(-7387.334 -4514)" fill="#fff" stroke="#6677d6" stroke-width="4">
        <circle cx="66.5" cy="66.5" r="66.5" stroke="none"/>
        <circle cx="66.5" cy="66.5" r="64.5" fill="none"/>
      </g>
      <g id="estrella" transform="translate(-7363.871 -4490.547)">
        <g id="Grupo_117092" data-name="Grupo 117092" transform="translate(0 0)">
          <path id="Trazado_178653" data-name="Trazado 178653" d="M120.413,48.79a5.043,5.043,0,0,1,5.043,5.043V74.006H115.37V53.833A5.043,5.043,0,0,1,120.413,48.79Z" transform="translate(-50.731 -21.449)" fill="#ff876c"/>
          <path id="Trazado_178654" data-name="Trazado 178654" d="M129.413,29.29a5.043,5.043,0,0,0-5.043,5.043V54.506h10.087V34.333A5.043,5.043,0,0,0,129.413,29.29Z" transform="translate(-54.688 -12.877)" fill="#ff9e90"/>
          <path id="Trazado_178655" data-name="Trazado 178655" d="M131.819,20.29a5.013,5.013,0,0,0-2.123.469l-2.211,42.184L118.37,84.508,135.5,60.4a9.415,9.415,0,0,0,1.364-4.642V25.333A5.043,5.043,0,0,0,131.819,20.29Z" transform="translate(-52.05 -8.92)" fill="#ff9e90"/>
          <path id="Trazado_178656" data-name="Trazado 178656" d="M115.542,25.7v32.95a13.443,13.443,0,0,1-.972,4.66L102.093,84.876v9.246H81.347V89.079L86.8,69.986l23.7-19.069V25.7a5.039,5.039,0,0,1,2.92-4.574A5.4,5.4,0,0,1,115.542,25.7Z" transform="translate(-35.773 -9.288)" fill="#ffb4b3"/>
          <path id="Trazado_178657" data-name="Trazado 178657" d="M101.89,66.766a5.043,5.043,0,1,1,7.131,7.131L91.433,91.488v6.919a10.116,10.116,0,0,1-10.087,10.087V91.5a10.068,10.068,0,0,1,2.947-7.138Z" transform="translate(-35.773 -28.703)" fill="#ffcad6"/>
          <path id="Trazado_178658" data-name="Trazado 178658" d="M25.313,48.79a5.043,5.043,0,0,0-5.043,5.043V74.006H30.356V53.833A5.043,5.043,0,0,0,25.313,48.79Z" transform="translate(-8.922 -21.449)" fill="#ff876c"/>
          <path id="Trazado_178659" data-name="Trazado 178659" d="M16.313,29.29a5.043,5.043,0,0,0-5.043,5.043V54.506H21.356V34.333A5.043,5.043,0,0,0,16.313,29.29Z" transform="translate(-4.966 -12.877)" fill="#ff9e90"/>
          <path id="Trazado_178660" data-name="Trazado 178660" d="M60.423,130.484v5.043H55.38L45.293,115.309Z" transform="translate(-19.923 -50.693)" fill="#ff9e90"/>
          <path id="Trazado_178661" data-name="Trazado 178661" d="M50.165,84.362l-17.6-17.6A5.027,5.027,0,0,0,28.662,65.3l19.406,41.833a10,10,0,0,0,5.043,1.36V91.5A10.067,10.067,0,0,0,50.165,84.362Z" transform="translate(-12.612 -28.703)" fill="#ffb4b3"/>
          <path id="Trazado_178662" data-name="Trazado 178662" d="M35.22,70.471,12.356,50.55V25.333a5.043,5.043,0,1,0-10.087,0V55.761A9.415,9.415,0,0,0,3.634,60.4l17.128,24.1v9.246h15.7v-6.4Z" transform="translate(-1.009 -8.92)" fill="#ffb4b3"/>
          <path id="Trazado_178663" data-name="Trazado 178663" d="M44.379,91.509v15.634a10.109,10.109,0,0,1-5.043-8.727V91.5L21.747,73.907a5.043,5.043,0,0,1,3.224-8.6,3.873,3.873,0,0,1,2.665,1.466l14.309,17.6A11.222,11.222,0,0,1,44.379,91.509Z" transform="translate(-8.922 -28.712)" fill="#ffcad6"/>
          <path id="Trazado_178664" data-name="Trazado 178664" d="M85.363,15.959,87.714,2.25,82.171,5.164,73.595,21l17.339,5.3,4.389-.638Z" transform="translate(-32.366 -0.989)" fill="#ffef0f"/>
          <path id="Trazado_178665" data-name="Trazado 178665" d="M67.96,5.164,61.191,8.723,48.879,2.25,51.23,15.959,41.27,25.669l13.765,2,6.156,12.473,6.156-12.473,9.376-1.363L66.108,15.959Z" transform="translate(-18.155 -0.989)" fill="#fff56f"/>
          <path id="Trazado_178666" data-name="Trazado 178666" d="M22.715,46.949V40.314a6.315,6.315,0,0,0-5.043-6.177v-4.75a6.313,6.313,0,0,0-5.151-6.2A6.3,6.3,0,0,0,.02,24.344V54.772a10.706,10.706,0,0,0,1.6,5.373L18.512,83.921v8.844a1.261,1.261,0,0,0,1.261,1.261H40.52a1.261,1.261,0,0,0,1.261-1.261V70.727A11.279,11.279,0,0,0,38.464,62.7Zm-2.522-6.635v4.2a6.264,6.264,0,0,0-2.522-1.131V36.749A3.789,3.789,0,0,1,20.193,40.314ZM15.15,29.387v14a6.261,6.261,0,0,0-2.522,1.13v-18.7A3.789,3.789,0,0,1,15.15,29.387ZM39.259,91.5H21.034V83.519a1.26,1.26,0,0,0-.233-.73L3.673,58.684a8.17,8.17,0,0,1-1.131-3.912V24.344a3.782,3.782,0,0,1,7.565,0v25.3c0,.023,0,.046,0,.068a6.26,6.26,0,0,0,1.845,4.305L29.542,71.607a1.261,1.261,0,0,0,1.783-1.783L13.736,52.235a3.777,3.777,0,0,1,2.579-6.451c.032,0,.063,0,.1,0s.064,0,.1,0a3.765,3.765,0,0,1,2.579,1.1l17.6,17.6a8.773,8.773,0,0,1,2.578,6.246Z" transform="translate(-0.02 -7.931)"/>
          <path id="Trazado_178667" data-name="Trazado 178667" d="M114.553,18.04a6.313,6.313,0,0,0-6.2,5.151,6.313,6.313,0,0,0-5.151,6.2v4.75a6.315,6.315,0,0,0-5.043,6.177v6.635L82.413,62.7A11.278,11.278,0,0,0,79.1,70.728V92.765a1.261,1.261,0,0,0,1.261,1.261H101.1a1.261,1.261,0,0,0,1.261-1.261V83.921L119.26,60.145a10.706,10.706,0,0,0,1.6-5.373V24.344A6.312,6.312,0,0,0,114.553,18.04Zm-8.826,11.347a3.789,3.789,0,0,1,2.522-3.566V44.516a6.266,6.266,0,0,0-2.522-1.13Zm-2.522,7.362v6.637a6.266,6.266,0,0,0-2.522,1.131v-4.2A3.789,3.789,0,0,1,103.205,36.749Zm15.13,18.023a8.169,8.169,0,0,1-1.131,3.912l-17.128,24.1a1.26,1.26,0,0,0-.233.73V91.5H81.618V70.727A8.772,8.772,0,0,1,84.2,64.481l17.6-17.6a3.782,3.782,0,1,1,5.349,5.349L89.552,69.824a1.261,1.261,0,0,0,1.783,1.783l17.589-17.589a6.26,6.26,0,0,0,1.845-4.305c0-.023,0-.045,0-.068v-25.3a3.782,3.782,0,1,1,7.565,0V54.772Z" transform="translate(-34.784 -7.931)"/>
          <path id="Trazado_178668" data-name="Trazado 178668" d="M80.3,25.927a1.261,1.261,0,0,0,.7-2.15L71.518,14.53,73.757,1.474A1.261,1.261,0,0,0,71.927.145L60.2,6.309,48.477.145a1.261,1.261,0,0,0-1.829,1.329l1.486,8.666a1.261,1.261,0,0,0,2.486-.426L49.565,3.566,59.616,8.85a1.261,1.261,0,0,0,1.173,0L70.84,3.566,68.92,14.757a1.261,1.261,0,0,0,.363,1.116L77.414,23.8,66.177,25.432a1.26,1.26,0,0,0-.949.69L60.2,36.3,55.177,26.122a1.261,1.261,0,0,0-.949-.69L42.991,23.8l8.131-7.926a1.261,1.261,0,1,0-1.76-1.806L39.4,23.777a1.261,1.261,0,0,0,.7,2.15l13.109,1.9,5.863,11.879a1.261,1.261,0,0,0,2.261,0L67.2,27.832Z" transform="translate(-17.166 0)"/>
        </g>
      </g>
    </g>
  </g>
</svg>
