<svg xmlns="http://www.w3.org/2000/svg" width="172.755" height="195.95" viewBox="0 0 172.755 195.95">
  <g id="Grupo_134920" data-name="Grupo 134920" transform="translate(13684.878 -3256.822)">
    <g id="Grupo_134817" data-name="Grupo 134817" transform="translate(142.877 -1173)">
      <g id="uml" transform="translate(-13842.906 4429.822)">
        <g id="Grupo_134544" data-name="Grupo 134544" transform="translate(15.151 0)">
          <path id="Trazado_193325" data-name="Trazado 193325" d="M141.292,40.864H99.54A3.866,3.866,0,0,1,95.673,37V7.616A3.866,3.866,0,0,1,99.54,3.75h41.753a3.866,3.866,0,0,1,3.866,3.866V37A3.867,3.867,0,0,1,141.292,40.864Z" transform="translate(-34.04 -0.88)" fill="#ffef0f"/>
          <path id="Trazado_193326" data-name="Trazado 193326" d="M151.482,3.75H139.11a3.866,3.866,0,0,1,3.866,3.866V37a3.866,3.866,0,0,1-3.866,3.866h12.371A3.866,3.866,0,0,0,155.348,37V7.616a3.866,3.866,0,0,0-3.866-3.866Z" transform="translate(-44.229 -0.88)" fill="#ffef0f"/>
          <path id="Trazado_193327" data-name="Trazado 193327" d="M218.065,121.677H176.312a3.866,3.866,0,0,1-3.866-3.866V88.429a3.866,3.866,0,0,1,3.866-3.866h41.753a3.866,3.866,0,0,1,3.866,3.866v29.382A3.866,3.866,0,0,1,218.065,121.677Z" transform="translate(-52.048 -19.836)" fill="#c6412a"/>
          <path id="Trazado_193328" data-name="Trazado 193328" d="M64.52,109.305H22.767a3.866,3.866,0,0,1-3.866-3.866V88.429a3.866,3.866,0,0,1,3.866-3.866H64.52a3.866,3.866,0,0,1,3.866,3.866v17.01a3.866,3.866,0,0,1-3.866,3.866Z" transform="translate(-16.031 -19.836)" fill="#a3ade6"/>
          <circle id="Elipse_17669" data-name="Elipse 17669" cx="18.557" cy="18.557" r="18.557" transform="translate(67.82 78.603)" fill="#4e2e8e"/>
          <path id="Trazado_193329" data-name="Trazado 193329" d="M130.129,104.674a18.561,18.561,0,0,1-24.393,24.393,18.558,18.558,0,1,0,24.393-24.393Z" transform="translate(-36.4 -24.554)" fill="#4e2e8e"/>
          <path id="Trazado_193330" data-name="Trazado 193330" d="M115.435,233.894,94.412,212.871a6.039,6.039,0,0,1,0-8.541l21.023-21.023a6.039,6.039,0,0,1,8.541,0L145,204.33a6.039,6.039,0,0,1,0,8.541l-21.023,21.023a6.039,6.039,0,0,1-8.541,0Z" transform="translate(-33.329 -42.584)" fill="#6677d6"/>
          <path id="Trazado_193331" data-name="Trazado 193331" d="M228.254,84.563H215.883a3.866,3.866,0,0,1,3.866,3.866v29.382a3.866,3.866,0,0,1-3.866,3.866h12.371a3.866,3.866,0,0,0,3.866-3.866V88.429a3.866,3.866,0,0,0-3.866-3.866Z" transform="translate(-62.238 -19.836)" fill="#c6412a"/>
          <path id="Trazado_193332" data-name="Trazado 193332" d="M74.71,84.563H62.339A3.866,3.866,0,0,1,66.2,88.429v17.01a3.866,3.866,0,0,1-3.866,3.866H74.71a3.866,3.866,0,0,0,3.866-3.866V88.429a3.866,3.866,0,0,0-3.866-3.866Z" transform="translate(-26.22 -19.836)" fill="#a3ade6"/>
          <path id="Trazado_193333" data-name="Trazado 193333" d="M64.52,161.8H22.767a3.866,3.866,0,0,1-3.866-3.866v-17.01a3.866,3.866,0,0,1,3.866-3.866H64.52a3.866,3.866,0,0,1,3.866,3.866v17.01A3.866,3.866,0,0,1,64.52,161.8Z" transform="translate(-16.031 -32.15)" fill="#fbd894"/>
          <path id="Trazado_193334" data-name="Trazado 193334" d="M74.71,137.055H62.339a3.866,3.866,0,0,1,3.866,3.866v17.01a3.866,3.866,0,0,1-3.866,3.866H74.71a3.866,3.866,0,0,0,3.866-3.866v-17.01a3.866,3.866,0,0,0-3.866-3.866Z" transform="translate(-26.22 -32.15)" fill="#fbd894"/>
          <path id="Trazado_193335" data-name="Trazado 193335" d="M149.66,205.9l-17.674-17.674c-1.25,7.789-4.555,16.909-9.773,25.948a88.543,88.543,0,0,1-9.7,13.71l7.581,7.581a6.039,6.039,0,0,0,8.541,0L149.66,214.44a6.039,6.039,0,0,0,0-8.541Z" transform="translate(-37.99 -44.153)" fill="#6677d6"/>
          <path id="Trazado_193336" data-name="Trazado 193336" d="M185.036,79.455a2.87,2.87,0,0,0,2.87-2.87V68.594a6.745,6.745,0,0,0-6.74-6.736h-18V52.327a2.87,2.87,0,0,0-2.87-2.87H104.4v-6.6H122.4a6.746,6.746,0,0,0,6.736-6.74V6.736A6.744,6.744,0,0,0,122.4,0H80.651a6.744,6.744,0,0,0-6.736,6.736v7.995a2.87,2.87,0,0,0,5.741,0V6.736a1,1,0,0,1,1-1H122.4a1,1,0,0,1,1,1V36.117a1,1,0,0,1-1,1H80.651a1,1,0,0,1-1-1V28.126a2.87,2.87,0,0,0-5.741,0v7.991a6.746,6.746,0,0,0,6.736,6.74H98.657v6.6H42.764a2.87,2.87,0,0,0-2.87,2.87v9.529H21.888a6.744,6.744,0,0,0-6.737,6.737V85.6a6.744,6.744,0,0,0,6.737,6.737H39.894v9.7H21.888a6.744,6.744,0,0,0-6.737,6.737v17.01a6.744,6.744,0,0,0,6.737,6.737H39.894v33.5a2.87,2.87,0,0,0,2.87,2.87H72.083a8.855,8.855,0,0,0,2.121,3.431l21.022,21.022a8.913,8.913,0,0,0,12.6,0l21.024-21.024a8.85,8.85,0,0,0,2.12-3.429h29.319a2.87,2.87,0,0,0,2.87-2.87V104.71h18a6.746,6.746,0,0,0,6.74-6.736V89.98a2.87,2.87,0,0,0-5.741,0v7.995a1,1,0,0,1-1,1h-41.75a1,1,0,0,1-1-1V68.594a1,1,0,0,1,1-1h41.75a1,1,0,0,1,1,1v7.991a2.87,2.87,0,0,0,2.87,2.87ZM20.892,85.6V68.593a1,1,0,0,1,1-1H63.641a1,1,0,0,1,1,1V85.6a1,1,0,0,1-1,1H21.888a1,1,0,0,1-1-1Zm0,40.178v-17.01a1,1,0,0,1,1-1H63.641a1,1,0,0,1,1,1v17.01a1,1,0,0,1-1,1H21.888A1,1,0,0,1,20.892,125.782Zm24.743,6.737H63.641a6.744,6.744,0,0,0,6.737-6.737v-17.01a6.744,6.744,0,0,0-6.737-6.737H45.634v-9.7H63.641A6.744,6.744,0,0,0,70.377,85.6V68.592a6.744,6.744,0,0,0-6.737-6.737H45.634V55.2H98.657V75.93a21.422,21.422,0,0,0,0,42.459v18.175a8.862,8.862,0,0,0-3.431,2.129L74.2,159.716a8.835,8.835,0,0,0-2.122,3.43H45.634Zm55.893-19.671A15.687,15.687,0,1,1,117.214,97.16,15.7,15.7,0,0,1,101.528,112.847Zm31.149-44.253V97.974a6.745,6.745,0,0,0,6.74,6.736h18v58.436H130.973a8.836,8.836,0,0,0-2.122-3.43L124.132,155a2.87,2.87,0,1,0-4.059,4.059l4.719,4.719a3.175,3.175,0,0,1,0,4.483L103.769,189.28a3.172,3.172,0,0,1-4.482,0L78.266,168.26a3.177,3.177,0,0,1,0-4.485l21.022-21.022a3.172,3.172,0,0,1,4.482,0l6.831,6.831a2.87,2.87,0,0,0,4.059-4.059l-6.831-6.831a8.862,8.862,0,0,0-3.431-2.129V118.389a21.422,21.422,0,0,0,0-42.459V55.2h53.023v6.66h-18a6.745,6.745,0,0,0-6.74,6.736Z" transform="translate(-15.151 0)"/>
        </g>
      </g>
    </g>
  </g>
</svg>
