<svg xmlns="http://www.w3.org/2000/svg" width="133" height="133" viewBox="0 0 133 133">
  <g id="Grupo_134933" data-name="Grupo 134933" transform="translate(6325.077 4973.087)">
    <g id="Grupo_134828" data-name="Grupo 134828" transform="translate(112 -459.086)">
      <g id="Elipse_17671" data-name="Elipse 17671" transform="translate(-6437.077 -4514.001)" fill="#fff" stroke="#6677d6" stroke-width="4">
        <circle cx="66.5" cy="66.5" r="66.5" stroke="none"/>
        <circle cx="66.5" cy="66.5" r="64.5" fill="none"/>
      </g>
      <g id="debate" transform="translate(-6410.663 -4489.046)">
        <g id="Grupo_134622" data-name="Grupo 134622" transform="translate(0 0)">
          <g id="Grupo_134621" data-name="Grupo 134621" transform="translate(0 1.167)">
            <path id="Trazado_193484" data-name="Trazado 193484" d="M168.56,79.295h5.6v26.664h-5.6Z" transform="translate(-116.11 -55.788)" fill="#dbdbdb"/>
            <g id="Grupo_134613" data-name="Grupo 134613" transform="translate(42.415)">
              <g id="Grupo_134611" data-name="Grupo 134611" transform="translate(10.035 23.507)">
                <path id="Trazado_193485" data-name="Trazado 193485" d="M174.161,79.295V84.51q-.614.061-1.245.061a12.825,12.825,0,0,1-4.356-.758V79.295Z" transform="translate(-168.56 -79.295)" fill="#dbdbdb"/>
              </g>
              <g id="Grupo_134612" data-name="Grupo 134612">
                <circle id="Elipse_17676" data-name="Elipse 17676" cx="12.836" cy="12.836" r="12.836" fill="#6677d6"/>
              </g>
            </g>
            <path id="Trazado_193486" data-name="Trazado 193486" d="M69.439,79.3h5.6v26.663h-5.6Z" transform="translate(-47.832 -55.789)" fill="#dbdbdb"/>
            <g id="Grupo_134614" data-name="Grupo 134614" transform="translate(21.607 23.507)">
              <path id="Trazado_193487" data-name="Trazado 193487" d="M75.04,79.295V84.51q-.614.061-1.245.061a12.825,12.825,0,0,1-4.356-.758V79.295Z" transform="translate(-69.439 -79.295)" fill="#dbdbdb"/>
            </g>
            <g id="Grupo_134616" data-name="Grupo 134616" transform="translate(0 48.614)">
              <path id="Trazado_193488" data-name="Trazado 193488" d="M94.941,199.109H90.429a2.8,2.8,0,1,1,0-5.6h4.512a2.8,2.8,0,1,1,0,5.6Z" transform="translate(-60.362 -183.077)" fill="#ffcebf"/>
              <path id="Trazado_193489" data-name="Trazado 193489" d="M89.775,181.109H82.929a2.8,2.8,0,1,1,0-5.6h6.846a2.8,2.8,0,1,1,0,5.6Z" transform="translate(-55.196 -170.678)" fill="#ffcebf"/>
              <path id="Trazado_193490" data-name="Trazado 193490" d="M89.931,178.776a2.785,2.785,0,0,1-2.758-3.267H82.929a2.8,2.8,0,1,0,0,5.6h6.846a2.8,2.8,0,0,0,2.758-2.334Z" transform="translate(-55.196 -170.678)" fill="#ffb09e"/>
              <path id="Trazado_193491" data-name="Trazado 193491" d="M89.931,196.776a2.785,2.785,0,0,1-2.758-3.267H82.929a2.8,2.8,0,1,0,0,5.6h6.846a2.8,2.8,0,0,0,2.758-2.334Z" transform="translate(-55.196 -183.077)" fill="#ffb09e"/>
              <path id="Trazado_193492" data-name="Trazado 193492" d="M38.359,165.914v6.806a3.3,3.3,0,0,0,6.594,0v-8.069a4.667,4.667,0,0,0-4.667-4.667H34.278a5.216,5.216,0,0,0-3.688,1.528l-8.066,8.066a4.668,4.668,0,0,0-1.367,3.3v12.007a2.334,2.334,0,0,0,2.334,2.334H42.308l7.983-3.112-7.545-6.76Z" transform="translate(-14.574 -159.983)" fill="#ffcebf"/>
              <path id="Trazado_193493" data-name="Trazado 193493" d="M57.979,175.589a3.042,3.042,0,0,0-.948.461c-1.567,1.093-1.646,3.293-1.844,4.412-.25,1.383-1.054,3.227-3.477,5.281a.376.376,0,0,0,.356.645,9.259,9.259,0,0,0,1.4-.58,10.677,10.677,0,0,0,4.754-4.992l3.793,5.966a1.5,1.5,0,0,0,1.515-1.5V175.51Z" transform="translate(-35.525 -170.679)" fill="#ffb09e"/>
              <path id="Trazado_193494" data-name="Trazado 193494" d="M76.7,183.91a2.8,2.8,0,0,0-2.8-2.8,2.8,2.8,0,0,0,2.8-2.9,2.844,2.844,0,0,0-2.866-2.7H67.05a2.8,2.8,0,0,0-2.8,2.8,1.571,1.571,0,0,0,.227.78,3.586,3.586,0,0,1,.108,3.49,2.789,2.789,0,0,0-.336,1.331,1.571,1.571,0,0,0,.227.78,3.586,3.586,0,0,1,.108,3.491,2.805,2.805,0,0,0-.051,2.562,3.6,3.6,0,0,1,0,3.145,2.792,2.792,0,0,0-.279,1.326,2.844,2.844,0,0,0,2.866,2.7h6.711a2.844,2.844,0,0,0,2.866-2.7,2.8,2.8,0,0,0-2.8-2.9,2.8,2.8,0,0,0,0-5.6A2.8,2.8,0,0,0,76.7,183.91Z" transform="translate(-44.258 -170.678)" fill="#ffb09e"/>
              <path id="Trazado_193495" data-name="Trazado 193495" d="M76.439,164.826v7.893a3.3,3.3,0,1,0,6.594,0v-8.068a4.667,4.667,0,0,0-4.667-4.667Z" transform="translate(-52.654 -159.984)" fill="#ffcebf"/>
              <path id="Trazado_193496" data-name="Trazado 193496" d="M1.556,188.767h3.4a1.627,1.627,0,0,1,1.627,1.627v16.5a1.627,1.627,0,0,1-1.627,1.627h-3.4A1.556,1.556,0,0,1,0,206.965V190.323A1.556,1.556,0,0,1,1.556,188.767Z" transform="translate(0 -179.811)" fill="#a3ade6"/>
              <path id="Trazado_193497" data-name="Trazado 193497" d="M89.775,217.109H82.929a2.8,2.8,0,0,1,0-5.6h6.846a2.8,2.8,0,1,1,0,5.6Z" transform="translate(-55.196 -195.476)" fill="#ffcebf"/>
              <path id="Trazado_193498" data-name="Trazado 193498" d="M89.775,235.109H82.929a2.8,2.8,0,1,1,0-5.6h6.846a2.8,2.8,0,1,1,0,5.6Z" transform="translate(-55.196 -207.875)" fill="#ffcebf"/>
              <g id="Grupo_134615" data-name="Grupo 134615" transform="translate(24.933 16.033)">
                <path id="Trazado_193499" data-name="Trazado 193499" d="M89.931,214.776a2.785,2.785,0,0,1-2.758-3.267H82.929a2.8,2.8,0,0,0,0,5.6h6.846a2.8,2.8,0,0,0,2.758-2.334Z" transform="translate(-80.129 -211.508)" fill="#ffb09e"/>
                <path id="Trazado_193500" data-name="Trazado 193500" d="M89.931,232.776a2.785,2.785,0,0,1-2.758-3.267H82.929a2.8,2.8,0,1,0,0,5.6h6.846a2.8,2.8,0,0,0,2.758-2.334Z" transform="translate(-80.129 -223.908)" fill="#ffb09e"/>
              </g>
            </g>
            <g id="Grupo_134618" data-name="Grupo 134618" transform="translate(42.278 48.614)">
              <path id="Trazado_193501" data-name="Trazado 193501" d="M138.671,199.109h4.512a2.8,2.8,0,0,0,0-5.6h-4.512a2.8,2.8,0,1,0,0,5.6Z" transform="translate(-135.871 -183.077)" fill="#ffcebf"/>
              <path id="Trazado_193502" data-name="Trazado 193502" d="M138.671,181.109h6.846a2.8,2.8,0,0,0,0-5.6h-6.846a2.8,2.8,0,1,0,0,5.6Z" transform="translate(-135.871 -170.678)" fill="#ffcebf"/>
              <path id="Trazado_193503" data-name="Trazado 193503" d="M138.609,178.776a2.785,2.785,0,0,0,2.758-3.267h4.243a2.8,2.8,0,1,1,0,5.6h-6.846a2.8,2.8,0,0,1-2.758-2.334Z" transform="translate(-135.964 -170.678)" fill="#ffb09e"/>
              <path id="Trazado_193504" data-name="Trazado 193504" d="M138.609,196.776a2.785,2.785,0,0,0,2.758-3.267h4.243a2.8,2.8,0,1,1,0,5.6h-6.846a2.8,2.8,0,0,1-2.758-2.334Z" transform="translate(-135.964 -183.077)" fill="#ffb09e"/>
              <path id="Trazado_193505" data-name="Trazado 193505" d="M153.147,165.914v6.806a3.3,3.3,0,1,1-6.594,0v-8.069a4.667,4.667,0,0,1,4.667-4.667h6.007a5.216,5.216,0,0,1,3.688,1.528l8.066,8.066a4.668,4.668,0,0,1,1.367,3.3v12.007a2.334,2.334,0,0,1-2.334,2.334H149.2l-7.983-3.112,7.545-6.76Z" transform="translate(-139.552 -159.983)" fill="#ffcebf"/>
              <path id="Trazado_193506" data-name="Trazado 193506" d="M171.565,175.589a3.042,3.042,0,0,1,.948.461c1.567,1.093,1.646,3.293,1.844,4.412.25,1.383,1.054,3.227,3.477,5.281a.376.376,0,0,1-.356.645,9.259,9.259,0,0,1-1.4-.58,10.677,10.677,0,0,1-4.754-4.992l-3.793,5.966a1.5,1.5,0,0,1-1.515-1.5V175.51Z" transform="translate(-156.639 -170.679)" fill="#ffb09e"/>
              <path id="Trazado_193507" data-name="Trazado 193507" d="M151.75,183.91a2.8,2.8,0,0,1,2.8-2.8,2.8,2.8,0,0,1-2.8-2.9,2.844,2.844,0,0,1,2.866-2.7H161.4a2.8,2.8,0,0,1,2.8,2.8,1.571,1.571,0,0,1-.227.78,3.586,3.586,0,0,0-.108,3.49,2.789,2.789,0,0,1,.336,1.331,1.571,1.571,0,0,1-.227.78,3.586,3.586,0,0,0-.108,3.491,2.805,2.805,0,0,1,.051,2.562,3.6,3.6,0,0,0,0,3.145,2.792,2.792,0,0,1,.279,1.326,2.844,2.844,0,0,1-2.866,2.7h-6.711a2.844,2.844,0,0,1-2.866-2.7,2.8,2.8,0,0,1,2.8-2.9,2.8,2.8,0,0,1,0-5.6A2.8,2.8,0,0,1,151.75,183.91Z" transform="translate(-146.809 -170.678)" fill="#ffb09e"/>
              <path id="Trazado_193508" data-name="Trazado 193508" d="M164.965,164.826v7.893a3.3,3.3,0,1,1-6.594,0v-8.068a4.667,4.667,0,0,1,4.667-4.667Z" transform="translate(-151.37 -159.984)" fill="#ffcebf"/>
              <path id="Trazado_193509" data-name="Trazado 193509" d="M239.87,188.767h-3.4a1.627,1.627,0,0,0-1.627,1.627v16.5a1.627,1.627,0,0,0,1.627,1.627h3.4a1.556,1.556,0,0,0,1.556-1.556V190.323A1.556,1.556,0,0,0,239.87,188.767Z" transform="translate(-204.046 -179.811)" fill="#6677d6"/>
              <path id="Trazado_193510" data-name="Trazado 193510" d="M138.671,217.109h6.846a2.8,2.8,0,0,0,0-5.6h-6.846a2.8,2.8,0,1,0,0,5.6Z" transform="translate(-135.871 -195.476)" fill="#ffcebf"/>
              <path id="Trazado_193511" data-name="Trazado 193511" d="M138.671,235.109h6.846a2.8,2.8,0,0,0,0-5.6h-6.846a2.8,2.8,0,1,0,0,5.6Z" transform="translate(-135.871 -207.875)" fill="#ffcebf"/>
              <g id="Grupo_134617" data-name="Grupo 134617" transform="translate(0.042 16.033)">
                <path id="Trazado_193512" data-name="Trazado 193512" d="M138.609,214.776a2.785,2.785,0,0,0,2.758-3.267h4.243a2.8,2.8,0,1,1,0,5.6h-6.846a2.8,2.8,0,0,1-2.758-2.334Z" transform="translate(-136.006 -211.508)" fill="#ffb09e"/>
                <path id="Trazado_193513" data-name="Trazado 193513" d="M138.609,232.776a2.785,2.785,0,0,0,2.758-3.267h4.243a2.8,2.8,0,1,1,0,5.6h-6.846a2.8,2.8,0,0,1-2.758-2.334Z" transform="translate(-136.006 -223.908)" fill="#ffb09e"/>
              </g>
            </g>
            <g id="Grupo_134620" data-name="Grupo 134620" transform="translate(11.572)">
              <g id="Grupo_134619" data-name="Grupo 134619">
                <circle id="Elipse_17677" data-name="Elipse 17677" cx="12.836" cy="12.836" r="12.836" fill="#c6412a"/>
              </g>
            </g>
          </g>
          <path id="Trazado_193514" data-name="Trazado 193514" d="M30.331,8.079a1.167,1.167,0,0,0-1.65,0l-4.273,4.273L20.134,8.079a1.167,1.167,0,0,0-1.65,1.65L22.757,14l-4.274,4.274a1.167,1.167,0,0,0,1.65,1.65l4.273-4.273,4.273,4.273a1.167,1.167,0,0,0,1.65-1.65L26.058,14l4.274-4.274A1.167,1.167,0,0,0,30.331,8.079ZM34.58,53.446H31.458a5.852,5.852,0,0,0-3.082-4.185V27.431a14,14,0,1,0-7.935,0V45.114a1.167,1.167,0,0,0,2.334,0V27.909a14.243,14.243,0,0,0,3.267,0V48.625c-.293-.021-6.018-.01-6.337-.01a6.341,6.341,0,0,0-4.513,1.869L7.125,58.55l-.025.027a2.789,2.789,0,0,0-2.144-1.006H1.167a1.167,1.167,0,1,0,0,2.334H4.956a.461.461,0,0,1,.461.461v16.5a.461.461,0,0,1-.461.461H1.167a1.167,1.167,0,1,0,0,2.334H4.956A2.8,2.8,0,0,0,7.547,77.9a3.48,3.48,0,0,0,1.37.279H34.579a3.965,3.965,0,0,0,2.807-6.768,3.96,3.96,0,0,0,0-5.6,3.965,3.965,0,0,0,0-5.6,3.968,3.968,0,0,0-2.809-6.77ZM24.408,25.671A11.669,11.669,0,1,1,36.076,14,11.682,11.682,0,0,1,24.408,25.671Zm.544,36.846v-5.25a1.167,1.167,0,1,0-2.334,0v5.25a4.463,4.463,0,0,0,1.961,3.694,3.958,3.958,0,0,0,.347,5.2,3.958,3.958,0,0,0-.807,4.434H8.917A1.168,1.168,0,0,1,7.75,74.682V62.676A3.477,3.477,0,0,1,8.776,60.2l8.066-8.066A4.022,4.022,0,0,1,19.7,50.948h6.006a3.488,3.488,0,0,1,1.14.192l.013,0a3.506,3.506,0,0,1,2.347,3.3v8.069a2.13,2.13,0,1,1-4.26,0Zm9.627,13.332H27.734a1.634,1.634,0,1,1,0-3.267h6.846a1.634,1.634,0,0,1,0,3.267Zm0-5.6H27.734a1.634,1.634,0,1,1,0-3.267h6.851a1.634,1.634,0,0,1-.005,3.267Zm1.157-6.08a1.628,1.628,0,0,1-1.152.479H31a6.511,6.511,0,0,0,.542-3.267H34.58a1.634,1.634,0,0,1,1.157,2.788Zm0-5.6a1.629,1.629,0,0,1-1.157.479H31.545V55.779H34.58a1.634,1.634,0,0,1,1.157,2.788Zm26.2-48.222a1.167,1.167,0,0,0-1.65,0l-7.141,7.141a.119.119,0,0,1-.167,0l-2.771-2.771a1.167,1.167,0,1,0-1.65,1.65l2.771,2.771a2.455,2.455,0,0,0,3.468,0L61.941,12A1.167,1.167,0,0,0,61.941,10.345ZM78.491,77.324H74.7a.461.461,0,0,1-.461-.461v-16.5A.461.461,0,0,1,74.7,59.9h3.789a1.167,1.167,0,1,0,0-2.334H74.7a2.789,2.789,0,0,0-2.144,1.006l-.025-.026-8.066-8.066a6.341,6.341,0,0,0-4.513-1.869c-.392,0-5.991-.01-6.337.01V27.909a14.235,14.235,0,0,0,3.267,0V45.114a1.167,1.167,0,1,0,2.334,0V27.432a14,14,0,1,0-7.935,0V49.261A5.852,5.852,0,0,0,48.2,53.446H45.078a3.968,3.968,0,0,0-2.809,6.769,3.964,3.964,0,0,0,0,5.6,3.96,3.96,0,0,0,0,5.6,3.965,3.965,0,0,0,2.807,6.768H70.741a3.483,3.483,0,0,0,1.37-.279A2.8,2.8,0,0,0,74.7,79.658h3.789a1.167,1.167,0,1,0,0-2.334ZM43.582,14A11.669,11.669,0,1,1,55.251,25.671,11.682,11.682,0,0,1,43.582,14Zm1.5,41.777h3.034v3.267H45.078a1.634,1.634,0,0,1,0-3.267Zm0,5.6h3.034a6.14,6.14,0,0,0,.542,3.267H45.073a1.634,1.634,0,0,1,0-3.267Zm6.846,14.469H45.079a1.634,1.634,0,1,1,0-3.267h6.846a1.634,1.634,0,0,1,0,3.267Zm0-5.6H45.079a1.633,1.633,0,0,1-.005-3.267h6.851a1.634,1.634,0,1,1,0,3.267Zm19.984,4.434a1.168,1.168,0,0,1-1.167,1.167h-15.2a3.958,3.958,0,0,0-.807-4.434,3.958,3.958,0,0,0,.347-5.2,4.462,4.462,0,0,0,1.961-3.694v-5.25a1.167,1.167,0,1,0-2.334,0v5.25a2.13,2.13,0,1,1-4.26,0V54.449a3.506,3.506,0,0,1,2.347-3.3l.013,0a3.482,3.482,0,0,1,1.14-.192h6.006a4.022,4.022,0,0,1,2.863,1.186L70.883,60.2a3.478,3.478,0,0,1,1.025,2.475V74.682Z" transform="translate(0 0)"/>
        </g>
      </g>
    </g>
  </g>
</svg>
