<svg xmlns="http://www.w3.org/2000/svg" width="400" height="230" viewBox="0 0 400 230">
  <g id="Grupo_134912" data-name="Grupo 134912" transform="translate(13194.551 -1850.799)">
    <rect id="Rect치ngulo_44145" data-name="Rect치ngulo 44145" width="400" height="230" rx="21" transform="translate(-13194.551 1850.799)" fill="#4e2e8e"/>
    <g id="Uni칩n_1" data-name="Uni칩n 1" transform="translate(-3985.412 2240.743) rotate(180)" fill="#fff">
      <path d="M 8967.2099609375 319.5523376464844 L 8887.9423828125 275.2971496582031 L 8965.6181640625 228.3051147460938 L 8966.1162109375 256.8831787109375 L 8966.1337890625 257.8657531738281 L 8967.1162109375 257.8657531738281 L 9121.2216796875 257.8657531738281 L 9121.2216796875 291.8661804199219 L 8967.7451171875 291.8661804199219 L 8966.7275390625 291.8661804199219 L 8966.7451171875 292.8836364746094 L 8967.2099609375 319.5523376464844 Z" stroke="none"/>
      <path d="M 8966.1796875 317.8319091796875 L 8965.7099609375 290.8661804199219 L 9120.2216796875 290.8661804199219 L 9120.2216796875 258.8657531738281 L 8965.150390625 258.8657531738281 L 8964.6484375 230.0604553222656 L 8889.931640625 275.262451171875 L 8966.1796875 317.8319091796875 M 8968.240234375 321.2727661132812 L 8885.953125 275.3318481445312 L 8966.587890625 226.5498199462891 L 8967.1162109375 256.8657531738281 L 9122.2216796875 256.8657531738281 L 9122.2216796875 292.8661804199219 L 8967.7451171875 292.8661804199219 L 8968.240234375 321.2727661132812 Z" stroke="none" fill="#ffef0f"/>
    </g>
  </g>
</svg>
