<svg xmlns="http://www.w3.org/2000/svg" width="104.392" height="104.392" viewBox="0 0 104.392 104.392">
  <g id="Grupo_134929" data-name="Grupo 134929" transform="translate(6445.334 5381.716)">
    <g id="Grupo_134827" data-name="Grupo 134827" transform="translate(522 -371.087)">
      <g id="Elipse_16909" data-name="Elipse 16909" transform="translate(-6967.334 -5010.628)" fill="#fff" stroke="#6677d6" stroke-width="4">
        <circle cx="52.196" cy="52.196" r="52.196" stroke="none"/>
        <circle cx="52.196" cy="52.196" r="50.196" fill="none"/>
      </g>
      <g id="alerta" transform="translate(-6948.811 -4999.504)">
        <g id="Grupo_134590" data-name="Grupo 134590" transform="translate(0 9.738)">
          <g id="Grupo_134589" data-name="Grupo 134589" transform="translate(0.985 0.982)">
            <g id="Grupo_134588" data-name="Grupo 134588">
              <g id="Grupo_134587" data-name="Grupo 134587">
                <g id="Grupo_134585" data-name="Grupo 134585">
                  <path id="Trazado_193445" data-name="Trazado 193445" d="M2.958,61.085,30.582,14.4a4.877,4.877,0,0,1,8.412,0L66.619,61.085a4.941,4.941,0,0,1-4.206,7.473H7.164a4.941,4.941,0,0,1-4.206-7.473Z" transform="translate(-2.258 -11.988)" fill="#ffef0f"/>
                  <g id="Grupo_134584" data-name="Grupo 134584" transform="translate(3.915 3.919)">
                    <path id="Trazado_193446" data-name="Trazado 193446" d="M54.936,87.913H92.1a4.941,4.941,0,0,0,4.206-7.473L76.127,46.328A34.919,34.919,0,0,1,76.893,57.8C74.911,77.716,56.776,87,55.6,87.576c-.226.117-.447.228-.665.336Z" transform="translate(-35.864 -35.262)" fill="#ffef0f"/>
                    <path id="Trazado_193447" data-name="Trazado 193447" d="M12.22,69.7a.982.982,0,0,1-.826-1.546L39.018,21.467a.934.934,0,0,1,1.653,0L68.3,68.155a.98.98,0,0,1-.826,1.546Z" transform="translate(-11.23 -20.968)" fill="#fff"/>
                    <path id="Trazado_193448" data-name="Trazado 193448" d="M85.19,67.565c-.026.725-.074,1.462-.148,2.21C83.724,83.019,75.26,91.559,69.394,95.965h30.859a.98.98,0,0,0,.826-1.546Z" transform="translate(-44.013 -47.232)" fill="#fff"/>
                  </g>
                </g>
                <g id="Grupo_134586" data-name="Grupo 134586" transform="translate(29.893 18.055)">
                  <path id="Trazado_193449" data-name="Trazado 193449" d="M73.4,73.625a1.342,1.342,0,0,1-1.338-1.235L70.772,56.211a2.637,2.637,0,1,1,5.257,0L74.739,72.39A1.342,1.342,0,0,1,73.4,73.625Z" transform="translate(-70.764 -53.364)" fill="#ffef0f"/>
                  <circle id="Elipse_17675" data-name="Elipse 17675" cx="2.108" cy="2.108" r="2.108" transform="translate(0.529 24.098)" fill="#ffef0f"/>
                </g>
              </g>
            </g>
          </g>
          <path id="Trazado_193450" data-name="Trazado 193450" d="M35.186,14.637l-.014-.023a1.913,1.913,0,0,0-3.311-.005l-.017.028L4.219,61.325l-.015.027a1.979,1.979,0,0,0,1.653,3H47.975a.982.982,0,0,0,0-1.964c-.019,0-42.071,0-42.088,0,.015-.043,27.6-46.665,27.628-46.717.03.06,27.615,46.651,27.628,46.717-.025.006-9.213,0-9.24,0a.982.982,0,1,0,0,1.964h9.271a1.979,1.979,0,0,0,1.652-3L35.186,14.637Zm.988,14.32A3.619,3.619,0,0,0,29.908,31.7l.5,6.32a.982.982,0,1,0,1.957-.156l-.5-6.32a1.655,1.655,0,1,1,3.3,0L33.875,47.722a.36.36,0,0,1-.718,0l-.513-6.435a.982.982,0,0,0-1.957.156l.513,6.435a2.324,2.324,0,0,0,4.633,0L37.123,31.7a3.629,3.629,0,0,0-.949-2.743Zm30.017,30.36L38.567,12.628a5.858,5.858,0,0,0-10.1,0L.84,59.316A5.89,5.89,0,0,0,.792,65.3a5.811,5.811,0,0,0,5.1,2.972H61.14a5.811,5.811,0,0,0,5.1-2.972A5.89,5.89,0,0,0,66.191,59.316Zm-1.658,5.009a3.868,3.868,0,0,1-3.393,1.981H5.891A3.868,3.868,0,0,1,2.5,64.326a3.948,3.948,0,0,1,.032-4.01L30.154,13.628a3.9,3.9,0,0,1,6.722,0L64.5,60.316a3.948,3.948,0,0,1,.032,4.01ZM33.516,51.891a3.09,3.09,0,1,0,3.09,3.09A3.093,3.093,0,0,0,33.516,51.891Zm0,4.216a1.126,1.126,0,1,1,1.126-1.126A1.127,1.127,0,0,1,33.516,56.107Z" transform="translate(0 -9.738)"/>
        </g>
      </g>
    </g>
  </g>
</svg>
