<svg xmlns="http://www.w3.org/2000/svg" width="133" height="133" viewBox="0 0 133 133">
  <g id="Grupo_134919" data-name="Grupo 134919" transform="translate(12856 -2842.977)">
    <g id="Grupo_134816" data-name="Grupo 134816" transform="translate(302 -1368)">
      <g id="Elipse_18472" data-name="Elipse 18472" transform="translate(-13158 4210.977)" fill="#fff" stroke="#c6412a" stroke-width="4">
        <circle cx="66.5" cy="66.5" r="66.5" stroke="none"/>
        <circle cx="66.5" cy="66.5" r="64.5" fill="none"/>
      </g>
      <g id="esquema" transform="translate(-13141.955 4227.021)">
        <g id="Grupo_134574" data-name="Grupo 134574" transform="translate(0)">
          <g id="Grupo_134572" data-name="Grupo 134572" transform="translate(1.478 1.478)">
            <path id="Trazado_193402" data-name="Trazado 193402" d="M116.029,16.5,75.4,16.769a.788.788,0,0,1-.788-.788L74.606,5.127a.788.788,0,0,1,.788-.788l2.126-.589h39.024a.788.788,0,0,1,.788.788V14l-.516,1.713A.788.788,0,0,1,116.029,16.5Z" transform="translate(-46.676 -3.75)" fill="#ffef0f"/>
            <path id="Trazado_193403" data-name="Trazado 193403" d="M116.36,14v2.759a.788.788,0,0,1-.788.788H73.788A.788.788,0,0,1,73,16.758V4.538a.788.788,0,0,1,.788-.788h2.759v9.46a.788.788,0,0,0,.788.788Z" transform="translate(-45.703 -3.75)" fill="#ffef0f"/>
            <path id="Trazado_193404" data-name="Trazado 193404" d="M122.408,77.411l-18.669.05a.788.788,0,0,1-.788-.788l-.067-8.873a.788.788,0,0,1,.788-.788l1.82-.761h17.344a.788.788,0,0,1,.788.788v7.687l-.428,1.9A.788.788,0,0,1,122.408,77.411Z" transform="translate(-63.807 -41.613)" fill="#6677d6"/>
            <path id="Trazado_193405" data-name="Trazado 193405" d="M122.18,74.725v2.562a.788.788,0,0,1-.788.788h-20.1a.788.788,0,0,1-.788-.788V67.038a.788.788,0,0,1,.788-.788h2.759v7.687a.788.788,0,0,0,.788.788Z" transform="translate(-62.363 -41.613)" fill="#6677d6"/>
            <path id="Trazado_193406" data-name="Trazado 193406" d="M119.056,218.126a3.932,3.932,0,0,1-.223,1.3,14.708,14.708,0,0,1-1.656,2.05c-3.01,2.824-9.386,4.231-16.845,4.231-10.341,0-18-2.951-18-7.578,0-1.893,3.049-5.042,3.049-5.042,3.418-2.025,8.844-3.335,14.953-3.335C110.673,209.75,119.056,213.5,119.056,218.126Z" transform="translate(-51.355 -128.548)" fill="#6677d6"/>
            <path id="Trazado_193407" data-name="Trazado 193407" d="M117.725,224.548c-1.393,4.011-9.145,7.08-18.5,7.08-10.341,0-18.724-3.751-18.724-8.376,0-1.894,1.4-3.638,3.77-5.042a3.953,3.953,0,0,0-.223,1.3c0,4.626,8.382,8.376,18.724,8.376,6.11,0,11.536-1.309,14.953-3.335Z" transform="translate(-50.246 -133.673)" fill="#6677d6"/>
            <ellipse id="Elipse_17672" data-name="Elipse 17672" cx="10.347" cy="6.898" rx="10.347" ry="6.898" transform="translate(77.26 23.651)" fill="#c6412a"/>
            <ellipse id="Elipse_17673" data-name="Elipse 17673" cx="10.347" cy="6.898" rx="10.347" ry="6.898" transform="translate(0 64.991)" fill="#a3ade6"/>
            <path id="Trazado_193408" data-name="Trazado 193408" d="M109.43,136.887l-25.456-.135a1.971,1.971,0,0,1-1.3-.488l-6.4-5.171a.591.591,0,0,1,0-.89l2.3-2.806,3.611-3.159a1.971,1.971,0,0,1,1.3-.488H109.6a1.971,1.971,0,0,1,1.3.488l6.818,5.966a.591.591,0,0,1,0,.89l-3.095,2.708-3.891,2.6A1.97,1.97,0,0,1,109.43,136.887Z" transform="translate(-47.564 -76.448)" fill="#fbd894"/>
            <path id="Trazado_193409" data-name="Trazado 193409" d="M113.227,139.405l-3.723,3.258a1.981,1.981,0,0,1-1.3.487H82.1a1.981,1.981,0,0,1-1.3-.487L73.979,136.7a.591.591,0,0,1,0-.891L77.185,133l6.764,5.919a1.981,1.981,0,0,0,1.3.487Z" transform="translate(-46.173 -82.052)" fill="#fbd894"/>
          </g>
          <g id="Grupo_134573" data-name="Grupo 134573">
            <path id="Trazado_193410" data-name="Trazado 193410" d="M110.728,20.456h11.826a1.478,1.478,0,1,0,0-2.956H110.728a1.478,1.478,0,0,0,0,2.956Z" transform="translate(-66.185 -10.602)"/>
            <path id="Trazado_193411" data-name="Trazado 193411" d="M124.141,77.5h-5.913a1.478,1.478,0,0,0,0,2.956h5.913a1.478,1.478,0,1,0,0-2.956Z" transform="translate(-70.729 -46.951)"/>
            <path id="Trazado_193412" data-name="Trazado 193412" d="M122.554,137.5H110.728a1.478,1.478,0,0,0,0,2.956h11.826a1.478,1.478,0,0,0,0-2.956Z" transform="translate(-66.185 -83.3)"/>
            <path id="Trazado_193413" data-name="Trazado 193413" d="M110.728,230.206h11.826a1.478,1.478,0,1,0,0-2.956H110.728a1.478,1.478,0,0,0,0,2.956Z" transform="translate(-66.185 -137.672)"/>
            <path id="Trazado_193414" data-name="Trazado 193414" d="M100.911,32.027c0-4.342-4.439-7.811-10.347-8.312V10.347A3.453,3.453,0,0,0,87.115,6.9h-13.5V1.478A1.478,1.478,0,0,0,72.136,0H47.006a1.478,1.478,0,1,0,0,2.956H70.658V13.8h-40.4V2.956h9.855a1.478,1.478,0,1,0,0-2.956H28.775A1.478,1.478,0,0,0,27.3,1.478v13.8a1.478,1.478,0,0,0,1.478,1.478h20.1v7.884H39.616a1.478,1.478,0,0,0-1.478,1.478V37.94a1.478,1.478,0,0,0,1.478,1.478h9.263V47.3H37.4a3.447,3.447,0,0,0-2.271.853L28.22,54.2H13.8a3.453,3.453,0,0,0-3.449,3.449v7.406C4.439,65.556,0,69.026,0,73.368s4.439,7.811,10.347,8.312v7.406A3.453,3.453,0,0,0,13.8,92.535H30.462c.644,2.262,2.771,4.282,6.15,5.794a34.86,34.86,0,0,0,13.843,2.582A34.86,34.86,0,0,0,64.3,98.329c4.1-1.834,6.359-4.417,6.359-7.272S68.4,85.619,64.3,83.784a33.861,33.861,0,0,0-12.464-2.558V64.055H63.512a3.447,3.447,0,0,0,2.271-.853l6.908-6.045H87.115a3.453,3.453,0,0,0,3.449-3.449V40.339C96.472,39.839,100.911,36.369,100.911,32.027ZM41.094,27.593H59.817v8.869H41.094ZM2.956,73.368c0-2.938,4.061-5.42,8.869-5.42s8.869,2.482,8.869,5.42-4.061,5.42-8.869,5.42S2.956,76.305,2.956,73.368Zm45.922,7.864a40.531,40.531,0,0,0-5.24.521,1.478,1.478,0,0,0,.489,2.916,38.388,38.388,0,0,1,6.328-.51c10.163,0,17.246,3.635,17.246,6.9s-7.083,6.9-17.246,6.9-17.246-3.635-17.246-6.9c0-1.607,1.7-3.283,4.662-4.6a1.478,1.478,0,1,0-1.2-2.7c-3.416,1.515-5.563,3.545-6.211,5.821H13.8a.493.493,0,0,1-.493-.493V81.679c5.908-.5,10.347-3.97,10.347-8.312S19.212,65.557,13.3,65.056V57.649a.493.493,0,0,1,.493-.493H28.22L35.128,63.2a3.447,3.447,0,0,0,2.271.854H48.879ZM63.836,60.977a.493.493,0,0,1-.324.122H37.4a.493.493,0,0,1-.324-.122l-6.055-5.3,6.055-5.3a.493.493,0,0,1,.324-.122H63.512a.493.493,0,0,1,.324.122l6.055,5.3Zm25.25-23.529a11.545,11.545,0,0,1-6.918-2.073,1.478,1.478,0,0,0-1.8,2.344,14.018,14.018,0,0,0,7.241,2.618V53.708a.493.493,0,0,1-.493.493H72.691l-6.908-6.045a3.447,3.447,0,0,0-2.271-.854H51.835V39.418H61.3a1.478,1.478,0,0,0,1.478-1.478V26.115A1.478,1.478,0,0,0,61.3,24.637h-9.46V16.753h20.3a1.478,1.478,0,0,0,1.478-1.478V9.855h13.5a.493.493,0,0,1,.493.493V23.716c-4.783.42-8.777,2.853-9.978,6.2a1.478,1.478,0,0,0,2.783,1c.895-2.5,4.542-4.31,8.673-4.31,4.808,0,8.869,2.482,8.869,5.42s-4.061,5.42-8.869,5.42Z" transform="translate(0)"/>
            <path id="Trazado_193415" data-name="Trazado 193415" d="M222.141,77.5h-5.913a1.478,1.478,0,0,0,0,2.956h5.913a1.478,1.478,0,0,0,0-2.956Z" transform="translate(-130.099 -46.951)"/>
            <path id="Trazado_193416" data-name="Trazado 193416" d="M27.619,183.853a1.478,1.478,0,0,0-1.478-1.478H20.228a1.478,1.478,0,0,0,0,2.956h5.913A1.478,1.478,0,0,0,27.619,183.853Z" transform="translate(-11.359 -110.486)"/>
            <path id="Trazado_193417" data-name="Trazado 193417" d="M45.978,114.011h1.577v1.577a1.478,1.478,0,1,0,2.956,0v-1.577h1.577a1.478,1.478,0,1,0,0-2.956H50.511v-1.577a1.478,1.478,0,1,0-2.956,0v1.577H45.978a1.478,1.478,0,1,0,0,2.956Z" transform="translate(-26.959 -65.428)"/>
            <path id="Trazado_193418" data-name="Trazado 193418" d="M186.75,117.228a1.478,1.478,0,0,0,1.478,1.478h6.11a1.478,1.478,0,1,0,0-2.956h-6.11A1.478,1.478,0,0,0,186.75,117.228Z" transform="translate(-113.136 -70.123)"/>
          </g>
        </g>
      </g>
    </g>
  </g>
</svg>
