<svg xmlns="http://www.w3.org/2000/svg" width="133" height="133" viewBox="0 0 133 133">
  <g id="Grupo_134823" data-name="Grupo 134823" transform="translate(7387.334 5863)">
    <g id="Elipse_16904" data-name="Elipse 16904" transform="translate(-7387.334 -5863)" fill="#fff" stroke="#6677d6" stroke-width="4">
      <circle cx="66.5" cy="66.5" r="66.5" stroke="none"/>
      <circle cx="66.5" cy="66.5" r="64.5" fill="none"/>
    </g>
    <g id="objetivo" transform="translate(-7357.459 -5840.697)">
      <g id="Grupo_116450" data-name="Grupo 116450" transform="translate(0.093 0)">
        <g id="Grupo_116433" data-name="Grupo 116433" transform="translate(61.037 1.204)">
          <path id="Trazado_178344" data-name="Trazado 178344" d="M126.728,9.625l-1.45-5.565a2.414,2.414,0,0,0-4.043-1.1l-6.219,6.219a2.414,2.414,0,0,0-.62,2.35l2.258,8.169Z" transform="translate(-114.308 -2.254)" fill="#6677d6"/>
        </g>
        <g id="Grupo_116434" data-name="Grupo 116434" transform="translate(63.382 8.576)">
          <path id="Trazado_178345" data-name="Trazado 178345" d="M128.771,16.048l5.565,1.45a2.414,2.414,0,0,1,1.1,4.043l-6.219,6.219a2.414,2.414,0,0,1-2.35.62L118.7,26.122Z" transform="translate(-118.697 -16.048)" fill="#6677d6"/>
        </g>
        <g id="Grupo_116435" data-name="Grupo 116435" transform="translate(68.368 9.471)">
          <path id="Trazado_178346" data-name="Trazado 178346" d="M139.777,22.32l-6.219,6.219a2.413,2.413,0,0,1-2.35.62l-3.182-.879a2.514,2.514,0,0,0,1.858-.734l6.475-6.474a2.515,2.515,0,0,0,.186-3.351l2.134.556a2.413,2.413,0,0,1,1.1,4.042Z" transform="translate(-128.025 -17.722)" fill="#4e2e8e"/>
        </g>
        <g id="Grupo_116436" data-name="Grupo 116436" transform="translate(1.202 11.972)" opacity="0.68">
          <path id="Trazado_178356" data-name="Trazado 178356" d="M34.478,0A34.478,34.478,0,1,1,0,34.478,34.478,34.478,0,0,1,34.478,0Z" fill="#c6412a"/>
        </g>
        <g id="Grupo_116437" data-name="Grupo 116437" transform="translate(13.934 17.846)">
          <path id="Trazado_178347" data-name="Trazado 178347" d="M82.393,62A34.478,34.478,0,0,1,26.166,88.753a34.48,34.48,0,0,0,41-55.359A34.446,34.446,0,0,1,82.393,62Z" transform="translate(-26.166 -33.394)" fill="#c6412a"/>
        </g>
        <g id="Grupo_116438" data-name="Grupo 116438" transform="translate(10.389 21.159)">
          <circle id="Elipse_16002" data-name="Elipse 16002" cx="25.292" cy="25.292" r="25.292" fill="#f9f7f8"/>
        </g>
        <g id="Grupo_116439" data-name="Grupo 116439" transform="translate(20.116 24.752)">
          <path id="Trazado_178348" data-name="Trazado 178348" d="M78.592,68.016A25.293,25.293,0,0,1,37.734,87.952,25.295,25.295,0,0,0,66.3,46.318a25.283,25.283,0,0,1,12.289,21.7Z" transform="translate(-37.734 -46.318)" fill="#efedef"/>
        </g>
        <g id="Grupo_116440" data-name="Grupo 116440" transform="translate(19.622 30.392)" opacity="0.68">
          <circle id="Elipse_16003" data-name="Elipse 16003" cx="16.059" cy="16.059" r="16.059" fill="#c6412a"/>
        </g>
        <g id="Grupo_116441" data-name="Grupo 116441" transform="translate(25.273 32.219)">
          <path id="Trazado_178349" data-name="Trazado 178349" d="M73.851,74.521A16.058,16.058,0,0,1,47.385,86.75a16.06,16.06,0,0,0,17.85-26.461,16.05,16.05,0,0,1,8.616,14.232Z" transform="translate(-47.385 -60.289)" fill="#c6412a"/>
        </g>
        <g id="Grupo_116442" data-name="Grupo 116442" transform="translate(28.39 39.16)">
          <circle id="Elipse_16004" data-name="Elipse 16004" cx="7.291" cy="7.291" r="7.291" fill="#f9f7f8"/>
        </g>
        <g id="Grupo_116443" data-name="Grupo 116443" transform="translate(29.975 39.85)">
          <path id="Trazado_178350" data-name="Trazado 178350" d="M69.18,81.169a7.29,7.29,0,0,1-13,4.539,7.29,7.29,0,0,0,8.8-11.139,7.289,7.289,0,0,1,4.194,6.6Z" transform="translate(-56.184 -74.569)" fill="#efedef"/>
        </g>
        <g id="Grupo_116444" data-name="Grupo 116444" transform="translate(1.202 58.34)">
          <circle id="Elipse_16005" data-name="Elipse 16005" cx="11.294" cy="11.294" r="11.294" fill="#6677d6"/>
        </g>
        <g id="Grupo_116445" data-name="Grupo 116445" transform="translate(5.288 59.335)">
          <path id="Trazado_178351" data-name="Trazado 178351" d="M28.492,121.33a11.3,11.3,0,0,1-18.5,8.7,11.3,11.3,0,0,0,11.854-18.995,11.3,11.3,0,0,1,6.65,10.3Z" transform="translate(-9.987 -111.031)" fill="#4e2e8e"/>
        </g>
        <g id="Grupo_116449" data-name="Grupo 116449">
          <g id="Grupo_116446" data-name="Grupo 116446" transform="translate(5.95 64.481)">
            <path id="Trazado_178352" data-name="Trazado 178352" d="M23.62,121.238a2.178,2.178,0,0,0-3.078.124l-3.753,4.068a.408.408,0,0,1-.6,0l-1.174-1.272a2.184,2.184,0,0,0-3.217,2.954l2.749,3.009a2.6,2.6,0,0,0,3.835.009l5.363-5.813a2.179,2.179,0,0,0-.124-3.078Z" transform="translate(-11.226 -120.661)" fill="#ffef0f"/>
          </g>
          <g id="Grupo_116447" data-name="Grupo 116447" transform="translate(9.097 64.482)">
            <path id="Trazado_178353" data-name="Trazado 178353" d="M26.486,124.317l-5.363,5.813a2.6,2.6,0,0,1-3.835-.01l-.173-.189a2.59,2.59,0,0,0,1.9-.838l5.363-5.813a2.176,2.176,0,0,0,.263-2.6,2.178,2.178,0,0,1,1.845,3.641Z" transform="translate(-17.115 -120.662)" fill="#ffef0f"/>
          </g>
          <g id="Grupo_116448" data-name="Grupo 116448">
            <path id="Trazado_178354" data-name="Trazado 178354" d="M82,11.415a3.578,3.578,0,0,0-2.578-2.552L74.535,7.59,73.262,2.708a3.617,3.617,0,0,0-6.057-1.645L60.987,7.281a3.622,3.622,0,0,0-.929,3.521l2.066,7.476-2.05,2.05a35.748,35.748,0,0,0-8.243-5.749,1.2,1.2,0,0,0-1.084,2.147,33.343,33.343,0,0,1,7.626,5.3l-4.807,4.807A26.486,26.486,0,0,0,11.553,57.184,12.426,12.426,0,0,0,5.2,59.568a33.293,33.293,0,0,1,40.474-44.9,1.2,1.2,0,1,0,.714-2.3A35.711,35.711,0,0,0,3.3,61.282,12.5,12.5,0,0,0,.753,73.651a1.2,1.2,0,1,0,2.277-.772,10.1,10.1,0,1,1,2.737,4.193,1.2,1.2,0,0,0-1.626,1.772,12.483,12.483,0,0,0,16.8.078,35.68,35.68,0,0,0,40.837-56.9l2.034-2.034,7.511,2.076a3.621,3.621,0,0,0,3.521-.929l6.219-6.219a3.577,3.577,0,0,0,.933-3.5ZM14.244,57.251a24.079,24.079,0,0,1,37.62-28.712l-4.835,4.835a17.291,17.291,0,1,0,1.709,1.693l4.834-4.834a24.079,24.079,0,0,1-28.6,37.745,12.519,12.519,0,0,0-10.73-10.728Zm20.471-9.862a1.2,1.2,0,0,0,1.7,0l4.379-4.379a6.1,6.1,0,1,1-1.725-1.676l-4.354,4.354a1.2,1.2,0,0,0,0,1.7ZM40.8,39.607a8.511,8.511,0,1,0,1.717,1.684l4.52-4.52a14.881,14.881,0,1,1-1.711-1.69ZM63.971,28.773A33.273,33.273,0,0,1,22.658,77.028a12.427,12.427,0,0,0,2.383-6.359A26.482,26.482,0,0,0,55.272,28.532l4.806-4.806A33.45,33.45,0,0,1,63.971,28.773ZM62.377,10.161a1.213,1.213,0,0,1,.311-1.179l6.218-6.219a1.165,1.165,0,0,1,.844-.356,1.277,1.277,0,0,1,.331.044,1.189,1.189,0,0,1,.855.864l1.277,4.9-3.1,3.1a1.2,1.2,0,0,0-.141.119l-4.89,4.89Zm16.986,3.058-6.219,6.219a1.213,1.213,0,0,1-1.179.311l-6.179-1.708,8.128-8.128,4.9,1.277a1.212,1.212,0,0,1,.551,2.03Z" transform="translate(-0.093 0)"/>
            <path id="Trazado_178355" data-name="Trazado 178355" d="M12.613,129.885a3.815,3.815,0,0,0,2.8,1.239h.009a3.815,3.815,0,0,0,2.8-1.225l5.363-5.813a3.381,3.381,0,0,0-4.97-4.585l-3.169,3.435-.59-.64a3.386,3.386,0,0,0-4.989,4.58Zm-.914-6.014a.982.982,0,0,1,1.387.056L14.26,125.2a1.611,1.611,0,0,0,2.368,0l3.752-4.068a.976.976,0,1,1,1.435,1.324l-5.363,5.813a1.385,1.385,0,0,1-1.029.451h0a1.385,1.385,0,0,1-1.031-.456l-2.749-3.009a.984.984,0,0,1,.059-1.383Z" transform="translate(-4.231 -55.133)"/>
          </g>
        </g>
      </g>
    </g>
  </g>
</svg>
