<svg xmlns="http://www.w3.org/2000/svg" width="133" height="133" viewBox="0 0 133 133">
  <g id="Grupo_134932" data-name="Grupo 134932" transform="translate(6577.334 4973.086)">
    <g id="Grupo_134829" data-name="Grupo 134829" transform="translate(112 -459.086)">
      <g id="Elipse_16913" data-name="Elipse 16913" transform="translate(-6689.334 -4514)" fill="#fff" stroke="#6677d6" stroke-width="4">
        <circle cx="66.5" cy="66.5" r="66.5" stroke="none"/>
        <circle cx="66.5" cy="66.5" r="64.5" fill="none"/>
      </g>
      <g id="trabajo-en-equipo" transform="translate(-6668.133 -4492.505)">
        <g id="Grupo_134632" data-name="Grupo 134632" transform="translate(0.091 0)">
          <circle id="Elipse_17679" data-name="Elipse 17679" cx="19.117" cy="19.117" r="19.117" transform="translate(25.772 25.897)" fill="#ffef0f"/>
          <path id="Trazado_193538" data-name="Trazado 193538" d="M32.382,115.084a15.02,15.02,0,1,1-15.02-15.02,14.963,14.963,0,0,1,15.02,15.02Z" transform="translate(-1.022 -41.414)" fill="#eaf6ff"/>
          <path id="Trazado_193539" data-name="Trazado 193539" d="M31.053,134.743v3.441a15.014,15.014,0,0,1-21,0v-3.441a2.411,2.411,0,0,1,1.63-2.284l7.332-2.522h3.077l7.331,2.522A2.41,2.41,0,0,1,31.053,134.743Z" transform="translate(-4.213 -53.778)" fill="#ffef0f"/>
          <path id="Trazado_193540" data-name="Trazado 193540" d="M15.327,138.184a14.951,14.951,0,0,0,7.863,4.051,15.029,15.029,0,0,1-13.139-4.051v-3.441a2.411,2.411,0,0,1,1.63-2.284l7.332-2.522h3.077l1.1.378-6.233,2.143a2.411,2.411,0,0,0-1.63,2.284Z" transform="translate(-4.213 -53.778)" fill="#ffef0f"/>
          <path id="Trazado_193541" data-name="Trazado 193541" d="M130.014,115.084a15.02,15.02,0,1,1-15.02-15.02,14.963,14.963,0,0,1,15.02,15.02Z" transform="translate(-41.43 -41.414)" fill="#eaf6ff"/>
          <path id="Trazado_193542" data-name="Trazado 193542" d="M128.685,134.743v3.441a15.014,15.014,0,0,1-21,0v-3.441a2.41,2.41,0,0,1,1.632-2.284l7.331-2.522h3.077l7.332,2.522A2.411,2.411,0,0,1,128.685,134.743Z" transform="translate(-44.621 -53.778)" fill="#a3ade6"/>
          <path id="Trazado_193543" data-name="Trazado 193543" d="M112.959,138.184a14.951,14.951,0,0,0,7.863,4.051,15.029,15.029,0,0,1-13.139-4.051v-3.441a2.41,2.41,0,0,1,1.632-2.284l7.331-2.522h3.077l1.1.378-6.232,2.143a2.41,2.41,0,0,0-1.632,2.284Z" transform="translate(-44.621 -53.778)" fill="#a3ade6"/>
          <path id="Trazado_193544" data-name="Trazado 193544" d="M130.014,17.272a14.966,14.966,0,0,1-4.519,10.737v0a15.018,15.018,0,0,1-21,0v0a15.019,15.019,0,1,1,25.521-10.737Z" transform="translate(-41.43 -0.932)" fill="#eaf6ff"/>
          <path id="Trazado_193545" data-name="Trazado 193545" d="M128.685,36.929v3.445a15.018,15.018,0,0,1-21,0V36.929a2.412,2.412,0,0,1,1.632-2.284l7.331-2.52h3.077l7.332,2.52A2.412,2.412,0,0,1,128.685,36.929Z" transform="translate(-44.621 -13.296)" fill="#c6412a"/>
          <path id="Trazado_193546" data-name="Trazado 193546" d="M112.959,40.374a14.961,14.961,0,0,0,7.863,4.05,15.033,15.033,0,0,1-13.139-4.05V36.929a2.412,2.412,0,0,1,1.632-2.284l7.331-2.52h3.077l1.1.378-6.232,2.142a2.412,2.412,0,0,0-1.632,2.284Z" transform="translate(-44.621 -13.296)" fill="#c6412a"/>
          <path id="Trazado_193547" data-name="Trazado 193547" d="M32.382,17.272a14.966,14.966,0,0,1-4.519,10.737v0a15.018,15.018,0,0,1-21,0v0A15.019,15.019,0,1,1,32.382,17.272Z" transform="translate(-1.022 -0.932)" fill="#eaf6ff"/>
          <path id="Trazado_193548" data-name="Trazado 193548" d="M31.053,36.929v3.445a15.018,15.018,0,0,1-21,0V36.929a2.412,2.412,0,0,1,1.63-2.284l7.332-2.52h3.077l7.331,2.52A2.412,2.412,0,0,1,31.053,36.929Z" transform="translate(-4.213 -13.296)" fill="#6677d6"/>
          <path id="Trazado_193549" data-name="Trazado 193549" d="M15.327,40.374a14.961,14.961,0,0,0,7.863,4.05,15.033,15.033,0,0,1-13.139-4.05V36.929a2.412,2.412,0,0,1,1.63-2.284l7.332-2.52h3.077l1.1.378-6.233,2.142a2.412,2.412,0,0,0-1.63,2.284Z" transform="translate(-4.213 -13.296)" fill="#6677d6"/>
          <circle id="Elipse_17680" data-name="Elipse 17680" cx="14.065" cy="14.065" r="14.065" transform="translate(28.742 33.385) rotate(-9.208)" fill="#fbd94f"/>
          <path id="Trazado_193550" data-name="Trazado 193550" d="M71.773,65.183l2.146,4.348,4.8.7-3.472,3.385.82,4.779-4.292-2.256-4.292,2.256.82-4.779-3.472-3.385,4.8-.7Z" transform="translate(-26.884 -26.978)" fill="#ffef0f"/>
          <circle id="Elipse_17681" data-name="Elipse 17681" cx="5.427" cy="5.427" r="5.427" transform="translate(68.137 7.968)" fill="#ffeee6"/>
          <path id="Trazado_193551" data-name="Trazado 193551" d="M124.405,23.765a5.427,5.427,0,1,1,0-9.486,5.428,5.428,0,0,0,0,9.486Z" transform="translate(-48.204 -5.626)" fill="#ffdfcf"/>
          <circle id="Elipse_17682" data-name="Elipse 17682" cx="5.427" cy="5.427" r="5.427" transform="translate(10.912 7.968)" fill="#ffcebf"/>
          <path id="Trazado_193552" data-name="Trazado 193552" d="M26.772,23.765a5.427,5.427,0,1,1,0-9.486,5.426,5.426,0,0,0,0,9.486Z" transform="translate(-7.795 -5.626)" fill="#ffb09e"/>
          <circle id="Elipse_17683" data-name="Elipse 17683" cx="5.427" cy="5.427" r="5.427" transform="translate(68.137 65.3)" fill="#ffcebf"/>
          <path id="Trazado_193553" data-name="Trazado 193553" d="M124.405,121.58a5.427,5.427,0,1,1,0-9.486,5.428,5.428,0,0,0,0,9.486Z" transform="translate(-48.204 -46.11)" fill="#ffb09e"/>
          <circle id="Elipse_17684" data-name="Elipse 17684" cx="5.427" cy="5.427" r="5.427" transform="translate(10.912 65.3)" fill="#ffeee6"/>
          <path id="Trazado_193554" data-name="Trazado 193554" d="M26.772,121.58a5.427,5.427,0,1,1,0-9.486,5.426,5.426,0,0,0,0,9.486Z" transform="translate(-7.795 -46.11)" fill="#ffdfcf"/>
          <g id="Grupo_134631" data-name="Grupo 134631">
            <path id="Trazado_193555" data-name="Trazado 193555" d="M50.425,65.937a15.383,15.383,0,0,0,27.942,8.885A1.319,1.319,0,1,0,76.216,73.3,12.678,12.678,0,1,1,78.3,68.511a1.319,1.319,0,1,0,2.583.534,15.387,15.387,0,1,0-30.456-3.109Z" transform="translate(-20.923 -20.922)"/>
            <path id="Trazado_193556" data-name="Trazado 193556" d="M77.909,67.881l-4.112-.6-1.839-3.726c-.592-1.277-1.823-1.1-2.365,0l-1.839,3.726-4.112.6c-1.375.114-1.551,1.433-.731,2.249l2.976,2.9-.7,4.1q.093,1.885,1.913,1.39l3.678-1.934,3.678,1.934a1.339,1.339,0,0,0,1.913-1.39l-.7-4.1,2.976-2.9A1.229,1.229,0,0,0,77.909,67.881Zm-4.582,3.745a1.319,1.319,0,0,0-.379,1.167l.368,2.145-1.926-1.013a1.319,1.319,0,0,0-1.227,0l-1.927,1.013.368-2.145a1.319,1.319,0,0,0-.379-1.167l-1.559-1.519,2.154-.313a1.318,1.318,0,0,0,.993-.721l.963-1.952.963,1.952a1.318,1.318,0,0,0,.993.721l2.154.313Z" transform="translate(-25.886 -25.935)"/>
            <path id="Trazado_193557" data-name="Trazado 193557" d="M79.31,58.341a36.921,36.921,0,0,0-.006-26.67A16.535,16.535,0,0,0,89.994,16.339a16.339,16.339,0,0,0-31.67-5.65,36.918,36.918,0,0,0-26.578-.041A16.339,16.339,0,0,0,.091,16.339a16.534,16.534,0,0,0,10.58,15.29,36.913,36.913,0,0,0-.006,26.753A16.365,16.365,0,0,0,.091,73.67,16.548,16.548,0,0,0,16.43,90.009a16.526,16.526,0,0,0,15.309-10.63,36.917,36.917,0,0,0,26.59-.042,16.339,16.339,0,1,0,20.981-21ZM82.837,26.5a13.674,13.674,0,0,1-18.364,0V23.634a1.1,1.1,0,0,1,.74-1.037l7.123-2.449h2.637L82.1,22.6a1.094,1.094,0,0,1,.738,1.037V26.5ZM69.546,13.4A4.108,4.108,0,1,1,73.655,17.5,4.113,4.113,0,0,1,69.546,13.4ZM73.655,2.638a13.692,13.692,0,0,1,11.8,20.65,3.73,3.73,0,0,0-2.5-3.185l-4.829-1.66a6.746,6.746,0,1,0-8.94,0L64.358,20.1a3.73,3.73,0,0,0-2.505,3.186,13.692,13.692,0,0,1,11.8-20.65ZM4.628,23.287a13.7,13.7,0,1,1,25.5-6.948,13.614,13.614,0,0,1-1.9,6.948,3.729,3.729,0,0,0-2.5-3.185L20.9,18.442a6.746,6.746,0,1,0-8.94,0L7.133,20.1a3.73,3.73,0,0,0-2.505,3.186ZM20.538,13.4A4.108,4.108,0,1,1,16.43,9.287,4.113,4.113,0,0,1,20.538,13.4ZM7.248,26.5V23.634a1.1,1.1,0,0,1,.74-1.037l7.123-2.449h2.637L24.873,22.6a1.094,1.094,0,0,1,.738,1.037V26.5a13.674,13.674,0,0,1-18.364,0ZM25.612,83.83a13.674,13.674,0,0,1-18.364,0V80.965a1.1,1.1,0,0,1,.74-1.037l7.123-2.449h2.637l7.125,2.449a1.094,1.094,0,0,1,.738,1.037Zm-13.29-13.1a4.108,4.108,0,1,1,4.108,4.108A4.113,4.113,0,0,1,12.321,70.727Zm45.293,6.057a34.286,34.286,0,0,1-25.154.046A16.635,16.635,0,0,0,26.79,61.036a1.319,1.319,0,1,0-1.673,2.039,13.869,13.869,0,0,1,3.115,17.543,3.729,3.729,0,0,0-2.5-3.185L20.9,75.774a6.746,6.746,0,1,0-8.94,0L7.133,77.433a3.73,3.73,0,0,0-2.5,3.185,13.615,13.615,0,0,1-1.9-6.948A13.837,13.837,0,0,1,20.5,60.584a1.319,1.319,0,0,0,.785-2.518,16.7,16.7,0,0,0-8.076-.416,34.281,34.281,0,0,1,.007-25.29A16.5,16.5,0,0,0,32.465,13.2a34.283,34.283,0,0,1,25.147.045,16.5,16.5,0,0,0,19.139,19.14,34.289,34.289,0,0,1,.007,25.246c-11.131-2.149-21.3,8.021-19.143,19.156Zm6.858,7.047V80.965a1.1,1.1,0,0,1,.74-1.037l7.123-2.449h2.637L82.1,79.928a1.094,1.094,0,0,1,.738,1.037V83.83a13.674,13.674,0,0,1-18.364,0Zm9.182-9a4.108,4.108,0,1,1,4.108-4.108A4.113,4.113,0,0,1,73.655,74.835Zm11.8,5.783a3.729,3.729,0,0,0-2.5-3.185l-4.829-1.66a6.746,6.746,0,1,0-8.94,0l-4.827,1.659a3.73,3.73,0,0,0-2.505,3.186,13.7,13.7,0,1,1,23.6,0Z" transform="translate(-0.091 0)"/>
            <path id="Trazado_193558" data-name="Trazado 193558" d="M77.713,49.17a20.46,20.46,0,0,0-12.294-6.846,1.319,1.319,0,1,0-.408,2.606,17.8,17.8,0,1,1-5.353-.026,1.319,1.319,0,1,0-.381-2.61A20.452,20.452,0,1,0,77.713,49.17Z" transform="translate(-17.357 -17.499)"/>
          </g>
        </g>
      </g>
    </g>
  </g>
</svg>
