<svg xmlns="http://www.w3.org/2000/svg" width="226.284" height="185.611" viewBox="0 0 226.284 185.611">
  <g id="Grupo_134947" data-name="Grupo 134947" transform="translate(4932.13 869.945)">
    <g id="arbol-de-decision" transform="translate(-4932.13 -883.749)">
      <g id="Grupo_134635" data-name="Grupo 134635" transform="translate(0 13.804)">
        <g id="Grupo_134633" data-name="Grupo 134633" transform="translate(3.315 3.313)">
          <circle id="Elipse_17685" data-name="Elipse 17685" cx="25.414" cy="25.414" r="25.414" transform="translate(84.414 0.001)" fill="#a3ade6"/>
          <path id="Trazado_193559" data-name="Trazado 193559" d="M104.371,41.47A25.42,25.42,0,0,1,72.24,65.981a25.42,25.42,0,0,0,0-49.027A25.42,25.42,0,0,1,104.371,41.47Z" transform="translate(30.869 -16.053)" fill="#a3ade6"/>
          <circle id="Elipse_17686" data-name="Elipse 17686" cx="17.97" cy="17.97" r="17.97" transform="translate(27.808 86.105)" fill="#a3ade6"/>
          <path id="Trazado_193560" data-name="Trazado 193560" d="M53.333,92.472a17.98,17.98,0,0,1-24.317,16.817,17.977,17.977,0,0,0,0-33.633A17.98,17.98,0,0,1,53.333,92.472Z" transform="translate(10.416 11.605)" fill="#a3ade6"/>
          <circle id="Elipse_17687" data-name="Elipse 17687" cx="17.97" cy="17.97" r="17.97" transform="translate(155.906 86.105)" fill="#fff56f"/>
          <path id="Trazado_193561" data-name="Trazado 193561" d="M140.285,92.472a17.98,17.98,0,0,1-24.317,16.817,17.977,17.977,0,0,0,0-33.633,17.98,17.98,0,0,1,24.317,16.817Z" transform="translate(51.561 11.605)" fill="#ffef0f"/>
          <circle id="Elipse_17688" data-name="Elipse 17688" cx="13.904" cy="13.904" r="13.904" transform="translate(191.847 151.176)" fill="#a3ade6"/>
          <path id="Trazado_193562" data-name="Trazado 193562" d="M157.767,132.575a13.9,13.9,0,0,1-19.977,12.507,13.91,13.91,0,0,0,0-25.015,13.9,13.9,0,0,1,19.977,12.507Z" transform="translate(61.888 32.506)" fill="#a3ade6"/>
          <circle id="Elipse_17689" data-name="Elipse 17689" cx="13.904" cy="13.904" r="13.904" transform="translate(128.099 151.176)" fill="#fff56f"/>
          <path id="Trazado_193563" data-name="Trazado 193563" d="M114.495,132.575a13.9,13.9,0,0,1-19.977,12.507,13.91,13.91,0,0,0,0-25.015,13.9,13.9,0,0,1,19.977,12.507Z" transform="translate(41.411 32.506)" fill="#ffef0f"/>
          <circle id="Elipse_17690" data-name="Elipse 17690" cx="13.904" cy="13.904" r="13.904" transform="translate(63.748 151.176)" fill="#a3ade6"/>
          <path id="Trazado_193564" data-name="Trazado 193564" d="M70.816,132.575a13.907,13.907,0,0,1-19.981,12.507,13.907,13.907,0,0,0,0-25.015,13.907,13.907,0,0,1,19.981,12.507Z" transform="translate(20.74 32.506)" fill="#a3ade6"/>
          <circle id="Elipse_17691" data-name="Elipse 17691" cx="13.904" cy="13.904" r="13.904" transform="translate(0 151.176)" fill="#fff56f"/>
          <path id="Trazado_193565" data-name="Trazado 193565" d="M27.544,132.575A13.907,13.907,0,0,1,7.563,145.083a13.907,13.907,0,0,0,0-25.015,13.907,13.907,0,0,1,19.981,12.507Z" transform="translate(0.264 32.506)" fill="#ffef0f"/>
        </g>
        <g id="Grupo_134634" data-name="Grupo 134634">
          <path id="Trazado_193566" data-name="Trazado 193566" d="M113.142,71.26a28.549,28.549,0,0,0,15.438-4.519L145.892,88a3.314,3.314,0,1,0,5.14-4.185L133.717,62.552a28.728,28.728,0,1,0-41.152,0L59.791,102.8a21.145,21.145,0,0,0-10.7-2.9,21.4,21.4,0,0,0-5.034.6,3.315,3.315,0,0,0,1.563,6.442,14.658,14.658,0,1,1-11.184,14.243,14.52,14.52,0,0,1,1.429-6.322,3.315,3.315,0,1,0-5.978-2.864,21.282,21.282,0,0,0,6.535,26.278L22.1,165.689a17.26,17.26,0,1,0,5.872,3.077L42.3,141.357a21.882,21.882,0,0,0,13.592,0l14.32,27.409a17.177,17.177,0,1,0,5.871-3.077L61.762,138.284a21.251,21.251,0,0,0,3.168-31.293L97.7,66.74a28.548,28.548,0,0,0,15.439,4.52ZM17.219,192.786A10.589,10.589,0,1,1,27.808,182.2,10.6,10.6,0,0,1,17.219,192.786ZM91.556,182.2a10.589,10.589,0,1,1-10.589-10.589A10.6,10.6,0,0,1,91.556,182.2ZM113.142,20.433a22.065,22.065,0,0,1,17.3,8.378l-17.3,17.3-7.883-7.883a3.315,3.315,0,0,0-4.688,4.687L110.8,53.147a3.315,3.315,0,0,0,4.688,0L133.84,34.794a22.1,22.1,0,1,1-20.7-14.361Z" transform="translate(0 -13.804)"/>
          <path id="Trazado_193567" data-name="Trazado 193567" d="M167.919,138.791a17.155,17.155,0,0,0-4.885.71L148.715,112.1a21.274,21.274,0,0,0-23.369-35.48l-5.087-6.248a3.314,3.314,0,1,0-5.14,4.185l5.088,6.249a21.251,21.251,0,0,0,3.168,31.293L109.057,139.5a17.218,17.218,0,1,0-7.422,33.541,3.315,3.315,0,0,0,.97-6.558,10.586,10.586,0,1,1,10.623-4.983,3.315,3.315,0,1,0,5.665,3.444,17.206,17.206,0,0,0-3.964-22.367l14.32-27.409a21.2,21.2,0,0,0,13.593,0l14.32,27.409a17.206,17.206,0,1,0,10.757-3.788ZM121.39,95a14.655,14.655,0,1,1,14.655,14.655A14.672,14.672,0,0,1,121.39,95ZM167.919,166.6a10.589,10.589,0,1,1,10.589-10.589A10.6,10.6,0,0,1,167.919,166.6Z" transform="translate(41.146 12.384)"/>
        </g>
      </g>
    </g>
  </g>
</svg>
