<svg xmlns="http://www.w3.org/2000/svg" width="59.94" height="59.927" viewBox="0 0 59.94 59.927">
  <g id="Grupo_134962" data-name="Grupo 134962" transform="translate(-659.447 8707.025)">
    <g id="libro-abierto" transform="translate(659.447 -8707.053)">
      <g id="Grupo_134571" data-name="Grupo 134571" transform="translate(0 0.028)">
        <g id="Grupo_134570" data-name="Grupo 134570" transform="translate(0.878 0.865)">
          <g id="Grupo_134569" data-name="Grupo 134569" transform="translate(0 0)">
            <g id="Grupo_134566" data-name="Grupo 134566" transform="translate(0 19.14)">
              <path id="Trazado_193393" data-name="Trazado 193393" d="M60.763,85.467H4.921A1.171,1.171,0,0,0,3.75,86.638v36.7a1.171,1.171,0,0,0,1.171,1.171H30.6a2.809,2.809,0,0,1,4.477,0H60.763a1.171,1.171,0,0,0,1.171-1.171v-36.7A1.171,1.171,0,0,0,60.763,85.467Z" transform="translate(-3.75 -85.467)" fill="#6677d6"/>
            </g>
            <g id="Grupo_134567" data-name="Grupo 134567" transform="translate(52.33 19.14)">
              <path id="Trazado_193394" data-name="Trazado 193394" d="M231.933,85.467H227.25a1.171,1.171,0,0,1,1.171,1.171v36.7a1.171,1.171,0,0,1-1.171,1.171h4.683a1.171,1.171,0,0,0,1.171-1.171v-36.7A1.171,1.171,0,0,0,231.933,85.467Z" transform="translate(-227.25 -85.467)" fill="#4e2e8e"/>
            </g>
            <g id="Grupo_134568" data-name="Grupo 134568" transform="translate(3.822)">
              <path id="Trazado_193395" data-name="Trazado 193395" d="M20.074,108.972H70.613v29.9H20.074Z" transform="translate(-20.074 -84.329)" fill="#fff"/>
              <path id="Trazado_193396" data-name="Trazado 193396" d="M45.344,72.143v36.112s-9.524-7.881-25.27-2.341V72.143S32.772,66.174,45.344,72.143Z" transform="translate(-20.074 -54.091)" fill="#fff"/>
              <path id="Trazado_193397" data-name="Trazado 193397" d="M64.49,33.5S59.006,21.2,45.074,18.28V53.816C59.006,56.735,64.49,69.035,64.49,69.035Z" transform="translate(-39.221 -14.871)" fill="#dbdbdb"/>
              <path id="Trazado_193398" data-name="Trazado 193398" d="M83.638,22.349S84.006,6.64,70.074,3.722V39.258c13.932,2.919,13.564,18.628,13.564,18.628Z" transform="translate(-58.367 -3.722)" fill="#fff"/>
              <path id="Trazado_193399" data-name="Trazado 193399" d="M128,72.143v36.112s9.524-7.881,25.27-2.341V72.143s-12.7-5.969-25.27,0Z" transform="translate(-102.73 -54.091)" fill="#fff"/>
              <path id="Trazado_193400" data-name="Trazado 193400" d="M128.008,56.474s7.648-8.195,21.758-8.195V83.816c-14.11,0-21.758,8.195-21.758,8.195Z" transform="translate(-102.736 -37.847)" fill="#dbdbdb"/>
            </g>
          </g>
        </g>
        <path id="Trazado_193401" data-name="Trazado 193401" d="M57.891,19.154H56.118a1.076,1.076,0,0,0-.5-1,25.5,25.5,0,0,0-3.006-1.114V11.325a.878.878,0,0,0-.878-.878,34.046,34.046,0,0,0-16.6,4.209,29.265,29.265,0,0,0-4.373,2.963,25.239,25.239,0,0,0-1.526-6.632A16.773,16.773,0,0,0,16.587.033a.878.878,0,0,0-1.058.859V4.9a28.084,28.084,0,0,0-4.8-1.463A.878.878,0,0,0,9.676,4.3V16.394A30.009,30.009,0,0,0,4.327,18.15a1.077,1.077,0,0,0-.5,1H2.049A2.051,2.051,0,0,0,0,21.2V48.052a.878.878,0,0,0,1.756,0V21.2a.293.293,0,0,1,.293-.293H3.822V55.437a.878.878,0,0,0,.878.878H55.239a.878.878,0,0,0,.878-.878V20.911h1.773a.293.293,0,0,1,.293.293v36.7a.293.293,0,0,1-.293.293H32.609a3.719,3.719,0,0,0-5.279,0H2.049a.293.293,0,0,1-.293-.293V53.4A.878.878,0,0,0,0,53.4v4.507a2.051,2.051,0,0,0,2.049,2.049H27.731a.878.878,0,0,0,.7-.347,1.948,1.948,0,0,1,3.079,0,.878.878,0,0,0,.7.347H57.891a2.051,2.051,0,0,0,2.049-2.049V21.2A2.051,2.051,0,0,0,57.891,19.154Zm-7.04-6.94V21.2a.878.878,0,1,0,1.756,0V18.881c.771.254,1.368.485,1.754.642V51.5a31.2,31.2,0,0,0-15.742-1.065,32.474,32.474,0,0,1,13.11-2.691.878.878,0,0,0,.878-.878V26.589a.878.878,0,1,0-1.756,0V45.995a33.95,33.95,0,0,0-15.72,4.2A29.408,29.408,0,0,0,30.85,53.08v-33.2a30.559,30.559,0,0,1,20-7.67ZM17.285,2.006a14.857,14.857,0,0,1,10.289,9.558A23.29,23.29,0,0,1,29.093,19.5c0,.007,0,.013,0,.02V46.168A16.7,16.7,0,0,0,17.285,35.73Zm-1.756,4.8V36.429a.878.878,0,0,0,.7.859A14.9,14.9,0,0,1,27.574,47.1a22.63,22.63,0,0,1,1.142,4.1,31.978,31.978,0,0,0-2.578-3.25,28.823,28.823,0,0,0-14.705-8.819V5.405a26.17,26.17,0,0,1,4.1,1.4ZM5.578,19.523a31.051,31.051,0,0,1,4.1-1.32V39.838a.878.878,0,0,0,.7.859,27.006,27.006,0,0,1,14.419,8.387,30.064,30.064,0,0,1,2.691,3.433,24.905,24.905,0,0,0-4-1.551,30.413,30.413,0,0,0-17.909.53V19.523Zm0,33.822A28.883,28.883,0,0,1,22.9,52.626a22.623,22.623,0,0,1,4.686,1.934H5.578Zm26.765,1.215a22.592,22.592,0,0,1,4.6-1.908,28.845,28.845,0,0,1,17.414.693v1.215Z" transform="translate(0 -0.028)" fill="#060606"/>
      </g>
    </g>
  </g>
</svg>
