<svg xmlns="http://www.w3.org/2000/svg" width="106" height="106" viewBox="0 0 106 106">
  <g id="Grupo_134928" data-name="Grupo 134928" transform="translate(6990.334 5382.087)">
    <g id="Grupo_134826" data-name="Grupo 134826" transform="translate(522 -371.087)">
      <g id="Elipse_16910" data-name="Elipse 16910" transform="translate(-7512.334 -5011)" fill="#fff" stroke="#6677d6" stroke-width="4">
        <circle cx="53" cy="53" r="53" stroke="none"/>
        <circle cx="53" cy="53" r="51" fill="none"/>
      </g>
      <g id="incrementar" transform="translate(-7493.101 -4996.166)">
        <g id="Grupo_134606" data-name="Grupo 134606" transform="translate(0 6.621)">
          <g id="Grupo_134605" data-name="Grupo 134605" transform="translate(0.943 0.946)">
            <path id="Trazado_193471" data-name="Trazado 193471" d="M107.2,34.02h-4.978l-2.661,5.854-3.474,7.643-1.94,4.267a4.124,4.124,0,0,1-3.8,2.449c-1.531,0-9.368-.816-10.11-2.449l.28-4.267.152-2.323c-.477-1.05.737-3.781-.155-4.231l3.157-6.943H81.122A2.116,2.116,0,0,1,79.5,30.548l16.95-20.331a3.728,3.728,0,0,1,6.412,1.248l6.353,19.792A2.117,2.117,0,0,1,107.2,34.02Z" transform="translate(-46.785 -8.876)" fill="#4e2e8e"/>
            <path id="Trazado_193472" data-name="Trazado 193472" d="M97.78,100.937,95.84,105.2a4.124,4.124,0,0,1-3.8,2.449c-1.531,0-9.368-.816-10.11-2.449l.28-4.267Z" transform="translate(-48.481 -62.296)" fill="#4e2e8e"/>
            <path id="Trazado_193473" data-name="Trazado 193473" d="M101.494,9.577a3.778,3.778,0,0,0-.681.64L83.863,30.547a2.116,2.116,0,0,0,1.624,3.472h2.541L81.544,48.312c.892.45-1.68.02-1.037-7.35l3.157-6.943H81.123A2.116,2.116,0,0,1,79.5,30.547l16.95-20.331A3.729,3.729,0,0,1,101.494,9.577Z" transform="translate(-46.786 -8.875)" fill="#4e2e8e"/>
            <path id="Trazado_193474" data-name="Trazado 193474" d="M76.584,97.888H55.3l.337-.742L55.3,86.869c.822-1.813,7.519-2.734,9.219-2.761a4.781,4.781,0,0,1,2.236.51,4.625,4.625,0,0,1,2.133,2.251l3.895,8.57A4.123,4.123,0,0,0,76.584,97.888Z" transform="translate(-33.03 -52.53)" fill="#dbdbdb"/>
            <path id="Trazado_193475" data-name="Trazado 193475" d="M33.732,84.108a4.642,4.642,0,0,0-4.209,2.761L24.851,97.146l-4.546,10a4.014,4.014,0,0,1-3.652,2.352H5.088A2.838,2.838,0,0,1,2.5,105.485l8.462-18.617a4.651,4.651,0,0,1,4.37-2.761h18.4Z" transform="translate(-2.246 -52.53)" fill="#4e2e8e"/>
            <path id="Trazado_193476" data-name="Trazado 193476" d="M19.54,84.106a4.647,4.647,0,0,0-4.208,2.761L6.87,105.483A2.838,2.838,0,0,0,9.453,109.5H5.088A2.839,2.839,0,0,1,2.5,105.483l8.462-18.616a4.652,4.652,0,0,1,4.369-2.761Z" transform="translate(-2.246 -52.528)" fill="#4e2e8e"/>
          </g>
          <path id="Trazado_193477" data-name="Trazado 193477" d="M64.268,29.66,57.917,9.869A4.671,4.671,0,0,0,49.88,8.3L32.929,28.635a3.062,3.062,0,0,0,2.351,5.022h1.073l-2.177,4.791a5.757,5.757,0,0,0-1.764-.247H14.04A5.58,5.58,0,0,0,8.8,41.515l-1.686,3.71a.944.944,0,1,0,1.719.782l1.686-3.71a3.725,3.725,0,0,1,3.493-2.207H28.28a5.727,5.727,0,0,0-.92,1.425L18.141,61.793a3.074,3.074,0,0,1-2.792,1.8H3.784a1.894,1.894,0,0,1-1.723-2.678L7.317,49.349a.944.944,0,0,0-1.72-.781L.341,60.132A3.783,3.783,0,0,0,3.784,65.48H15.349a4.967,4.967,0,0,0,4.511-2.906l3.958-8.705H44.5a5.069,5.069,0,0,0,4.664-3l4.632-10.191a.944.944,0,1,0-1.72-.782L47.44,50.085l0,.006a3.234,3.234,0,0,1-5.886-.006l-3.895-8.57a5.622,5.622,0,0,0-1.79-2.225L38.68,33.1a.944.944,0,0,0-.86-1.335H35.28a1.173,1.173,0,0,1-.9-1.924L51.331,9.514a2.783,2.783,0,0,1,4.787.932l6.351,19.79a1.173,1.173,0,0,1-1.117,1.531H56.375a.944.944,0,0,0-.86.554l-1.879,4.134a.944.944,0,1,0,1.72.781l1.627-3.58h4.369a3.062,3.062,0,0,0,2.915-4ZM39.833,50.867a5.223,5.223,0,0,0,.688,1.114H24.677l4.4-9.684a3.681,3.681,0,0,1,3.363-2.206h.006a3.806,3.806,0,0,1,1.79.409,3.692,3.692,0,0,1,1.7,1.8Z" transform="translate(0 -6.621)"/>
        </g>
      </g>
    </g>
  </g>
</svg>
