<svg xmlns="http://www.w3.org/2000/svg" width="133" height="133" viewBox="0 0 133 133">
  <g id="Grupo_134916" data-name="Grupo 134916" transform="translate(13665 -2817.977)">
    <g id="Grupo_134813" data-name="Grupo 134813" transform="translate(180 -785)">
      <g id="Elipse_18469" data-name="Elipse 18469" transform="translate(-13845 3602.977)" fill="#fff" stroke="#c6412a" stroke-width="4">
        <circle cx="66.5" cy="66.5" r="66.5" stroke="none"/>
        <circle cx="66.5" cy="66.5" r="64.5" fill="none"/>
      </g>
      <g id="diagrama-de-flujo" transform="translate(-13814.5 3632.977)">
        <g id="Grupo_134742" data-name="Grupo 134742" transform="translate(0)">
          <g id="Grupo_134740" data-name="Grupo 134740" transform="translate(1.091 1.091)">
            <path id="Trazado_194058" data-name="Trazado 194058" d="M17.7,58.887l-6.956,7.786a.687.687,0,0,0,.512,1.145h2.34a.687.687,0,0,1,.687.687v2.507a.687.687,0,0,1-.687.687H2.937a.687.687,0,0,0-.687.687v30.542a.687.687,0,0,0,.687.687H33.479a.687.687,0,0,0,.687-.687V72.386a.687.687,0,0,0-.687-.687H22.825a.687.687,0,0,1-.687-.687V68.505a.687.687,0,0,1,.687-.687h2.34a.687.687,0,0,0,.512-1.145l-6.956-7.786a.688.688,0,0,0-1.025,0Z" transform="translate(-2.25 -31.299)" fill="#6677d6"/>
            <path id="Trazado_194059" data-name="Trazado 194059" d="M54.361,112.536l6.073,5.425V102.179L54.361,107.6a3.306,3.306,0,0,0,0,4.931Z" transform="translate(-28.518 -53.711)" fill="#6677d6"/>
            <path id="Trazado_194060" data-name="Trazado 194060" d="M58.887,102.017l7.786,6.956a.687.687,0,0,0,1.145-.512v-2.34a.687.687,0,0,1,.687-.687h2.507a.687.687,0,0,1,.687.687v10.654a.687.687,0,0,0,.687.687h30.542a.687.687,0,0,0,.687-.687V86.234a.687.687,0,0,0-.687-.687H72.386a.687.687,0,0,0-.687.687V96.888a.687.687,0,0,1-.687.687H68.505a.687.687,0,0,1-.687-.687v-2.34a.687.687,0,0,0-1.145-.512l-7.786,6.956a.688.688,0,0,0,0,1.025Z" transform="translate(-31.299 -45.146)" fill="#fff56f"/>
            <path id="Trazado_194061" data-name="Trazado 194061" d="M112.536,91.619l5.425-6.073H102.179L107.6,91.62a3.306,3.306,0,0,0,4.931,0Z" transform="translate(-53.711 -45.146)" fill="#fff56f"/>
            <path id="Trazado_194062" data-name="Trazado 194062" d="M102.017,46.979l6.956-7.786a.687.687,0,0,0-.512-1.145h-2.34a.687.687,0,0,1-.687-.687V34.854a.687.687,0,0,1,.687-.687h10.654a.687.687,0,0,0,.687-.687V2.938a.687.687,0,0,0-.687-.687H86.233a.687.687,0,0,0-.687.687V33.48a.687.687,0,0,0,.687.687H96.888a.687.687,0,0,1,.687.687v2.507a.687.687,0,0,1-.687.687h-2.34a.687.687,0,0,0-.512,1.145l6.956,7.786A.687.687,0,0,0,102.017,46.979Z" transform="translate(-45.145 -2.25)" fill="#a3ade6"/>
            <path id="Trazado_194063" data-name="Trazado 194063" d="M91.619,24.308l-6.073-5.425V34.664l6.073-5.426a3.306,3.306,0,0,0,0-4.931Z" transform="translate(-45.146 -10.815)" fill="#a3ade6"/>
            <path id="Trazado_194064" data-name="Trazado 194064" d="M46.979,17.7l-7.786-6.956a.687.687,0,0,0-1.145.512v2.34a.687.687,0,0,1-.687.687H34.854a.687.687,0,0,1-.687-.687V2.937a.687.687,0,0,0-.687-.687H2.937a.687.687,0,0,0-.687.687V33.479a.687.687,0,0,0,.687.687H13.829L17.7,29.839a.687.687,0,0,1,1.025,0l3.866,4.328H33.479a.687.687,0,0,0,.687-.687V22.825a.687.687,0,0,1,.687-.687H37.36a.687.687,0,0,1,.687.687v2.34a.687.687,0,0,0,1.145.512l7.786-6.956a.687.687,0,0,0,0-1.025Z" transform="translate(-2.25 -2.25)" fill="#ff546a"/>
            <path id="Trazado_194065" data-name="Trazado 194065" d="M22.394,60.434l3.866-4.328a.687.687,0,0,1,1.025,0l3.866,4.328h3.512l-5.426-6.073a3.306,3.306,0,0,0-4.931,0l-5.425,6.073Z" transform="translate(-10.815 -28.518)" fill="#ff3650"/>
          </g>
          <g id="Grupo_134741" data-name="Grupo 134741">
            <path id="Trazado_194066" data-name="Trazado 194066" d="M73.409,24.813A1.091,1.091,0,0,0,74.5,23.721V1.778A1.78,1.78,0,0,0,72.721,0H42.18A1.78,1.78,0,0,0,40.4,1.778v8.454l-1.64-1.465A1.778,1.778,0,0,0,35.8,10.093v1.936H34.1V1.778A1.78,1.78,0,0,0,32.32,0H11.268a1.091,1.091,0,1,0,0,2.183H31.916v10.25a1.78,1.78,0,0,0,1.778,1.778H36.2a1.78,1.78,0,0,0,1.779-1.778V11l6.775,6.053L37.98,23.1V21.666A1.781,1.781,0,0,0,36.2,19.888H33.695a1.78,1.78,0,0,0-1.778,1.779v10.25h-10l-3.541-3.963a1.778,1.778,0,0,0-2.652,0l-3.541,3.963h-10V2.183H7.049A1.091,1.091,0,1,0,7.049,0H1.779A1.78,1.78,0,0,0,0,1.778V32.32A1.781,1.781,0,0,0,1.779,34.1h8.454l-1.465,1.64A1.778,1.778,0,0,0,10.093,38.7h1.936v1.7H1.779A1.781,1.781,0,0,0,0,42.179V72.721A1.781,1.781,0,0,0,1.779,74.5H20.721a1.091,1.091,0,1,0,0-2.183H2.183V42.583h10.25a1.78,1.78,0,0,0,1.779-1.778V38.3a1.781,1.781,0,0,0-1.779-1.779H11l6.053-6.775L23.1,36.519H21.666A1.781,1.781,0,0,0,19.888,38.3v2.507a1.78,1.78,0,0,0,1.779,1.778h10.25v10l-3.963,3.541a1.778,1.778,0,0,0,0,2.652l3.963,3.541v10H24.94a1.091,1.091,0,1,0,0,2.183h7.38A1.781,1.781,0,0,0,34.1,72.721V64.268l1.64,1.465A1.778,1.778,0,0,0,38.7,64.407V62.471h1.7v10.25A1.781,1.781,0,0,0,42.18,74.5H72.722A1.78,1.78,0,0,0,74.5,72.721V42.179A1.78,1.78,0,0,0,72.722,40.4H64.268l1.465-1.64A1.778,1.778,0,0,0,64.407,35.8H62.471V34.1h10.25A1.78,1.78,0,0,0,74.5,32.32V27.941a1.091,1.091,0,1,0-2.183,0v3.975H62.067a1.78,1.78,0,0,0-1.778,1.779V36.2a1.78,1.78,0,0,0,1.778,1.778H63.5L57.45,44.755,51.4,37.98h1.437A1.78,1.78,0,0,0,54.612,36.2V33.694a1.781,1.781,0,0,0-1.779-1.779H42.584v-10l3.963-3.541a1.778,1.778,0,0,0,0-2.652l-3.963-3.541v-10H72.317V23.721a1.091,1.091,0,0,0,1.091,1.091ZM57.451,47.141a1.779,1.779,0,0,0,1.326-.594l3.541-3.963h10V72.317H42.584V62.067a1.78,1.78,0,0,0-1.779-1.778H38.3a1.78,1.78,0,0,0-1.778,1.778V63.5L29.744,57.45,36.52,51.4v1.437A1.78,1.78,0,0,0,38.3,54.612h2.507a1.781,1.781,0,0,0,1.779-1.779V42.583h10l3.541,3.963a1.781,1.781,0,0,0,1.326.594ZM42.18,34.1H52.43v1.7H50.494a1.779,1.779,0,0,0-1.326,2.964l1.465,1.64H42.18A1.781,1.781,0,0,0,40.4,42.18V52.43H38.7V50.494a1.778,1.778,0,0,0-2.963-1.326L34.1,50.633V42.18A1.781,1.781,0,0,0,32.32,40.4H22.07V38.7h1.936a1.778,1.778,0,0,0,1.326-2.963L23.867,34.1H32.32A1.781,1.781,0,0,0,34.1,32.32V22.07h1.7v1.936a1.779,1.779,0,0,0,2.963,1.326l1.64-1.465V32.32A1.781,1.781,0,0,0,42.18,34.1Z" transform="translate(0)"/>
            <path id="Trazado_194067" data-name="Trazado 194067" d="M21.575,18.815H33.621a1.091,1.091,0,0,0,0-2.183H21.575a1.091,1.091,0,1,0,0,2.183Z" transform="translate(-10.548 -8.565)"/>
            <path id="Trazado_194068" data-name="Trazado 194068" d="M21.575,29.088H33.621a1.091,1.091,0,0,0,0-2.183H21.575a1.091,1.091,0,1,0,0,2.183Z" transform="translate(-10.548 -13.856)"/>
            <path id="Trazado_194069" data-name="Trazado 194069" d="M21.575,39.36H33.621a1.091,1.091,0,0,0,0-2.183H21.575a1.091,1.091,0,1,0,0,2.183Z" transform="translate(-10.548 -19.146)"/>
            <path id="Trazado_194070" data-name="Trazado 194070" d="M116.918,16.632H104.872a1.091,1.091,0,0,0,0,2.183h12.046a1.091,1.091,0,1,0,0-2.183Z" transform="translate(-53.444 -8.565)"/>
            <path id="Trazado_194071" data-name="Trazado 194071" d="M116.918,26.905H104.872a1.091,1.091,0,0,0,0,2.183h12.046a1.091,1.091,0,1,0,0-2.183Z" transform="translate(-53.444 -13.856)"/>
            <path id="Trazado_194072" data-name="Trazado 194072" d="M116.918,37.178H104.872a1.091,1.091,0,0,0,0,2.183h12.046a1.091,1.091,0,1,0,0-2.183Z" transform="translate(-53.444 -19.146)"/>
            <path id="Trazado_194073" data-name="Trazado 194073" d="M21.575,108.108H33.621a1.091,1.091,0,1,0,0-2.183H21.575a1.091,1.091,0,1,0,0,2.183Z" transform="translate(-10.548 -54.549)"/>
            <path id="Trazado_194074" data-name="Trazado 194074" d="M21.575,118.381H33.621a1.091,1.091,0,0,0,0-2.183H21.575a1.091,1.091,0,0,0,0,2.183Z" transform="translate(-10.548 -59.839)"/>
            <path id="Trazado_194075" data-name="Trazado 194075" d="M33.621,126.471H21.575a1.091,1.091,0,0,0,0,2.183H33.621a1.091,1.091,0,0,0,0-2.183Z" transform="translate(-10.548 -65.129)"/>
            <path id="Trazado_194076" data-name="Trazado 194076" d="M103.78,107.017a1.091,1.091,0,0,0,1.091,1.091h12.046a1.091,1.091,0,1,0,0-2.183H104.872A1.091,1.091,0,0,0,103.78,107.017Z" transform="translate(-53.444 -54.549)"/>
            <path id="Trazado_194077" data-name="Trazado 194077" d="M116.918,116.2H104.872a1.091,1.091,0,0,0,0,2.183h12.046a1.091,1.091,0,0,0,0-2.183Z" transform="translate(-53.444 -59.839)"/>
            <path id="Trazado_194078" data-name="Trazado 194078" d="M116.918,126.471H104.872a1.091,1.091,0,0,0,0,2.183h12.046a1.091,1.091,0,0,0,0-2.183Z" transform="translate(-53.444 -65.129)"/>
          </g>
        </g>
      </g>
    </g>
  </g>
</svg>
