<svg xmlns="http://www.w3.org/2000/svg" width="133" height="133" viewBox="0 0 133 133">
  <g id="Grupo_134918" data-name="Grupo 134918" transform="translate(13122.5 -2842.977)">
    <g id="Grupo_134815" data-name="Grupo 134815" transform="translate(722.5 -1171)">
      <g id="Elipse_18470" data-name="Elipse 18470" transform="translate(-13845 4013.977)" fill="#fff" stroke="#c6412a" stroke-width="4">
        <circle cx="66.5" cy="66.5" r="66.5" stroke="none"/>
        <circle cx="66.5" cy="66.5" r="64.5" fill="none"/>
      </g>
      <g id="flujo-de-trabajo" transform="translate(-13832.343 4037.185)">
        <g id="Grupo_134747" data-name="Grupo 134747" transform="translate(15.343 0)">
          <g id="Grupo_134745" data-name="Grupo 134745" transform="translate(1.277 1.276)">
            <g id="Grupo_134744" data-name="Grupo 134744" transform="translate(4.199)">
              <g id="XMLID_222_" transform="translate(0 0)">
                <g id="Grupo_134743" data-name="Grupo 134743">
                  <path id="Trazado_194102" data-name="Trazado 194102" d="M86.758,2.249H25.717a.728.728,0,0,0-.727.727V80l7.576,6.365H81.119a6.451,6.451,0,0,0,6.365-6.491V2.976a.728.728,0,0,0-.727-.727Z" transform="translate(-24.99 -2.249)" fill="#f9f7f7"/>
                </g>
              </g>
              <path id="Trazado_194103" data-name="Trazado 194103" d="M83,82.344a3.91,3.91,0,0,1-4.219-.962,2.034,2.034,0,0,1-.616-1.226,3.752,3.752,0,0,0-3.755-3.566H41.3a6.958,6.958,0,0,1-6.958-6.958V2.249H25.717a.727.727,0,0,0-.727.727V80l7.576,6.365H81.119a6.451,6.451,0,0,0,6.365-6.491v-.378c-.655,1.24-2.854,2.249-4.486,2.851Z" transform="translate(-24.99 -2.249)" fill="#f2eae7"/>
              <path id="Trazado_194104" data-name="Trazado 194104" d="M84.768,25.957H36.495a1.344,1.344,0,0,1-1.344-1.344v-5.9a1.344,1.344,0,0,1,1.344-1.344H84.768a1.344,1.344,0,0,1,1.344,1.344v5.9a1.344,1.344,0,0,1-1.344,1.344Z" transform="translate(-29.384 -8.788)" fill="#6677d6"/>
              <path id="Trazado_194105" data-name="Trazado 194105" d="M38.734,17.373h-2.24a1.344,1.344,0,0,0-1.344,1.344v5.9a1.344,1.344,0,0,0,1.344,1.344h2.24Z" transform="translate(-29.384 -8.788)" fill="#6677d6"/>
              <path id="Trazado_194106" data-name="Trazado 194106" d="M62.841,70.734l22.368-11.24a1.474,1.474,0,0,0,0-2.634L62.841,45.62a1.473,1.473,0,0,0-1.323,0L39.15,56.86a1.474,1.474,0,0,0,0,2.634l22.368,11.24A1.473,1.473,0,0,0,62.841,70.734Z" transform="translate(-30.761 -20.934)" fill="#ee878a"/>
              <path id="Trazado_194107" data-name="Trazado 194107" d="M78.99,114.5H49.016a.281.281,0,0,1-.236-.433l5.258-8.158a.28.28,0,0,1,.236-.129H84.247a.281.281,0,0,1,.236.433l-5.258,8.158A.281.281,0,0,1,78.99,114.5Z" transform="translate(-35.257 -47.012)" fill="#6677d6"/>
            </g>
            <path id="Trazado_194108" data-name="Trazado 194108" d="M77.918,145.585H23.941a6.366,6.366,0,0,1-6.347-5.866.468.468,0,0,1,.47-.5H71.21a.352.352,0,0,1,.354.334,6.365,6.365,0,0,0,6.232,6.03l.121,0Z" transform="translate(-17.593 -61.473)" fill="#f9f7f7"/>
          </g>
          <g id="Grupo_134746" data-name="Grupo 134746">
            <path id="Trazado_194109" data-name="Trazado 194109" d="M82.587,0H21.546a2.006,2.006,0,0,0-2,2V77.746h-2.45a1.746,1.746,0,0,0-1.744,1.876,7.675,7.675,0,0,0,7.619,7.044h54a7.522,7.522,0,0,0,5.276-2.181A7.874,7.874,0,0,0,84.591,78.9V2a2.006,2.006,0,0,0-2-2ZM22.967,84.111A5.117,5.117,0,0,1,18.041,80.3H69.413a7.619,7.619,0,0,0,1.844,3.811ZM82.037,78.9a5.3,5.3,0,0,1-1.579,3.764,4.971,4.971,0,0,1-3.609,1.449,5.1,5.1,0,0,1-4.982-4.818,1.63,1.63,0,0,0-1.629-1.546H22.1V2.554h59.94Z" transform="translate(-15.343 0)"/>
            <path id="Trazado_194110" data-name="Trazado 194110" d="M35.522,26.262h6.267a1.277,1.277,0,1,0,0-2.554H35.522a.066.066,0,0,1-.066-.066v-5.9a.066.066,0,0,1,.066-.066H83.8a.066.066,0,0,1,.066.066v5.9a.066.066,0,0,1-.066.066H47.232a1.277,1.277,0,1,0,0,2.554H58.48v5.156L36.226,42.6a2.751,2.751,0,0,0,0,4.916L58.48,58.7v6.6H47.428a1.552,1.552,0,0,0-1.309.714l-5.258,8.158a1.558,1.558,0,0,0,1.309,2.4h7.168a1.277,1.277,0,1,0,0-2.554H44l3.973-6.165h27.6L71.6,74.021H54.841a1.277,1.277,0,1,0,0,2.554h17.3a1.551,1.551,0,0,0,1.309-.714L78.71,67.7A1.558,1.558,0,0,0,77.4,65.3H61.034V58.769l.03-.013,7.961-4a1.277,1.277,0,1,0-1.147-2.282l-7.961,4a.2.2,0,0,1-.176,0L37.373,45.234a.2.2,0,0,1,0-.351L59.74,33.643a.2.2,0,0,1,.177,0l22.368,11.24a.2.2,0,0,1,0,.351L73,49.9a1.277,1.277,0,1,0,1.147,2.282l9.284-4.665a2.751,2.751,0,0,0,0-4.916L61.064,31.361l-.03-.013V26.262H83.8a2.624,2.624,0,0,0,2.621-2.621v-5.9A2.624,2.624,0,0,0,83.8,15.123H35.522A2.624,2.624,0,0,0,32.9,17.744v5.9a2.623,2.623,0,0,0,2.621,2.62Z" transform="translate(-22.935 -6.539)"/>
          </g>
        </g>
      </g>
    </g>
  </g>
</svg>
