<svg xmlns="http://www.w3.org/2000/svg" width="133" height="133" viewBox="0 0 133 133">
  <g id="Grupo_134923" data-name="Grupo 134923" transform="translate(6708.348 6234.087)">
    <g id="Grupo_134822" data-name="Grupo 134822" transform="translate(331.986 -371.087)">
      <g id="Elipse_16905" data-name="Elipse 16905" transform="translate(-7040.334 -5863)" fill="#fff" stroke="#6677d6" stroke-width="4">
        <circle cx="66.5" cy="66.5" r="66.5" stroke="none"/>
        <circle cx="66.5" cy="66.5" r="64.5" fill="none"/>
      </g>
      <g id="pulgar-arriba" transform="translate(-7012.153 -5840.57)">
        <g id="Grupo_134576" data-name="Grupo 134576" transform="translate(1.116 1.12)">
          <path id="Trazado_193419" data-name="Trazado 193419" d="M18.671,3.926c.186-.376.49-.376.676,0L23.53,12.4a1.631,1.631,0,0,0,1.093.794l9.355,1.358c.415.06.509.349.209.642l-6.769,6.593A1.63,1.63,0,0,0,27,23.069l1.6,9.309c.071.414-.175.592-.547.4l-8.367-4.4a1.633,1.633,0,0,0-1.352,0l-8.369,4.4c-.372.2-.618.016-.547-.4l1.6-9.309a1.63,1.63,0,0,0-.418-1.285L3.831,15.191c-.3-.293-.207-.582.209-.642l9.355-1.358a1.631,1.631,0,0,0,1.093-.794Z" transform="translate(-3.654 -3.644)" fill="#ffef0f"/>
          <g id="Grupo_134575" data-name="Grupo 134575" transform="translate(15.017)">
            <path id="Trazado_193420" data-name="Trazado 193420" d="M53.52,3.926c-.186-.376-.49-.376-.676,0" transform="translate(-52.844 -3.644)" fill="#fff56f"/>
            <path id="Trazado_193421" data-name="Trazado 193421" d="M73.385,38.056c.3-.293.207-.582-.209-.642l-5.9-.857c.233.113.247.347,0,.583l-6.769,6.593a1.63,1.63,0,0,0-.418,1.285l1.295,7.543,5.862,3.08c.372.2.618.016.547-.4l-1.6-9.309a1.63,1.63,0,0,1,.418-1.285Z" transform="translate(-57.87 -26.509)" fill="#fff56f"/>
          </g>
          <path id="Trazado_193422" data-name="Trazado 193422" d="M39.9,69.249H63.415V57.136c0-4.563.528-15.032,7.336-15.032,3.75,0,3.679,4.046,3.679,6.761,0,3.644-.454,7.59.643,11.121,1.948,6.272,8,9.762,14.337,9.829l1.019,15.729L89.41,98.862a25.006,25.006,0,0,1-18.13,7.364H39.9V69.249Z" transform="translate(-28.837 -30.363)" fill="#ffe4c2"/>
          <path id="Trazado_193423" data-name="Trazado 193423" d="M139.178,59.986c-1.1-3.532-.643-7.477-.643-11.121,0-2.715.07-6.761-3.679-6.761a5.719,5.719,0,0,0-1.751.262c2.274.936,2.224,4.2,2.224,6.5,0,3.644-.454,7.59.643,11.121,1.948,6.272,4.895,9.209,9.1,13.956,8.243,9.311,7.174,32.284-12.891,32.284h3.206a25.006,25.006,0,0,0,18.13-7.364l1.019-13.319-1.019-15.729C147.175,69.748,141.126,66.258,139.178,59.986Z" transform="translate(-92.942 -30.363)" fill="#f2d0a5"/>
          <path id="Trazado_193424" data-name="Trazado 193424" d="M202.841,161.117a.765.765,0,0,1-.763-.763V124.37a.765.765,0,0,1,.763-.763H216.6a.765.765,0,0,1,.763.763v35.983a.765.765,0,0,1-.763.763Z" transform="translate(-141.502 -86.984)" fill="#a3ade6"/>
          <path id="Trazado_193425" data-name="Trazado 193425" d="M235.76,123.607h-6.106a.765.765,0,0,1,.763.763v35.983a.765.765,0,0,1-.763.763h6.106a.765.765,0,0,0,.763-.763V124.37A.765.765,0,0,0,235.76,123.607Z" transform="translate(-160.659 -86.984)" fill="#4e2e8e"/>
          <path id="Trazado_193426" data-name="Trazado 193426" d="M40.57,226.452a4.624,4.624,0,0,1-4.626,4.623H23.3a4.623,4.623,0,0,1-4.625-4.623h0a4.623,4.623,0,0,1,4.625-4.623H35.944a4.624,4.624,0,0,1,4.626,4.623Z" transform="translate(-14.091 -155.22)" fill="#ffe4c2"/>
          <path id="Trazado_193427" data-name="Trazado 193427" d="M37.779,222.5a4.626,4.626,0,0,1-4.421,5.988H20.717a4.626,4.626,0,0,1-1.367-.205,4.626,4.626,0,0,0,4.42,3.258H36.411a4.624,4.624,0,0,0,1.368-9.041Z" transform="translate(-14.558 -155.688)" fill="#f2d0a5"/>
          <path id="Trazado_193428" data-name="Trazado 193428" d="M33.9,196.168a4.625,4.625,0,0,1-4.627,4.622H10.934a4.625,4.625,0,0,1-4.626-4.622h0a4.6,4.6,0,0,1,4.594-4.623H29.268a4.625,4.625,0,0,1,4.627,4.623Z" transform="translate(-5.498 -134.181)" fill="#ffe4c2"/>
          <path id="Trazado_193429" data-name="Trazado 193429" d="M31.1,192.219a4.625,4.625,0,0,1-4.422,5.987H8.348A4.628,4.628,0,0,1,6.98,198a4.628,4.628,0,0,0,4.421,3.259H29.735a4.623,4.623,0,0,0,1.369-9.04Z" transform="translate(-5.965 -134.649)" fill="#f2d0a5"/>
          <path id="Trazado_193430" data-name="Trazado 193430" d="M34.6,165.884a4.625,4.625,0,0,1-4.626,4.623H8.28a4.625,4.625,0,0,1-4.626-4.623h0a4.625,4.625,0,0,1,4.626-4.622H29.971a4.624,4.624,0,0,1,4.626,4.622Z" transform="translate(-3.654 -113.143)" fill="#ffe4c2"/>
          <path id="Trazado_193431" data-name="Trazado 193431" d="M31.805,161.936a4.625,4.625,0,0,1-4.421,5.987H5.694a4.628,4.628,0,0,1-1.368-.206,4.628,4.628,0,0,0,4.421,3.259H30.438a4.623,4.623,0,0,0,1.368-9.04Z" transform="translate(-4.121 -113.611)" fill="#f2d0a5"/>
          <path id="Trazado_193432" data-name="Trazado 193432" d="M39.334,135.646a4.625,4.625,0,0,1-4.626,4.623H19.681a4.625,4.625,0,0,1-4.628-4.623h0a4.625,4.625,0,0,1,4.628-4.623H34.707a4.625,4.625,0,0,1,4.626,4.623Z" transform="translate(-11.573 -92.135)" fill="#ffe4c2"/>
          <path id="Trazado_193433" data-name="Trazado 193433" d="M36.543,131.7a4.625,4.625,0,0,1-4.421,5.988H17.1a4.628,4.628,0,0,1-1.37-.206,4.629,4.629,0,0,0,4.423,3.259H35.174a4.623,4.623,0,0,0,1.368-9.04Z" transform="translate(-12.04 -92.603)" fill="#f2d0a5"/>
          <circle id="Elipse_17674" data-name="Elipse 17674" cx="2.824" cy="2.824" r="2.824" transform="translate(65.397 41.776)" fill="#f0eef0"/>
        </g>
        <g id="Grupo_134577" data-name="Grupo 134577" transform="translate(0 0.01)">
          <path id="Trazado_193434" data-name="Trazado 193434" d="M7.254,20.071a.619.619,0,0,1,.1.279l-1.6,9.31a1.489,1.489,0,0,0,2.207,1.6l8.358-4.391a.623.623,0,0,1,.3-.005l8.367,4.4a1.494,1.494,0,0,0,2.207-1.6l-1.6-9.3a.62.62,0,0,1,.087-.283l6.769-6.593a1.494,1.494,0,0,0-.843-2.6L22.261,9.535a.621.621,0,0,1-.243-.17L17.835.895a1.5,1.5,0,0,0-2.729,0l-4.178,8.46a.62.62,0,0,1-.237.178L1.336,10.891a1.494,1.494,0,0,0-.843,2.6ZM11.02,11.8a2.783,2.783,0,0,0,1.955-1.42l3.5-7.076,3.494,7.076A2.782,2.782,0,0,0,21.92,11.8l7.813,1.134L24.081,18.44a2.782,2.782,0,0,0-.747,2.3l1.335,7.776-6.99-3.672a2.784,2.784,0,0,0-2.416,0L8.272,28.514l1.335-7.776a2.781,2.781,0,0,0-.747-2.3L3.207,12.933Z" transform="translate(0 -0.01)"/>
          <path id="Trazado_193435" data-name="Trazado 193435" d="M76.32,63.236H62.559a1.91,1.91,0,0,0-1.908,1.908,3.707,3.707,0,0,1,0,.867A13.381,13.381,0,0,1,47.905,53c-.219-4.187,2.024-14.65-4.772-14.65-4.36,0-6.385,3.6-7.315,6.612a33.2,33.2,0,0,0-1.166,9.564,1.145,1.145,0,0,0,2.29,0,30.976,30.976,0,0,1,1.064-8.89c1.037-3.363,2.714-5,5.127-5,2.79,0,2.538,3.684,2.534,5.616-.007,3.7-.432,7.482.591,11.094,1.823,6.439,7.872,10.5,14.388,10.955V95.8a24.383,24.383,0,0,1-16.985,6.677h-16a5.809,5.809,0,0,0-.393-7.436,5.817,5.817,0,0,0,2.079-9.068c5.394-1.791,5.033-9.8-.505-11.089a5.8,5.8,0,0,0,.107-7.094h5.688a31.47,31.47,0,0,0,1.541,9.225C38.59,84.16,43.53,88.37,50.47,89.188a1.145,1.145,0,0,0,.268-2.274c-8.361-.986-12.567-8.106-13.564-15.894a89.549,89.549,0,0,1-.232-11.287,1.145,1.145,0,0,0-2.29,0V65.5H9.327a5.813,5.813,0,0,0-4.535,9.33A5.812,5.812,0,0,0,2.835,85.417a5.818,5.818,0,0,0,3.039,10.04,5.814,5.814,0,0,0,4.557,9.3l33.231.008a26.749,26.749,0,0,0,16.989-5.883v2.244a1.91,1.91,0,0,0,1.908,1.908h4.8a1.145,1.145,0,0,0,0-2.29H62.941V65.525h13v35.22H72.414a1.145,1.145,0,0,0,0,2.29H76.32a1.91,1.91,0,0,0,1.908-1.908V65.144A1.911,1.911,0,0,0,76.32,63.236ZM9.327,67.789H24.353a3.478,3.478,0,0,1,.311,6.942H9.016a3.478,3.478,0,0,1,.311-6.942ZM5.845,83.977a3.478,3.478,0,1,1,0-6.956H27.536a3.478,3.478,0,1,1,0,6.956ZM3.174,89.744a3.468,3.468,0,0,1,3.432-3.478h18.4a3.478,3.478,0,0,1-.018,6.955H6.656A3.483,3.483,0,0,1,3.174,89.744Zm3.776,9.245a3.483,3.483,0,0,1,3.48-3.478H23.073a3.478,3.478,0,1,1,0,6.957H10.431A3.483,3.483,0,0,1,6.951,98.989Z" transform="translate(-0.104 -26.648)"/>
          <path id="Trazado_193436" data-name="Trazado 193436" d="M222.055,140.7a3.969,3.969,0,1,0-3.969,3.969A3.973,3.973,0,0,0,222.055,140.7Zm-3.969,1.679a1.679,1.679,0,1,1,1.679-1.679A1.681,1.681,0,0,1,218.086,142.382Z" transform="translate(-148.75 -94.994)"/>
        </g>
      </g>
    </g>
  </g>
</svg>
