<svg xmlns="http://www.w3.org/2000/svg" width="92.335" height="103.472" viewBox="0 0 92.335 103.472">
  <g id="Grupo_134769" data-name="Grupo 134769" transform="translate(11388.178 3989.583)">
    <g id="administracion" transform="translate(-11388.428 -3989.583)">
      <path id="Trazado_193367" data-name="Trazado 193367" d="M97.236,2.545A11.972,11.972,0,0,0,85.264,14.517v4.954a3.818,3.818,0,0,1,3.05-1v-.6a.816.816,0,0,1,.875-.814,21.427,21.427,0,0,0,12.9-3.465.817.817,0,0,1,1.044.127c3.045,3.273,3.026,3.147,3.026,3.574v1.172a3.621,3.621,0,0,1,3.049.892V14.517A11.971,11.971,0,0,0,97.236,2.545Zm0,0" transform="translate(-50.652 -1.516)" fill="#3e4b5a"/>
      <path id="Trazado_193368" data-name="Trazado 193368" d="M91.349,14.518a11.975,11.975,0,0,1,8.929-11.58,11.979,11.979,0,0,0-15.014,11.58v4.954a3.818,3.818,0,0,1,3.05-1v-.6a.816.816,0,0,1,.875-.813,18.794,18.794,0,0,0,2.161.023Zm0,0" transform="translate(-50.652 -1.517)" fill="#303f49"/>
      <path id="Trazado_193369" data-name="Trazado 193369" d="M105.77,78.039a1.256,1.256,0,0,0,.8-1.17V75.175a9.107,9.107,0,0,1-4.33-1.4v3.74a1.254,1.254,0,0,1-.358.875Zm0,0" transform="translate(-60.554 -43.959)" fill="#ffbeab"/>
      <path id="Trazado_193370" data-name="Trazado 193370" d="M96.848,80.689c3.816,4.054,9.21,4.054,13.026,0l1.355-1.44-1.993-.772a1.191,1.191,0,0,1-.761-1.111V73.451A8.74,8.74,0,0,1,103.493,75a9.236,9.236,0,0,1-5.024-1.419v3.739a1.254,1.254,0,0,1-.8,1.169l-2.116.82Zm0,0" transform="translate(-56.783 -43.763)" fill="#ffbeab"/>
      <path id="Trazado_193371" data-name="Trazado 193371" d="M102.8,75.175a9.116,9.116,0,0,1-4.33-1.4v3.74a1.253,1.253,0,0,1-.8,1.169l-2.116.82,1.295,1.376A9.087,9.087,0,0,0,102.8,83.9Zm0,0" transform="translate(-56.783 -43.959)" fill="#f7af9f"/>
      <path id="Trazado_193372" data-name="Trazado 193372" d="M136.509,40.561v6.558c0,.071,0,.141-.006.212a3.485,3.485,0,1,0,.006-6.77Zm0,0" transform="translate(-81.182 -24.14)" fill="#ffbeab"/>
      <path id="Trazado_193373" data-name="Trazado 193373" d="M86.9,47.145V40.59c-2.021-.269-4.311,1.281-4.311,3.383A3.632,3.632,0,0,0,86.9,47.358c0-.071,0-.141,0-.212Zm0,0" transform="translate(-49.056 -24.166)" fill="#ffbeab"/>
      <path id="Trazado_193374" data-name="Trazado 193374" d="M139.287,41.174a3.906,3.906,0,0,0-2.778-.613V47.12c0,.071,0,.141-.006.212a3.9,3.9,0,0,0,2.784-.613Zm0,0" transform="translate(-81.182 -24.14)" fill="#f7af9f"/>
      <path id="Trazado_193375" data-name="Trazado 193375" d="M86.9,46.746a3.366,3.366,0,0,1-1.532-2.773A3.293,3.293,0,0,1,86.9,41.3V40.59c-2.02-.269-4.311,1.281-4.311,3.383A3.632,3.632,0,0,0,86.9,47.357c0-.071,0-.141,0-.212Zm0,0" transform="translate(-49.056 -24.166)" fill="#f7af9f"/>
      <path id="Trazado_193376" data-name="Trazado 193376" d="M107.627,28.507a.816.816,0,0,0-1.044-.128,21.428,21.428,0,0,1-12.9,3.466.816.816,0,0,0-.875.813v7.151a8.923,8.923,0,0,0,17.844,0V32.08c0-.427.018-.3-3.026-3.573Zm0,0" transform="translate(-55.148 -16.829)" fill="#ffcdbf"/>
      <path id="Trazado_193377" data-name="Trazado 193377" d="M98.894,44.606V36.3a19.657,19.657,0,0,1-5.21.344.816.816,0,0,0-.875.813v7.151a9.011,9.011,0,0,0,12,8.284,8.735,8.735,0,0,1-5.914-8.284Zm0,0" transform="translate(-55.148 -21.626)" fill="#ffbeab"/>
      <path id="Trazado_193378" data-name="Trazado 193378" d="M99.3,91.7l-10.743-4.16-1.385,1.471c-3.641,3.869-8.788,3.869-12.43,0L73.421,87.6,62.847,91.7A8.385,8.385,0,0,0,57.953,99.3v12.383a1.138,1.138,0,0,0,1.138,1.138H103.07a1.128,1.128,0,0,0,1.129-1.128V99.3A8.385,8.385,0,0,0,99.3,91.7Zm0,0" transform="translate(-34.38 -52.159)" fill="#ffef0f"/>
      <path id="Trazado_193379" data-name="Trazado 193379" d="M64.037,100.234a8.023,8.023,0,0,1,2.575-6.009l-3.765,1.46a8.385,8.385,0,0,0-4.894,7.592v12.383a1.138,1.138,0,0,0,1.138,1.139h4.946Zm0,0" transform="translate(-34.38 -56.14)" fill="#ffef0f"/>
      <path id="Trazado_193380" data-name="Trazado 193380" d="M198.726,193.431a5.813,5.813,0,1,1-5.813-5.813A5.813,5.813,0,0,1,198.726,193.431Zm0,0" transform="translate(-111.327 -111.785)" fill="#ffcdbf"/>
      <path id="Trazado_193381" data-name="Trazado 193381" d="M190.741,216.381h-6.579a6.247,6.247,0,0,0-6.229,6.229v7.215a1.061,1.061,0,0,0,1.061,1.061h16.914a1.061,1.061,0,0,0,1.061-1.061V222.61A6.247,6.247,0,0,0,190.741,216.381Zm0,0" transform="translate(-105.866 -128.923)" fill="#c6412a"/>
      <path id="Trazado_193382" data-name="Trazado 193382" d="M182,229.826v-7.215a6.246,6.246,0,0,1,6.228-6.228h-4.062a6.247,6.247,0,0,0-6.229,6.228v7.215a1.061,1.061,0,0,0,1.061,1.061h4.062A1.061,1.061,0,0,1,182,229.826Zm0,0" transform="translate(-105.866 -128.924)" fill="#c6412a"/>
      <path id="Trazado_193383" data-name="Trazado 193383" d="M111.821,193.431a5.813,5.813,0,1,1-5.813-5.813A5.813,5.813,0,0,1,111.821,193.431Zm0,0" transform="translate(-59.549 -111.785)" fill="#ffcdbf"/>
      <path id="Trazado_193384" data-name="Trazado 193384" d="M103.837,216.381h-6.58a6.247,6.247,0,0,0-6.228,6.229v7.215a1.061,1.061,0,0,0,1.061,1.061H109a1.061,1.061,0,0,0,1.061-1.061V222.61a6.247,6.247,0,0,0-6.229-6.229Zm0,0" transform="translate(-54.088 -128.923)" fill="#c6412a"/>
      <path id="Trazado_193385" data-name="Trazado 193385" d="M95.091,229.826v-7.215a6.247,6.247,0,0,1,6.229-6.228H97.257a6.246,6.246,0,0,0-6.228,6.228v7.215a1.061,1.061,0,0,0,1.061,1.061h4.062a1.061,1.061,0,0,1-1.061-1.061Zm0,0" transform="translate(-54.087 -128.924)" fill="#c6412a"/>
      <path id="Trazado_193386" data-name="Trazado 193386" d="M24.917,193.431a5.813,5.813,0,1,1-5.813-5.813A5.813,5.813,0,0,1,24.917,193.431Zm0,0" transform="translate(-7.77 -111.785)" fill="#ffcdbf"/>
      <g id="Grupo_134565" data-name="Grupo 134565" transform="translate(5.521 75.832)">
        <path id="Trazado_193387" data-name="Trazado 193387" d="M193.193,193.431a5.808,5.808,0,0,1,2.766-4.951,5.814,5.814,0,1,0,0,9.9A5.81,5.81,0,0,1,193.193,193.431Zm0,0" transform="translate(-116.849 -187.617)" fill="#ffbeab"/>
        <path id="Trazado_193388" data-name="Trazado 193388" d="M106.288,193.431a5.809,5.809,0,0,1,2.767-4.951,5.814,5.814,0,1,0,0,9.9A5.808,5.808,0,0,1,106.288,193.431Zm0,0" transform="translate(-65.07 -187.617)" fill="#ffbeab"/>
        <path id="Trazado_193389" data-name="Trazado 193389" d="M19.384,193.431a5.809,5.809,0,0,1,2.767-4.951,5.814,5.814,0,1,0,0,9.9A5.808,5.808,0,0,1,19.384,193.431Zm0,0" transform="translate(-13.291 -187.617)" fill="#ffbeab"/>
      </g>
      <path id="Trazado_193390" data-name="Trazado 193390" d="M16.932,216.381h-6.58a6.247,6.247,0,0,0-6.229,6.229v7.215a1.061,1.061,0,0,0,1.061,1.061H22.1a1.061,1.061,0,0,0,1.061-1.061V222.61a6.248,6.248,0,0,0-6.229-6.229Zm0,0" transform="translate(-2.308 -128.923)" fill="#c6412a"/>
      <path id="Trazado_193391" data-name="Trazado 193391" d="M8.185,229.826v-7.215a6.246,6.246,0,0,1,6.229-6.228H10.352a6.247,6.247,0,0,0-6.229,6.228v7.215a1.061,1.061,0,0,0,1.061,1.061H9.246A1.061,1.061,0,0,1,8.185,229.826Zm0,0" transform="translate(-2.308 -128.924)" fill="#c6412a"/>
      <path id="Trazado_193392" data-name="Trazado 193392" d="M.25,93.672v7.215a2.587,2.587,0,0,0,2.584,2.585H19.749a2.587,2.587,0,0,0,2.584-2.585V93.672a7.764,7.764,0,0,0-5.381-7.38,7.331,7.331,0,0,0-4.137-11.837V69.446a.151.151,0,0,1,.151-.152H44.894v5.16a7.333,7.333,0,0,0-4.137,11.838,7.764,7.764,0,0,0-5.381,7.379v7.215a2.588,2.588,0,0,0,2.585,2.585H54.874a2.587,2.587,0,0,0,2.584-2.585V99.558a1.523,1.523,0,1,0-3.046,0v.867H52.67V93.449a1.523,1.523,0,1,0-3.046,0v6.976H43.211V93.449a1.523,1.523,0,1,0-3.046,0v6.976H38.423V93.672a4.71,4.71,0,0,1,4.7-4.705h6.579A4.723,4.723,0,0,1,54.32,92.75a1.523,1.523,0,0,0,2.986-.6,7.785,7.785,0,0,0-5.231-5.854,7.332,7.332,0,0,0-4.135-11.841v-5.16H79.869a.151.151,0,0,1,.151.151v5.009a7.332,7.332,0,0,0-4.137,11.838,7.764,7.764,0,0,0-5.381,7.38v7.215a2.587,2.587,0,0,0,2.584,2.585H90a2.588,2.588,0,0,0,2.585-2.585V93.672a7.765,7.765,0,0,0-5.381-7.38,7.333,7.333,0,0,0-4.137-11.838V69.446a3.2,3.2,0,0,0-3.2-3.2H47.94v-5.08H67.2a3.721,3.721,0,0,0,3.717-3.717v-11.1a9.723,9.723,0,0,0-5.757-8.873l-.029-.012L53.088,32.8V30.478a10.169,10.169,0,0,0,3.6-6.167,4.878,4.878,0,0,0,3.146-7.875v-3.65A13.218,13.218,0,0,0,50.414.066a1.523,1.523,0,1,0-.886,2.915,10.188,10.188,0,0,1,7.261,9.8v1.652a3.293,3.293,0,0,0-.872-1.346c-.373-.418-1.293-1.388-2.463-2.645a2.326,2.326,0,0,0-2.974-.363c-.489.32-.993.614-1.509.888a19.24,19.24,0,0,1-10.228,2.276,2.325,2.325,0,0,0-2.322,1.431l-.129.024V12.786a10.228,10.228,0,0,1,7.044-9.734A1.523,1.523,0,0,0,42.387.157a13.268,13.268,0,0,0-9.139,12.628v3.747a4.615,4.615,0,0,0-1.066,2.945,4.889,4.889,0,0,0,4.208,4.838A9.983,9.983,0,0,0,40.2,30.628V32.8L28.179,37.465l-.029.011-.1.045a9.708,9.708,0,0,0-5.653,8.828v11.1a3.721,3.721,0,0,0,3.717,3.717H44.894v5.08H12.965a3.2,3.2,0,0,0-3.2,3.2v5.009A7.332,7.332,0,0,0,5.631,86.293,7.763,7.763,0,0,0,.25,93.672ZM50.707,81.631a4.29,4.29,0,1,1-4.29-4.29A4.295,4.295,0,0,1,50.707,81.631ZM89.538,93.672v6.754H87.8V93.449a1.523,1.523,0,1,0-3.046,0v6.977H78.337V93.449a1.523,1.523,0,1,0-3.046,0v6.977H73.548V93.672a4.711,4.711,0,0,1,4.705-4.7h6.58a4.711,4.711,0,0,1,4.705,4.7ZM85.833,81.631a4.29,4.29,0,1,1-4.29-4.29A4.294,4.294,0,0,1,85.833,81.631ZM46.668,29.722A7.178,7.178,0,0,1,39.293,22.6V16.326a22.627,22.627,0,0,0,12.34-3.365c1.152,1.235,1.84,1.957,2.159,2.319V22.6A7.14,7.14,0,0,1,46.668,29.722Zm10.171-8.6V17.842a1.828,1.828,0,0,1,0,3.276Zm-21.61-1.64a1.817,1.817,0,0,1,1.018-1.544v3.185a1.826,1.826,0,0,1-1.018-1.64ZM46.668,32.769a10.274,10.274,0,0,0,3.374-.575v.85a2.714,2.714,0,0,0,1.334,2.324,6.769,6.769,0,0,1-9.6.07A2.775,2.775,0,0,0,43.251,33v-.764a11.215,11.215,0,0,0,3.417.532ZM25.441,57.452V46.35A6.684,6.684,0,0,1,29.3,40.3l9.419-3.652.6.639a9.828,9.828,0,0,0,14.441,0l.658-.7L64.006,40.3a6.629,6.629,0,0,1,3.86,6.053v11.1a.671.671,0,0,1-.67.67H62.722V48.235a1.523,1.523,0,0,0-3.046,0v9.887H33.631V48.235a1.523,1.523,0,0,0-3.046,0v9.887H26.111a.671.671,0,0,1-.67-.67Zm-14.15,19.89A4.29,4.29,0,1,1,7,81.631,4.294,4.294,0,0,1,11.291,77.341ZM3.3,93.672a4.711,4.711,0,0,1,4.7-4.7h6.58a4.711,4.711,0,0,1,4.7,4.7v6.754H17.544V93.449a1.523,1.523,0,1,0-3.046,0v6.977H8.085V93.449a1.523,1.523,0,1,0-3.046,0v6.977H3.3Zm0,0" transform="translate(0 0)"/>
    </g>
  </g>
</svg>
