<svg xmlns="http://www.w3.org/2000/svg" width="400" height="230" viewBox="0 0 400 230">
  <g id="Grupo_134914" data-name="Grupo 134914" transform="translate(13194.551 -2456.799)">
    <rect id="Rectángulo_44145" data-name="Rectángulo 44145" width="400" height="230" rx="21" transform="translate(-13194.551 2456.799)" fill="#4e2e8e"/>
    <g id="Trazado_193324" data-name="Trazado 193324" transform="translate(-13110.992 2508.853)" fill="#fff">
      <path d="M 69.47030639648438 125.5378799438477 C 57.06477737426758 125.5378799438477 45.73575210571289 124.1420440673828 35.79791641235352 121.3891830444336 C 27.86391639709473 119.1913757324219 20.7944450378418 116.1286544799805 14.78594493865967 112.2860412597656 C 9.447083473205566 108.871711730957 5.950695037841797 105.4600677490234 3.957722663879395 103.1992950439453 C 2.23638916015625 101.2466888427734 1.309643268585205 99.79330444335938 1.000000357627869 99.27568817138672 L 1.000000357627869 1.000015616416931 L 218.9993896484375 1.000015616416931 L 218.9993896484375 98.04138946533203 C 217.0585021972656 97.26200866699219 213.2032165527344 95.81962585449219 207.9463958740234 94.36379241943359 C 200.9418640136719 92.42395782470703 190.050048828125 90.11160278320312 177.9395599365234 90.11160278320312 C 169.9396667480469 90.11160278320312 162.2983856201172 91.11128997802734 155.2279968261719 93.08287811279297 C 141.2829437255859 96.97148895263672 128.0057220458984 103.4881820678711 115.165641784668 109.7902908325195 C 106.7269439697266 113.9321517944336 98.75624847412109 117.8443222045898 91.09036254882812 120.762321472168 C 87.00144195556641 122.3187637329102 83.35366821289062 123.457405090332 79.93858337402344 124.243293762207 C 76.15313720703125 125.1144027709961 72.72894287109375 125.5378799438477 69.47030639648438 125.5378799438477 Z" stroke="none"/>
      <path d="M 1.999984741210938 1.999992370605469 L 1.999984741210938 98.99681091308594 C 2.927749633789062 100.4815292358398 6.684280395507812 105.8865280151367 15.19210815429688 111.3585510253906 C 21.11546325683594 115.1683120727539 28.09904479980469 118.2080535888672 35.94886779785156 120.3932571411133 C 45.82810974121094 123.1434326171875 57.10633850097656 124.5378723144531 69.47030639648438 124.5378723144531 C 72.65251159667969 124.5378723144531 76.00337219238281 124.1227569580078 79.71434020996094 123.2687530517578 C 83.08425903320312 122.4932556152344 86.68902587890625 121.3676986694336 90.73460388183594 119.8277282714844 C 98.35722351074219 116.9261932373047 106.3077239990234 113.0239639282227 114.7250442504883 108.8926086425781 C 127.6059036254883 102.5704650878906 140.9253234863281 96.0330810546875 154.9594116210938 92.11963653564453 C 162.1171875 90.12367248535156 169.8488464355469 89.11161041259766 177.9395751953125 89.11161041259766 C 190.1623992919922 89.11161041259766 201.1489868164062 91.44369506835938 208.2132568359375 93.40007781982422 C 212.4704437255859 94.57906341552734 215.8242645263672 95.75251007080078 217.9993743896484 96.57831573486328 L 217.9993743896484 1.999992370605469 L 1.999984741210938 1.999992370605469 M -1.52587890625e-05 -7.62939453125e-06 L 219.9993743896484 -7.62939453125e-06 L 219.9993743896484 99.54345703125 C 219.9993743896484 99.54345703125 187.6781616210938 85.07222747802734 155.4966125488281 94.046142578125 C 123.3150787353516 103.0200500488281 93.78022766113281 126.5378723144531 69.47030639648438 126.5378723144531 C 14.470458984375 126.5378723144531 -1.52587890625e-05 99.54345703125 -1.52587890625e-05 99.54345703125 L -1.52587890625e-05 -7.62939453125e-06 Z" stroke="none" fill="#ffef0f"/>
    </g>
  </g>
</svg>
