<svg xmlns="http://www.w3.org/2000/svg" width="133" height="133" viewBox="0 0 133 133">
  <g id="Grupo_134915" data-name="Grupo 134915" transform="translate(13911.5 -2817.977)">
    <g id="Grupo_134812" data-name="Grupo 134812" transform="translate(-753.5 -603)">
      <g id="Elipse_18468" data-name="Elipse 18468" transform="translate(-13158 3420.977)" fill="#fff" stroke="#c6412a" stroke-width="4">
        <circle cx="66.5" cy="66.5" r="66.5" stroke="none"/>
        <circle cx="66.5" cy="66.5" r="64.5" fill="none"/>
      </g>
      <g id="flujo-de-datos" transform="translate(-13130 3447.717)">
        <path id="Trazado_194079" data-name="Trazado 194079" d="M29.432,124.78H3.738a1.489,1.489,0,0,1-1.488-1.488V97.6a1.489,1.489,0,0,1,1.488-1.489H29.432A1.489,1.489,0,0,1,30.921,97.6v25.694A1.489,1.489,0,0,1,29.432,124.78Zm0,0" transform="translate(-1.082 -46.226)" fill="#ffef0f"/>
        <path id="Trazado_194080" data-name="Trazado 194080" d="M14.7,124.461a4.053,4.053,0,0,1-4.048-4.048V108.557a4.053,4.053,0,0,1,4.048-4.048H26.553a4.053,4.053,0,0,1,4.048,4.048v11.855a4.053,4.053,0,0,1-4.048,4.048Zm0,0" transform="translate(-5.122 -50.266)" fill="#ffef0f"/>
        <path id="Trazado_194081" data-name="Trazado 194081" d="M15.45,122.721V110.866a1.557,1.557,0,0,1,1.557-1.557H28.862a1.557,1.557,0,0,1,1.557,1.557v11.855a1.557,1.557,0,0,1-1.557,1.557H17.007A1.557,1.557,0,0,1,15.45,122.721Zm0,0" transform="translate(-7.431 -52.575)" fill="#fff"/>
        <path id="Trazado_194082" data-name="Trazado 194082" d="M30.922,16.585A14.336,14.336,0,1,1,16.586,2.25,14.336,14.336,0,0,1,30.922,16.585Zm0,0" transform="translate(-1.082 -1.082)" fill="#a3ade6"/>
        <path id="Trazado_194083" data-name="Trazado 194083" d="M20.429,30.617A10.188,10.188,0,1,1,30.617,20.429,10.2,10.2,0,0,1,20.429,30.617Zm0,0" transform="translate(-4.926 -4.926)" fill="#a3ade6"/>
        <path id="Trazado_194084" data-name="Trazado 194084" d="M22.934,30.419a7.485,7.485,0,1,1,7.485-7.485A7.493,7.493,0,0,1,22.934,30.419Zm0,0" transform="translate(-7.431 -7.431)" fill="#fff"/>
        <path id="Trazado_194085" data-name="Trazado 194085" d="M111.152,2.686l-12.23,12.23a1.488,1.488,0,0,0,0,2.105l12.23,12.23a1.488,1.488,0,0,0,2.105,0l12.23-12.23a1.488,1.488,0,0,0,0-2.105l-12.23-12.23a1.488,1.488,0,0,0-2.105,0Zm0,0" transform="translate(-47.369 -1.082)" fill="#c6412a"/>
        <path id="Trazado_194086" data-name="Trazado 194086" d="M117.678,29.255a4.019,4.019,0,0,1-2.862-1.186L111.049,24.3a4.053,4.053,0,0,1,0-5.725l3.766-3.766a4.049,4.049,0,0,1,5.725,0l3.766,3.766a4.053,4.053,0,0,1,0,5.725l-3.766,3.766A4.022,4.022,0,0,1,117.678,29.255Zm0,0" transform="translate(-52.843 -6.554)" fill="#c6412a"/>
        <path id="Trazado_194087" data-name="Trazado 194087" d="M115.118,22.648l3.766-3.766a1.557,1.557,0,0,1,2.2,0l3.766,3.766a1.557,1.557,0,0,1,0,2.2l-3.766,3.766a1.557,1.557,0,0,1-2.2,0l-3.766-3.766A1.557,1.557,0,0,1,115.118,22.648Zm0,0" transform="translate(-55.15 -8.863)" fill="#fff"/>
        <path id="Trazado_194088" data-name="Trazado 194088" d="M124.78,110.445a14.336,14.336,0,1,1-14.335-14.336,14.335,14.335,0,0,1,14.335,14.336Zm0,0" transform="translate(-46.226 -46.226)" fill="#6677d6"/>
        <path id="Trazado_194089" data-name="Trazado 194089" d="M114.269,124.478a10.209,10.209,0,1,1,10.209-10.209A10.221,10.221,0,0,1,114.269,124.478Zm0,0" transform="translate(-50.05 -50.05)" fill="#6677d6"/>
        <path id="Trazado_194090" data-name="Trazado 194090" d="M116.794,124.278a7.485,7.485,0,1,1,7.484-7.484A7.493,7.493,0,0,1,116.794,124.278Zm0,0" transform="translate(-52.575 -52.575)" fill="#fff"/>
        <path id="Trazado_194091" data-name="Trazado 194091" d="M30.5,121.639V109.784a2.728,2.728,0,0,0-2.725-2.725H15.925a2.728,2.728,0,0,0-2.725,2.725v11.855a2.728,2.728,0,0,0,2.725,2.725H27.78A2.728,2.728,0,0,0,30.5,121.639Zm-14.969,0V109.784a.39.39,0,0,1,.389-.389H27.78a.39.39,0,0,1,.389.389v11.855a.39.39,0,0,1-.389.389H15.925A.39.39,0,0,1,15.536,121.639Zm0,0" transform="translate(-6.349 -51.493)"/>
        <path id="Trazado_194092" data-name="Trazado 194092" d="M28.35,93.859H2.656A2.659,2.659,0,0,0,0,96.516V122.21a2.659,2.659,0,0,0,2.656,2.656h9.293a1.168,1.168,0,1,0,0-2.336H2.656a.321.321,0,0,1-.321-.321V96.516a.321.321,0,0,1,.321-.321H28.35a.322.322,0,0,1,.321.321V122.21a.321.321,0,0,1-.321.321H17.324a1.168,1.168,0,1,0,0,2.336H28.35a2.659,2.659,0,0,0,2.657-2.656V96.516a2.66,2.66,0,0,0-2.657-2.657Zm0,0" transform="translate(0 -45.144)"/>
        <path id="Trazado_194093" data-name="Trazado 194093" d="M21.852,13.2a8.652,8.652,0,1,0,4.13,16.254A1.168,1.168,0,0,0,24.864,27.4a6.325,6.325,0,1,1,2.95-3.468,1.168,1.168,0,1,0,2.2.773A8.649,8.649,0,0,0,21.852,13.2Zm0,0" transform="translate(-6.349 -6.349)"/>
        <path id="Trazado_194094" data-name="Trazado 194094" d="M15.5,0a15.5,15.5,0,1,0,15.5,15.5A15.521,15.521,0,0,0,15.5,0Zm0,28.671A13.168,13.168,0,1,1,28.671,15.5,13.183,13.183,0,0,1,15.5,28.671Zm0,0" transform="translate(0)"/>
        <path id="Trazado_194095" data-name="Trazado 194095" d="M116.978,16.976l-3.766,3.766a2.728,2.728,0,0,0,0,3.854l3.766,3.766a2.725,2.725,0,0,0,3.853,0L124.6,24.6a2.728,2.728,0,0,0,0-3.854l-3.766-3.766A2.728,2.728,0,0,0,116.978,16.976Zm5.967,5.968-3.766,3.766a.39.39,0,0,1-.55,0l-3.766-3.766a.39.39,0,0,1,0-.55l3.766-3.766a.389.389,0,0,1,.55,0l3.766,3.766A.389.389,0,0,1,122.945,22.944Zm0,0" transform="translate(-54.069 -7.782)"/>
        <path id="Trazado_194096" data-name="Trazado 194096" d="M109.245,29A2.656,2.656,0,0,0,113,29l3.843-3.842a1.168,1.168,0,1,0-1.652-1.651l-3.842,3.842a.32.32,0,0,1-.454,0l-12.23-12.23a.322.322,0,0,1,0-.454L110.9,2.43a.32.32,0,0,1,.454,0l12.23,12.23a.321.321,0,0,1,0,.454L118.993,19.7a1.168,1.168,0,0,0,1.651,1.652l4.587-4.587a2.661,2.661,0,0,0,0-3.757L113,.778a2.656,2.656,0,0,0-3.756,0L97.014,13.009a2.659,2.659,0,0,0,0,3.756Zm0,0" transform="translate(-46.288 0)"/>
        <path id="Trazado_194097" data-name="Trazado 194097" d="M115.712,107.059a8.652,8.652,0,1,0,8.652,8.653A8.663,8.663,0,0,0,115.712,107.059Zm0,14.969a6.317,6.317,0,1,1,6.316-6.316A6.324,6.324,0,0,1,115.712,122.028Zm0,0" transform="translate(-51.493 -51.493)"/>
        <path id="Trazado_194098" data-name="Trazado 194098" d="M109.363,93.859a15.5,15.5,0,1,0,15.5,15.5,15.521,15.521,0,0,0-15.5-15.5Zm0,28.671a13.168,13.168,0,1,1,13.168-13.168,13.183,13.183,0,0,1-13.168,13.168Zm0,0" transform="translate(-45.144 -45.144)"/>
        <path id="Trazado_194099" data-name="Trazado 194099" d="M25.459,76.249a1.167,1.167,0,0,0,1.168-1.168V70.465l1.658,1.442a1.168,1.168,0,1,0,1.533-1.762l-3.592-3.124a1.168,1.168,0,0,0-1.533,0L21.1,70.145a1.168,1.168,0,0,0,1.533,1.762l1.657-1.442v4.616a1.168,1.168,0,0,0,1.168,1.168Zm0,0" transform="translate(-9.956 -32.097)"/>
        <path id="Trazado_194100" data-name="Trazado 194100" d="M120.507,66.734a1.168,1.168,0,0,0-1.168,1.168v4.616l-1.657-1.443a1.168,1.168,0,1,0-1.533,1.762l3.592,3.125a1.167,1.167,0,0,0,1.533,0l3.592-3.125a1.168,1.168,0,0,0-1.533-1.762l-1.658,1.442V67.9a1.168,1.168,0,0,0-1.168-1.168Zm0,0" transform="translate(-55.671 -32.097)"/>
        <path id="Trazado_194101" data-name="Trazado 194101" d="M75.782,19.913a1.168,1.168,0,0,0-1.762,1.533L75.462,23.1H70.846a1.168,1.168,0,0,0,0,2.336h4.615L74.019,27.1a1.168,1.168,0,0,0,1.762,1.533l3.125-3.592a1.167,1.167,0,0,0,0-1.533Zm0,0" transform="translate(-33.514 -9.385)"/>
      </g>
    </g>
  </g>
</svg>
