<svg xmlns="http://www.w3.org/2000/svg" width="104.392" height="104.392" viewBox="0 0 104.392 104.392">
  <g id="Grupo_134927" data-name="Grupo 134927" transform="translate(6445.334 5627.572)">
    <g id="Grupo_134825" data-name="Grupo 134825" transform="translate(522 -371.087)">
      <g id="Elipse_16912" data-name="Elipse 16912" transform="translate(-6967.334 -5256.485)" fill="#fff" stroke="#6677d6" stroke-width="4">
        <circle cx="52.196" cy="52.196" r="52.196" stroke="none"/>
        <circle cx="52.196" cy="52.196" r="50.196" fill="none"/>
      </g>
      <g id="rayo" transform="translate(-6969.808 -5239.447)">
        <g id="Grupo_134610" data-name="Grupo 134610" transform="translate(31.763 -0.001)">
          <g id="Grupo_134608" data-name="Grupo 134608" transform="translate(1.151 1.138)">
            <path id="Trazado_193478" data-name="Trazado 193478" d="M56.083,45.138a.758.758,0,0,1,.75.868L52.709,74.046a3.511,3.511,0,0,0-.033.828A2.779,2.779,0,0,0,55.4,77.567a3.038,3.038,0,0,0,2.567-1.73l18.92-37.191a4.5,4.5,0,0,0-4.172-6.185L59.724,32.2a.758.758,0,0,1-.7-1.019L68.284,6.024a3.031,3.031,0,0,0-2.939-3.771H47.072a3.2,3.2,0,0,0-3.009,2.67L34.21,39.438a4.375,4.375,0,0,0,4.263,5.7Z" transform="translate(-34.041 -2.253)" fill="#ffef0f"/>
            <g id="Grupo_134607" data-name="Grupo 134607" transform="translate(0)">
              <path id="Trazado_193479" data-name="Trazado 193479" d="M47.071,2.253h4.546a3.2,3.2,0,0,0-3.008,2.67L38.756,39.439a4.375,4.375,0,0,0,4.263,5.7H38.473a4.375,4.375,0,0,1-4.263-5.7L44.063,4.923a3.2,3.2,0,0,1,3.008-2.67Z" transform="translate(-34.041 -2.253)" fill="#fff56f"/>
              <path id="Trazado_193480" data-name="Trazado 193480" d="M79.625,88.021l-4.6,30.436a3.48,3.48,0,0,0-.039.732,2.522,2.522,0,0,1-1.343.392,2.778,2.778,0,0,1-2.72-2.693,3.532,3.532,0,0,1,.032-.829l4.125-28.039a.759.759,0,0,0-.75-.868h4.546A.759.759,0,0,1,79.625,88.021Z" transform="translate(-52.287 -44.268)" fill="#fff56f"/>
            </g>
          </g>
          <g id="Grupo_134609" data-name="Grupo 134609">
            <path id="Trazado_193481" data-name="Trazado 193481" d="M50.211,8.872a1.136,1.136,0,0,0,1.4-.781c.024-.092,1.131-3.948,1.151-4.04a2.1,2.1,0,0,1,1.9-1.777H72.94A1.905,1.905,0,0,1,74.789,4.58l-9.233,25.1a1.907,1.907,0,0,0,1.74,2.548l5.041.1h.023a1.136,1.136,0,0,0,.022-2.273l-4.509-.09L76.945,5.3A4.185,4.185,0,0,0,72.94,0H54.666a4.321,4.321,0,0,0-4.111,3.526L49.43,7.467a1.137,1.137,0,0,0,.781,1.405Z" transform="translate(-40.484 0.001)"/>
            <path id="Trazado_193482" data-name="Trazado 193482" d="M94.645,62.431a5.765,5.765,0,0,0-4.777-2.674L87.224,59.7H87.2a1.136,1.136,0,0,0-.022,2.273l2.649.053c2.239-.045,4.139,2.474,3.161,4.561L74.1,103.729a2.017,2.017,0,0,1-1.566,1.132,1.658,1.658,0,0,1-1.589-1.66c-.149.2,1.227-8.553,1.218-8.663a1.137,1.137,0,1,0-2.249-.331c-.056.686-1.407,8.751-1.232,9.2a3.913,3.913,0,0,0,3.853,3.726,4.14,4.14,0,0,0,3.58-2.351L95.03,67.593a5.321,5.321,0,0,0-.385-5.162Z" transform="translate(-50.023 -29.545)"/>
            <path id="Trazado_193483" data-name="Trazado 193483" d="M52.422,70.917a1.136,1.136,0,1,0,2.249.331l2.159-14.68a1.906,1.906,0,0,0-1.874-2.17H37.346a3.254,3.254,0,0,1-3.166-4.264l7.258-25.425a1.137,1.137,0,1,0-2.186-.624L31.99,49.522a5.535,5.535,0,0,0,5.356,7.148H54.517Z" transform="translate(-31.763 -11.511)"/>
          </g>
        </g>
      </g>
    </g>
  </g>
</svg>
